<svg id="Layer_2" data-name="Layer 2" xmlns="http://www.w3.org/2000/svg" width="889.26" height="322.77" viewBox="0 0 889.26 322.77"><defs><style>.cls-1{fill:#2b2b2b;}.cls-2{fill:#fbc531;}.cls-3{fill:#cc8e35;}</style></defs><title>2019champs</title><path class="cls-1" d="M152.79,204.43v22.34H132.72V216.23a3.23,3.23,0,0,0-3.19-3.27h-35a3.23,3.23,0,0,0-3.19,3.27v75.56a3.23,3.23,0,0,0,3.19,3.27h35a3.23,3.23,0,0,0,3.19-3.27V281.25h20.07v22.34c0,7.63-6.05,14-13.38,14H84.61c-7.33,0-13.38-6.36-13.38-14V204.43c0-7.63,6.05-14,13.38-14h54.79C146.73,190.44,152.79,196.8,152.79,204.43Z" transform="translate(-71.23 -109.65)"/><path class="cls-1" d="M256.32,190.44V317.58H236.25V265.27h-41.1v52.31H175.08V190.44h20.07v52.31h41.1V190.44h20.07Z" transform="translate(-71.23 -109.65)"/><path class="cls-1" d="M341.21,287.79H303.62l-8.76,29.79h-21.5l39-127.14h20.07l39,127.14H350Zm-6.69-22.52L322.42,224.4l-12.11,40.87h24.21Z" transform="translate(-71.23 -109.65)"/><path class="cls-1" d="M494.76,317.58H474.69V223.86l-23.42,71.2H432l-23.42-71.2v93.72H388.51V190.44H418.3l23.42,74.1L465,190.44h29.79V317.58Z" transform="translate(-71.23 -109.65)"/><path class="cls-1" d="M601.16,204.43v54.12c0,7.63-6.05,14-13.38,14h-48.1v45H519.6V190.44h68.17C595.1,190.44,601.16,196.8,601.16,204.43ZM577.9,213H539.67V250H577.9a3.23,3.23,0,0,0,3.19-3.27V216.23A3.23,3.23,0,0,0,577.9,213Z" transform="translate(-71.23 -109.65)"/><path class="cls-1" d="M621.86,190.44h20.07V317.58H621.86V190.44Z" transform="translate(-71.23 -109.65)"/><path class="cls-1" d="M748.33,204.43v99.17c0,7.63-6.05,14-13.38,14H680.16c-7.33,0-13.38-6.36-13.38-14V204.43c0-7.63,6.05-14,13.38-14H735C742.28,190.44,748.33,196.8,748.33,204.43ZM725.08,213H690a3.23,3.23,0,0,0-3.19,3.27v75.56a3.23,3.23,0,0,0,3.19,3.27h35a3.23,3.23,0,0,0,3.19-3.27V216.23A3.23,3.23,0,0,0,725.08,213Z" transform="translate(-71.23 -109.65)"/><path class="cls-1" d="M854.41,190.44V317.58H831.47l-38.23-83.37v83.37H773.18V190.44H796l38.39,83.73V190.44h20.07Z" transform="translate(-71.23 -109.65)"/><path class="cls-1" d="M960.49,204.43v22.34H940.42V216.23a3.23,3.23,0,0,0-3.19-3.27H902.51a3.23,3.23,0,0,0-3.19,3.27v23.25a3.23,3.23,0,0,0,3.19,3.27h44.6c7.33,0,13.38,6.36,13.38,14v46.86c0,7.63-6.05,14-13.38,14H892.63c-7.33,0-13.38-6.36-13.38-14V281.25h20.07v10.53a3.23,3.23,0,0,0,3.19,3.27h34.72a3.23,3.23,0,0,0,3.19-3.27V268.54a3.23,3.23,0,0,0-3.19-3.27h-44.6c-7.33,0-13.38-6.36-13.38-14V204.43c0-7.63,6.05-14,13.38-14h54.48C954.44,190.44,960.49,196.8,960.49,204.43Z" transform="translate(-71.23 -109.65)"/><path class="cls-2" d="M351.12,116.72v50.07a7,7,0,0,1-6.9,7.06H316a7,7,0,0,1-6.9-7.06V116.72a7,7,0,0,1,6.9-7.06h28.27A7,7,0,0,1,351.12,116.72Zm-12,4.31H321a1.65,1.65,0,0,0-1.64,1.65v38.15a1.65,1.65,0,0,0,1.64,1.65h18.08a1.65,1.65,0,0,0,1.64-1.65V122.68A1.65,1.65,0,0,0,339.13,121Z" transform="translate(-71.23 -109.65)"/><path class="cls-2" d="M405.76,162.48v11.37H363.94V109.65h10.35v52.82h31.47Z" transform="translate(-71.23 -109.65)"/><path class="cls-2" d="M445.53,158.81H426.14l-4.52,15H410.53l20.13-64.19H441l20.13,64.19H450Zm-3.45-11.37-6.25-20.63-6.25,20.63h12.49Z" transform="translate(-71.23 -109.65)"/><path class="cls-2" d="M480.28,121v15h21.2v11.37h-21.2v15h31.55v11.37H469.93V109.65h41.91V121H480.28Z" transform="translate(-71.23 -109.65)"/><path class="cls-2" d="M589.89,116.72v23.66a7,7,0,0,1-6.9,7.06H560a1.65,1.65,0,0,0-1.64,1.65v13.39h21.2v-7h10.35v18.34H548V143.13a7,7,0,0,1,6.9-7.06h23a1.65,1.65,0,0,0,1.64-1.65V122.68a1.65,1.65,0,0,0-1.64-1.65H560a1.65,1.65,0,0,0-1.64,1.65V128H548V116.72a7,7,0,0,1,6.9-7.06H583A7,7,0,0,1,589.89,116.72Z" transform="translate(-71.23 -109.65)"/><path class="cls-2" d="M644.77,116.72v50.07a7,7,0,0,1-6.9,7.06H609.61a7,7,0,0,1-6.9-7.06V116.72a7,7,0,0,1,6.9-7.06h28.27A7,7,0,0,1,644.77,116.72Zm-12,4.31H614.7a1.65,1.65,0,0,0-1.64,1.65v38.15a1.65,1.65,0,0,0,1.64,1.65h18.08a1.65,1.65,0,0,0,1.64-1.65V122.68A1.65,1.65,0,0,0,632.78,121Z" transform="translate(-71.23 -109.65)"/><path class="cls-2" d="M657.59,109.65h10.35v64.19H657.59V109.65Z" transform="translate(-71.23 -109.65)"/><path class="cls-2" d="M722.67,116.72v50.07a7,7,0,0,1-6.9,7.06h-28.1a7,7,0,0,1-6.9-7.06V155.51h10.35v5.32a1.65,1.65,0,0,0,1.64,1.65h17.91a1.65,1.65,0,0,0,1.64-1.65V147.44H687.66a7,7,0,0,1-6.9-7.06V116.72a7,7,0,0,1,6.9-7.06h28.1A7,7,0,0,1,722.67,116.72Zm-10.35,6a1.65,1.65,0,0,0-1.64-1.65H692.76a1.65,1.65,0,0,0-1.64,1.65v11.74a1.65,1.65,0,0,0,1.64,1.65h19.56V122.68Z" transform="translate(-71.23 -109.65)"/><path class="cls-2" d="M211.83,337v22a3.09,3.09,0,0,1-3,3.1H196.38a3.09,3.09,0,0,1-3-3.1V337a3.09,3.09,0,0,1,3-3.1H208.8A3.09,3.09,0,0,1,211.83,337Zm-5.27,1.89h-7.94a0.72,0.72,0,0,0-.72.73v16.76a0.72,0.72,0,0,0,.72.73h7.94a0.72,0.72,0,0,0,.72-0.73V339.66A0.72,0.72,0,0,0,206.56,338.94Z" transform="translate(-71.23 -109.65)"/><path class="cls-2" d="M259.36,338.94h-6.93v23.2h-4.55v-23.2H241v-5h18.4v5Z" transform="translate(-71.23 -109.65)"/><path class="cls-2" d="M305.12,338.94h-6.93v23.2h-4.55v-23.2h-6.93v-5h18.4v5Z" transform="translate(-71.23 -109.65)"/><path class="cls-2" d="M344.25,355.53h-8.52l-2,6.61h-4.87l8.84-28.2h4.55l8.84,28.2h-4.87Zm-1.52-5L340,341.47l-2.74,9.06h5.48Z" transform="translate(-71.23 -109.65)"/><path class="cls-2" d="M404,333.94l-4.91,28.2h-5.05L390.3,347.8l-3.79,14.34h-5.05l-4.91-28.2h4.69l3.36,19.3,3.32-14.3h4.73L396,353.2l3.36-19.26H404Z" transform="translate(-71.23 -109.65)"/><path class="cls-2" d="M444.47,355.53H436l-2,6.61H429.1l8.84-28.2h4.55l8.84,28.2h-4.87Zm-1.52-5-2.74-9.06-2.74,9.06H443Z" transform="translate(-71.23 -109.65)"/><path class="cls-2" d="M607.13,333.94v28.2h-4.55v-11.6h-9.31v11.6h-4.55v-28.2h4.55v11.6h9.31v-11.6h4.55Z" transform="translate(-71.23 -109.65)"/><path class="cls-2" d="M656.5,337v22a3.09,3.09,0,0,1-3,3.1H641.05a3.09,3.09,0,0,1-3-3.1V337a3.09,3.09,0,0,1,3-3.1h12.41A3.09,3.09,0,0,1,656.5,337Zm-5.27,1.89h-7.94a0.72,0.72,0,0,0-.72.73v16.76a0.72,0.72,0,0,0,.72.73h7.94a0.72,0.72,0,0,0,.72-0.73V339.66A0.72,0.72,0,0,0,651.23,338.94Z" transform="translate(-71.23 -109.65)"/><path class="cls-2" d="M705.8,333.94v28.2h-5.2l-8.66-18.49v18.49H687.4v-28.2h5.16l8.7,18.57V333.94h4.55Z" transform="translate(-71.23 -109.65)"/><path class="cls-2" d="M755.17,337v22a3.09,3.09,0,0,1-3,3.1H739.73a3.09,3.09,0,0,1-3-3.1V337a3.09,3.09,0,0,1,3-3.1h12.41A3.09,3.09,0,0,1,755.17,337Zm-5.27,1.89H742a0.72,0.72,0,0,0-.72.73v16.76a0.72,0.72,0,0,0,.72.73h7.94a0.72,0.72,0,0,0,.72-0.73V339.66A0.72,0.72,0,0,0,749.9,338.94Z" transform="translate(-71.23 -109.65)"/><path class="cls-2" d="M804.47,337v9.14a2.65,2.65,0,0,1-1.8,2.66,2.65,2.65,0,0,1,1.8,2.66v10.63h-4.55v-10a0.66,0.66,0,0,0-.72-0.81h-8.59v10.8h-4.55v-28.2h15.37A3.09,3.09,0,0,1,804.47,337Zm-5.27,1.89h-8.59v7.41h8.59a0.66,0.66,0,0,0,.72-0.81v-5.88A0.72,0.72,0,0,0,799.2,338.94Z" transform="translate(-71.23 -109.65)"/><path class="cls-3" d="M482.86,351.17a9.53,9.53,0,0,0,7.19-9.23c0-.08,0-0.14,0-0.21h25.78V334.1l-31.32-.17a38,38,0,0,1,.22,4,9.52,9.52,0,0,1-9.2,9.51v55.62l40.56,29.31V422.28l-33.24-24.37V351.17Z" transform="translate(-71.23 -109.65)"/><path class="cls-2" d="M548.86,351.17a9.53,9.53,0,0,1-7.19-9.23c0-.08,0-0.14,0-0.21H515.89V334.1l31.32-.17a38,38,0,0,0-.22,4,9.52,9.52,0,0,0,9.2,9.51v55.62l-40.09,29.31V422.28l32.77-24.37V351.17Z" transform="translate(-71.23 -109.65)"/><polygon class="cls-2" points="447.86 239.74 447.78 250.43 458.56 250.42 458.56 260.65 430.62 260.67 430.61 250.44 441.39 250.43 441.39 239.74 418.94 239.76 418.96 284.67 441.82 300.65 441.82 287.22 430.63 279.49 430.63 271.36 458.57 271.34 458.58 279.47 447.4 287.22 447.41 300.64 470.25 284.82 470.22 239.73 447.86 239.74"/></svg>