<svg xmlns="http://www.w3.org/2000/svg" width="483.878" height="249.293" viewBox="0 0 483.878 249.293"><defs><style>.a{fill:#9c27b0;}.b{fill:#ce93d8;}</style></defs><g transform="translate(-0.059)"><path d="M481.337,567a2.291,2.291,0,0,1,1.789.769l4.831,5.242a26.516,26.516,0,0,1-9.877,7.6,33.994,33.994,0,0,1-14.063,2.648,33.243,33.243,0,0,1-13.2-2.5,29.072,29.072,0,0,1-10-6.978,30.559,30.559,0,0,1-6.352-10.735,40.019,40.019,0,0,1-2.219-13.545,36.429,36.429,0,0,1,2.469-13.616A30.721,30.721,0,0,1,452.334,518.3a36.77,36.77,0,0,1,13.741-2.487,32.476,32.476,0,0,1,12.829,2.344,30.024,30.024,0,0,1,9.411,6.226l-4.1,5.69a3.706,3.706,0,0,1-.93.966,2.648,2.648,0,0,1-1.574.411,3.577,3.577,0,0,1-2.147-.823,26.647,26.647,0,0,0-2.773-1.789,22.639,22.639,0,0,0-4.258-1.789,24.6,24.6,0,0,0-15.083.805,18.981,18.981,0,0,0-6.71,4.634,21.292,21.292,0,0,0-4.384,7.318,28.106,28.106,0,0,0-1.575,9.68,28.9,28.9,0,0,0,1.575,9.894,21.741,21.741,0,0,0,4.258,7.3,18.2,18.2,0,0,0,6.334,4.544,19.68,19.68,0,0,0,7.837,1.575,34.011,34.011,0,0,0,4.545-.269,19.224,19.224,0,0,0,3.739-.859,16.675,16.675,0,0,0,3.239-1.521,20.325,20.325,0,0,0,3.024-2.308,4.327,4.327,0,0,1,.948-.662A2.433,2.433,0,0,1,481.337,567Z" transform="translate(-407.704 -453.871)"/><path d="M529.251,582.2h-9.483a4.133,4.133,0,0,1-2.63-.805,4.544,4.544,0,0,1-1.485-1.986l-4.92-13.491h-27.3l-4.92,13.455a4.312,4.312,0,0,1-1.431,1.914,4.025,4.025,0,0,1-2.612.859H465l25.89-65.915h12.525ZM486.578,557.31h21.005l-8.016-21.918q-.537-1.467-1.2-3.435t-1.306-4.312q-.644,2.326-1.253,4.33t-1.2,3.578Z" transform="translate(-381.848 -453.536)"/><path d="M517.186,558.99v23.26H504.93V516.263H526.4a37.578,37.578,0,0,1,11.451,1.557,22.044,22.044,0,0,1,7.98,4.33,16.963,16.963,0,0,1,4.652,6.656,24.781,24.781,0,0,1-.09,17.248,18.215,18.215,0,0,1-4.777,6.853,22.259,22.259,0,0,1-7.98,4.473,35.5,35.5,0,0,1-11.218,1.592H517.2Zm0-9.572H526.4a18.465,18.465,0,0,0,5.887-.841,10.932,10.932,0,0,0,4.151-2.415,9.912,9.912,0,0,0,2.469-3.829,14.656,14.656,0,0,0,.823-5.046,13.31,13.31,0,0,0-.823-4.8,9.468,9.468,0,0,0-2.469-3.579,10.966,10.966,0,0,0-4.151-2.308,19.484,19.484,0,0,0-5.886-.805h-9.215v23.653Z" transform="translate(-350.334 -453.515)"/><path d="M585.453,516.26v10.073H565.628v55.841H553.372V526.333H533.44V516.26Z" transform="translate(-327.834 -453.512)"/><path d="M623.874,582.175h-9.483a4.133,4.133,0,0,1-2.612-.805,4.547,4.547,0,0,1-1.485-1.986l-4.938-13.491h-27.3l-4.92,13.455a4.313,4.313,0,0,1-1.431,1.914,4.025,4.025,0,0,1-2.612.859H559.57l25.818-65.861h12.525ZM581.2,557.287h21.005l-8.016-21.918q-.555-1.467-1.217-3.435t-1.306-4.312q-.644,2.326-1.253,4.33t-1.2,3.578Z" transform="translate(-307.211 -453.512)"/><path d="M612.43,582.175H600.12V516.26h12.31Z" transform="translate(-275.209 -453.512)"/><path d="M623.1,516.332a3.2,3.2,0,0,1,.984.268,3.333,3.333,0,0,1,.841.591,9.628,9.628,0,0,1,.913,1.02l34.6,44.1q-.179-1.592-.251-3.131a28.234,28.234,0,0,1,0-2.845V516.26h10.735v65.915h-6.334a5.62,5.62,0,0,1-2.415-.447,5.368,5.368,0,0,1-1.789-1.646l-34.55-43.889q.143,1.467.2,2.9t0,2.612v40.472H615.3V516.26h6.423a11.378,11.378,0,0,1,1.378.071Z" transform="translate(-263.228 -453.512)"/><path d="M691.32,528.645a3.4,3.4,0,0,1-1.163,1.414,2.934,2.934,0,0,1-1.575.411,3.989,3.989,0,0,1-2.058-.7q-1.145-.7-2.684-1.575a22.157,22.157,0,0,0-3.578-1.574,15.228,15.228,0,0,0-4.9-.716,14.317,14.317,0,0,0-4.437.608,9.4,9.4,0,0,0-3.185,1.789,6.837,6.837,0,0,0-1.932,2.612,8.622,8.622,0,0,0-.644,3.346,5.815,5.815,0,0,0,1.306,3.883,10.845,10.845,0,0,0,3.435,2.648,31.958,31.958,0,0,0,4.885,1.95q2.738.859,5.582,1.789a53.639,53.639,0,0,1,5.582,2.273,19.3,19.3,0,0,1,4.885,3.274,14.87,14.87,0,0,1,3.435,4.849,16.837,16.837,0,0,1,1.306,6.978,22.742,22.742,0,0,1-1.521,8.374,19.287,19.287,0,0,1-4.473,6.8,21.02,21.02,0,0,1-7.157,4.563,26.431,26.431,0,0,1-9.716,1.664,31.274,31.274,0,0,1-6.191-.608,32.648,32.648,0,0,1-5.851-1.789,30.53,30.53,0,0,1-5.242-2.737,25.734,25.734,0,0,1-4.348-3.579l3.578-5.886a4.507,4.507,0,0,1,1.217-1.073,2.953,2.953,0,0,1,1.575-.43,4.348,4.348,0,0,1,2.469.93q1.324.93,3.131,2.075a23.854,23.854,0,0,0,4.24,2.075,16.371,16.371,0,0,0,5.851.93,12.023,12.023,0,0,0,8.123-2.487,8.947,8.947,0,0,0,2.863-7.157,6.638,6.638,0,0,0-1.306-4.24,10.5,10.5,0,0,0-3.435-2.755,25.767,25.767,0,0,0-4.885-1.9q-2.738-.77-5.564-1.682a48.1,48.1,0,0,1-5.564-2.183,18,18,0,0,1-4.884-3.328,15.137,15.137,0,0,1-3.435-5.135,19.535,19.535,0,0,1-1.306-7.586,18.143,18.143,0,0,1,5.636-13.079,20.715,20.715,0,0,1,6.763-4.24,24.615,24.615,0,0,1,9.161-1.593,30.774,30.774,0,0,1,10.735,1.789,24.3,24.3,0,0,1,8.391,5.1Z" transform="translate(-234.991 -453.837)"/><path d="M467.657,611.873a2.29,2.29,0,0,1,1.789.769l4.831,5.242a26.513,26.513,0,0,1-9.876,7.6,34,34,0,0,1-14.063,2.648,33.242,33.242,0,0,1-13.2-2.5,29.112,29.112,0,0,1-10-6.978,30.561,30.561,0,0,1-6.352-10.735,40.009,40.009,0,0,1-2.219-13.544,36.41,36.41,0,0,1,2.469-13.616,30.721,30.721,0,0,1,17.624-17.588,36.768,36.768,0,0,1,13.741-2.487,32.513,32.513,0,0,1,12.829,2.344,30.023,30.023,0,0,1,9.411,6.226l-4.1,5.708a3.753,3.753,0,0,1-.93.966,2.648,2.648,0,0,1-1.575.411,3.578,3.578,0,0,1-2.147-.823,26.822,26.822,0,0,0-2.773-1.789,22.65,22.65,0,0,0-4.258-1.789,24.619,24.619,0,0,0-15.083.805,19.02,19.02,0,0,0-6.71,4.634,21.31,21.31,0,0,0-4.384,7.318,28.108,28.108,0,0,0-1.574,9.68,28.9,28.9,0,0,0,1.575,9.894,21.738,21.738,0,0,0,4.258,7.3,18.216,18.216,0,0,0,6.334,4.545,19.68,19.68,0,0,0,7.837,1.575,33.7,33.7,0,0,0,4.545-.269,19.224,19.224,0,0,0,3.739-.859,16.681,16.681,0,0,0,3.238-1.521,20.418,20.418,0,0,0,3.024-2.308,4.333,4.333,0,0,1,.948-.662A2.415,2.415,0,0,1,467.657,611.873Z" transform="translate(-418.5 -418.458)"/><path d="M519.625,594.438a36.573,36.573,0,0,1-2.415,13.419,31.85,31.85,0,0,1-6.8,10.735,30.759,30.759,0,0,1-10.538,7.05,38.039,38.039,0,0,1-27.286,0,30.955,30.955,0,0,1-10.574-7.049,31.6,31.6,0,0,1-6.817-10.735,38.5,38.5,0,0,1,0-26.838,31.6,31.6,0,0,1,6.817-10.735,30.9,30.9,0,0,1,10.574-7.05,35.661,35.661,0,0,1,13.652-2.523,35.243,35.243,0,0,1,13.634,2.559,31.169,31.169,0,0,1,10.556,7.085,31.562,31.562,0,0,1,6.8,10.735,36.568,36.568,0,0,1,2.4,13.348Zm-12.524,0a30.688,30.688,0,0,0-1.431-9.733,20.6,20.6,0,0,0-4.187-7.372,17.765,17.765,0,0,0-6.548-4.6,24.476,24.476,0,0,0-17.391,0,17.892,17.892,0,0,0-6.584,4.6,20.649,20.649,0,0,0-4.169,7.318,33.192,33.192,0,0,0,0,19.467,20.4,20.4,0,0,0,4.169,7.3,18.018,18.018,0,0,0,6.584,4.58,24.476,24.476,0,0,0,17.391,0,17.893,17.893,0,0,0,6.548-4.58,20.33,20.33,0,0,0,4.115-7.247,30.686,30.686,0,0,0,1.449-9.733Z" transform="translate(-391.491 -418.433)"/><path d="M530.088,602.739q.662,1.575,1.306,3.167.626-1.646,1.324-3.238t1.449-3.06l19.467-36.518a4.991,4.991,0,0,1,.751-1.091,2.29,2.29,0,0,1,.859-.59,3.81,3.81,0,0,1,1.074-.233h10.664V627.09H556.246V581.913a21.669,21.669,0,0,1,.2-2.881l-19.86,37.323a5.368,5.368,0,0,1-1.789,1.986,4.6,4.6,0,0,1-2.559.7h-1.682a4.6,4.6,0,0,1-2.559-.7,5.369,5.369,0,0,1-1.789-1.986L506,578.782q.179,1.5.251,2.934V627.09H495.52V561.14h10.664a3.811,3.811,0,0,1,1.074.233,2.5,2.5,0,0,1,.895.59,4.58,4.58,0,0,1,.769,1.091L528.6,599.662A33.18,33.18,0,0,1,530.088,602.739Z" transform="translate(-357.761 -418.092)"/><path d="M577.47,602.739q.662,1.575,1.306,3.167.644-1.646,1.324-3.238t1.467-3.06l19.52-36.518a5.061,5.061,0,0,1,.752-1.091,2.29,2.29,0,0,1,.859-.591,3.826,3.826,0,0,1,1.073-.233h10.664V627.09H603.7V581.913a21.679,21.679,0,0,1,.2-2.881l-19.932,37.323a5.26,5.26,0,0,1-1.789,1.986,4.6,4.6,0,0,1-2.558.7h-1.664a4.6,4.6,0,0,1-2.558-.7,5.367,5.367,0,0,1-1.789-1.986l-20.2-37.574q.179,1.5.25,2.934V627.09H542.92V561.14h10.664a3.825,3.825,0,0,1,1.074.233,2.5,2.5,0,0,1,.895.591,4.64,4.64,0,0,1,.77,1.091L576,599.662Q576.807,601.165,577.47,602.739Z" transform="translate(-320.352 -418.092)"/><path d="M603.43,627.09H591.12V561.14h12.31Z" transform="translate(-282.312 -418.092)"/><path d="M655.222,561.14v10.073H635.4V627.09H623.142V571.213H603.21V561.14Z" transform="translate(-272.77 -418.092)"/><path d="M678.2,561.14v9.751H648.985v18.286h23.027v9.429H648.985V617.25H678.2v9.841H636.64V561.14h41.581Z" transform="translate(-246.387 -418.092)"/><path d="M707.3,561.14v9.751H678.156v18.286h23.027v9.429H678.156V617.25H707.3v9.841H665.81V561.14Z" transform="translate(-223.365 -418.092)"/><path class="a" d="M462.99,610.639a1.319,1.319,0,0,1-.322.376.715.715,0,0,1-.447.125,1.163,1.163,0,0,1-.68-.286,10.756,10.756,0,0,0-.966-.644,7.823,7.823,0,0,0-1.414-.644,6.068,6.068,0,0,0-2-.286,5.87,5.87,0,0,0-1.95.3,4.114,4.114,0,0,0-1.414.805,3.309,3.309,0,0,0-.859,1.2,3.813,3.813,0,0,0-.286,1.485,2.737,2.737,0,0,0,.5,1.7,4.313,4.313,0,0,0,1.324,1.145,10.182,10.182,0,0,0,1.789.823l2.147.716q1.091.376,2.147.841a7.551,7.551,0,0,1,1.789,1.181,5.37,5.37,0,0,1,1.324,1.789,5.832,5.832,0,0,1,.5,2.541,8.215,8.215,0,0,1-.537,3.006,6.892,6.892,0,0,1-1.593,2.434,7.448,7.448,0,0,1-2.559,1.628,9.433,9.433,0,0,1-3.453.591,10.557,10.557,0,0,1-4.312-.859,10.128,10.128,0,0,1-3.328-2.326l.948-1.557a1.221,1.221,0,0,1,.34-.322.77.77,0,0,1,.429-.125,1.359,1.359,0,0,1,.823.376,13.474,13.474,0,0,0,1.145.841,8.744,8.744,0,0,0,1.664.841,6.605,6.605,0,0,0,2.38.376,6.275,6.275,0,0,0,2.093-.322,4.456,4.456,0,0,0,1.557-.912,3.936,3.936,0,0,0,.984-1.4,4.726,4.726,0,0,0,.34-1.789,3.042,3.042,0,0,0-.5-1.789,4.132,4.132,0,0,0-1.324-1.181,9.2,9.2,0,0,0-1.789-.805l-2.147-.68a21.306,21.306,0,0,1-2.147-.805,6.939,6.939,0,0,1-1.789-1.2,5.368,5.368,0,0,1-1.324-1.789,6.674,6.674,0,0,1,1.449-7.354,7.155,7.155,0,0,1,2.362-1.5,8.624,8.624,0,0,1,3.22-.555,10.31,10.31,0,0,1,3.722.644,8.557,8.557,0,0,1,2.934,1.789Z" transform="translate(-394.957 -382.191)"/><path class="a" d="M477.333,606.74v2.773H469.46v21.6h-3.292v-21.6H458.26V606.74Z" transform="translate(-387.167 -382.104)"/><path class="a" d="M480.428,628.487a6.8,6.8,0,0,0,2.7-.519,5.673,5.673,0,0,0,2.022-1.431,6.224,6.224,0,0,0,1.252-2.2,8.625,8.625,0,0,0,.43-2.809v-14.8h3.274v14.8a11.112,11.112,0,0,1-.662,3.9,9.07,9.07,0,0,1-1.914,3.113,8.751,8.751,0,0,1-3.059,2.058,11.308,11.308,0,0,1-8.087,0,8.823,8.823,0,0,1-3.06-2.058,8.945,8.945,0,0,1-1.932-3.113,11.111,11.111,0,0,1-.662-3.9v-14.8H474v14.8a8.626,8.626,0,0,0,.429,2.809,6.209,6.209,0,0,0,1.253,2.2,5.747,5.747,0,0,0,2.022,1.431A6.768,6.768,0,0,0,480.428,628.487Z" transform="translate(-377.326 -382.112)"/><path class="a" d="M505.851,618.925a13.708,13.708,0,0,1-.877,4.974,10.735,10.735,0,0,1-6.244,6.316,13.191,13.191,0,0,1-4.9.877H484.72V606.74h9.107a13.185,13.185,0,0,1,4.9.877,10.861,10.861,0,0,1,3.793,2.487,11.112,11.112,0,0,1,2.451,3.847A13.721,13.721,0,0,1,505.851,618.925Zm-3.382,0a12.254,12.254,0,0,0-.608-4.008,8.48,8.48,0,0,0-1.789-2.988,7.389,7.389,0,0,0-2.72-1.789,9.392,9.392,0,0,0-3.578-.644h-5.8v19.019h5.8a9.391,9.391,0,0,0,3.579-.644,7.422,7.422,0,0,0,2.719-1.789,8.392,8.392,0,0,0,1.789-2.988,12.258,12.258,0,0,0,.608-4.169Z" transform="translate(-366.284 -382.104)"/><path class="a" d="M514.065,606.74v2.684h-11.7v8.087h9.465v2.576h-9.465v8.32h11.7v2.684H499V606.74h15.012Z" transform="translate(-355.014 -382.104)"/><path class="a" d="M512.416,606.85a1.685,1.685,0,0,1,.483.447L527,625.654V606.742h2.9v24.351h-1.664a1.412,1.412,0,0,1-.662-.143,1.644,1.644,0,0,1-.519-.465l-14.081-18.339v18.948H510.09V606.742h1.628a1.487,1.487,0,0,1,.7.107Z" transform="translate(-346.262 -382.106)"/><path class="a" d="M542.123,606.74v2.773H534.25v21.6h-3.292v-21.6H523.05V606.74h19.073Z" transform="translate(-336.034 -382.104)"/><path class="a" d="M549.052,610.639a1.325,1.325,0,0,1-.322.376.733.733,0,0,1-.447.125,1.164,1.164,0,0,1-.662-.286,11.049,11.049,0,0,0-.966-.644,7.818,7.818,0,0,0-1.413-.644,6.085,6.085,0,0,0-2-.286,5.885,5.885,0,0,0-1.95.3,4.131,4.131,0,0,0-1.413.805,3.309,3.309,0,0,0-.859,1.2,3.793,3.793,0,0,0-.286,1.485,2.755,2.755,0,0,0,.5,1.7,4.334,4.334,0,0,0,1.324,1.145,10.125,10.125,0,0,0,1.789.823l2.147.716q1.092.376,2.147.841a7.556,7.556,0,0,1,1.789,1.181,5.369,5.369,0,0,1,1.324,1.789,5.832,5.832,0,0,1,.5,2.541,8.21,8.21,0,0,1-.537,3.006,6.891,6.891,0,0,1-1.592,2.434,7.446,7.446,0,0,1-2.559,1.628,9.451,9.451,0,0,1-3.453.591,10.555,10.555,0,0,1-4.312-.859,10.107,10.107,0,0,1-3.328-2.326l.948-1.557a1.221,1.221,0,0,1,.34-.322.769.769,0,0,1,.429-.125,1.359,1.359,0,0,1,.823.376,13.648,13.648,0,0,0,1.145.841,8.812,8.812,0,0,0,1.664.841,6.6,6.6,0,0,0,2.38.376,6.3,6.3,0,0,0,2.093-.322,4.456,4.456,0,0,0,1.557-.912,3.935,3.935,0,0,0,.984-1.4,4.689,4.689,0,0,0,.34-1.789,3.06,3.06,0,0,0-.5-1.789,4.15,4.15,0,0,0-1.324-1.181,9.207,9.207,0,0,0-1.789-.805l-2.147-.68a21.308,21.308,0,0,1-2.147-.805,7,7,0,0,1-1.789-1.2,5.475,5.475,0,0,1-1.324-1.789,6.674,6.674,0,0,1,1.449-7.354,7.049,7.049,0,0,1,2.362-1.5,8.627,8.627,0,0,1,3.221-.555,10.287,10.287,0,0,1,3.722.644,8.57,8.57,0,0,1,2.934,1.789Z" transform="translate(-327.021 -382.191)"/><path class="a" d="M558.341,606.59a6.658,6.658,0,0,1,2.451.43,6.349,6.349,0,0,1,1.914,1.145,5.37,5.37,0,0,1,1.27,1.664,5.154,5.154,0,0,1,.537,1.968l-1.879.376h-.161a.788.788,0,0,1-.411-.125.681.681,0,0,1-.286-.429,4.242,4.242,0,0,0-.376-.912,3.481,3.481,0,0,0-1.682-1.5,3.417,3.417,0,0,0-1.378-.25,4.073,4.073,0,0,0-1.521.268,3.4,3.4,0,0,0-1.163.752,3.346,3.346,0,0,0-.751,1.145,3.739,3.739,0,0,0-.269,1.413,4.429,4.429,0,0,0,.143,1.145,5.256,5.256,0,0,0,.429,1.091,7.378,7.378,0,0,0,.751,1.145,13.391,13.391,0,0,0,1.109,1.234l7,7.157a11.884,11.884,0,0,0,1.02-2.38,13.479,13.479,0,0,0,.519-2.5.859.859,0,0,1,.2-.519.607.607,0,0,1,.483-.179h1.789a13.563,13.563,0,0,1-2.344,7.371l5.1,5.171H568a2.252,2.252,0,0,1-.805-.125,2.077,2.077,0,0,1-.68-.5l-2.451-2.469a12.248,12.248,0,0,1-3.686,2.451,11.412,11.412,0,0,1-4.58.895,8.016,8.016,0,0,1-2.666-.465,7.282,7.282,0,0,1-2.344-1.342,6.7,6.7,0,0,1-1.664-2.129,6.244,6.244,0,0,1-.626-2.845,6.352,6.352,0,0,1,.394-2.254A7.386,7.386,0,0,1,550,620.51a8.605,8.605,0,0,1,1.682-1.61,11.091,11.091,0,0,1,2.129-1.217,10.27,10.27,0,0,1-1.539-2.541,6.911,6.911,0,0,1-.5-2.559,6.011,6.011,0,0,1,.447-2.326,5.5,5.5,0,0,1,1.306-1.9,6.155,6.155,0,0,1,2.057-1.27A7.532,7.532,0,0,1,558.341,606.59ZM551.6,624.482a4.312,4.312,0,0,0,1.485,3.364,4.6,4.6,0,0,0,1.521.877,5.225,5.225,0,0,0,1.789.3,8.071,8.071,0,0,0,3.417-.7,9.159,9.159,0,0,0,2.666-1.789l-7.157-7.264a7.388,7.388,0,0,0-2.72,2.326A5.171,5.171,0,0,0,551.6,624.482Z" transform="translate(-315.949 -382.222)"/><path class="a" d="M584.109,606.74v2.773h-7.873v21.6h-3.292v-21.6H565V606.74h19.073Z" transform="translate(-302.926 -382.104)"/><path class="a" d="M592.622,606.74v2.684h-11.7v8.087h9.465v2.576H580.92v8.32h11.7v2.684H577.61V606.74Z" transform="translate(-292.974 -382.104)"/><path class="a" d="M609.93,631.1H607.39a1.108,1.108,0,0,1-.716-.215,1.377,1.377,0,0,1-.411-.555l-2.272-5.886H593.058l-2.272,5.886a1.36,1.36,0,0,1-.411.537,1.074,1.074,0,0,1-.716.233H587.1l9.733-24.351h3.346Zm-15.96-9.036h9.053l-3.829-9.912a18.4,18.4,0,0,1-.734-2.29c-.125.465-.25.895-.358,1.288a8.741,8.741,0,0,1-.358,1.038Z" transform="translate(-285.484 -382.096)"/><path class="a" d="M618.917,626.185a.68.68,0,0,1,.5.215l1.288,1.413a10.412,10.412,0,0,1-3.579,2.7,12.345,12.345,0,0,1-5.135.966,12.094,12.094,0,0,1-4.777-.913,10.467,10.467,0,0,1-3.578-2.541,11.523,11.523,0,0,1-2.344-3.936,14.693,14.693,0,0,1-.823-5.046,13.834,13.834,0,0,1,.895-5.046,11.54,11.54,0,0,1,2.5-3.936,11.22,11.22,0,0,1,3.865-2.558,13.169,13.169,0,0,1,4.974-.913,11.094,11.094,0,0,1,8.087,3.1l-1.073,1.5a1.162,1.162,0,0,1-.268.286.753.753,0,0,1-.447.107.856.856,0,0,1-.465-.161l-.591-.394-.805-.519a7.129,7.129,0,0,0-1.091-.519,9.224,9.224,0,0,0-1.467-.394,10.1,10.1,0,0,0-1.914-.161,9.284,9.284,0,0,0-3.578.68,8.014,8.014,0,0,0-2.791,1.914,8.72,8.72,0,0,0-1.789,3.024,11.523,11.523,0,0,0-.662,3.99,11.74,11.74,0,0,0,.662,4.062,8.947,8.947,0,0,0,1.789,3.024,7.5,7.5,0,0,0,2.684,1.789,8.536,8.536,0,0,0,3.328.644,13.456,13.456,0,0,0,1.95-.125,8.143,8.143,0,0,0,1.61-.394,6.76,6.76,0,0,0,1.378-.68,10.721,10.721,0,0,0,1.288-1,.862.862,0,0,1,.375-.179Z" transform="translate(-274.933 -382.225)"/><path class="a" d="M633.935,631.109h-3.31V620.034h-13.2v11.075H614.2V606.74h3.221V617.6h13.115V606.74h3.31v24.351Z" transform="translate(-264.097 -382.104)"/><path class="a" d="M643.571,606.74v2.684h-11.7v8.087h9.465v2.576H631.87v8.32h11.7v2.684H628.56V606.74Z" transform="translate(-252.763 -382.104)"/><path class="a" d="M643.064,620.947V631.11H639.79V606.741h6.888a15.063,15.063,0,0,1,3.99.465,7.655,7.655,0,0,1,2.773,1.36,5.369,5.369,0,0,1,1.628,2.129,7.159,7.159,0,0,1,.519,2.791,7.032,7.032,0,0,1-.412,2.415A6.4,6.4,0,0,1,654,617.924a7.157,7.157,0,0,1-1.879,1.521,9.32,9.32,0,0,1-2.523.948,3.582,3.582,0,0,1,1.091,1.038l7.157,9.68h-2.916a1.449,1.449,0,0,1-1.324-.7l-6.316-8.7a1.788,1.788,0,0,0-.626-.591,2.271,2.271,0,0,0-1.02-.179h-2.576Zm0-2.4h3.453a8.4,8.4,0,0,0,2.541-.34,5.151,5.151,0,0,0,1.789-.984,4.082,4.082,0,0,0,1.109-1.521,4.99,4.99,0,0,0,.376-1.95,3.882,3.882,0,0,0-1.431-3.274,6.942,6.942,0,0,0-4.276-1.109h-3.578v9.2Z" transform="translate(-243.901 -382.105)"/><path class="a" d="M665.25,610.631a1.32,1.32,0,0,1-.322.376.734.734,0,0,1-.447.125,1.165,1.165,0,0,1-.68-.268,10.965,10.965,0,0,0-.966-.644,7.825,7.825,0,0,0-1.414-.644,6.081,6.081,0,0,0-2-.286,5.882,5.882,0,0,0-1.95.3,4.129,4.129,0,0,0-1.414.805,3.31,3.31,0,0,0-.859,1.2,3.793,3.793,0,0,0-.286,1.485,2.754,2.754,0,0,0,.5,1.7,4.333,4.333,0,0,0,1.324,1.145,10.134,10.134,0,0,0,1.789.823l2.147.716q1.091.376,2.147.841a7.555,7.555,0,0,1,1.789,1.181,5.366,5.366,0,0,1,1.324,1.789,5.834,5.834,0,0,1,.5,2.541,8.214,8.214,0,0,1-.537,3.006,6.889,6.889,0,0,1-1.592,2.433,7.444,7.444,0,0,1-2.559,1.628,9.448,9.448,0,0,1-3.453.59,10.553,10.553,0,0,1-4.312-.859,10.108,10.108,0,0,1-3.328-2.326l.948-1.557a1.217,1.217,0,0,1,.34-.322.77.77,0,0,1,.429-.125,1.36,1.36,0,0,1,.823.376,13.633,13.633,0,0,0,1.145.841,8.8,8.8,0,0,0,1.664.841,6.6,6.6,0,0,0,2.38.376,6.3,6.3,0,0,0,2.093-.322,4.458,4.458,0,0,0,1.557-.913,3.937,3.937,0,0,0,.984-1.4,4.692,4.692,0,0,0,.34-1.789,3.059,3.059,0,0,0-.5-1.789,4.153,4.153,0,0,0-1.324-1.181,9.2,9.2,0,0,0-1.789-.805l-2.147-.68a21.294,21.294,0,0,1-2.147-.805,7,7,0,0,1-1.789-1.2,5.476,5.476,0,0,1-1.324-1.789,6.674,6.674,0,0,1,1.449-7.354,7.053,7.053,0,0,1,2.362-1.5,8.622,8.622,0,0,1,3.221-.555,10.286,10.286,0,0,1,3.722.644,8.572,8.572,0,0,1,2.934,1.789Z" transform="translate(-235.33 -382.183)"/><circle cx="3.614" cy="3.614" r="3.614" transform="translate(196.41 20.612)"/><path d="M535.675,521.342a17.578,17.578,0,0,1-16.622-11.4,20.414,20.414,0,0,1-1.342-7.479,19.681,19.681,0,0,1,1.342-7.425,16.5,16.5,0,0,1,3.775-5.725,16.962,16.962,0,0,1,5.708-3.578,19.269,19.269,0,0,1,7.157-1.306h8.946a19.684,19.684,0,0,1,7.354,1.324,16.389,16.389,0,0,1,9.447,9.447,19.767,19.767,0,0,1,1.324,7.354,20.429,20.429,0,0,1-1.342,7.479,17.891,17.891,0,0,1-3.775,5.976,17.7,17.7,0,0,1-5.726,3.972,17.893,17.893,0,0,1-7.282,1.449h-8.946Zm8.946-6.459a11.77,11.77,0,0,0,4.688-.912,11.058,11.058,0,0,0,6.1-6.37,13.291,13.291,0,0,0,.859-4.831,13.1,13.1,0,0,0-.859-4.813,10.879,10.879,0,0,0-6.1-6.262,12.075,12.075,0,0,0-4.688-.895h-8.946a11.753,11.753,0,0,0-4.6.895,10.894,10.894,0,0,0-3.578,2.469,11.361,11.361,0,0,0-2.4,3.775,13.04,13.04,0,0,0-.859,4.831,13.274,13.274,0,0,0,.859,4.831,11.5,11.5,0,0,0,2.4,3.847,11.02,11.02,0,0,0,3.578,2.523,11.448,11.448,0,0,0,4.6.913Z" transform="translate(-340.249 -478.634)"/><path d="M545,521.381v-37h6.459v30.542h10.055l-1,6.459Z" transform="translate(-318.71 -478.672)"/><path d="M573,521.381v-37h31.079v6.477H579.352V514.94h24.727V521.4H573Zm12.525-16.1V499.91h17.212v5.368Z" transform="translate(-296.612 -478.672)"/><path class="b" d="M557.6,496.707a41.955,41.955,0,0,1-.215-5.6,53.366,53.366,0,0,1,.34-5.547l.143-1.36,1.127.716c1.288.823,2.559,1.664,3.793,2.594a37.325,37.325,0,0,1,3.578,2.952,37.343,37.343,0,0,1-4.241-1.879c-1.378-.7-2.7-1.449-4.008-2.236l1.27-.644c-.125,1.789-.34,3.686-.608,5.529a41.976,41.976,0,0,1-1.181,5.475Z" transform="translate(-308.947 -478.814)"/><path class="b" d="M565.662,505.2a32.206,32.206,0,0,1-4.312,2.326,46.3,46.3,0,0,1-4.509,1.789l-1.181.412v-1.217a28.965,28.965,0,0,1,.34-3.918,27.465,27.465,0,0,1,.751-3.9,27.474,27.474,0,0,1,.5,3.936,26.022,26.022,0,0,1,0,3.918l-1.127-.805c1.5-.59,3.042-1.091,4.6-1.557A32.215,32.215,0,0,1,565.662,505.2Z" transform="translate(-310.297 -465.8)"/><path class="b" d="M569.65,493.16a31.815,31.815,0,0,1,4.008,2.755,43.662,43.662,0,0,1,3.578,3.149l.823.787-.966.555c-1.109.644-2.254,1.235-3.435,1.789a26.627,26.627,0,0,1-3.578,1.413,26.666,26.666,0,0,1,3.006-2.487c1.038-.769,2.129-1.467,3.221-2.129l-.143,1.324c-1.2-1.074-2.344-2.2-3.453-3.364A31.839,31.839,0,0,1,569.65,493.16Z" transform="translate(-299.256 -471.743)"/><path class="a" d="M574.459,495.09a5.368,5.368,0,0,0-2.541-1.539,7.155,7.155,0,0,0-2.863-.179,16.1,16.1,0,0,0-5.511,1.789,40.56,40.56,0,0,0-5.064,3.2c-.823.59-1.628,1.181-2.415,1.789s-1.557,1.288-2.362,1.932l-1.5-2.559a7.319,7.319,0,0,1,4.241-.143,11.862,11.862,0,0,1,3.578,1.5c.537.322,1.038.662,1.521,1.02s.984.769,1.36,1.074a12.081,12.081,0,0,0,2.648,1.628,7.165,7.165,0,0,0,1.449.5,9.433,9.433,0,0,0,1.521.215,13.484,13.484,0,0,0,3.2-.233,11.04,11.04,0,0,0,3.078-1.109,9.8,9.8,0,0,0,1.378-.93,10.15,10.15,0,0,0,1.234-1.181,10.361,10.361,0,0,1-.966,1.449,8.244,8.244,0,0,1-1.252,1.235,10.468,10.468,0,0,1-3.113,1.789,12.422,12.422,0,0,1-3.578.733,11.126,11.126,0,0,1-1.879,0,9.736,9.736,0,0,1-1.789-.376,14.317,14.317,0,0,1-3.382-1.574l-1.413-.948a15.132,15.132,0,0,0-1.378-.787,6.978,6.978,0,0,0-5.368-.948l-9.143,3.793,7.64-6.352c.805-.68,1.646-1.342,2.487-1.968s1.789-1.252,2.594-1.789a32.5,32.5,0,0,1,5.708-3.006,15.3,15.3,0,0,1,6.459-1.2,7.872,7.872,0,0,1,3.221.895A5.082,5.082,0,0,1,574.459,495.09Z" transform="translate(-319.381 -472.725)"/><path class="a" d="M563.547,508.458A9.053,9.053,0,0,1,560.72,502a11.841,11.841,0,0,1,.572-3.686,14.715,14.715,0,0,1,1.61-3.346,18.812,18.812,0,0,1,2.219-2.9,31.871,31.871,0,0,1,2.576-2.523,26.382,26.382,0,0,1,2.827-2.183c1.038-.68,1.95-1.342,2.97-1.95l6.835-4.223-4.8,6.405a4.67,4.67,0,0,0-.823,2.111,10.926,10.926,0,0,0,0,2.648,17.618,17.618,0,0,0,.5,2.773c.107.465.268.913.394,1.485a15.75,15.75,0,0,1,.286,1.628,12.774,12.774,0,0,1-.3,4.9,9.788,9.788,0,0,1-.537,1.557,7.641,7.641,0,0,1-1.914,2.648,6.619,6.619,0,0,1-1.324.894,8.117,8.117,0,0,1-1.467.537,7.157,7.157,0,0,0,3.328-4.562,12.347,12.347,0,0,0,0-5.582,13.353,13.353,0,0,0-.394-1.342l-.5-1.413a20.37,20.37,0,0,1-.787-3.167,11.539,11.539,0,0,1,0-3.417,7.623,7.623,0,0,1,1.324-3.578L575.3,487.9c-.948.608-1.914,1.163-2.827,1.789s-1.789,1.288-2.684,1.968a26.188,26.188,0,0,0-4.688,4.562,12.292,12.292,0,0,0-2.63,5.743,9.245,9.245,0,0,0,.089,3.238A9.485,9.485,0,0,0,563.547,508.458Z" transform="translate(-306.304 -481.19)"/><path class="a" d="M566.054,496.729a7.6,7.6,0,0,1,6.906.322,9.2,9.2,0,0,1,2.791,2.487,14.438,14.438,0,0,1,1.682,3.256,16.167,16.167,0,0,1,.537,1.789c.125.644.286,1.163.376,1.789a31.956,31.956,0,0,1,.447,3.578c0,1.163.107,2.344,0,3.578s0,2.308-.161,3.471l-.519,7.6-2.362-7.5a2.988,2.988,0,0,0-1.253-1.592,9.694,9.694,0,0,0-2.415-1.02c-.931-.286-1.879-.447-3.024-.787a13.276,13.276,0,0,1-1.557-.608,14.089,14.089,0,0,1-1.485-.787,12.38,12.38,0,0,1-4.491-4.8,9.569,9.569,0,0,1-1.038-3.077,7.277,7.277,0,0,1,0-1.61,7.522,7.522,0,0,1,.322-1.539,8.319,8.319,0,0,0,1.9,5.511,11.575,11.575,0,0,0,5.725,4.062c.465.143.877.25,1.36.358.859.179,1.932.3,3.006.537a10.145,10.145,0,0,1,3.31,1.253,6.28,6.28,0,0,1,1.521,1.306,5.812,5.812,0,0,1,1.02,1.789l-2.934.34c0-1.109.179-2.2.2-3.292s0-2.2,0-3.274a28.909,28.909,0,0,0-.751-6.387,13.08,13.08,0,0,0-.483-1.485,11.369,11.369,0,0,0-.626-1.414,7.516,7.516,0,0,0-1.879-2.308,6.656,6.656,0,0,0-2.773-1.4,8.624,8.624,0,0,0-3.346-.161Z" transform="translate(-306.521 -469.461)"/></g></svg>