<svg id="Layer_1" data-name="Layer 1" xmlns="http://www.w3.org/2000/svg" viewBox="0 0 137.27 133.38"><defs><style>.cls-1{fill:#ff9f1a;}</style></defs><title>elipse</title><path class="cls-1" d="M224.69,293.68a63.48,63.48,0,0,1,56-63,63.48,63.48,0,1,0,0,126.05A63.48,63.48,0,0,1,224.69,293.68Z" transform="translate(-209.72 -229.5)"/><path d="M235.38,312.53s-18.16,24.14-9.74,33.88c9.47,6.05,31.84-10.79,31.84-10.79l10.79,2.63S226.17,372.73,212,360.1c-11.05-12.3,22.37-52.89,22.37-52.89l11.84-5Z" transform="translate(-209.72 -229.5)"/><path d="M295.37,255.1s23.42-17.89,34.21-9.47-17.1,40.26-17.1,40.26l8.16,2.37s36.31-40.26,23.68-57.1c-14.47-9.47-56.84,24.73-56.84,24.73" transform="translate(-209.72 -229.5)"/><path d="M278.14,249.71a45.4,45.4,0,0,0-10.78,89.49c10.64-7.84,26.22-20.08,32.22-28.58-1.54,9.34-13,21-23.42,29.82,0.65,0,1.31,0,2,0A45.39,45.39,0,1,0,278.14,249.71Z" transform="translate(-209.72 -229.5)"/></svg>