<svg id="Layer_1" data-name="Layer 1" xmlns="http://www.w3.org/2000/svg" viewBox="0 0 66.77 64.88"><defs><style>.cls-1{fill:#fff;}</style></defs><title>elipse-white</title><path class="cls-1" d="M-92.38,48A30.88,30.88,0,0,1-65.14,17.37a31.15,31.15,0,0,0-3.64-.22A30.88,30.88,0,0,0-99.66,48,30.88,30.88,0,0,0-68.78,78.91a31.15,31.15,0,0,0,3.64-.22A30.88,30.88,0,0,1-92.38,48Z" transform="translate(99.67 -16.81)"/><path class="cls-1" d="M-87.18,57.2S-96,68.95-91.92,73.68c4.61,2.94,15.49-5.25,15.49-5.25l5.25,1.28S-91.66,86.48-98.58,80.34c-5.38-6,10.88-25.73,10.88-25.73l5.76-2.43Z" transform="translate(99.67 -16.81)"/><path class="cls-1" d="M-58,29.26s11.39-8.7,16.64-4.61-8.32,19.58-8.32,19.58l4,1.15S-28,25.81-34.19,17.62c-7-4.61-27.65,12-27.65,12" transform="translate(99.67 -16.81)"/><path class="cls-1" d="M-66.38,26.64A22.08,22.08,0,0,0-88.46,48.72,22.09,22.09,0,0,0-71.62,70.17c5.17-3.81,12.76-9.77,15.67-13.9-0.75,4.55-6.34,10.21-11.39,14.51l1,0A22.08,22.08,0,0,0-44.3,48.72,22.08,22.08,0,0,0-66.38,26.64Z" transform="translate(99.67 -16.81)"/></svg>