<svg id="Layer_1" data-name="Layer 1" xmlns="http://www.w3.org/2000/svg" viewBox="0 0 358.55 264.74"><defs><style>.cls-1{fill:#ff9f1a;}</style></defs><title>elipse-big</title><path class="cls-1" d="M224.69,293.68a63.48,63.48,0,0,1,56-63,63.48,63.48,0,1,0,0,126.05A63.48,63.48,0,0,1,224.69,293.68Z" transform="translate(-97.32 -229.5)"/><path d="M235.38,312.53s-18.16,24.14-9.74,33.88c9.47,6.05,31.84-10.79,31.84-10.79l10.79,2.63S226.17,372.73,212,360.1c-11.05-12.3,22.37-52.89,22.37-52.89l11.84-5Z" transform="translate(-97.32 -229.5)"/><path d="M295.37,255.1s23.42-17.89,34.21-9.47-17.1,40.26-17.1,40.26l8.16,2.37s36.31-40.26,23.68-57.1c-14.47-9.47-56.84,24.73-56.84,24.73" transform="translate(-97.32 -229.5)"/><path d="M278.14,249.71a45.4,45.4,0,0,0-10.78,89.49c10.64-7.84,26.22-20.08,32.22-28.58-1.54,9.34-13,21-23.42,29.82,0.65,0,1.31,0,2,0A45.39,45.39,0,1,0,278.14,249.71Z" transform="translate(-97.32 -229.5)"/><path class="cls-1" d="M171.78,395h4.63v3.29a2.59,2.59,0,0,1-.77,2,3.18,3.18,0,0,1-2.3.77H166a3.15,3.15,0,0,1-2.28-.77,2.59,2.59,0,0,1-.77-2V380.72a2.55,2.55,0,0,1,.87-2,3.15,3.15,0,0,1,2.19-.72h7.27a3.18,3.18,0,0,1,2.21.72,2.55,2.55,0,0,1,.87,2V384h-4.63V381.6h-4.17v15.83h4.17V395Z" transform="translate(-97.32 -229.5)"/><path class="cls-1" d="M194.53,401h-4.82l5.84-23H205a3.52,3.52,0,0,0-2.42.93,2.79,2.79,0,0,0-1,1.56L206.89,401H202l-1.3-5.75h-4.89Zm2.1-9.18H200l-1.65-7.47Z" transform="translate(-97.32 -229.5)"/><path class="cls-1" d="M237.52,378v23h-4.61V387.63l-2.5,8.48h-3.1l-2.5-8.48V401h-4.61V378h4.61l4.05,9.66,4.05-9.66h4.61Z" transform="translate(-97.32 -229.5)"/><path class="cls-1" d="M264.21,387.84a2.45,2.45,0,0,0,0,3.31l0,7.12a2.61,2.61,0,0,1-.83,2,3.26,3.26,0,0,1-2.21.71H250.81V378h10.33a3.18,3.18,0,0,1,2.21.72,2.57,2.57,0,0,1,.83,2Zm-4.61-6.23h-4.14v6.11h4.14V381.6Zm-4.14,15.78h4.14v-6.09h-4.14v6.09Z" transform="translate(-97.32 -229.5)"/><path class="cls-1" d="M282.13,401H277.5V378h10.42a3.18,3.18,0,0,1,2.21.72,2.59,2.59,0,0,1,.83,2v7.76a2.65,2.65,0,0,1-.45,1.51,2.51,2.51,0,0,1-1.18,1l2.89,10h-4.7l-2.82-9.72h-2.57V401Zm0-13.31h4.23V381.6h-4.23v6.11Z" transform="translate(-97.32 -229.5)"/><path class="cls-1" d="M305.51,378h4.61v23h-4.61V378Z" transform="translate(-97.32 -229.5)"/><path class="cls-1" d="M336,378.7a2.55,2.55,0,0,1,.87,2v17.55a2.58,2.58,0,0,1-.77,2,3.17,3.17,0,0,1-2.3.77H323.42V378h10.33A3.18,3.18,0,0,1,336,378.7Zm-3.76,2.91h-4.14v15.83h4.14V381.6Z" transform="translate(-97.32 -229.5)"/><path class="cls-1" d="M358.91,384V381.6h-4.17v15.83h4.17v-4.95a2.68,2.68,0,0,0-.94-1.57,3.49,3.49,0,0,0-2.4-.92h8v8.28a2.58,2.58,0,0,1-.77,2,3.17,3.17,0,0,1-2.3.77h-7.31a3.15,3.15,0,0,1-2.28-.77,2.58,2.58,0,0,1-.77-2V380.72a2.55,2.55,0,0,1,.87-2,3.15,3.15,0,0,1,2.19-.72h7.27a3.18,3.18,0,0,1,2.21.72,2.55,2.55,0,0,1,.87,2V384h-4.63Z" transform="translate(-97.32 -229.5)"/><path class="cls-1" d="M389.62,378v3.6h-8.18v4.8h6V390h-6v7.42h8.18V401H376.84V378h12.79Z" transform="translate(-97.32 -229.5)"/><path d="M143.76,414.53V427H114.06v16.62H135.8v12.51H114.06v25.68h29.69v12.45H97.32V414.53h46.44Z" transform="translate(-97.32 -229.5)"/><path d="M185.14,473.34h16.81v11.4a8.73,8.73,0,0,1-2.78,6.84q-2.91,2.67-8.34,2.67H164.29q-5.37,0-8.28-2.67a8.73,8.73,0,0,1-2.78-6.84V424a8.62,8.62,0,0,1,3.16-7q2.9-2.5,8-2.5h26.41q5.12,0,8,2.5a8.62,8.62,0,0,1,3.16,7v11.4H185.14V427.1H170v54.75h15.16v-8.5Z" transform="translate(-97.32 -229.5)"/><path d="M231.58,417.7a9.69,9.69,0,0,0-3.54,5.45v58.64h29.38v12.45h-46V414.53h28.94A13.29,13.29,0,0,0,231.58,417.7Z" transform="translate(-97.32 -229.5)"/><path d="M266.9,414.53h16.74v79.71H266.9V414.53Z" transform="translate(-97.32 -229.5)"/><path d="M338.67,417a8.68,8.68,0,0,1,3,7l0.06,27.07a8.73,8.73,0,0,1-2.78,6.84q-2.91,2.67-8.28,2.67H309.92v25.13a10.05,10.05,0,0,0,3.48,5.39,13.51,13.51,0,0,0,8.84,3.11H293.12V414.53h37.53Q335.77,414.53,338.67,417ZM325,427.1H310v21.12h15V427.1Z" transform="translate(-97.32 -229.5)"/><path d="M352.51,448.05a4.54,4.54,0,0,1-1.26-3.5V424A8.89,8.89,0,0,1,354.4,417q2.9-2.44,8-2.45h26.41q5.12,0,8,2.45A8.79,8.79,0,0,1,400,424v11.4H383.15V427.1H368v13q22.56,11.5,26.85,13.79a12.1,12.1,0,0,1,4.17,3,6.88,6.88,0,0,1,.95,4.06v23.85a8.74,8.74,0,0,1-2.78,6.84q-2.91,2.67-8.34,2.67H362.3q-5.37,0-8.28-2.67a8.73,8.73,0,0,1-2.78-6.84v-11.4H368v8.5h15.16V463.06q-20.66-9.84-25.78-12.34A40,40,0,0,1,352.51,448.05Z" transform="translate(-97.32 -229.5)"/><path d="M455.87,414.53V427H426.18v16.62h21.73v12.51H426.18v25.68h29.69v12.45H409.43V414.53h46.44Z" transform="translate(-97.32 -229.5)"/></svg>