<?xml version="1.0" encoding="utf-8"?>
<!-- Generator: Adobe Illustrator 16.0.0, SVG Export Plug-In . SVG Version: 6.00 Build 0)  -->
<!DOCTYPE svg PUBLIC "-//W3C//DTD SVG 1.1//EN" "http://www.w3.org/Graphics/SVG/1.1/DTD/svg11.dtd">
<svg version="1.1" id="Layer_1" xmlns="http://www.w3.org/2000/svg" xmlns:xlink="http://www.w3.org/1999/xlink" x="0px" y="0px"
	 width="612px" height="600px" viewBox="0 0 612 600" enable-background="new 0 0 612 600" xml:space="preserve">
<title>frostbite</title>
<path fill="#48DBFB" d="M212.933,303.388c-13.552-9.825-29.598-15.63-46.299-16.75c1.926,18.095,6.756,35.762,14.304,52.322
	c13.837,4.613,27.301,10.275,40.276,16.938c3.015,9.858-0.087,20.568-7.905,27.29l-12.421,9.786
	c4.74-7.192,7.529-15.494,8.093-24.09c-6.55-3.89-13.66-6.746-21.079-8.47h-2.447c8.447,39.559,26.991,76.258,53.827,106.524
	c0,0-75.282-3.764-111.982-219.448c32.934,13.374,68.386,19.411,103.89,17.691l0,0c3.637,18.154,2.992,36.906-1.882,54.768
	c-2.041,6.774-6.914,12.334-13.363,15.244l-11.292,4.329C204.651,339.523,220.084,312.986,212.933,303.388z"/>
<path fill="#48DBFB" d="M405.844,303.388c13.805-9.907,30.098-15.772,47.051-16.938c-1.957,18.111-6.852,35.784-14.492,52.321
	c-14.019,4.615-27.67,10.277-40.84,16.938c-3.117,9.991,0.162,20.873,8.281,27.478l25.596,17.88l-16.938-25.784
	c-2.162-3.187-1.413-7.513,1.693-9.786c5.045-2.037,10.196-3.796,15.434-5.271h2.446c-8.661,39.675-27.541,76.396-54.768,106.524
	c0,0,75.282-3.764,111.605-219.636c-32.643,13.708-67.974,19.821-103.325,17.879l0,0c-3.707,18.148-3.063,36.917,1.883,54.768
	c2.124,6.85,7.146,12.422,13.738,15.244l28.043,12.422C431.251,347.428,399.256,312.986,405.844,303.388z"/>
<path fill="#130F40" d="M381.188,557.277c2.07-18.82,3.011-57.402,3.011-57.402l-25.031,57.402l-53.262-4.705l-53.263,4.517
	l-25.031-57.402c0,0,0.941,38.771,3.011,57.402c-12.045,3.388-49.122-34.065-49.122-34.065l12.986,40.465
	c0,0,15.997,43.852,25.031,35.006s86.387-21.832,86.387-21.832s77.353,13.175,86.386,21.832
	c9.034,8.658,25.032-35.006,25.032-35.006l12.986-40.465C430.311,523.023,393.233,560.665,381.188,557.277z"/>
<path fill="#130F40" d="M604.212,162.045l-58.72-75.283c0,50.627-9.034,58.344-9.034,58.344
	c-18.82,15.433-89.962,10.54-89.962,10.54v-8.845c35.383-25.22,100.125-85.822,112.923-116.123L515.003,5.646
	c-12.842-7.282-28.564-7.282-41.405,0C421.482,32,364.42,47.131,306.094,50.063l-0.188,0.452v-0.452
	c-58.34-2.99-115.403-18.185-167.503-44.604c-12.841-7.282-28.564-7.282-41.405,0L52.205,30.489
	c13.174,30.301,77.917,90.903,112.923,116.123v8.281c0,0-70.577,4.893-89.962-10.54c0,0-9.222-7.717-9.034-58.344l-58.72,75.282
	v32.936l105.772,201.757l68.883,126.662l-54.203-137.578L52.581,215.684c63.961,23.737,131.651,35.848,199.875,35.759l53.451-23.902
	v-0.81l0.188,0.433l53.262,24.278c68.099,0.751,135.784-10.657,199.874-33.689L483.948,387.14l-54.203,137.578l70.201-128.168
	l105.019-201.568L604.212,162.045z M268.265,204.58v-0.188l-32.371,16.938l-3.576-9.41c-1.352-3.822,0.65-8.016,4.472-9.368
	c0.74-0.262,1.519-0.403,2.304-0.419h28.419c0.727-0.043,1.351,0.511,1.394,1.237C268.935,203.861,268.688,204.328,268.265,204.58z
	 M379.494,212.108l-3.576,9.41l-32.371-16.938c-0.623-0.375-0.825-1.184-0.45-1.808c0.11-0.185,0.266-0.34,0.45-0.451h28.419
	c4.04-0.341,7.591,2.657,7.932,6.696C379.986,210.065,379.849,211.119,379.494,212.108z"/>
</svg>
