<svg id="Layer_1" data-name="Layer 1" xmlns="http://www.w3.org/2000/svg" viewBox="0 0 31.77 31.88"><defs><style>.cls-1{fill:#fff;}</style></defs><title>frostbite-white</title><path class="cls-1" d="M71.81,78.26a4.73,4.73,0,0,0-2.46-.89,9,9,0,0,0,.76,2.78,15.23,15.23,0,0,1,2.14.9,1.38,1.38,0,0,1-.42,1.45L71.16,83a2.64,2.64,0,0,0,.43-1.28,3.94,3.94,0,0,0-1.12-.45l-0.13,0A12.45,12.45,0,0,0,73.2,86.9s-4-.2-5.95-11.66a13,13,0,0,0,5.52.94h0a6.33,6.33,0,0,1-.1,2.91,1.3,1.3,0,0,1-.71.81l-0.6.23S72.19,78.77,71.81,78.26Z" transform="translate(-60.86 -62.14)"/><path class="cls-1" d="M82.1,78.26a4.86,4.86,0,0,1,2.5-.9,8.91,8.91,0,0,1-.77,2.78,15.65,15.65,0,0,0-2.17.9,1.36,1.36,0,0,0,.43,1.45l1.36,0.95-0.9-1.37a0.38,0.38,0,0,1,.09-0.52,7.94,7.94,0,0,1,.82-0.28l0.13,0a12.38,12.38,0,0,1-2.91,5.66s4-.2,5.93-11.67a12.42,12.42,0,0,1-5.49.95h0a6.23,6.23,0,0,0,.1,2.91,1.3,1.3,0,0,0,.73.81l1.49,0.66S81.71,78.77,82.1,78.26Z" transform="translate(-60.86 -62.14)"/><path class="cls-1" d="M80.75,91.75c0.11-1,.16-3.05.16-3.05l-1.33,3.05-2.83-.24-2.83.24L72.59,88.7s0.05,2.06.16,3.05c-0.64.18-2.61-1.81-2.61-1.81l0.69,2.15s0.85,2.33,1.33,1.86,4.59-1.16,4.59-1.16,4.11,0.7,4.59,1.16,1.33-1.86,1.33-1.86l0.69-2.15S81.39,91.93,80.75,91.75Z" transform="translate(-60.86 -62.14)"/><path class="cls-1" d="M67.85,62.43a2.23,2.23,0,0,0-2.2,0l-2.38,1.33c0.7,1.61,4.14,4.83,6,6.17v0.44s-3.75.26-4.78-.56c0,0-.49-0.41-0.48-3.1l-3.12,4,0,1.75,5.62,10.72,3.66,6.73-2.88-7.31-4-9a30.41,30.41,0,0,0,10.62,1.79l2.84-1.27V64.8A22.19,22.19,0,0,1,67.85,62.43ZM74.75,73l-1.72.9-0.19-.5a0.39,0.39,0,0,1,.36-0.52h1.51A0.07,0.07,0,0,1,74.75,73Z" transform="translate(-60.86 -62.14)"/><path class="cls-1" d="M92.59,70.75l-3.12-4c0,2.69-.48,3.1-0.48,3.1-1,.82-4.78.56-4.78,0.56V69.94c1.88-1.34,5.32-4.56,6-6.17l-2.38-1.33a2.23,2.23,0,0,0-2.2,0,22.19,22.19,0,0,1-8.9,2.36v9.41l2.84,1.27a30.41,30.41,0,0,0,10.62-1.79l-4,9-2.88,7.31L87,83.21,92.64,72.5ZM80.66,73.41l-0.19.5L78.75,73a0.07,0.07,0,0,1,0-.12H80.3A0.39,0.39,0,0,1,80.66,73.41Z" transform="translate(-60.86 -62.14)"/><polygon class="cls-1" points="15.89 2.65 12.34 6.52 15.89 12.06 18.14 7.9 15.89 2.65"/></svg>