<svg id="Layer_1" data-name="Layer 1" xmlns="http://www.w3.org/2000/svg" viewBox="0 0 254.61 167.4"><defs><style>.cls-1{fill:#fff;}.cls-2{fill:#130f40;}</style></defs><title>frostbite-big2</title><path class="cls-1" d="M480.18,210.21c-3.94-2.85-14.09-3.51-14.09-3.51a26.4,26.4,0,0,0,4.47,10.64s12.08,3,12.24,3.52c0.32,1.05,1.12,3.73-2.34,5.52l-3.76,1.94s3.5-4.27,2.39-4.86a29.89,29.89,0,0,0-6.4-1.78l-0.75-.16a44.41,44.41,0,0,0,16.61,21.71s-21,2.1-34.14-40.44a2.07,2.07,0,0,1,2-2.68l26.39,0.29a3.13,3.13,0,0,1,3,2.45,19.42,19.42,0,0,1-.68,10.55,6.19,6.19,0,0,1-4,3.07l-3.43.87S482.37,212.17,480.18,210.21Z" transform="translate(-454.3 -78.04)"/><path class="cls-1" d="M498.27,226.18h-4.94a0.09,0.09,0,0,0,0-.06v-0.07h0a0.69,0.69,0,0,1,0,.1l0,0.18-0.06.3c0,0.12-.06.27-0.09,0.44s-0.08.37-.12,0.6-0.09.49-.14,0.78l-0.19,1-0.23,1.24q-0.13.67-.29,1.48T491.85,234q-0.17,1-.39,2.09t-0.44,2.4h-7.79l6.18-31.73q1.82-6.28,6.62-6.28h15.23a6.14,6.14,0,0,1,5.27,3,9,9,0,0,1,1.37,6.82q-0.77,4.23-1.78,9.69a8.4,8.4,0,0,1-2.4,4.52,6,6,0,0,1-4.25,1.76h-2.85l6.13,12.33h-8.33ZM509,216.55l1.19-6.08a1.28,1.28,0,0,0-.21-0.92,0.83,0.83,0,0,0-.7-0.41h-12a0.8,0.8,0,0,0-.54.27,1.33,1.33,0,0,0-.37.67l-1.31,7.27h13A0.94,0.94,0,0,0,509,216.55Z" transform="translate(-454.3 -78.04)"/><path class="cls-1" d="M544.4,200.44a6.67,6.67,0,0,1,5.63,3,8.57,8.57,0,0,1,1.48,6.82,0.57,0.57,0,0,1,0,.11l-0.06.24c0,0.1-.05.26-0.09,0.47l-0.15.78L550.95,213l-0.33,1.62-0.43,2.16-0.55,2.76q-0.3,1.53-.69,3.44t-0.84,4.22q-0.46,2.32-1,5-1.85,6.31-7.16,6.31H523.84a6.72,6.72,0,0,1-5.71-3,8.73,8.73,0,0,1-1.52-6.82,1,1,0,0,1,0-.11c0-.06,0-0.14,0-0.24s0.05-.26.09-0.47,0.09-.47.16-0.78,0.15-.7.23-1.15,0.19-1,.32-1.62l0.43-2.16q0.25-1.22.56-2.76t0.69-3.44q0.37-1.9.84-4.22t1-5q2.06-6.31,7.18-6.31H543m-4.49,29.35a1,1,0,0,0,1-.94,0.44,0.44,0,0,1,0-.08l0-.2q0-.14.08-0.4c0-.17.08-0.38,0.13-0.64s0.11-.58.19-1,0.17-.84.28-1.35,0.23-1.11.36-1.79,0.28-1.45.46-2.32,0.37-1.82.58-2.88,0.46-2.23.71-3.51l0.85-4.22a1.35,1.35,0,0,0-.19-0.94,0.88,0.88,0,0,0-.79-0.4H529.57a1,1,0,0,0-1,.94,0.48,0.48,0,0,1,0,.09l0,0.2q0,0.14-.08.4t-0.13.64l-0.2,1-0.27,1.35-0.35,1.79q-0.2,1-.47,2.32t-0.58,2.88l-0.7,3.51-0.85,4.22a1.22,1.22,0,0,0,.23.94,0.91,0.91,0,0,0,.75.4h12.68Z" transform="translate(-454.3 -78.04)"/><path class="cls-1" d="M562.27,209.16a0.76,0.76,0,0,0-.56.24,1.34,1.34,0,0,0-.33.55,0.25,0.25,0,0,1,0,.09,1,1,0,0,0,0,.2l-0.07.41q0,0.27-.13.67l-0.2,1-0.28,1.39a1.35,1.35,0,0,0,.19.94,0.78,0.78,0,0,0,.68.4h11.39a5.73,5.73,0,0,1,5,3,9.16,9.16,0,0,1,1.16,6.83,0.48,0.48,0,0,1,0,.09l0,0.18-0.07.37c0,0.16-.07.36-0.13,0.61s-0.12.55-.19,0.92-0.16.8-.26,1.29L578,230q-0.2,1-.43,2.19a8.73,8.73,0,0,1-2.43,4.55,5.91,5.91,0,0,1-4.23,1.76H548a0.68,0.68,0,0,1,0-.1s0-.12,0-0.23l0.09-.44,0.15-.74q0.09-.45.21-1.11t0.29-1.55l0.41-2.06q0.23-1.16.51-2.61h20.14a1,1,0,0,0,.91-0.82,0.44,0.44,0,0,1,0-.08l0-.2c0-.09,0-0.23.08-0.41l0.14-.67,0.2-1q0.12-.6.26-1.39a1.08,1.08,0,0,0-.08-0.92,0.75,0.75,0,0,0-.67-0.41H559.32a5.78,5.78,0,0,1-5.05-2.91A9.12,9.12,0,0,1,553.1,214a0.45,0.45,0,0,1,0-.09l0-.2c0-.09.05-0.22,0.08-0.38l0.12-.61q0.07-.37.19-0.91t0.26-1.29q0.14-.75.34-1.72l0.46-2.19q2-6.16,6.64-6.16h23a0.75,0.75,0,0,1,0,.1s0,0.12,0,.23l-0.09.44q-0.06.28-.16,0.72T583.71,203q-0.13.64-.32,1.52l-0.43,2-0.55,2.6H562.27Z" transform="translate(-454.3 -78.04)"/><path class="cls-1" d="M595,209.1H584.63l1.75-8.67H601.5l2.42,8.67h-1.55l-5.12,29.4H589.8Z" transform="translate(-454.3 -78.04)"/><path class="cls-2" d="M630,212.39c-3.94-2.85-14.09-3.51-14.09-3.51a20.37,20.37,0,0,0,5,10.91s11.54,2.72,11.7,3.26c0.32,1.05.93,3.28-2.34,5.52l-9.84,6.31s9.58-8.64,8.47-9.23a29.89,29.89,0,0,0-6.4-1.78l-0.75-.16a44.41,44.41,0,0,0,16.61,21.71s-23.42.72-34.67-45l27.91-.2a4,4,0,0,1,4,3.43,37.09,37.09,0,0,1,.37,8.08,8.48,8.48,0,0,1-3.74,6.23,53.22,53.22,0,0,1-10.37,5S632.18,214.36,630,212.39Z" transform="translate(-454.3 -78.04)"/><path class="cls-2" d="M639.94,206.75q2-6.31,6.62-6.31h2L641,238.51h-7.46Z" transform="translate(-454.3 -78.04)"/><path class="cls-2" d="M659.89,209.1H649.51l1.75-8.67h27.81l-1.75,8.67H667.23l-5.12,29.4h-7.44Z" transform="translate(-454.3 -78.04)"/><path class="cls-2" d="M680.64,206.75q1.82-6.31,6.67-6.31h21.61l-1.66,8.72H688.61a0.82,0.82,0,0,0-.54.26,1.39,1.39,0,0,0-.4.68l-1,5h12.7l-1.59,8.69H685.06l-0.89,4.63a1.28,1.28,0,0,0,.21.94,0.83,0.83,0,0,0,.7.4h9.66v0h8.56q-0.75,4-1.66,8.69H683.16a6.24,6.24,0,0,1-5.34-3,8.91,8.91,0,0,1-1.39-6.82Z" transform="translate(-454.3 -78.04)"/><path class="cls-2" d="M508.29,183.88h5.21a2.2,2.2,0,0,1,1.81.87,2.35,2.35,0,0,1,.46,2v0.09l0,0.12,0,0.2-0.07.3a3.22,3.22,0,0,1-.4,1.08,4.14,4.14,0,0,1-.29.46,1.29,1.29,0,0,1-.41.37h0l-0.05,0-0.1,0-0.16.08-0.25.12,0,0,0.05,0,0.1,0.09,0.17,0.16a2.3,2.3,0,0,1,.39,1.82l0,0.07,0,0.11,0,0.18-0.06.26-0.09.37-0.12.48a2.34,2.34,0,0,1-2.28,1.87h-8.15v0l0-.06,0-.13,0-.21,0.07-.31,0.1-.44,0.13-.58,0.17-.74,0.21-.93,0.26-1.13,0.31-1.36,0.37-1.61,0.43-1.87A2.32,2.32,0,0,1,508.29,183.88Zm-1.19,8.68h4.5a0.28,0.28,0,0,0,.18-0.08,0.27,0.27,0,0,0,.1-0.2l0-.06,0-.09,0-.15,0.05-.21a0.78,0.78,0,0,0-.14-0.66,0.72,0.72,0,0,0-.61-0.29H507.5v0l0,0.06,0,0.13,0,0.21-0.07.31-0.1.43Zm1.3-5.82-0.32,1.46h4.11a0.76,0.76,0,0,0,.48-0.16,0.74,0.74,0,0,0,.27-0.43v0l0-.07,0-.13,0.06-.21,0.08-.32a0.34,0.34,0,0,0-.07-0.28,0.29,0.29,0,0,0-.24-0.12h-4.11a0.3,0.3,0,0,0-.18.08A0.41,0.41,0,0,0,508.4,186.74Z" transform="translate(-454.3 -78.04)"/><path class="cls-2" d="M525.69,183.88h0.7L525,190l-0.58,2.55h4.11a0.3,0.3,0,0,0,.3-0.24l1.33-5.82,0.59-2.58h2.56l-2.18,9.4a2.48,2.48,0,0,1-.81,1.34,2.13,2.13,0,0,1-1.43.52h-7.58l2.14-9.44A2.33,2.33,0,0,1,525.69,183.88Z" transform="translate(-454.3 -78.04)"/><path class="cls-2" d="M543.45,191.49h-1.68v0h0v0.08l0,0.09,0,0.13c0,0.05,0,.11,0,0.18l0,0.23-0.06.3-0.08.37-0.1.44-0.12.52-0.13.62-0.15.71h-2.65l2.1-9.39a2.3,2.3,0,0,1,2.25-1.86h5.17a2.17,2.17,0,0,1,1.79.87,2.38,2.38,0,0,1,.46,2l-0.6,2.87a2.41,2.41,0,0,1-.81,1.34,2.18,2.18,0,0,1-1.44.52h-1l2.08,3.65h-2.83Zm3.65-2.85,0.41-1.8a0.34,0.34,0,0,0-.07-0.27,0.29,0.29,0,0,0-.24-0.12h-4.08a0.29,0.29,0,0,0-.18.08,0.39,0.39,0,0,0-.13.2l-0.44,2.15h4.42A0.31,0.31,0,0,0,547.11,188.64Z" transform="translate(-454.3 -78.04)"/><path class="cls-2" d="M557.63,185.74a2.33,2.33,0,0,1,.83-1.36,2.27,2.27,0,0,1,1.46-.51h0.75l-1.36,6.18h0l-0.47,2.11a0.34,0.34,0,0,0,.07.28,0.3,0.3,0,0,0,.25.12h6.26L565,194.33l-0.18.81h-6.35a2.26,2.26,0,0,1-1.84-.87,2.32,2.32,0,0,1-.48-2Z" transform="translate(-454.3 -78.04)"/><path class="cls-2" d="M574.54,185.74a2.36,2.36,0,0,1,2.25-1.87h0.67l-2.57,11.26h-2.53Z" transform="translate(-454.3 -78.04)"/><path class="cls-2" d="M584.41,185.74a2.34,2.34,0,0,1,2.23-1.87h0.68l4.57,5.84,1.37-5.84h2.53l-2.66,11.26h-2.49l0.46-2.1-4.52-5.81-1.75,7.92H582.3Z" transform="translate(-454.3 -78.04)"/><path class="cls-2" d="M602.78,185.74a2.31,2.31,0,0,1,2.26-1.87h8.16l-0.58,2.6v0h-7.14a0.3,0.3,0,0,0-.18.08,0.41,0.41,0,0,0-.13.2l-1.2,5.43a0.34,0.34,0,0,0,.07.28,0.3,0.3,0,0,0,.25.12h4.11a0.28,0.28,0,0,0,.18-0.08,0.27,0.27,0,0,0,.1-0.2l0.33-1.49h-4.09l0.54-2.57h6.77q-0.35,1.59-.91,4.07c-0.07.32-.14,0.65-0.22,1a2.32,2.32,0,0,1-2.27,1.87h-5.22a2.2,2.2,0,0,1-1.81-.87,2.36,2.36,0,0,1-.47-2Z" transform="translate(-454.3 -78.04)"/><path class="cls-2" d="M623.77,186.44h-3.53l0.6-2.56h9.44l-0.6,2.56h-3.42l-1.74,8.7H622Z" transform="translate(-454.3 -78.04)"/><path class="cls-2" d="M637.35,185.74a2.49,2.49,0,0,1,2.44-1.87h5.5a2.38,2.38,0,0,1,1.91.87,2.28,2.28,0,0,1,.5,2v0l0,0.07,0,0.14-0.05.23-0.08.34-0.11.48-0.15.64-0.19.81-0.23,1-0.29,1.25q-0.16.69-.35,1.49a2.41,2.41,0,0,1-2.43,1.87h-5.46a2.4,2.4,0,0,1-1.94-.87,2.33,2.33,0,0,1-.52-2v0l0-.07,0-.14,0.05-.23c0-.09.05-0.21,0.08-0.34l0.11-.48,0.15-.64,0.19-.81,0.23-1,0.29-1.25Zm6,6.81a0.34,0.34,0,0,0,.33-0.28V192.2l0-.12,0-.19,0.06-.29,0.1-.4,0.12-.53,0.16-.68,0.2-.85,0.24-1,0.29-1.25a0.36,0.36,0,0,0-.06-0.28,0.32,0.32,0,0,0-.27-0.12h-4.3a0.33,0.33,0,0,0-.33.28v0l0,0.06,0,0.12,0,0.19-0.07.29-0.09.4-0.12.53-0.16.68-0.2.85-0.24,1-0.29,1.25a0.34,0.34,0,0,0,.33.4h4.3Z" transform="translate(-454.3 -78.04)"/><path class="cls-2" d="M655.14,185.74a2.34,2.34,0,0,1,2.23-1.87H658l4.57,5.84,1.37-5.84h2.53l-2.66,11.26h-2.49l0.46-2.1-4.52-5.81-1.75,7.92H653Z" transform="translate(-454.3 -78.04)"/><path class="cls-1" d="M566.42,128.12c-2.13-2.3-7.65-2.78-7.65-2.78a28,28,0,0,0,2.36,8.64s6.56,2.37,6.65,2.8a4.28,4.28,0,0,1-1.31,4.51l-2.06,1.6s1.94-3.5,1.33-4a12.24,12.24,0,0,0-3.47-1.41l-0.41-.13c0.22,0.62,1.87,10.16,8.9,17.59,0,0-12.48-.62-18.48-36.24,0,0,5.95,3,17.16,2.93h0c0,0.25,1,5.46-.32,9a4,4,0,0,1-2.22,2.52L565,134S567.6,129.71,566.42,128.12Z" transform="translate(-454.3 -78.04)"/><path class="cls-1" d="M598.39,128.12c2.17-2.3,7.78-2.78,7.78-2.78a27.7,27.7,0,0,1-2.41,8.65s-6.67,2.37-6.76,2.81a4.23,4.23,0,0,0,1.33,4.51l4.23,3L599.79,140a1.18,1.18,0,0,1,.28-1.61,24.67,24.67,0,0,1,2.55-.87l0.42-.13c-0.23.62-1.91,10.16-9.06,17.6,0,0,12.31-.63,18.44-36.26,0,0-5.68,3-17.07,2.94h0c0,0.25-1.07,5.46.32,9a4.05,4.05,0,0,0,2.25,2.52l4.64,2S597.19,129.72,598.39,128.12Z" transform="translate(-454.3 -78.04)"/><path class="cls-2" d="M594.2,170.07c0.33-3.09.5-9.49,0.5-9.49l-4.14,9.49-8.78-.74-8.78.74-4.14-9.49s0.17,6.4.5,9.49c-2,.56-8.12-5.63-8.12-5.63l2.15,6.7s2.65,7.24,4.14,5.79,14.25-3.62,14.25-3.62,12.76,2.17,14.25,3.62,4.14-5.79,4.14-5.79l2.15-6.7S596.19,170.63,594.2,170.07Z" transform="translate(-454.3 -78.04)"/><path class="cls-2" d="M581.77,86.28c-10.74,0-23.73-5.11-27.66-7.34a6.94,6.94,0,0,0-6.85,0l-7.39,4.14c2.19,5,12.86,15,18.71,19.18v1.38s-11.64.82-14.87-1.74c0,0-1.52-1.29-1.48-9.65l-9.71,12.52-0.13,5.43,17.45,33.31,11.38,20.92-9-22.71-12.32-27.82a94.53,94.53,0,0,0,33,5.56l8.83-3.94V86.28Z" transform="translate(-454.3 -78.04)"/><path class="cls-1" d="M575.55,111.8l-5.34,2.8L569.62,113a1.21,1.21,0,0,1,1.13-1.63h4.7A0.2,0.2,0,0,1,575.55,111.8Z" transform="translate(-454.3 -78.04)"/><path class="cls-2" d="M581.77,86.28c10.74,0,23.73-5.11,27.66-7.34a6.94,6.94,0,0,1,6.85,0l7.39,4.14c-2.19,5-12.86,15-18.71,19.18v1.38s11.64,0.82,14.87-1.74c0,0,1.52-1.29,1.48-9.65L631,104.78l0.13,5.43-17.45,33.31-11.38,20.92,9-22.71,12.32-27.82a94.53,94.53,0,0,1-33,5.56l-8.83-3.94V86.28Z" transform="translate(-454.3 -78.04)"/><path class="cls-1" d="M588,111.8l5.34,2.8,0.58-1.55a1.21,1.21,0,0,0-1.13-1.63h-4.7A0.2,0.2,0,0,0,588,111.8Z" transform="translate(-454.3 -78.04)"/><polygon class="cls-2" points="127.47 8.24 122.2 20.96 127.47 37.49 133.36 24.13 127.47 8.24"/></svg>