<svg id="Layer_1" data-name="Layer 1" xmlns="http://www.w3.org/2000/svg" viewBox="0 0 207.84 162.48"><defs><style>.cls-1{fill:#cc8e35;}.cls-2{fill:#fbc531;}.cls-3{fill:#2b2b2b;}</style></defs><title>honor-big</title><path class="cls-1" d="M127.7,210.34a9,9,0,0,0,6.81-8.74c0-.07,0-0.13,0-0.2h24.4v-7.23L129.26,194a36,36,0,0,1,.21,3.83,9,9,0,0,1-8.71,9v52.65l38.39,27.75v-9.6L127.7,254.58V210.34Z" transform="translate(-52.28 -194.02)"/><path class="cls-2" d="M190.18,210.34a9,9,0,0,1-6.81-8.74c0-.07,0-0.13,0-0.2H159v-7.23l29.65-.16a36,36,0,0,0-.21,3.83,9,9,0,0,0,8.71,9v52.65l-37.95,27.75v-9.6l31-23.07V210.34Z" transform="translate(-52.28 -194.02)"/><polygon class="cls-2" points="109.72 14.64 109.64 24.76 119.85 24.76 119.86 34.44 93.4 34.45 93.4 24.77 103.6 24.77 103.59 14.65 82.34 14.66 82.37 57.17 104.01 72.3 104 59.59 93.41 52.27 93.41 44.57 119.86 44.56 119.86 52.26 109.28 59.59 109.29 72.3 130.91 57.32 130.89 14.63 109.72 14.64"/><path class="cls-3" d="M86.57,356.5H77.45V338.1H61.33v18.4H52.28V310.68h9.05v22.95l4.59-4.55H77.45v-18.4h9.12V356.5Z" transform="translate(-52.28 -194.02)"/><path class="cls-3" d="M129.42,322.9v21.38a12.32,12.32,0,0,1-12.34,12.22H105.42a12.32,12.32,0,0,1-12.34-12.22V322.9a12.32,12.32,0,0,1,12.34-12.22h11.66A12.32,12.32,0,0,1,129.42,322.9Zm-9.12.2a3.38,3.38,0,0,0-3.43-3.39H105.56a3.42,3.42,0,0,0-3.43,3.39v21a3.47,3.47,0,0,0,3.43,3.39h11.31a3.42,3.42,0,0,0,3.43-3.39v-21Z" transform="translate(-52.28 -194.02)"/><path class="cls-3" d="M171.59,356.5h-9.12L145,328V356.5h-9.05V310.68H145l17.49,28.51V310.68h9.12V356.5Z" transform="translate(-52.28 -194.02)"/><path class="cls-3" d="M214.45,322.9v21.38A12.32,12.32,0,0,1,202.1,356.5H190.45a12.32,12.32,0,0,1-12.34-12.22V322.9a12.32,12.32,0,0,1,12.34-12.22H202.1A12.32,12.32,0,0,1,214.45,322.9Zm-9.12.2a3.38,3.38,0,0,0-3.43-3.39H190.58a3.42,3.42,0,0,0-3.43,3.39v21a3.47,3.47,0,0,0,3.43,3.39H201.9a3.42,3.42,0,0,0,3.43-3.39v-21Z" transform="translate(-52.28 -194.02)"/><path class="cls-3" d="M249.62,356.5l-8-13.78h-8l2.74-9h9.81a3.38,3.38,0,0,0,3.43-3.39v-7.2a3.38,3.38,0,0,0-3.43-3.39H230V356.5H221V310.68h25.37a12.32,12.32,0,0,1,12.34,12v8a12.22,12.22,0,0,1-7.27,10.93l8.71,14.87H249.62Zm9.05-33.6v0Zm0,7.81v0Z" transform="translate(-52.28 -194.02)"/><path class="cls-2" d="M106.28,295.15v5.65A3.25,3.25,0,0,1,103,304H99.94a3.25,3.25,0,0,1-3.26-3.23v-5.65a3.25,3.25,0,0,1,3.26-3.23H103A3.25,3.25,0,0,1,106.28,295.15Zm-2.41.05a0.89,0.89,0,0,0-.91-0.9h-3a0.9,0.9,0,0,0-.91.9v5.56a0.92,0.92,0,0,0,.91.9h3a0.9,0.9,0,0,0,.91-0.9V295.2Z" transform="translate(-52.28 -194.02)"/><path class="cls-2" d="M127.74,294.31h-3.51V304h-2.39v-8.53l1.2-1.18h-4.71v-2.38h9.42v2.38Z" transform="translate(-52.28 -194.02)"/><path class="cls-2" d="M148.74,294.31h-3.51V304h-2.39v-8.53l1.2-1.18h-4.71v-2.38h9.42v2.38Z" transform="translate(-52.28 -194.02)"/><path class="cls-2" d="M170.84,304h-2.41v-3.64h-4.26L164.9,298h3.53v-2.8a0.89,0.89,0,0,0-.91-0.9h-3.35a0.9,0.9,0,0,0-.91.9V304h-2.39v-8.87a3.25,3.25,0,0,1,3.26-3.23h3.44a3.25,3.25,0,0,1,3.26,3.23V304Z" transform="translate(-52.28 -194.02)"/><path class="cls-2" d="M196.93,291.92L194.33,304h-2.9L190,297.09,188.58,304h-2.9l-2.63-12.1h2.45l1.63,7.46,1.61-7.46h2.52l1.61,7.46,1.61-7.46h2.45Z" transform="translate(-52.28 -194.02)"/><path class="cls-2" d="M219.48,304h-2.41v-3.64h-4.26l0.72-2.38h3.53v-2.8a0.89,0.89,0,0,0-.91-0.9h-3.35a0.9,0.9,0,0,0-.91.9V304h-2.39v-8.87a3.25,3.25,0,0,1,3.26-3.23h3.44a3.25,3.25,0,0,1,3.26,3.23V304Z" transform="translate(-52.28 -194.02)"/></svg>