<svg id="Layer_1" data-name="Layer 1" xmlns="http://www.w3.org/2000/svg" viewBox="0 0 40.76 49.78"><defs><style>.cls-1{fill:#cc8e35;}.cls-2{fill:#fbc531;}</style></defs><title>honor</title><path class="cls-1" d="M18.88,87a4.81,4.81,0,0,0,3.63-4.66s0-.07,0-0.11h13V78.35l-15.83-.09a19.2,19.2,0,0,1,.11,2,4.81,4.81,0,0,1-4.65,4.81v28.11L35.68,128v-5.13L18.88,110.6V87Z" transform="translate(-15.18 -78.26)"/><path class="cls-2" d="M52.24,87a4.81,4.81,0,0,1-3.63-4.66s0-.07,0-0.11h-13V78.35l15.83-.09a19.2,19.2,0,0,0-.11,2,4.81,4.81,0,0,0,4.65,4.81v28.11L35.68,128v-5.13L52.24,110.6V87Z" transform="translate(-15.18 -78.26)"/><polygon class="cls-2" points="22.01 7.82 21.97 13.22 27.42 13.22 27.43 18.39 13.3 18.4 13.3 13.23 18.75 13.22 18.74 7.82 7.4 7.83 7.41 30.52 18.96 38.6 18.96 31.82 13.31 27.91 13.3 23.8 27.43 23.79 27.43 27.9 21.78 31.82 21.79 38.6 33.33 30.6 33.32 7.81 22.01 7.82"/></svg>