<svg id="Layer_1" data-name="Layer 1" xmlns="http://www.w3.org/2000/svg" viewBox="0 0 40.76 49.78"><defs><style>.cls-1{fill:#fff;}</style></defs><title>honor-white</title><path class="cls-1" d="M230.13,19a4.81,4.81,0,0,0,3.63-4.66s0-.07,0-0.11h13V10.4L231,10.32a19.2,19.2,0,0,1,.11,2,4.81,4.81,0,0,1-4.65,4.81V45.28l20.5,14.82V55l-16.8-12.32V19Z" transform="translate(-226.43 -10.32)"/><path class="cls-1" d="M263.49,19a4.81,4.81,0,0,1-3.63-4.66s0-.07,0-0.11h-13V10.4l15.83-.09a19.2,19.2,0,0,0-.11,2,4.81,4.81,0,0,0,4.65,4.81V45.28L246.93,60.1V55l16.56-12.32V19Z" transform="translate(-226.43 -10.32)"/><polygon class="cls-1" points="21.92 8.72 21.88 13.81 27.01 13.8 27.01 18.67 13.71 18.68 13.71 13.81 18.84 13.81 18.84 8.72 8.16 8.73 8.17 30.1 19.05 37.7 19.04 31.31 13.72 27.63 13.72 23.76 27.02 23.76 27.02 27.63 21.7 31.31 21.7 37.7 32.57 30.17 32.56 8.71 21.92 8.72"/><polygon class="cls-1" points="20.39 0.09 16.76 1.75 20.39 3.95 24.26 2.02 20.39 0.09"/><polygon class="cls-1" points="20.5 44.65 18.76 45.99 20.5 49.78 21.88 47.22 20.5 44.65"/></svg>