<svg id="Layer_2" data-name="Layer 2" xmlns="http://www.w3.org/2000/svg" viewBox="0 0 152.07 130.82"><defs><style>.cls-1{fill:#fff;}</style></defs><title>hydra-white</title><path class="cls-1" d="M409.28,77.31c-14.26-7.86-29.88-3-37,6.79-7.4,10.16-6.93,19.56-5,26.15a30,30,0,0,0,14.29,17.87,26.94,26.94,0,0,0,9.38,3.12S371.61,115,377.69,98.42c2.5-6.79,7.66-11,12.26-12.25a18.92,18.92,0,0,1,20.4,7.74L412,96.3l9.1-6C416.53,80.62,409.28,77.31,409.28,77.31Z" transform="translate(-276.26 -21.84)"/><path class="cls-1" d="M424.62,98.14s4.18-7.93-1.37-15.37c0,0,.82,6.48-1.23,9.07-0.33-.61-0.69-1.22-1.07-1.83l-9,6.29c0.58,1.31.87,2.17,0.87,2.17,0.8,2,1.29,5.38.35,12.27a20.63,20.63,0,0,0,8.22-.27l-4.4-.84,2.34-1-3.09-.81,2.21-7.72,1.61-.94,5,7-1.59,1.6h2.79l-2.77,2.3,4.87-1.53Z" transform="translate(-276.26 -21.84)"/><path class="cls-1" d="M295.32,77.31c14.26-7.86,29.88-3,37,6.79,7.4,10.16,6.93,19.56,5,26.15A30,30,0,0,1,323,128.11a26.94,26.94,0,0,1-9.38,3.12S333,115,326.9,98.42c-2.5-6.79-7.66-11-12.26-12.25a18.92,18.92,0,0,0-20.4,7.74l-1.6,2.39-9.1-6C288.07,80.62,295.32,77.31,295.32,77.31Z" transform="translate(-276.26 -21.84)"/><path class="cls-1" d="M280,98.14s-4.18-7.93,1.37-15.37c0,0-.82,6.48,1.23,9.07,0.33-.61.69-1.22,1.07-1.83l9,6.29c-0.58,1.31-.87,2.17-0.87,2.17-0.8,2-1.29,5.38-.35,12.27a20.63,20.63,0,0,1-8.22-.27l4.4-.84-2.34-1,3.09-.81-2.21-7.72-1.61-.94-5,7,1.59,1.6h-2.79l2.77,2.3-4.87-1.53Z" transform="translate(-276.26 -21.84)"/><path class="cls-1" d="M381.86,53.73c-1.59-.87-6.76,1.38-6.76,1.38s5.95-8.65,3.8-15.26c-0.61,2.43-4.43,11.37-8.63,12.48a21,21,0,0,0-.43-4l0.13-1.8a2.56,2.56,0,0,0-.46.66,2.56,2.56,0,0,0-.37-0.72L369,48.3a21,21,0,0,0-.95,3.88c-4-1.65-6.65-11-6.94-13.5-3,6.28,1.78,15.63,1.78,15.63s-4.84-2.91-6.53-2.25a27.47,27.47,0,0,1,4.89,10.27l-1.56,2.39a9.14,9.14,0,0,1,2.9,6.34c0.74,9.14,4.68,10,4.68,10s4-.37,5.94-9.33a9.14,9.14,0,0,1,3.7-5.91l-1.24-2.57A27.47,27.47,0,0,1,381.86,53.73Zm-15.75,9.5L362.74,62,362.83,60l3.32,2.57Zm8.15-.45-3.5.75,0-.69,3.63-2.11Z" transform="translate(-276.26 -21.84)"/><path class="cls-1" d="M366.43,58.72s2.41-25-14.85-25.64c-17.4,0-14.2,17.19-13.16,20.46,5.25,16.48,14.16,18.72,21.91,48.78,5.73,22.23,20.93,26.37,30.84,29.1-30.84.82-38.58,21.25-38.58,21.25s-7.44-20.19-38.61-21.49c15.29-6.39,31.88-14.82,30.21-33.32-3.11-34.38-30.06-46.67-12.76-67.63,4-4.84,10.25-7.46,16.53-8.19,15.14-1.77,27.09,8.93,25.92,24.13a39.27,39.27,0,0,1-3.28,12.93Z" transform="translate(-276.26 -21.84)"/></svg>