<svg id="Layer_2" data-name="Layer 2" xmlns="http://www.w3.org/2000/svg" viewBox="0 0 338.25 273.34"><defs><style>.cls-1{fill:#501589;}.cls-2{fill:#fff;}</style></defs><title>hydra-big</title><path class="cls-1" d="M170.94,657a3.48,3.48,0,0,1,2.75-1.33h10.76v15.62h-3.08V659.24h-7.68a0.73,0.73,0,0,0-.57.28,1,1,0,0,0-.24.66v11.11H169.8V660.2A4.73,4.73,0,0,1,170.94,657Z" transform="translate(-84.87 -480.26)"/><path class="cls-1" d="M197.57,655.67h3.06v15.62h-3.06V655.67Z" transform="translate(-84.87 -480.26)"/><path class="cls-1" d="M225,667.32h-8.16v4h-3.06v-11a4.83,4.83,0,0,1,1.13-3.26,3.52,3.52,0,0,1,2.75-1.38H228v15.62H225v-4Zm0-3.57v-4.53h-7.34a0.74,0.74,0,0,0-.58.24,0.92,0.92,0,0,0-.24.61v3.69H225Z" transform="translate(-84.87 -480.26)"/><path class="cls-1" d="M252.27,663.48h3.06v7.81H241.17v-11a4.82,4.82,0,0,1,1.16-3.25,3.53,3.53,0,0,1,2.77-1.35h9.67v3.57h-9.67a0.77,0.77,0,0,0-.6.32,1,1,0,0,0-.27.71v7.47h8v-4.25Z" transform="translate(-84.87 -480.26)"/><path class="cls-1" d="M279.67,667.32h-8.16v4h-3.06v-11a4.83,4.83,0,0,1,1.13-3.26,3.52,3.52,0,0,1,2.75-1.38h10.4v15.62h-3.06v-4Zm0-3.57v-4.53h-7.34a0.74,0.74,0,0,0-.58.24,0.92,0.92,0,0,0-.24.61v3.69h8.16Z" transform="translate(-84.87 -480.26)"/><path class="cls-1" d="M297,657a3.46,3.46,0,0,1,2.75-1.35h11v6.2a4.76,4.76,0,0,1-1.11,3.19,3.78,3.78,0,0,1-1.29,1l2.23,5.21h-3.05l-2.24-4.91h-6.4v4.91h-3.06V660.21A4.8,4.8,0,0,1,297,657Zm2.75,2.22a0.72,0.72,0,0,0-.58.3,1,1,0,0,0-.26.67v2.59H307a0.71,0.71,0,0,0,.54-0.27,1,1,0,0,0,.21-0.66v-2.63h-8Z" transform="translate(-84.87 -480.26)"/><path class="cls-1" d="M335.14,667.32H327v4h-3.06v-11a4.83,4.83,0,0,1,1.13-3.26,3.52,3.52,0,0,1,2.75-1.38h10.4v15.62h-3.06v-4Zm0-3.57v-4.53H327.8a0.74,0.74,0,0,0-.58.24,0.92,0.92,0,0,0-.24.61v3.69h8.16Z" transform="translate(-84.87 -480.26)"/><path class="cls-2" d="M144.46,682.68V753.6H131.92V726.26H97.41V753.6H84.87V682.68H97.41V710h34.51V682.68h12.53Z" transform="translate(-84.87 -480.26)"/><path class="cls-2" d="M178.19,738.71H153.91v-56h12.53v39.88h32.71a2.89,2.89,0,0,0,2.37-1.07,4.43,4.43,0,0,0,1-2.77v-36H215v35q0,8.8-4.63,14.79-4.82,6.28-11.25,6.27h-8.39V753.6H178.19V738.71Z" transform="translate(-84.87 -480.26)"/><path class="cls-2" d="M224.49,682.68h60.07v26.8q0,18.63-6,30.11-7.3,14-22.43,14H224.49V682.68Zm12.61,53.7H255q15.81,0,15.81-27.82v-9.68H237.1v37.5Z" transform="translate(-84.87 -480.26)"/><path class="cls-2" d="M298.72,688.81q4.63-6.13,11.25-6.13h45.2v28.16a23.09,23.09,0,0,1-4.55,14.49,15.81,15.81,0,0,1-5.31,4.62l9.15,23.64H342l-9.18-22.28H306.55V753.6H294V703.3A23.24,23.24,0,0,1,298.72,688.81ZM310,698.88a2.86,2.86,0,0,0-2.37,1.36,4.75,4.75,0,0,0-1.05,3.06v11.77h33a2.82,2.82,0,0,0,2.22-1.22,4.81,4.81,0,0,0,.87-3v-12H310Z" transform="translate(-84.87 -480.26)"/><path class="cls-2" d="M410.59,735.6H377.17v18H364.63V703.74q0-8.8,4.63-14.79,4.82-6.27,11.25-6.27h42.61V753.6H410.59v-18Zm0-16.2V698.83H380.52a2.88,2.88,0,0,0-2.37,1.07,4.43,4.43,0,0,0-1,2.77V719.4h33.42Z" transform="translate(-84.87 -480.26)"/><path class="cls-1" d="M326.95,550.39c-18-9.94-37.79-3.84-46.83,8.58-9.35,12.85-8.76,24.73-6.3,33.06a38,38,0,0,0,18.07,22.6,34.06,34.06,0,0,0,11.86,3.95S279.32,598,287,577.09c3.16-8.59,9.68-13.9,15.51-15.49a23.93,23.93,0,0,1,25.79,9.78l2,3,11.5-7.6C336.11,554.58,326.95,550.39,326.95,550.39Z" transform="translate(-84.87 -480.26)"/><path class="cls-1" d="M346.35,576.74s5.29-10-1.73-19.44c0,0,1,8.2-1.56,11.47-0.41-.77-0.87-1.55-1.35-2.32l-11.38,8c0.74,1.66,1.1,2.74,1.1,2.74,1,2.48,1.63,6.8.44,15.51a26.08,26.08,0,0,0,10.4-.34l-5.56-1.07,3-1.21-3.91-1,2.79-9.76,2-1.18,6.29,8.88-2,2h3.52l-3.5,2.91,6.15-1.94Z" transform="translate(-84.87 -480.26)"/><path class="cls-1" d="M182.86,550.39c18-9.94,37.79-3.84,46.83,8.58C239,571.82,238.45,583.7,236,592a38,38,0,0,1-18.07,22.6,34.06,34.06,0,0,1-11.86,3.95s24.42-20.56,16.73-41.48c-3.16-8.59-9.68-13.9-15.51-15.49a23.93,23.93,0,0,0-25.79,9.78l-2,3-11.5-7.6C173.69,554.58,182.86,550.39,182.86,550.39Z" transform="translate(-84.87 -480.26)"/><path class="cls-1" d="M163.45,576.74s-5.29-10,1.73-19.44c0,0-1,8.2,1.56,11.47,0.41-.77.87-1.55,1.35-2.32l11.38,8c-0.74,1.66-1.1,2.74-1.1,2.74-1,2.48-1.63,6.8-.44,15.51a26.08,26.08,0,0,1-10.4-.34l5.56-1.07-3-1.21,3.91-1-2.79-9.76-2-1.18-6.29,8.88,2,2h-3.52l3.5,2.91-6.15-1.94Z" transform="translate(-84.87 -480.26)"/><path class="cls-2" d="M292.28,520.58c-2-1.1-8.55,1.75-8.55,1.75s7.52-10.94,4.8-19.3c-0.77,3.07-5.61,14.37-10.92,15.78a26.52,26.52,0,0,0-.55-5l0.16-2.28a3.24,3.24,0,0,0-.59.84,3.24,3.24,0,0,0-.47-0.91L276,513.72a26.52,26.52,0,0,0-1.2,4.9c-5.08-2.08-8.4-13.92-8.77-17.07-3.78,7.94,2.25,19.76,2.25,19.76s-6.12-3.68-8.25-2.84a34.73,34.73,0,0,1,6.18,13l-2,3a11.56,11.56,0,0,1,3.66,8c0.94,11.56,5.91,12.68,5.91,12.68s5.07-.46,7.51-11.8A11.56,11.56,0,0,1,286,535.9l-1.57-3.25A34.73,34.73,0,0,1,292.28,520.58Zm-19.92,12-4.26-1.52,0.11-2.6,4.2,3.24Zm10.31-.56-4.42.95,0.06-.88,4.59-2.67Z" transform="translate(-84.87 -480.26)"/><path class="cls-2" d="M272.78,526.89s3.05-31.62-18.78-32.42c-22,0-18,21.74-16.64,25.87C244,541.17,255.27,544,265.07,582c7.25,28.11,26.46,33.34,39,36.79-39,1-48.78,26.87-48.78,26.87s-9.41-25.53-48.82-27.17c19.34-8.08,40.31-18.74,38.2-42.13-3.94-43.47-38-59-16.13-85.52,5-6.12,13-9.43,20.89-10.36,19.14-2.24,34.26,11.29,32.77,30.51a49.66,49.66,0,0,1-4.15,16.35Z" transform="translate(-84.87 -480.26)"/></svg>