<svg id="Layer_2" data-name="Layer 2" xmlns="http://www.w3.org/2000/svg" viewBox="0 0 312.8 263.81"><defs><style>.cls-1{fill:#501589;}.cls-2{fill:#1c1c1c;}</style></defs><title>hydra</title><path class="cls-1" d="M343.88,248.7c0.26-1.37.46-2.79,0.63-4.23h-0.08c4.83-20.61-2.26-34.71-2.26-34.71-12.51-30.37-43.17-42.49-66.82-36.07-24.46,6.65-35.58,22-40.84,34.83a60.53,60.53,0,0,0-.08,46.14,54.32,54.32,0,0,0,10.82,16.75s-9.86-50,20.59-68.3c12.5-7.53,25.91-7.62,34.75-3.79,14.76,6.41,23.47,21.86,22.31,37.91l-0.5,5.77c-0.74,2.8-1.37,4.5-1.37,4.5-1.21,4.1-4.76,10.09-14.93,19.73a41.59,41.59,0,0,0,13.28,9.95l-5.85-6.88,4.89,1.44-3.84-5.18,13.22-9.35,3.71,0.56-1,17.32-4.52.51,4.37,3.53-7.26.13,9.59,3.73L340,261.9s16.59-7.2,17.24-25.91C357.26,236,350.37,247.22,343.88,248.7Z" transform="translate(-44.47 -71.55)"/><path class="cls-1" d="M167.2,208.52c-5.26-12.81-16.38-28.19-40.84-34.83-23.65-6.43-54.31,5.7-66.82,36.07,0,0-7.09,14.1-2.26,34.71H57.22c0.17,1.44.38,2.86,0.63,4.23C51.36,247.22,44.47,236,44.47,236c0.65,18.71,17.24,25.91,17.24,25.91L69.06,283l9.59-3.73-7.26-.13,4.37-3.53-4.52-.51-1-17.32,3.71-.56,13.22,9.35-3.84,5.18,4.89-1.44-5.85,6.88a41.59,41.59,0,0,0,13.28-9.95c-10.17-9.64-13.72-15.63-14.93-19.73,0,0-.64-1.7-1.37-4.5l-0.5-5.77c-1.16-16,7.56-31.5,22.31-37.91,8.83-3.84,22.25-3.74,34.75,3.79,30.45,18.35,20.59,68.3,20.59,68.3a54.33,54.33,0,0,0,10.82-16.75A60.53,60.53,0,0,0,167.2,208.52Z" transform="translate(-44.47 -71.55)"/><path class="cls-2" d="M217.31,233.83c-15.63-60.62-33.59-65.14-44.19-98.37-2.1-6.59-8.55-41.25,26.53-41.25,21.91,0.81,28.1,21.07,29.69,36-6.08-6.28-9.95-20.43-10.44-24.67-6,12.66,3.59,31.51,3.59,31.51s-9.76-5.86-13.16-4.53c8.09,10.94,9.86,20.71,9.86,20.71L216,158c5.83,5,5.84,12.78,5.84,12.78,1.5,18.43,9.43,20.22,9.43,20.22s8.09-.74,12-18.82c0,0,1-7.7,7.46-11.91l-2.5-5.18s3-9.46,12.47-19.25c-3.2-1.76-13.64,2.78-13.64,2.78s12-17.45,7.66-30.78c-0.92,3.64-5.43,14.57-11.17,20.84a77.27,77.27,0,0,0,1.07-8.11C247,89.94,222.9,68.36,192.37,71.93,179.72,73.41,167.1,78.69,159,88.45c-34.88,42.26,19.45,67.06,25.73,136.39,3.38,37.31-30.07,54.3-60.92,67.19,62.85,2.61,77.86,43.33,77.86,43.33s15.6-41.2,77.79-42.85C259.5,287,228.86,278.66,217.31,233.83ZM228.95,155l-6.8-2.42,0.18-4.15,6.7,5.17Zm16.44-.9-7.05,1.51,0.09-1.4,7.32-4.26Z" transform="translate(-44.47 -71.55)"/></svg>