<svg id="Layer_1" data-name="Layer 1" xmlns="http://www.w3.org/2000/svg" viewBox="0 0 116.66 116.66">
  <defs>
    <style>
      .cls-1 {
        fill: #5f93cc;
      }

      .cls-2 {
        fill: #2c3d4f;
      }

      .cls-3 {
        fill: #fff;
      }
    </style>
  </defs>
  <title>JClarkeRichardson-2-icon2</title>
  <rect class="cls-1" width="116.66" height="116.66"/>
  <circle class="cls-1" cx="58.31" cy="58.33" r="43.69"/>
  <path class="cls-2" d="M58.35,106.13a47.79,47.79,0,1,1,47.79-47.79A47.79,47.79,0,0,1,58.35,106.13Zm0-87.39A39.59,39.59,0,1,0,97.94,58.33,39.59,39.59,0,0,0,58.35,18.74Z" transform="translate(-0.02)"/>
  <path class="cls-3" d="M88.45,55.19a1.8,1.8,0,0,0-1.64-1.79H75.17A5.09,5.09,0,0,0,72,54.83c-2,1.81-1.74,3.45-1.74,5.88v7.37a2.15,2.15,0,0,1-.19.93,2.1,2.1,0,0,1-1.71,1.17,2,2,0,0,1-2-1.8l0.17-25c0-2.24-.72-3.13-2.22-4.44a5.73,5.73,0,0,0-2.65-1.12L61,24.44,60.3,37.87a6.27,6.27,0,0,0-1.83.61c-2.91,1.84-3.2,3.85-3.2,6.55V75.2a2,2,0,0,1-1.76,2.22H53.34a1.93,1.93,0,0,1-1.88-1.51,2.78,2.78,0,0,1-.07-0.69V52.44a5.81,5.81,0,0,0-.66-2.38A5.34,5.34,0,0,0,47,47.25a5.59,5.59,0,0,0-4.56,1.08A6.24,6.24,0,0,0,40.3,53.4V66.34a2,2,0,0,1-2,2h-8a2,2,0,1,0,.38,4l4.73,0.11h0.31l2.74,0.06h0A4.92,4.92,0,0,0,42,71.15a7.3,7.3,0,0,0,1.82-4.92V52.72a2,2,0,0,1,.71-1.47,1.91,1.91,0,0,1,2-.3,2,2,0,0,1,1.2,1.49V74.08c0,2-.1,3.12,1,4.58A5.46,5.46,0,0,0,53.09,81h0.1a5.4,5.4,0,0,0,4-1.81A5.94,5.94,0,0,0,59,74.41V71.88l0.88-23.76H59L57.14,45,59,41.83H60.1l0.15-4h1.38l0.2,4h1L64.7,45l-1.89,3.15H62.16l1.11,20.71a5.26,5.26,0,0,0,4,4.87h0a5,5,0,0,0,4.18-1.1,5.45,5.45,0,0,0,2.46-4.7V59a2,2,0,0,1,1.27-2H86.89v0A1.8,1.8,0,0,0,88.45,55.19Z" transform="translate(-0.02)"/>
  <polygon class="cls-3" points="16.28 53.97 18.64 54.71 16.62 56.14 16.66 58.6 14.67 57.13 12.34 57.92 13.13 55.58 11.66 53.6 14.13 53.63 15.55 51.61 16.28 53.97"/>
  <polygon class="cls-3" points="103.14 53.97 105.5 54.71 103.49 56.14 103.52 58.6 101.54 57.13 99.2 57.92 100 55.58 98.51 53.6 100.99 53.63 102.41 51.61 103.14 53.97"/>
  <path class="cls-3" d="M20.08,43.38a1.92,1.92,0,0,0,.13-0.48,0.3,0.3,0,0,0-.1-0.25,1.37,1.37,0,0,0-.41-0.21l-3.47-1.3,0.18-.48L20,42a1.38,1.38,0,0,1,.61.39,0.62,0.62,0,0,1,.13.47,3.28,3.28,0,0,1-.2.7Z" transform="translate(-0.02)"/>
  <path class="cls-3" d="M21,39.24l0.24-.49,0.65,0.31-0.24.49Z" transform="translate(-0.02)"/>
  <path class="cls-3" d="M25.16,33.19a1.25,1.25,0,0,1-.89,0,5.85,5.85,0,0,1-2-1.52A1.28,1.28,0,0,1,22,30.85a1.88,1.88,0,0,1,.43-1,6.39,6.39,0,0,1,.82-0.91l0.32,0.26a6.92,6.92,0,0,0-.82.82,1.42,1.42,0,0,0-.33.74,0.91,0.91,0,0,0,.24.63,5.09,5.09,0,0,0,.82.76,4.49,4.49,0,0,0,.86.53,0.9,0.9,0,0,0,.66,0,1.52,1.52,0,0,0,.66-0.57,6.25,6.25,0,0,0,.57-0.94l0.34,0.24a6.48,6.48,0,0,1-.61,1A2,2,0,0,1,25.16,33.19Z" transform="translate(-0.02)"/>
  <path class="cls-3" d="M25.11,26.39L25.44,26l3.32,3.1-0.34.36Z" transform="translate(-0.02)"/>
  <path class="cls-3" d="M30.69,26.94A1,1,0,0,1,30,26.56a0.88,0.88,0,0,1-.26-0.67,1.32,1.32,0,0,1,.41-0.71l0.73-.75-0.18-.2a0.51,0.51,0,0,0-.82-0.1A12.45,12.45,0,0,0,29,25l-0.25-.26a6.71,6.71,0,0,1,.88-1,1.16,1.16,0,0,1,.82-0.35,1,1,0,0,1,.7.42l1.06,1.22a0.35,0.35,0,0,0,.48,0l0.23,0.29a1.11,1.11,0,0,1-.76.33,3,3,0,0,1-.74,1A0.92,0.92,0,0,1,30.69,26.94Zm1.06-1.31,0.08-.14-0.68-.82-0.69.71a0.66,0.66,0,0,0-.22.41,0.57,0.57,0,0,0,.16.39,0.48,0.48,0,0,0,.66.18l0.1-.08a2.84,2.84,0,0,0,.58-0.66h0Z" transform="translate(-0.02)"/>
  <path class="cls-3" d="M33.05,21.25l0.4-.28,0.25,0.35a3.39,3.39,0,0,1,.72-1.1l0.27,0.39a4.3,4.3,0,0,0-.38.44,4.47,4.47,0,0,0-.29.43l-0.09.16,1.3,1.92-0.41.28Z" transform="translate(-0.02)"/>
  <path class="cls-3" d="M36.23,17.62l0.44-.23,1.25,2.38,0.44-.26,0.25-1.57,0.5-.26-0.28,1.79,1.79,1-0.5.26-1.56-.82-0.46.26,0.67,1.28-0.44.23Z" transform="translate(-0.02)"/>
  <path class="cls-3" d="M42.83,19.12a1.83,1.83,0,0,1-.71-1A2.06,2.06,0,0,1,42,16.79a1.54,1.54,0,0,1,1.9-.82,1.64,1.64,0,0,1,.7.93l0.1,0.34-2,.77a1.69,1.69,0,0,0,.3.54,0.57,0.57,0,0,0,.4.19,1.47,1.47,0,0,0,.6-0.12l0.41-.16,0.42-.19,0.17-.08,0.15,0.34A9.33,9.33,0,0,1,44,19,1.34,1.34,0,0,1,42.83,19.12Zm1.27-2a1.34,1.34,0,0,0-.47-0.7,0.75,0.75,0,0,0-.67,0,0.82,0.82,0,0,0-.54.48,1.25,1.25,0,0,0,.07.82Z" transform="translate(-0.02)"/>
  <path class="cls-3" d="M50.44,12.73l1.68-.24a1.64,1.64,0,0,1,1.14.17,1.28,1.28,0,0,1,.5.94A1.17,1.17,0,0,1,53.11,15l1.11,1.64-0.56.07-1-1.54-1.29.18L51.56,17l-0.51.07Zm2,2a0.92,0.92,0,0,0-.26-1.82h0L51,13.09l0.25,1.83Z" transform="translate(-0.02)"/>
  <path class="cls-3" d="M56.77,12.07h0.49v0.55H56.77V12.07Zm0,1.26h0.49l0.07,3.16H56.84Z" transform="translate(-0.02)"/>
  <path class="cls-3" d="M60.55,16.45a0.94,0.94,0,0,1-.38-0.56,2.92,2.92,0,0,1,0-1,2.34,2.34,0,0,1,.36-1.18,1.09,1.09,0,0,1,1.06-.37l0.41,0,0.57,0.12,0,0.39a8,8,0,0,0-.82-0.11,1.24,1.24,0,0,0-.59.07,0.61,0.61,0,0,0-.31.35,2.61,2.61,0,0,0-.14.74,2.53,2.53,0,0,0,0,.72,0.62,0.62,0,0,0,.26.39,1.25,1.25,0,0,0,.6.16h0.82v0.39a7.66,7.66,0,0,1-1,0A1.58,1.58,0,0,1,60.55,16.45Z" transform="translate(-0.02)"/>
  <path class="cls-3" d="M65.67,12.64l0.49,0.09-0.29,1.53a3.13,3.13,0,0,1,.57-0.08,2.22,2.22,0,0,1,.51,0,1.25,1.25,0,0,1,.63.27,0.82,0.82,0,0,1,.24.54,3.51,3.51,0,0,1-.07.93l-0.31,1.64-0.49-.09,0.3-1.64a3.28,3.28,0,0,0,.07-0.7,0.52,0.52,0,0,0-.15-0.37,0.82,0.82,0,0,0-.43-0.19,2.34,2.34,0,0,0-.82,0H65.78L65.3,17.12,64.81,17Z" transform="translate(-0.02)"/>
  <path class="cls-3" d="M70.18,18.15a1,1,0,0,1,0-.75,0.88,0.88,0,0,1,.45-0.56,1.32,1.32,0,0,1,.82,0l1,0.25,0.09-.25a0.51,0.51,0,0,0-.19-0.69l-0.13-.05A12.83,12.83,0,0,0,71,15.75l0.1-.34a6.76,6.76,0,0,1,1.27.29,1.16,1.16,0,0,1,.7.5A1,1,0,0,1,73,17l-0.52,1.53a0.35,0.35,0,0,0,.27.39l-0.14.34a1.11,1.11,0,0,1-.66-0.5,3,3,0,0,1-1.21-.15A0.93,0.93,0,0,1,70.18,18.15Zm1.64,0.26H72l0.34-1-1-.24a0.66,0.66,0,0,0-.46,0,0.57,0.57,0,0,0-.25.34,0.48,0.48,0,0,0,.17.66l0.12,0.05a2.83,2.83,0,0,0,.92.13Z" transform="translate(-0.02)"/>
  <path class="cls-3" d="M76.32,17.34l0.44,0.21-0.19.39a3.39,3.39,0,0,1,1.31.07l-0.2.43a4.3,4.3,0,0,0-.57-0.1,4,4,0,0,0-.52,0H76.37l-1,2.09-0.45-.21Z" transform="translate(-0.02)"/>
  <path class="cls-3" d="M78.83,21.84a2.11,2.11,0,0,1,.41-1.16,2,2,0,0,1,1-.93,1.33,1.33,0,0,1,1.13.25,4,4,0,0,1,.62.49l0.75-1.18,0.42,0.26-2.46,3.83-0.42-.26L80.37,23a2.13,2.13,0,0,1-1-.31A1,1,0,0,1,78.83,21.84Zm1.24,0.68a2.31,2.31,0,0,0,.39.1H80.6l1.15-1.81a4.37,4.37,0,0,0-.59-0.47,0.82,0.82,0,0,0-.78-0.15,1.69,1.69,0,0,0-.69.7,1.88,1.88,0,0,0-.34.82,0.61,0.61,0,0,0,.34.57,1.79,1.79,0,0,0,.38.25h0Z" transform="translate(-0.02)"/>
  <path class="cls-3" d="M83,25.1l-0.13-.15,0.29-.3a9.43,9.43,0,0,0,.82.82,1.14,1.14,0,0,0,.53.29,0.43,0.43,0,0,0,.4-0.18A0.42,0.42,0,0,0,85,25.28a0.54,0.54,0,0,0-.1-0.27,3,3,0,0,0-.27-0.34l-0.11-.12A3.2,3.2,0,0,1,84.17,24a0.72,0.72,0,0,1-.1-0.41,0.77,0.77,0,0,1,.2-0.42A0.82,0.82,0,0,1,85,22.86a1.64,1.64,0,0,1,.82.43,5.84,5.84,0,0,1,.69.68l0.12,0.14-0.27.3a8.67,8.67,0,0,0-.82-0.82A1.12,1.12,0,0,0,85,23.31a0.39,0.39,0,0,0-.37.15,0.35,0.35,0,0,0-.1.26,0.54,0.54,0,0,0,.1.25,4.27,4.27,0,0,0,.27.34L85,24.44a3.2,3.2,0,0,1,.39.53,0.7,0.7,0,0,1,.09.42,1.07,1.07,0,0,1-.94.81,1.64,1.64,0,0,1-.89-0.43A6.61,6.61,0,0,1,83,25.1Z" transform="translate(-0.02)"/>
  <path class="cls-3" d="M87,28.6a1,1,0,0,1,.08-0.68,2.74,2.74,0,0,1,.6-0.74,2.8,2.8,0,0,1,.82-0.56,1,1,0,0,1,.7,0,2.11,2.11,0,0,1,1.13,1.22,1,1,0,0,1-.08.69,2.71,2.71,0,0,1-.61.76,2.74,2.74,0,0,1-.78.54,1,1,0,0,1-.68,0A2.2,2.2,0,0,1,87,28.6Zm1.22,0.82a0.62,0.62,0,0,0,.46-0.06,2.64,2.64,0,0,0,.58-0.43,2.75,2.75,0,0,0,.5-0.57,0.62,0.62,0,0,0,.09-0.46,1.38,1.38,0,0,0-.75-0.82,0.63,0.63,0,0,0-.47.06,3.51,3.51,0,0,0-1.09,1,0.62,0.62,0,0,0-.09.46,1.12,1.12,0,0,0,.3.49,1.09,1.09,0,0,0,.45.29Z" transform="translate(-0.02)"/>
  <path class="cls-3" d="M92.71,30.54L93,30.94l-0.18.13a2.56,2.56,0,0,1,.5.32,2.16,2.16,0,0,1,.35.39,1.2,1.2,0,0,1,.25.62,0.82,0.82,0,0,1-.2.55,3.44,3.44,0,0,1-.7.61l-1.36,1-0.29-.4,1.35-1a3.17,3.17,0,0,0,.53-0.44,0.57,0.57,0,0,0,.16-0.37,0.7,0.7,0,0,0-.16-0.41A2.07,2.07,0,0,0,93,31.6a1.84,1.84,0,0,0-.32-0.24l-0.12-.07-2.1,1.49-0.29-.4Z" transform="translate(-0.02)"/>
  <path class="cls-3" d="M94.81,35.94l1,1.77-0.39.21-1-1.77Z" transform="translate(-0.02)"/>
  <path class="cls-3" d="M95.59,41l1.64,0.74L97.86,42a2,2,0,0,0,.49.12,1,1,0,0,0,.48-0.06,0.66,0.66,0,0,0,.45-0.41,1.24,1.24,0,0,0-.11-0.75,5.06,5.06,0,0,0-.44-0.82l-0.09-.15L99,39.76a4.92,4.92,0,0,1,.62,1.16,1.64,1.64,0,0,1,.11,1,1,1,0,0,1-.67.61,1.43,1.43,0,0,1-.82.08,4,4,0,0,1-1-.39l-1.47-.69,0.82,2-0.39.15-1-2.65Z" transform="translate(-0.02)"/>
  <path class="cls-3" d="M27.11,86.62l-1-1,0.31-.31,2.35,2.33-0.3.31-1-1-2.78,2.8-0.36-.35Z" transform="translate(-0.02)"/>
  <path class="cls-3" d="M31,90.1l-0.92,1.18,1.5,1.14-0.25.34-1.5-1.14-1,1.3,1.81,1.38-0.26.34-2.18-1.73,2.65-3.48,2.22,1.7-0.26.34Z" transform="translate(-0.02)"/>
  <path class="cls-3" d="M39.51,94.93l-2.09,3.84L37,98.52l1.84-3.39-0.08,0L35.79,97.7l-0.5-.27,0.6-3.89-0.08,0L34,96.89l-0.45-.25L35.6,92.8l0.82,0.44-0.63,3.87,2.92-2.64Z" transform="translate(-0.02)"/>
  <path class="cls-3" d="M42.43,96.2L44,96.76a1.55,1.55,0,0,1,.93.7,1.42,1.42,0,0,1,0,1.12,1.31,1.31,0,0,1-1.88.92L42,99.1l-0.49,1.39L41,100.33Zm0.75,2.89a0.89,0.89,0,0,0,1.25-.68,1,1,0,0,0,0-.82,1,1,0,0,0-.61-0.46l-1.09-.39-0.64,1.91Z" transform="translate(-0.02)"/>
  <path class="cls-3" d="M47.85,102.22a1.29,1.29,0,0,1-.42-0.82,4.92,4.92,0,0,1,.51-2.52,1.35,1.35,0,0,1,.7-0.61,2.46,2.46,0,0,1,2.09.42,1.36,1.36,0,0,1,.42.82,4.92,4.92,0,0,1-.51,2.53,1.26,1.26,0,0,1-.69.58,2.15,2.15,0,0,1-1.1,0A2.12,2.12,0,0,1,47.85,102.22Zm1.9,0a1,1,0,0,0,.49-0.48,3.91,3.91,0,0,0,.32-1,4,4,0,0,0,.1-1.07A1,1,0,0,0,50.39,99a1.34,1.34,0,0,0-.72-0.34,1.37,1.37,0,0,0-.82,0,1,1,0,0,0-.5.5,5,5,0,0,0-.42,2.07,1,1,0,0,0,.27.64,1.81,1.81,0,0,0,1.54.34h0Z" transform="translate(-0.02)"/>
  <path class="cls-3" d="M64.58,102l-1.95.22-0.19,1.16-0.5.06,0.75-4.49,1.11-.12,1.74,4.2-0.5.06Zm-1.88-.22,1.73-.2-1-2.3H63.12Z" transform="translate(-0.02)"/>
  <path class="cls-3" d="M69.24,102.09a1.27,1.27,0,0,1-.68-0.58,5.89,5.89,0,0,1-.61-2.46,1.29,1.29,0,0,1,.31-0.82,1.89,1.89,0,0,1,1-.5,6.41,6.41,0,0,1,1.24-.16L70.54,98a7.08,7.08,0,0,0-1.15.17,1.43,1.43,0,0,0-.71.36,0.91,0.91,0,0,0-.21.64,5.13,5.13,0,0,0,.18,1.13,4.41,4.41,0,0,0,.34,1,0.88,0.88,0,0,0,.49.44,1.52,1.52,0,0,0,.86,0,6.26,6.26,0,0,0,1-.38l0.12,0.4a6.5,6.5,0,0,1-1.14.42A2,2,0,0,1,69.24,102.09Z" transform="translate(-0.02)"/>
  <path class="cls-3" d="M76.7,98.65l-1.82.73L75,100.55l-0.47.19L74.06,96.2l1-.42,2.79,3.6-0.47.19Zm-1.88.28,1.64-.65-1.54-2-0.32.13Z" transform="translate(-0.02)"/>
  <path class="cls-3" d="M81.29,93a1.4,1.4,0,0,1,.82.39,3.87,3.87,0,0,1,.64.82,2.92,2.92,0,0,1,.52,1.72A1.51,1.51,0,0,1,82.44,97L81,97.86l-2.2-3.76,1.42-.82A1.71,1.71,0,0,1,81.29,93Zm1,1.54a2.28,2.28,0,0,0-.89-1,1,1,0,0,0-1,.1l-1,.57,1.76,3,1-.57q1-.6.11-2.15v0Z" transform="translate(-0.02)"/>
  <path class="cls-3" d="M84.88,90.7l0.93,1.19,1.48-1.16,0.26,0.34-1.48,1.16,1,1.25,1.79-1.41,0.27,0.34-2.2,1.72-2.7-3.44L86.42,89l0.26,0.34Z" transform="translate(-0.02)"/>
  <path class="cls-3" d="M91.68,83.74l3.2,3-0.35.38L91.7,84.47l-0.07.07L93.42,88,93,88.45,89.42,86.9,89.35,87l2.83,2.68L91.83,90l-3.2-3,0.63-.67,3.6,1.58L91,84.46Z" transform="translate(-0.02)"/>
  <path class="cls-3" d="M96.27,81.82l-2.92-.22,0.33-.48L96,81.34l-1-2.1,0.33-.48,1.27,2.64,1.52,1-0.29.42Z" transform="translate(-0.02)"/>
</svg>
