<svg id="Layer_1" data-name="Layer 1" xmlns="http://www.w3.org/2000/svg" viewBox="0 0 116.66 116.66">
  <defs>
    <style>
      .cls-1 {
        fill: #5f93cc;
      }

      .cls-2 {
        fill: #2c3d4f;
      }

      .cls-3 {
        fill: #fff;
      }
    </style>
  </defs>
  <title>JClarkeRichardson-3-icon2</title>
  <rect class="cls-1" width="116.66" height="116.66"/>
  <circle class="cls-1" cx="58.31" cy="58.33" r="44.19"/>
  <path class="cls-2" d="M58.35,106.67a48.33,48.33,0,1,1,48.33-48.33A48.33,48.33,0,0,1,58.35,106.67Zm0-88.38a40,40,0,1,0,40,40A40,40,0,0,0,58.35,18.29Z" transform="translate(-0.02)"/>
  <path class="cls-3" d="M88.79,55.14a1.82,1.82,0,0,0-1.66-1.81H75.36a5.15,5.15,0,0,0-3.17,1.45c-2,1.83-1.76,3.49-1.76,5.95v7.46a2.18,2.18,0,0,1-.19.94,2.12,2.12,0,0,1-1.73,1.18,2,2,0,0,1-2-1.82l0.17-25.24c0-2.26-.73-3.17-2.25-4.49a5.8,5.8,0,0,0-2.68-1.14L61,24.05l-0.7,13.58a6.34,6.34,0,0,0-1.85.61c-2.94,1.86-3.24,3.89-3.24,6.63V75.36a2,2,0,0,1-1.78,2.25H53.28a2,2,0,0,1-1.9-1.52,2.81,2.81,0,0,1-.07-0.7v-23A5.87,5.87,0,0,0,50.64,50a5.4,5.4,0,0,0-3.77-2.84,5.65,5.65,0,0,0-4.62,1.09,6.31,6.31,0,0,0-2.16,5.13V66.44A2.07,2.07,0,0,1,38,68.51H29.9a2,2,0,1,0,.38,4l4.78,0.11h0.31l2.77,0.06h0a5,5,0,0,0,3.7-1.42,7.38,7.38,0,0,0,1.84-5V52.66a2,2,0,0,1,.72-1.48,1.93,1.93,0,0,1,2-.31,2,2,0,0,1,1.21,1.51V74.29c0,2-.1,3.16,1,4.63A5.52,5.52,0,0,0,53,81.26h0.1a5.46,5.46,0,0,0,4.07-1.83A6,6,0,0,0,59,74.63V72.07l0.89-24H59l-1.91-3.18L59,41.68h1.09l0.15-4.07h1.39l0.21,4.07h1l1.91,3.18L62.86,48H62.2L63.32,69a5.32,5.32,0,0,0,4,4.92h0a5.07,5.07,0,0,0,4.23-1.11A5.51,5.51,0,0,0,74.13,68v-9a2.06,2.06,0,0,1,1.28-2H87.22v0A1.82,1.82,0,0,0,88.79,55.14Z" transform="translate(-0.02)"/>
  <polygon class="cls-3" points="15.8 53.92 18.19 54.67 16.15 56.11 16.18 58.6 14.18 57.11 11.81 57.92 12.62 55.55 11.13 53.55 13.62 53.58 15.06 51.54 15.8 53.92"/>
  <polygon class="cls-3" points="103.65 53.92 106.04 54.67 104 56.11 104.03 58.6 102.03 57.11 99.67 57.92 100.47 55.55 98.97 53.55 101.47 53.58 102.92 51.54 103.65 53.92"/>
  <path class="cls-3" d="M19.65,43.21a1.94,1.94,0,0,0,.13-0.48,0.31,0.31,0,0,0-.1-0.26,1.38,1.38,0,0,0-.41-0.22l-3.51-1.32,0.18-.48,3.58,1.33a1.39,1.39,0,0,1,.62.39,0.63,0.63,0,0,1,.13.47,3.31,3.31,0,0,1-.2.7Z" transform="translate(-0.02)"/>
  <path class="cls-3" d="M20.57,39l0.24-.5,0.65,0.31-0.24.5Z" transform="translate(-0.02)"/>
  <path class="cls-3" d="M24.78,32.89a1.27,1.27,0,0,1-.9,0,5.92,5.92,0,0,1-2.05-1.53,1.29,1.29,0,0,1-.29-0.83,1.91,1.91,0,0,1,.44-1,6.46,6.46,0,0,1,.83-0.92l0.32,0.27a7,7,0,0,0-.83.83,1.43,1.43,0,0,0-.33.75,0.92,0.92,0,0,0,.24.64,5.14,5.14,0,0,0,.83.77,4.54,4.54,0,0,0,.87.54,0.91,0.91,0,0,0,.67,0,1.54,1.54,0,0,0,.66-0.57,6.32,6.32,0,0,0,.57-1l0.35,0.24a6.55,6.55,0,0,1-.62,1.06A2,2,0,0,1,24.78,32.89Z" transform="translate(-0.02)"/>
  <path class="cls-3" d="M24.73,26l0.34-.36,3.36,3.13-0.34.36Z" transform="translate(-0.02)"/>
  <path class="cls-3" d="M30.38,26.58a1,1,0,0,1-.65-0.38,0.89,0.89,0,0,1-.27-0.68,1.33,1.33,0,0,1,.41-0.72L30.61,24l-0.18-.21a0.51,0.51,0,0,0-.83-0.1,12.6,12.6,0,0,0-.94.93l-0.26-.27a6.79,6.79,0,0,1,.89-1,1.18,1.18,0,0,1,.83-0.36,1,1,0,0,1,.7.42l1.07,1.23a0.36,0.36,0,0,0,.48,0L32.61,25a1.12,1.12,0,0,1-.77.33,3,3,0,0,1-.75,1A0.93,0.93,0,0,1,30.38,26.58Zm1.08-1.33,0.08-.14-0.69-.83-0.7.72a0.66,0.66,0,0,0-.22.41,0.57,0.57,0,0,0,.17.4,0.49,0.49,0,0,0,.67.19l0.1-.08a2.88,2.88,0,0,0,.59-0.67h0Z" transform="translate(-0.02)"/>
  <path class="cls-3" d="M32.76,20.81l0.41-.28,0.25,0.36a3.43,3.43,0,0,1,.73-1.11l0.27,0.4a4.35,4.35,0,0,0-.38.45,4.52,4.52,0,0,0-.29.44l-0.09.17L35,23.17l-0.41.28Z" transform="translate(-0.02)"/>
  <path class="cls-3" d="M36,17.15l0.45-.23,1.26,2.4,0.45-.27,0.25-1.59,0.51-.27L38.61,19l1.81,1-0.51.27-1.57-.83-0.46.27L38.56,21l-0.45.23Z" transform="translate(-0.02)"/>
  <path class="cls-3" d="M42.65,18.69a1.85,1.85,0,0,1-.72-1,2.09,2.09,0,0,1-.14-1.35,1.56,1.56,0,0,1,1.92-.83,1.66,1.66,0,0,1,.7.94l0.1,0.35-2.07.78a1.71,1.71,0,0,0,.31.55,0.58,0.58,0,0,0,.41.19,1.49,1.49,0,0,0,.6-0.12L44.17,18l0.42-.19,0.17-.08,0.15,0.35a9.43,9.43,0,0,1-1.12.53A1.35,1.35,0,0,1,42.65,18.69Zm1.28-2.05a1.35,1.35,0,0,0-.47-0.7,0.76,0.76,0,0,0-.68,0,0.83,0.83,0,0,0-.55.48,1.27,1.27,0,0,0,.07.83Z" transform="translate(-0.02)"/>
  <path class="cls-3" d="M50.35,12.21l1.7-.24a1.66,1.66,0,0,1,1.15.17,1.29,1.29,0,0,1,.51,1A1.18,1.18,0,0,1,53,14.49l1.13,1.66-0.56.07-1.06-1.56-1.3.18,0.23,1.66L51,16.58Zm2,2a0.93,0.93,0,1,0-.27-1.84h0l-1.18.17,0.26,1.85Z" transform="translate(-0.02)"/>
  <path class="cls-3" d="M56.75,11.54h0.5V12.1h-0.5V11.54Zm0,1.28h0.5L57.32,16h-0.5Z" transform="translate(-0.02)"/>
  <path class="cls-3" d="M60.58,16a1,1,0,0,1-.38-0.56,3,3,0,0,1,0-1,2.37,2.37,0,0,1,.36-1.19,1.1,1.1,0,0,1,1.07-.37l0.41,0,0.57,0.12,0,0.39a8.11,8.11,0,0,0-.83-0.12,1.25,1.25,0,0,0-.6.07,0.62,0.62,0,0,0-.31.36,2.64,2.64,0,0,0-.14.75,2.56,2.56,0,0,0,0,.73,0.63,0.63,0,0,0,.27.4,1.27,1.27,0,0,0,.6.17h0.83V16.2a7.75,7.75,0,0,1-1,0A1.6,1.6,0,0,1,60.58,16Z" transform="translate(-0.02)"/>
  <path class="cls-3" d="M65.75,12.06l0.5,0.09-0.3,1.57a3.17,3.17,0,0,1,.57-0.08,2.24,2.24,0,0,1,.51,0,1.27,1.27,0,0,1,.64.27,0.83,0.83,0,0,1,.24.55,3.55,3.55,0,0,1-.07.94L67.52,17,67,17l0.31-1.66a3.32,3.32,0,0,0,.07-0.71,0.53,0.53,0,0,0-.15-0.37A0.83,0.83,0,0,0,66.82,14,2.37,2.37,0,0,0,66,14H65.86l-0.49,2.59-0.5-.09Z" transform="translate(-0.02)"/>
  <path class="cls-3" d="M70.31,17.68a1,1,0,0,1,0-.75,0.89,0.89,0,0,1,.46-0.56,1.33,1.33,0,0,1,.83,0l1,0.25,0.09-.26a0.51,0.51,0,0,0-.19-0.7l-0.13-.05a13,13,0,0,0-1.28-.35l0.1-.35a6.84,6.84,0,0,1,1.28.29,1.18,1.18,0,0,1,.7.51,1,1,0,0,1,0,.83l-0.53,1.55a0.36,0.36,0,0,0,.27.39l-0.14.35a1.12,1.12,0,0,1-.67-0.51,3,3,0,0,1-1.23-.15A0.94,0.94,0,0,1,70.31,17.68ZM72,17.95h0.17l0.34-1-1-.24a0.66,0.66,0,0,0-.46,0,0.57,0.57,0,0,0-.26.34,0.49,0.49,0,0,0,.17.67l0.12,0.05a2.87,2.87,0,0,0,.93.17h0Z" transform="translate(-0.02)"/>
  <path class="cls-3" d="M76.52,16.86L77,17.08l-0.19.39a3.43,3.43,0,0,1,1.33.07L77.9,18a4.36,4.36,0,0,0-.58-0.1,4.09,4.09,0,0,0-.52,0H76.58l-1,2.11-0.46-.22Z" transform="translate(-0.02)"/>
  <path class="cls-3" d="M79.06,21.43a2.13,2.13,0,0,1,.41-1.17,2.07,2.07,0,0,1,1-.94,1.34,1.34,0,0,1,1.14.25,4.07,4.07,0,0,1,.63.5L83,18.88l0.42,0.27L80.93,23l-0.42-.27,0.12-.18a2.15,2.15,0,0,1-1-.31A1,1,0,0,1,79.06,21.43Zm1.25,0.69a2.34,2.34,0,0,0,.4.1h0.14L82,20.38a4.42,4.42,0,0,0-.6-0.47,0.83,0.83,0,0,0-.79-0.15,1.71,1.71,0,0,0-.7.7,1.9,1.9,0,0,0-.35.83,0.62,0.62,0,0,0,.34.57,1.82,1.82,0,0,0,.38.25h0Z" transform="translate(-0.02)"/>
  <path class="cls-3" d="M83.3,24.72l-0.13-.15,0.29-.31a9.53,9.53,0,0,0,.83.83,1.15,1.15,0,0,0,.54.29,0.44,0.44,0,0,0,.41-0.18,0.42,0.42,0,0,0,.12-0.29,0.55,0.55,0,0,0-.1-0.27A3,3,0,0,0,85,24.29l-0.12-.12a3.23,3.23,0,0,1-.39-0.52,0.73,0.73,0,0,1-.1-0.41,0.78,0.78,0,0,1,.2-0.42,0.83,0.83,0,0,1,.72-0.36,1.66,1.66,0,0,1,.83.43,5.91,5.91,0,0,1,.7.69l0.12,0.14L86.66,24a8.76,8.76,0,0,0-.83-0.83,1.13,1.13,0,0,0-.52-0.28,0.39,0.39,0,0,0-.37.15,0.36,0.36,0,0,0-.1.27,0.55,0.55,0,0,0,.1.26,4.31,4.31,0,0,0,.27.34l0.11,0.13a3.24,3.24,0,0,1,.39.54,0.7,0.7,0,0,1,.09.42,1.09,1.09,0,0,1-1,.82,1.66,1.66,0,0,1-.9-0.44A6.68,6.68,0,0,1,83.3,24.72Z" transform="translate(-0.02)"/>
  <path class="cls-3" d="M87.35,28.25a1,1,0,0,1,.08-0.69,2.78,2.78,0,0,1,.6-0.75,2.83,2.83,0,0,1,.83-0.56,1,1,0,0,1,.7,0,2.14,2.14,0,0,1,1.14,1.23,1,1,0,0,1-.08.7A2.74,2.74,0,0,1,90,29a2.78,2.78,0,0,1-.79.55,1,1,0,0,1-.69,0A2.23,2.23,0,0,1,87.35,28.25Zm1.23,0.83A0.63,0.63,0,0,0,89,29a2.67,2.67,0,0,0,.59-0.44A2.78,2.78,0,0,0,90.14,28a0.63,0.63,0,0,0,.09-0.46,1.4,1.4,0,0,0-.76-0.83,0.64,0.64,0,0,0-.47.06,3.55,3.55,0,0,0-1.1,1,0.63,0.63,0,0,0-.09.46,1.14,1.14,0,0,0,.31.5,1.1,1.1,0,0,0,.46.31Z" transform="translate(-0.02)"/>
  <path class="cls-3" d="M93.1,30.22l0.29,0.41-0.18.13a2.59,2.59,0,0,1,.51.32,2.19,2.19,0,0,1,.36.39,1.22,1.22,0,0,1,.26.63,0.83,0.83,0,0,1-.21.56,3.48,3.48,0,0,1-.7.62l-1.38,1-0.29-.41,1.37-1a3.21,3.21,0,0,0,.54-0.45,0.58,0.58,0,0,0,.17-0.37,0.71,0.71,0,0,0-.16-0.41,2.1,2.1,0,0,0-.31-0.35A1.86,1.86,0,0,0,93,31.06L92.9,31l-2.12,1.51-0.29-.41Z" transform="translate(-0.02)"/>
  <path class="cls-3" d="M95.23,35.69l1,1.79-0.4.22-1-1.8Z" transform="translate(-0.02)"/>
  <path class="cls-3" d="M95.74,41.06V40.85l0.4-.1a6.5,6.5,0,0,0,.29,1.18,1.53,1.53,0,0,0,.46.7,0.7,0.7,0,0,0,.71,0A0.77,0.77,0,0,0,98,41.54l-0.31-.83,0.4-.15,0.31,0.83a0.81,0.81,0,0,0,.6.5,0.7,0.7,0,0,0,.42,0,0.59,0.59,0,0,0,.4-0.38,1.19,1.19,0,0,0-.1-0.7,5.8,5.8,0,0,0-.46-1l-0.09-.15,0.35-.18a4.86,4.86,0,0,1,.65,1.2,1.66,1.66,0,0,1,.12,1.07,1.16,1.16,0,0,1-1.27.64,1,1,0,0,1-.53-0.31,1.76,1.76,0,0,1,0,.48,0.72,0.72,0,0,1-.21.34,1.26,1.26,0,0,1-.44.26,1.23,1.23,0,0,1-1,0,1.6,1.6,0,0,1-.68-0.9A6.71,6.71,0,0,1,95.74,41.06Z" transform="translate(-0.02)"/>
  <path class="cls-3" d="M26.76,86.94l-1-1,0.31-.31L28.44,88l-0.31.31-1-1-2.81,2.83L24,89.78Z" transform="translate(-0.02)"/>
  <path class="cls-3" d="M30.72,90.46l-0.93,1.22,1.52,1.15L31,93.17,29.53,92l-1,1.23,1.83,1.4L30.09,95l-2.25-1.72,2.68-3.52,2.25,1.72-0.27.35Z" transform="translate(-0.02)"/>
  <path class="cls-3" d="M39.29,95.34l-2.11,3.89L36.72,99l1.86-3.43-0.08,0-3,2.64L35,97.88l0.6-3.94-0.08,0-1.86,3.43-0.46-.25,2.11-3.89,0.83,0.45-0.64,3.92,2.93-2.65Z" transform="translate(-0.02)"/>
  <path class="cls-3" d="M42.25,96.61l1.6,0.57a1.57,1.57,0,0,1,.94.7,1.43,1.43,0,0,1,0,1.14,1.33,1.33,0,0,1-1.91.93l-1.1-.4L41.28,101l-0.49-.17ZM43,99.54a0.9,0.9,0,0,0,1.26-.69,1.05,1.05,0,0,0,0-.83,1,1,0,0,0-.61-0.46l-1.1-.39-0.7,1.95Z" transform="translate(-0.02)"/>
  <path class="cls-3" d="M47.73,102.72a1.3,1.3,0,0,1-.42-0.83,5,5,0,0,1,.51-2.54,1.37,1.37,0,0,1,.71-0.62,2.49,2.49,0,0,1,2.11.42,1.38,1.38,0,0,1,.42.83,5,5,0,0,1-.51,2.56,1.28,1.28,0,0,1-.7.59,2.18,2.18,0,0,1-1.11,0A2.15,2.15,0,0,1,47.73,102.72Zm1.92,0a1,1,0,0,0,.5-0.48,4,4,0,0,0,.32-1,4.05,4.05,0,0,0,.1-1.09,1.06,1.06,0,0,0-.27-0.66,1.36,1.36,0,0,0-.73-0.35,1.38,1.38,0,0,0-.83,0,1,1,0,0,0-.51.51,5,5,0,0,0-.42,2.1,1,1,0,0,0,.27.65,1.83,1.83,0,0,0,1.56.35h0Z" transform="translate(-0.02)"/>
  <path class="cls-3" d="M64.66,102.49l-2,.22-0.19,1.17-0.51.06,0.76-4.54,1.12-.12,1.76,4.25-0.51.06Zm-1.91-.22,1.75-.2-1-2.33H63.17Z" transform="translate(-0.02)"/>
  <path class="cls-3" d="M69.36,102.59a1.28,1.28,0,0,1-.69-0.59,6,6,0,0,1-.62-2.49,1.3,1.3,0,0,1,.31-0.83,1.91,1.91,0,0,1,1-.51A6.48,6.48,0,0,1,70.6,98l0.08,0.41a7.16,7.16,0,0,0-1.16.17,1.44,1.44,0,0,0-.72.36,0.92,0.92,0,0,0-.22.65,5.19,5.19,0,0,0,.18,1.14,4.46,4.46,0,0,0,.34,1,0.89,0.89,0,0,0,.5.45,1.53,1.53,0,0,0,.87,0,6.33,6.33,0,0,0,1-.38l0.12,0.41a6.57,6.57,0,0,1-1.15.42A2,2,0,0,1,69.36,102.59Z" transform="translate(-0.02)"/>
  <path class="cls-3" d="M76.91,99.14l-1.84.74,0.11,1.18-0.47.19-0.46-4.58,1-.42,2.83,3.64-0.47.19Zm-1.9.28,1.66-.65-1.56-2-0.32.13Z" transform="translate(-0.02)"/>
  <path class="cls-3" d="M81.55,93.39a1.42,1.42,0,0,1,.83.4,3.91,3.91,0,0,1,.65.83,3,3,0,0,1,.52,1.74,1.52,1.52,0,0,1-.83,1.13l-1.43.83-2.22-3.8,1.43-.83A1.74,1.74,0,0,1,81.55,93.39Zm1,1.56a2.3,2.3,0,0,0-.9-1,1,1,0,0,0-.94.12l-1,.57,1.78,3.07,1-.57q1-.59.07-2.25v0Z" transform="translate(-0.02)"/>
  <path class="cls-3" d="M85.19,91.07l0.94,1.2,1.5-1.18,0.27,0.34-1.5,1.18,1,1.26,1.81-1.43,0.27,0.34-2.22,1.74L84.52,91l2.22-1.74L87,89.63Z" transform="translate(-0.02)"/>
  <path class="cls-3" d="M92.06,84l3.23,3-0.36.38-2.85-2.67L92,84.84l1.81,3.54-0.4.42-3.65-1.57-0.07.07,2.87,2.65-0.36.38L89,87.3l0.64-.68,3.64,1.6L91.42,84.7Z" transform="translate(-0.02)"/>
  <path class="cls-3" d="M96.7,82.09l-2.95-.22,0.33-.48,2.36,0.22-1.06-2.12L95.72,79,97,81.67l1.53,1.05-0.29.42Z" transform="translate(-0.02)"/>
</svg>
