<svg id="Layer_1" data-name="Layer 1" xmlns="http://www.w3.org/2000/svg" viewBox="0 0 116.67 116.67"><defs><style>.cls-1{fill:#5f93cc;}.cls-2{fill:#2c3d4f;}.cls-3{fill:#fff;}</style></defs><title>JClarkeRichardson-1</title><circle class="cls-1" cx="58.33" cy="58.33" r="53.33"/><path class="cls-2" d="M508,427.08a58.33,58.33,0,1,1,58.33-58.33A58.4,58.4,0,0,1,508,427.08Zm0-106.67a48.33,48.33,0,1,0,48.33,48.33A48.39,48.39,0,0,0,508,320.41Z" transform="translate(-449.65 -310.41)"/><path class="cls-3" d="M544.74,364.9a2.2,2.2,0,0,0-2-2.18v0H529.21a5.61,5.61,0,0,0-.6,0h-0.08a6.21,6.21,0,0,0-3.82,1.75c-2.39,2.21-2.13,4.21-2.13,7.18v9a2.63,2.63,0,0,1-.23,1.13,2.56,2.56,0,0,1-2.09,1.43,2.41,2.41,0,0,1-2.47-2.2L518,350.54c0-2.73-.88-3.82-2.71-5.42a7,7,0,0,0-3.23-1.37l-0.84-16.38-0.84,16.39a7.65,7.65,0,0,0-2.23.74c-3.55,2.24-3.91,4.7-3.91,8v36.83a2.45,2.45,0,0,1-2.36,2.73,2.35,2.35,0,0,1-2.29-1.84,3.39,3.39,0,0,1-.09-0.84V361.55a7.09,7.09,0,0,0-.8-2.91,6.52,6.52,0,0,0-4.55-3.43,6.82,6.82,0,0,0-5.57,1.32,7.62,7.62,0,0,0-2.61,6.19v15.8a2.5,2.5,0,0,1-2.51,2.5H480l-6.27,0h-0.07a2.46,2.46,0,1,0,.46,4.88l5.77,0.13h0.38l3.34,0.07h0a6,6,0,0,0,4.47-1.71,8.91,8.91,0,0,0,2.22-6V361.89a2.43,2.43,0,0,1,.87-1.79,2.33,2.33,0,0,1,2.4-.37,2.39,2.39,0,0,1,1.46,1.82V388c0,2.42-.12,3.81,1.18,5.59a6.66,6.66,0,0,0,5.37,2.82h0.12a6.59,6.59,0,0,0,4.91-2.21,7.25,7.25,0,0,0,2.14-5.79c0-1,0-2.06,0-3.09l1.08-29h-1l-2.31-3.84,2.31-3.84h1.31l0.18-4.91H512l0.25,4.91h1.19l2.31,3.84-2.31,3.84h-0.79L514,381.56a6.42,6.42,0,0,0,4.88,5.94h0.06a6.12,6.12,0,0,0,5.1-1.34c1.93-1.6,2.87-2.75,3-5.74V369.61a2.49,2.49,0,0,1,1.55-2.47h14.25v-0.06A2.2,2.2,0,0,0,544.74,364.9Z" transform="translate(-449.65 -310.41)"/><polygon class="cls-3" points="7.02 53.01 9.9 53.91 7.44 55.65 7.48 58.66 5.06 56.86 2.21 57.83 3.18 54.97 1.38 52.56 4.39 52.59 6.13 50.13 7.02 53.01"/><polygon class="cls-3" points="113.05 53.01 115.93 53.91 113.47 55.65 113.51 58.66 111.09 56.86 108.24 57.83 109.21 54.97 107.4 52.56 110.42 52.59 112.16 50.13 113.05 53.01"/><path class="cls-3" d="M461.29,350.49a2.34,2.34,0,0,0,.16-0.58,0.37,0.37,0,0,0-.12-0.31,1.67,1.67,0,0,0-.5-0.26l-4.24-1.59,0.22-.58,4.32,1.61a1.68,1.68,0,0,1,.75.47,0.76,0.76,0,0,1,.16.57,4,4,0,0,1-.24.85Z" transform="translate(-449.65 -310.41)"/><path class="cls-3" d="M462.4,345.43l0.29-.6,0.79,0.38-0.29.6Z" transform="translate(-449.65 -310.41)"/><path class="cls-3" d="M467.49,338a1.53,1.53,0,0,1-1.09,0,7.14,7.14,0,0,1-2.48-1.85,1.56,1.56,0,0,1-.35-1,2.3,2.3,0,0,1,.53-1.22,7.8,7.8,0,0,1,1-1.11l0.39,0.32a8.45,8.45,0,0,0-1,1,1.73,1.73,0,0,0-.4.9,1.11,1.11,0,0,0,.29.77,6.21,6.21,0,0,0,1,.93,5.48,5.48,0,0,0,1.05.65,1.1,1.1,0,0,0,.81,0,1.86,1.86,0,0,0,.8-0.69,7.63,7.63,0,0,0,.69-1.15l0.42,0.29a7.91,7.91,0,0,1-.75,1.28A2.39,2.39,0,0,1,467.49,338Z" transform="translate(-449.65 -310.41)"/><path class="cls-3" d="M467.42,329.75l0.41-.44,4.05,3.78-0.41.44Z" transform="translate(-449.65 -310.41)"/><path class="cls-3" d="M474.24,330.42a1.2,1.2,0,0,1-.79-0.46,1.07,1.07,0,0,1-.32-0.82,1.61,1.61,0,0,1,.5-0.87l0.89-.92-0.22-.25a0.62,0.62,0,0,0-1-.12,15.21,15.21,0,0,0-1.14,1.12l-0.31-.32a8.19,8.19,0,0,1,1.08-1.16,1.42,1.42,0,0,1,1-.43,1.26,1.26,0,0,1,.85.51l1.29,1.49a0.43,0.43,0,0,0,.58,0l0.28,0.36a1.35,1.35,0,0,1-.93.4,3.66,3.66,0,0,1-.9,1.19A1.12,1.12,0,0,1,474.24,330.42Zm1.3-1.6,0.1-.17-0.83-1-0.84.87a0.8,0.8,0,0,0-.27.5,0.69,0.69,0,0,0,.2.48,0.59,0.59,0,0,0,.93.13A3.47,3.47,0,0,0,475.54,328.82Z" transform="translate(-449.65 -310.41)"/><path class="cls-3" d="M477.12,323.46l0.49-.34,0.3,0.43a4.14,4.14,0,0,1,.88-1.34l0.33,0.48a5.25,5.25,0,0,0-.46.54,5.45,5.45,0,0,0-.35.53l-0.11.2,1.59,2.34-0.5.34Z" transform="translate(-449.65 -310.41)"/><path class="cls-3" d="M481,319l0.54-.28,1.52,2.9,0.54-.32,0.3-1.92,0.61-.32-0.34,2.19,2.19,1.2-0.61.32-1.9-1-0.56.32,0.82,1.56-0.54.28Z" transform="translate(-449.65 -310.41)"/><path class="cls-3" d="M489.05,320.88a2.23,2.23,0,0,1-.87-1.22A2.52,2.52,0,0,1,488,318a1.88,1.88,0,0,1,2.32-1,2,2,0,0,1,.85,1.13l0.12,0.42-2.5.94a2.06,2.06,0,0,0,.37.66,0.7,0.7,0,0,0,.49.23,1.8,1.8,0,0,0,.73-0.15l0.5-.2,0.51-.23,0.21-.1,0.18,0.42a11.39,11.39,0,0,1-1.35.64A1.63,1.63,0,0,1,489.05,320.88Zm1.55-2.48a1.63,1.63,0,0,0-.57-0.85,0.92,0.92,0,0,0-.82,0,1,1,0,0,0-.66.58,1.53,1.53,0,0,0,.09,1Z" transform="translate(-449.65 -310.41)"/><path class="cls-3" d="M498.35,313.08l2.05-.29a2,2,0,0,1,1.39.21,1.56,1.56,0,0,1,.61,1.15,1.43,1.43,0,0,1-.8,1.68l1.36,2-0.68.09L501,316l-1.57.22,0.28,2-0.62.09Zm2.44,2.46a1.12,1.12,0,1,0-.32-2.22l-1.43.2,0.31,2.23Z" transform="translate(-449.65 -310.41)"/><path class="cls-3" d="M506.07,312.27h0.6l0,0.67h-0.6Zm0,1.54h0.6l0.09,3.86h-0.6Z" transform="translate(-449.65 -310.41)"/><path class="cls-3" d="M510.69,317.62a1.15,1.15,0,0,1-.46-0.68,3.57,3.57,0,0,1-.06-1.17,2.86,2.86,0,0,1,.44-1.44,1.33,1.33,0,0,1,1.29-.45l0.5,0.06,0.69,0.15-0.06.47a9.79,9.79,0,0,0-1-.14,1.51,1.51,0,0,0-.72.08,0.75,0.75,0,0,0-.38.43,3.19,3.19,0,0,0-.17.9,3.09,3.09,0,0,0,0,.88,0.76,0.76,0,0,0,.32.48,1.53,1.53,0,0,0,.73.2h1v0.48a9.35,9.35,0,0,1-1.17,0A1.93,1.93,0,0,1,510.69,317.62Z" transform="translate(-449.65 -310.41)"/><path class="cls-3" d="M516.93,312.91l0.6,0.11-0.35,1.87a3.82,3.82,0,0,1,.69-0.1,2.71,2.71,0,0,1,.62,0,1.53,1.53,0,0,1,.77.33,1,1,0,0,1,.29.66,4.28,4.28,0,0,1-.09,1.13l-0.38,2-0.6-.11,0.37-2a4,4,0,0,0,.09-0.86,0.64,0.64,0,0,0-.18-0.45,1,1,0,0,0-.53-0.23,2.86,2.86,0,0,0-1,0l-0.16,0-0.59,3.13-0.6-.11Z" transform="translate(-449.65 -310.41)"/><path class="cls-3" d="M522.44,319.68a1.2,1.2,0,0,1,0-.91,1.07,1.07,0,0,1,.55-0.68,1.61,1.61,0,0,1,1,0l1.24,0.3,0.11-.31a0.62,0.62,0,0,0-.39-0.91,15.66,15.66,0,0,0-1.54-.42l0.12-.42a8.25,8.25,0,0,1,1.55.35,1.42,1.42,0,0,1,.85.61,1.25,1.25,0,0,1,0,1l-0.64,1.87a0.43,0.43,0,0,0,.33.47l-0.17.42a1.35,1.35,0,0,1-.81-0.61,3.67,3.67,0,0,1-1.48-.18A1.13,1.13,0,0,1,522.44,319.68Zm2,0.32h0.2l0.41-1.2-1.17-.29a0.8,0.8,0,0,0-.56,0,0.69,0.69,0,0,0-.31.41,0.59,0.59,0,0,0,.35.87A3.46,3.46,0,0,0,524.48,320Z" transform="translate(-449.65 -310.41)"/><path class="cls-3" d="M529.93,318.7l0.54,0.26-0.23.47a4.14,4.14,0,0,1,1.6.09l-0.25.53a5.25,5.25,0,0,0-.7-0.12,4.93,4.93,0,0,0-.63,0H530l-1.23,2.55-0.55-.26Z" transform="translate(-449.65 -310.41)"/><path class="cls-3" d="M533,324.2a2.57,2.57,0,0,1,.5-1.41,2.5,2.5,0,0,1,1.19-1.13,1.62,1.62,0,0,1,1.38.3,4.92,4.92,0,0,1,.76.6l0.91-1.44,0.51,0.32-3,4.68-0.51-.32,0.14-.22a2.6,2.6,0,0,1-1.24-.38A1.25,1.25,0,0,1,533,324.2ZM534.5,325a2.82,2.82,0,0,0,.48.12l0.17,0,1.4-2.21a5.33,5.33,0,0,0-.72-0.57,1,1,0,0,0-.95-0.18,2.06,2.06,0,0,0-.84.85,2.29,2.29,0,0,0-.42,1,0.75,0.75,0,0,0,.41.69A2.19,2.19,0,0,0,534.5,325Z" transform="translate(-449.65 -310.41)"/><path class="cls-3" d="M538.11,328.17l-0.16-.18,0.35-.37a11.51,11.51,0,0,0,1,1,1.39,1.39,0,0,0,.65.35,0.53,0.53,0,0,0,.49-0.22,0.51,0.51,0,0,0,.14-0.35,0.66,0.66,0,0,0-.12-0.33,3.61,3.61,0,0,0-.33-0.41L540,327.5a3.9,3.9,0,0,1-.47-0.63,0.88,0.88,0,0,1-.12-0.5,0.94,0.94,0,0,1,.24-0.51,1,1,0,0,1,.87-0.43,2,2,0,0,1,1,.52,7.13,7.13,0,0,1,.84.83l0.15,0.17-0.33.37a10.58,10.58,0,0,0-1-1,1.37,1.37,0,0,0-.63-0.34,0.47,0.47,0,0,0-.45.18,0.43,0.43,0,0,0-.12.32,0.66,0.66,0,0,0,.12.31,5.21,5.21,0,0,0,.33.41l0.13,0.16a3.91,3.91,0,0,1,.47.65,0.85,0.85,0,0,1,.11.51,1.08,1.08,0,0,1-.27.53,1.07,1.07,0,0,1-.88.46A2,2,0,0,1,539,329,8.06,8.06,0,0,1,538.11,328.17Z" transform="translate(-449.65 -310.41)"/><path class="cls-3" d="M543,332.44a1.16,1.16,0,0,1,.1-0.83,3.35,3.35,0,0,1,.73-0.9,3.42,3.42,0,0,1,1-.68,1.18,1.18,0,0,1,.85,0,2.58,2.58,0,0,1,1.38,1.49,1.2,1.2,0,0,1-.1.84,3.31,3.31,0,0,1-.74.93,3.35,3.35,0,0,1-.95.66,1.16,1.16,0,0,1-.83,0A2.69,2.69,0,0,1,543,332.44Zm1.49,1a0.76,0.76,0,0,0,.56-0.07,3.22,3.22,0,0,0,.71-0.53,3.36,3.36,0,0,0,.61-0.7,0.76,0.76,0,0,0,.11-0.56,1.69,1.69,0,0,0-.92-1,0.77,0.77,0,0,0-.57.07,4.28,4.28,0,0,0-1.33,1.22,0.76,0.76,0,0,0-.11.56,1.37,1.37,0,0,0,.37.6A1.33,1.33,0,0,0,544.47,333.4Z" transform="translate(-449.65 -310.41)"/><path class="cls-3" d="M549.94,334.81l0.35,0.49-0.22.16a3.13,3.13,0,0,1,.61.39,2.64,2.64,0,0,1,.43.47,1.47,1.47,0,0,1,.31.76,1,1,0,0,1-.25.67,4.2,4.2,0,0,1-.85.75l-1.66,1.18-0.35-.49L550,338a3.87,3.87,0,0,0,.65-0.54,0.7,0.7,0,0,0,.2-0.45,0.86,0.86,0,0,0-.19-0.5,2.53,2.53,0,0,0-.38-0.42,2.25,2.25,0,0,0-.39-0.29l-0.15-.09-2.56,1.82-0.35-.49Z" transform="translate(-449.65 -310.41)"/><path class="cls-3" d="M552.51,341.41l1.16,2.16-0.48.26L552,341.67Z" transform="translate(-449.65 -310.41)"/><path class="cls-3" d="M557.83,348l-1.3-1,0.32-.42,1.62,1.2,0.21,0.54-4.76,1.82-0.22-.58Z" transform="translate(-449.65 -310.41)"/><path class="cls-3" d="M469.87,403.27l-1.22-1.21,0.38-.38,2.87,2.85-0.37.38-1.21-1.2-3.39,3.42-0.44-.43Z" transform="translate(-449.65 -310.41)"/><path class="cls-3" d="M474.65,407.52L473.53,409l1.83,1.39-0.31.41-1.83-1.39L472,410.94l2.21,1.69-0.32.42L471.23,411l3.24-4.25,2.71,2.07-0.32.42Z" transform="translate(-449.65 -310.41)"/><path class="cls-3" d="M485,413.41l-2.55,4.69-0.55-.3,2.25-4.14-0.1-.05-3.59,3.19-0.61-.33,0.73-4.75-0.1-.05-2.25,4.14-0.55-.3,2.55-4.69,1,0.54-0.77,4.73,3.56-3.22Z" transform="translate(-449.65 -310.41)"/><path class="cls-3" d="M488.57,414.95l1.93,0.69a1.89,1.89,0,0,1,1.13.85,1.73,1.73,0,0,1,0,1.37,1.6,1.6,0,0,1-2.3,1.12l-1.34-.48-0.6,1.7-0.59-.21Zm0.91,3.53a1.09,1.09,0,0,0,1.52-.83,1.27,1.27,0,0,0,0-1,1.18,1.18,0,0,0-.74-0.56l-1.33-.47L488.15,418Z" transform="translate(-449.65 -310.41)"/><path class="cls-3" d="M495.18,422.31a1.57,1.57,0,0,1-.51-1,6,6,0,0,1,.62-3.07,1.65,1.65,0,0,1,.86-0.75,3,3,0,0,1,2.55.51,1.66,1.66,0,0,1,.51,1,6,6,0,0,1-.62,3.09,1.54,1.54,0,0,1-.84.71,2.63,2.63,0,0,1-1.34,0A2.6,2.6,0,0,1,495.18,422.31Zm2.32,0a1.17,1.17,0,0,0,.6-0.58,4.76,4.76,0,0,0,.39-1.23,4.89,4.89,0,0,0,.12-1.31,1.27,1.27,0,0,0-.33-0.8,1.64,1.64,0,0,0-.88-0.42,1.67,1.67,0,0,0-1,0,1.25,1.25,0,0,0-.61.61,6.1,6.1,0,0,0-.51,2.53,1.18,1.18,0,0,0,.33.78,1.78,1.78,0,0,0,.9.4A1.76,1.76,0,0,0,497.49,422.31Z" transform="translate(-449.65 -310.41)"/><path class="cls-3" d="M515.61,422l-2.38.27L513,423.72l-0.61.07,0.92-5.48,1.35-.15,2.13,5.13-0.61.07Zm-2.3-.27,2.11-.24-1.18-2.81-0.42,0Z" transform="translate(-449.65 -310.41)"/><path class="cls-3" d="M521.29,422.16a1.55,1.55,0,0,1-.83-0.71,7.18,7.18,0,0,1-.75-3,1.57,1.57,0,0,1,.38-1,2.31,2.31,0,0,1,1.18-.61,7.86,7.86,0,0,1,1.51-.2l0.1,0.49a8.55,8.55,0,0,0-1.4.21,1.73,1.73,0,0,0-.87.44,1.11,1.11,0,0,0-.26.78,6.25,6.25,0,0,0,.22,1.38,5.38,5.38,0,0,0,.41,1.17,1.08,1.08,0,0,0,.6.54,1.86,1.86,0,0,0,1.05,0,7.72,7.72,0,0,0,1.26-.46l0.15,0.49a7.93,7.93,0,0,1-1.39.51A2.4,2.4,0,0,1,521.29,422.16Z" transform="translate(-449.65 -310.41)"/><path class="cls-3" d="M530.4,418l-2.22.89,0.13,1.43-0.57.23L527.18,415l1.26-.51,3.41,4.39-0.57.23Zm-2.29.34,2-.79-1.88-2.4-0.39.16Z" transform="translate(-449.65 -310.41)"/><path class="cls-3" d="M536,411a1.71,1.71,0,0,1,1,.48,4.72,4.72,0,0,1,.78,1,3.57,3.57,0,0,1,.63,2.1,1.84,1.84,0,0,1-1,1.36l-1.73,1L533,412.4l1.73-1A2.09,2.09,0,0,1,536,411Zm1.23,1.88a2.78,2.78,0,0,0-1.09-1.19,1.24,1.24,0,0,0-1.19.12l-1.19.69,2.15,3.72,1.19-.69Q538.35,414.85,537.24,412.92Z" transform="translate(-449.65 -310.41)"/><path class="cls-3" d="M540.39,408.25l1.14,1.45,1.81-1.42,0.32,0.41-1.81,1.42,1.19,1.52,2.19-1.72,0.33,0.41-2.68,2.1-3.3-4.2,2.68-2.1,0.32,0.41Z" transform="translate(-449.65 -310.41)"/><path class="cls-3" d="M548.68,399.76l3.9,3.65-0.43.46-3.44-3.22-0.08.08,2.18,4.27-0.48.51-4.41-1.9-0.08.08,3.44,3.22-0.43.46-3.9-3.65,0.77-.82,4.39,1.93-2.22-4.25Z" transform="translate(-449.65 -310.41)"/><path class="cls-3" d="M554.29,397.41l-3.56-.27,0.4-.58,2.85,0.27-1.28-2.56,0.4-.58,1.55,3.22,1.85,1.27-0.35.51Z" transform="translate(-449.65 -310.41)"/></svg>