<svg id="Layer_1" data-name="Layer 1" xmlns="http://www.w3.org/2000/svg" viewBox="0 0 116.66 116.66">
  <defs>
    <style>
      .cls-1 {
        fill: #4bab27;
      }

      .cls-2 {
        fill: #070606;
      }

      .cls-3 {
        fill: #fff;
      }

      .cls-4 {
        fill: none;
      }
    </style>
  </defs>
  <title>MarkvilleSS-2-icon2</title>
  <rect class="cls-1" width="116.66" height="116.66"/>
  <circle class="cls-1" cx="58.33" cy="58.32" r="44.28"/>
  <path class="cls-2" d="M58.33,106.76a48.43,48.43,0,1,1,48.43-48.43A48.43,48.43,0,0,1,58.33,106.76Zm0-88.57A40.13,40.13,0,1,0,98.46,58.32,40.13,40.13,0,0,0,58.33,18.19h0Z" transform="translate(0 -0.01)"/>
  <polygon class="cls-3" points="15.73 53.9 18.12 54.65 16.08 56.09 16.11 58.59 14.1 57.1 11.73 57.91 12.54 55.53 11.05 53.53 13.54 53.55 14.99 51.51 15.73 53.9"/>
  <polygon class="cls-3" points="103.76 53.9 106.15 54.65 104.11 56.09 104.14 58.59 102.14 57.1 99.77 57.91 100.57 55.53 99.07 53.53 101.58 53.55 103.02 51.51 103.76 53.9"/>
  <path class="cls-2" d="M59,34.88a9.59,9.59,0,0,0-5,1.47c-0.35-.73-3.74-2.07-3.74-2.07l-0.29,1s-5-3.94-10.3-3c-1.38,7.59,1.1,11.41,1.1,11.41l-1.49,1.76s2.42,0.37,1.61.55-6,4.05-6,4.05l2.62,8.3L43,61.24l7.47,3.32L59,64.83V34.88h0Z" transform="translate(0 -0.01)"/>
  <path class="cls-3" d="M59,36.58a8.73,8.73,0,0,0-4.3,1.18v0.83c-0.83-.61-3.22-1.88-3.22-1.88a4.21,4.21,0,0,0-.91,1.79c-2.62-3.2-7.84-4.65-7.84-4.65s5.7,4.67,6,6.31c-2.65.37-5.87,4.67-5.87,4.67l1.79,1.28C44,46.35,37.45,51,37.45,51l2.49,8,1.51,2.15L59,65V36.58h0Z" transform="translate(0 -0.01)"/>
  <path class="cls-2" d="M59,41.06s-5,.18-6.44,1.54C55.15,43.88,55,46,55,46S51,43.64,49.11,44.31a26.66,26.66,0,0,1,7.07,9.78c-1.57-.38-3.51-2.8-4.44-4.08A10.59,10.59,0,0,1,51,48.9a5.57,5.57,0,0,0-3-2.23c-2.85-1.1-5.66,3-5.66,3H43c-1.79,2-2.18,3.52,1.61,7.21a27,27,0,0,1,6.15,5.37l0.43,0.6L59,63.72V41.06h0Z" transform="translate(0 -0.01)"/>
  <path class="cls-3" d="M57.25,54.15s-1.06,1.49-1.59,1.46S53,54.43,51,55.61c-0.22.83,2,.83,2,0.83s-0.83,1-3.32.72,0.6,3.52.6,3.52,0.27-2.57.44-2.06c0.71,2.08,4.57,4.74,4.57,4.74a2,2,0,0,1,1-2.31V56.52Z" transform="translate(0 -0.01)"/>
  <path class="cls-1" d="M50.05,48.72S52.24,53,54.92,54.1c-5.75.62-4.87-5.18-4.87-5.18" transform="translate(0 -0.01)"/>
  <line class="cls-4" x1="52.2" y1="51.89" x2="50.85" y2="51.42"/>
  <path class="cls-2" d="M59,61.44c-1.46,0-2.65.67-2.65,1.5s1.19,1.5,2.65,1.5v-3Z" transform="translate(0 -0.01)"/>
  <path class="cls-2" d="M59,34.88a9.59,9.59,0,0,1,5,1.47c0.35-.73,3.74-2.07,3.74-2.07l0.29,1s5-3.94,10.3-3c1.38,7.59-1.1,11.41-1.1,11.41l1.49,1.76s-2.42.37-1.61,0.55,6,4.05,6,4.05l-2.62,8.3L75,61.24l-7.47,3.32L59,64.83V34.88h0Z" transform="translate(0 -0.01)"/>
  <path class="cls-3" d="M59,36.58a8.73,8.73,0,0,1,4.3,1.18v0.83C64.11,38,66.5,36.7,66.5,36.7a4.21,4.21,0,0,1,.91,1.79c2.62-3.2,7.84-4.65,7.84-4.65s-5.7,4.67-6,6.31c2.65,0.37,5.87,4.67,5.87,4.67l-1.79,1.28C74,46.35,80.51,51,80.51,51L78,59,76.5,61.12,59,65V36.58h0Z" transform="translate(0 -0.01)"/>
  <path class="cls-2" d="M59,41.06s5,0.18,6.44,1.54C62.81,43.88,63,46,63,46s3.94-2.33,5.87-1.66a26.66,26.66,0,0,0-7.06,9.78c1.57-.38,3.51-2.8,4.44-4.08a10.59,10.59,0,0,0,.7-1.12,5.57,5.57,0,0,1,3-2.23c2.85-1.1,5.66,3,5.66,3H75c1.79,2,2.18,3.52-1.61,7.21a27,27,0,0,0-6.15,5.37l-0.43.6-7.8.83V41.06h0Z" transform="translate(0 -0.01)"/>
  <path class="cls-3" d="M60.7,54.15s1.06,1.49,1.59,1.46,2.68-1.18,4.62,0c0.22,0.83-2,.83-2,0.83s0.83,1,3.32.72-0.6,3.52-.6,3.52-0.27-2.57-.44-2.06c-0.71,2.08-4.57,4.74-4.57,4.74a2,2,0,0,0-1-2.31V56.52Z" transform="translate(0 -0.01)"/>
  <path class="cls-1" d="M67.9,48.72S65.72,53,63,54.1c5.75,0.62,4.87-5.18,4.87-5.18" transform="translate(0 -0.01)"/>
  <line class="cls-4" x1="65.76" y1="51.89" x2="67.11" y2="51.42"/>
  <path class="cls-2" d="M59,61.44c1.46,0,2.65.67,2.65,1.5s-1.19,1.5-2.65,1.5v-3Z" transform="translate(0 -0.01)"/>
  <path class="cls-2" d="M36.44,54.93s11.08,8.7,23.55,7.6c7.12-.37,21.42-7.12,21.42-7.12s1.89,18.74-19.81,25.69c-7.21,1.92-17.1,3.4-17.1,3.4s6.43-4.43,1.3-11.88C43,68.59,36.8,69,36.44,54.93Z" transform="translate(0 -0.01)"/>
  <path class="cls-1" d="M38.25,58.38s3.55,6.29,13,8.83c-2.43,0-11.08-2.57-11.08-2.57s0,1.5,5.6,4.92,4.51,10.24,2.58,12.37c26.17-5,27.28-13.57,27.28-13.57A24.51,24.51,0,0,1,63,72C79.2,66.59,79.88,58.38,79.88,58.38S57.25,72.47,38.25,58.38Z" transform="translate(0 -0.01)"/>
  <path class="cls-2" d="M79.94,56.47s0.22-1.26,2-.83c0.33,0,2-6.92,8.35-3.07a5.75,5.75,0,0,0-3.11,1.59s2,0.11,2.49,1.39c0,0-4,3.81-7.9,2.42a2,2,0,0,1-2-.61" transform="translate(0 -0.01)"/>
  <path class="cls-1" d="M82.59,56l4.64-3.14A4.3,4.3,0,0,0,82.59,56Z" transform="translate(0 -0.01)"/>
  <ellipse class="cls-1" cx="80.9" cy="56.85" rx="0.53" ry="0.49" transform="translate(-1.54 111.43) rotate(-68.61)"/>
  <path class="cls-1" d="M82,56.41s1.2,0.29,3.84-.83c1.66-.71,2.38-0.13,2.38-0.13S83,58.33,82,56.41Z" transform="translate(0 -0.01)"/>
  <polygon class="cls-2" points="58.98 41.05 58.03 50.13 58.74 63.69 60.01 58.75 59.83 45.72 58.98 41.05"/>
  <polygon class="cls-3" points="58.98 36.58 57.66 38 58.98 41.05 61.19 39.08 58.98 36.58"/>
  <path class="cls-3" d="M30.13,22.15l2.95,3.32-0.39.34-2.6-2.92L30,23l1.48,3.7L31.06,27l-3.5-1.91-0.07.07,2.6,2.92-0.39.34-2.95-3.32,0.7-.62,3.48,1.93-1.51-3.69Z" transform="translate(0 -0.01)"/>
  <path class="cls-3" d="M35.35,23.61a1,1,0,0,1-.59-0.47,0.88,0.88,0,0,1-.17-0.71,1.33,1.33,0,0,1,.51-0.66l0.83-.66-0.15-.23a0.51,0.51,0,0,0-.83-0.22,13.06,13.06,0,0,0-1.07.79l-0.22-.3a6.8,6.8,0,0,1,1-.83,1.18,1.18,0,0,1,.83-0.24,1,1,0,0,1,.64.52L37,22a0.36,0.36,0,0,0,.48,0l0.19,0.33a1.12,1.12,0,0,1-.83.22,3.06,3.06,0,0,1-.88.83A0.94,0.94,0,0,1,35.35,23.61Zm1.25-1.17,0.1-.12-0.57-.89L35.34,22a0.66,0.66,0,0,0-.27.37,0.57,0.57,0,0,0,.11.42,0.49,0.49,0,0,0,.63.28L35.92,23a2.88,2.88,0,0,0,.68-0.6h0Z" transform="translate(0 -0.01)"/>
  <path class="cls-3" d="M38.54,18.22L39,18l0.19,0.39a3.44,3.44,0,0,1,.88-1l0.22,0.44a4.31,4.31,0,0,0-.44.39,4.51,4.51,0,0,0-.35.39l-0.12.15,1,2.12-0.46.22Z" transform="translate(0 -0.01)"/>
  <path class="cls-3" d="M42.22,15.07l0.47-.17,0.91,2.56,0.48-.2,0.47-1.54,0.54-.19-0.55,1.73,1.66,1.25-0.54.19-1.44-1.06-0.49.2,0.49,1.39-0.47.17Z" transform="translate(0 -0.01)"/>
  <path class="cls-3" d="M47.62,14.77l0.52-.12,1.37,2.55,0.24,0L50,14.24l0.51-.11-0.23,3.32-1,.22Z" transform="translate(0 -0.01)"/>
  <path class="cls-3" d="M53.17,12.47l0.5-.06L53.73,13l-0.5.06Zm0.14,1.27,0.5-.06,0.36,3.19-0.5.06Z" transform="translate(0 -0.01)"/>
  <path class="cls-3" d="M56.94,12.06h0.51l0.13,4.6H57.08Z" transform="translate(0 -0.01)"/>
  <path class="cls-3" d="M60.8,12.09h0.51L61,16.73H60.54Z" transform="translate(0 -0.01)"/>
  <path class="cls-3" d="M64.13,16.73A1.86,1.86,0,0,1,64,15.5a2.1,2.1,0,0,1,.56-1.25,1.56,1.56,0,0,1,2.06.27,1.66,1.66,0,0,1,.14,1.17l-0.08.36-2.19-.36a1.73,1.73,0,0,0,0,.63,0.59,0.59,0,0,0,.25.37,1.5,1.5,0,0,0,.58.2L65.77,17l0.46,0h0.19l0,0.37a9.28,9.28,0,0,1-1.24-.1A1.35,1.35,0,0,1,64.13,16.73Zm2.14-1.14a1.37,1.37,0,0,0-.06-0.83,0.77,0.77,0,0,0-.59-0.35,0.83,0.83,0,0,0-.72.15,1.26,1.26,0,0,0-.36.77Z" transform="translate(0 -0.01)"/>
  <path class="cls-3" d="M72.44,19l-0.22-.12,0.2-.37a12.35,12.35,0,0,0,1.25.62,0.83,0.83,0,0,0,1.25-.46A0.71,0.71,0,0,0,75,18.3a0.65,0.65,0,0,0-.2-0.33,3.32,3.32,0,0,0-.53-0.39A4,4,0,0,1,73.55,17a1,1,0,0,1-.27-0.51,1.24,1.24,0,0,1,.1-0.64q0.44-1.11,1.83-.56a10.31,10.31,0,0,1,1.26.64l-0.2.37a10,10,0,0,0-1.2-.59q-0.94-.37-1.2.3a0.74,0.74,0,0,0-.07.42,0.67,0.67,0,0,0,.22.34,5.55,5.55,0,0,0,.62.46,3.53,3.53,0,0,1,.62.51,0.91,0.91,0,0,1,.24.48,1.17,1.17,0,0,1-.1.59,1.26,1.26,0,0,1-1.88.72A8.86,8.86,0,0,1,72.44,19Z" transform="translate(0 -0.01)"/>
  <path class="cls-3" d="M77.48,21.23l-0.2-.15,0.25-.33a12.28,12.28,0,0,0,1.15.78,0.83,0.83,0,0,0,1.3-.29,0.72,0.72,0,0,0,.11-0.38,0.65,0.65,0,0,0-.16-0.35,3.32,3.32,0,0,0-.47-0.46,3.93,3.93,0,0,1-.62-0.64,1,1,0,0,1-.21-0.55,1.23,1.23,0,0,1,.19-0.62q0.58-1,1.89-.31a10.29,10.29,0,0,1,1.16.83l-0.24.34-1.1-.75q-0.88-.49-1.24.14a0.74,0.74,0,0,0-.12.42,0.68,0.68,0,0,0,.17.37,5.54,5.54,0,0,0,.56.54,3.52,3.52,0,0,1,.55.59,0.9,0.9,0,0,1,.17.51,1.16,1.16,0,0,1-.17.57,1.26,1.26,0,0,1-2,.46A9.07,9.07,0,0,1,77.48,21.23Z" transform="translate(0 -0.01)"/>
  <path class="cls-3" d="M83.22,22.49l1.66,1.21-0.27.36L83,22.84Z" transform="translate(0 -0.01)"/>
  <path class="cls-3" d="M86.07,26.77h2.52a2,2,0,0,0,.5-0.1,1,1,0,0,0,.42-0.26,0.66,0.66,0,0,0,.23-0.57,1.26,1.26,0,0,0-.42-0.64,5.15,5.15,0,0,0-.78-0.6l-0.15-.1,0.26-.32a5,5,0,0,1,1.07.83,1.66,1.66,0,0,1,.55.91,1,1,0,0,1-.35.83,1.44,1.44,0,0,1-.68.42,4.09,4.09,0,0,1-1.09.08H86.49l1.6,1.54-0.3.31-2-2Z" transform="translate(0 -0.01)"/>
  <path class="cls-3" d="M26.48,85.65l-3.39,2.86-0.33-.4,3-2.49-0.06-.07-3.74,1.39-0.37-.44,2-3.45L23.5,83l-3,2.49-0.33-.4,3.39-2.86,0.61,0.71-2,3.45,3.72-1.42Z" transform="translate(0 -0.01)"/>
  <path class="cls-3" d="M28.87,87.94l0.38,0.35-3,3.32-0.38-.35Z" transform="translate(0 -0.01)"/>
  <path class="cls-3" d="M29.25,93.95l-0.17-.17,0.28-.3a12.31,12.31,0,0,0,1.05.91,0.83,0.83,0,0,0,1.33-.13,0.71,0.71,0,0,0,.15-0.37,0.64,0.64,0,0,0-.12-0.37A3.23,3.23,0,0,0,31.35,93a4,4,0,0,1-.55-0.71,1,1,0,0,1-.14-0.56,1.23,1.23,0,0,1,.26-0.6q0.71-1,1.91-.08a10.48,10.48,0,0,1,1.06.93l-0.28.31a7.89,7.89,0,0,0-1-.83q-0.83-.59-1.25,0a0.76,0.76,0,0,0-.17.4,0.67,0.67,0,0,0,.13.38,5.39,5.39,0,0,0,.49.6,3.53,3.53,0,0,1,.48.65,0.92,0.92,0,0,1,.12.52,1.2,1.2,0,0,1-.24.55,1.26,1.26,0,0,1-2,.23A9.19,9.19,0,0,1,29.25,93.95Z" transform="translate(0 -0.01)"/>
  <path class="cls-3" d="M35,97.62a1.28,1.28,0,0,1-.11-0.9,5.92,5.92,0,0,1,1.23-2.26A1.3,1.3,0,0,1,37,94a1.9,1.9,0,0,1,1.06.29,6.52,6.52,0,0,1,1,.72l-0.22.36a7.12,7.12,0,0,0-1-.66,1.44,1.44,0,0,0-.78-0.22,0.92,0.92,0,0,0-.6.33,5.1,5.1,0,0,0-.64,1,4.57,4.57,0,0,0-.41.95,0.91,0.91,0,0,0,.07.66,1.54,1.54,0,0,0,.66.57,6.39,6.39,0,0,0,1,.42L37,98.82a6.57,6.57,0,0,1-1.14-.46A2,2,0,0,1,35,97.62Z" transform="translate(0 -0.01)"/>
  <path class="cls-3" d="M45,97.43l-1.54,4.15L43,101.4l0.7-1.88-2.22-.83-0.7,1.89-0.48-.18,1.54-4.15,0.48,0.18-0.7,1.86,2.22,0.83,0.69-1.86Z" transform="translate(0 -0.01)"/>
  <path class="cls-3" d="M48.18,98.32l0.51,0.12-1,4.31-0.51-.12Z" transform="translate(0 -0.01)"/>
  <path class="cls-3" d="M52.41,99.59l-0.19,1.52,1.89,0.24,0,0.42-1.89-.24L52,103.12l2.29,0.29-0.06.43-2.81-.36L52,99.09l2.81,0.36-0.06.43Z" transform="translate(0 -0.01)"/>
  <path class="cls-3" d="M58.31,100v1.73h1.92v0.43H58.31V104H57.84V99.59h2.78V100H58.31Z" transform="translate(0 -0.01)"/>
  <path class="cls-3" d="M70.24,101.5l-1.94.44-0.07,1.19-0.5.11L68,98.63l1.1-.25,2.22,4-0.5.12Zm-1.93,0,1.72-.39L68.81,98.9,68.47,99Z" transform="translate(0 -0.01)"/>
  <path class="cls-3" d="M75,101.08a1.27,1.27,0,0,1-.75-0.51,5.9,5.9,0,0,1-.9-2.42,1.3,1.3,0,0,1,.22-0.88,1.9,1.9,0,0,1,.91-0.61,6.64,6.64,0,0,1,1.23-.31l0.12,0.4a7,7,0,0,0-1.14.3,1.44,1.44,0,0,0-.68.44,0.92,0.92,0,0,0-.14.66,5.18,5.18,0,0,0,.31,1.11,4.48,4.48,0,0,0,.44.93,0.9,0.9,0,0,0,.54.39,1.54,1.54,0,0,0,.83-0.12,6.43,6.43,0,0,0,1-.49l0.17,0.39a6.56,6.56,0,0,1-1.1.55A2,2,0,0,1,75,101.08Z" transform="translate(0 -0.01)"/>
  <path class="cls-3" d="M82.06,96.82l-1.75.94,0.24,1.16-0.45.24-1-4.52,1-.53,3.22,3.32-0.45.24Zm-1.86.49,1.55-.83L80,94.67l-0.31.17Z" transform="translate(0 -0.01)"/>
  <path class="cls-3" d="M86.07,90.58a1.41,1.41,0,0,1,.83.3,3.88,3.88,0,0,1,.73.78,3,3,0,0,1,.71,1.66,1.53,1.53,0,0,1-.72,1.22l-1.34,1L83.65,92,85,91A1.74,1.74,0,0,1,86.07,90.58ZM87.26,92a2.31,2.31,0,0,0-1-.88,1,1,0,0,0-1,.2L84.36,92l2.12,2.87,0.92-.68q0.95-.71-0.15-2.2h0Z" transform="translate(0 -0.01)"/>
  <path class="cls-3" d="M89.39,87.87L90.46,89l1.36-1.34,0.3,0.31-1.36,1.34,1.12,1.15,1.66-1.62,0.31,0.32-2,2-3.1-3.17,2-2,0.31,0.32Z" transform="translate(0 -0.01)"/>
  <path class="cls-3" d="M95.51,80.09l3.55,2.66-0.31.42-3.13-2.34-0.06.07,2.19,3.32-0.35.46L93.6,83.51l-0.06.07,3.13,2.34-0.31.42-3.55-2.66,0.56-.75,3.79,1.2-2.22-3.32Z" transform="translate(0 -0.01)"/>
  <path class="cls-3" d="M99.92,77.66l-3,.1,0.27-.51h2.37l-1.29-2,0.27-.51,1.57,2.49,1.66,0.88-0.24.46Z" transform="translate(0 -0.01)"/>
</svg>
