<?xml version="1.0" encoding="utf-8"?>
<!-- Generator: Adobe Illustrator 19.2.1, SVG Export Plug-In . SVG Version: 6.00 Build 0)  -->
<svg version="1.1" id="Layer_1" xmlns="http://www.w3.org/2000/svg" xmlns:xlink="http://www.w3.org/1999/xlink" x="0px" y="0px"
	 viewBox="0 0 116.7 116.7" style="enable-background:new 0 0 116.7 116.7;" xml:space="preserve">
<style type="text/css">
	.st0{fill:#4BAB27;}
	.st1{fill:#070606;}
	.st2{fill:#FFFFFF;}
	.st3{fill:none;}
</style>
<title>MarkvilleSS-1</title>
<circle class="st0" cx="58.3" cy="58.3" r="44.2"/>
<path class="st1" d="M58.3,106.7C31.6,106.7,10,85,10,58.3S31.6,10,58.3,10s48.3,21.6,48.3,48.3S85,106.6,58.3,106.7z M58.3,18.3
	c-22.1,0-40,17.9-40,40s17.9,40,40,40s40-17.9,40-40S80.4,18.3,58.3,18.3L58.3,18.3z"/>
<polygon class="st2" points="15.8,53.9 18.2,54.7 16.2,56.1 16.2,58.6 14.2,57.1 11.8,57.9 12.6,55.5 11.1,53.5 13.6,53.6 
	15.1,51.5 "/>
<polygon class="st2" points="103.7,53.9 106.1,54.7 104,56.1 104.1,58.6 102,57.1 99.7,57.9 100.5,55.5 99,53.5 101.5,53.6 
	102.9,51.5 "/>
<path class="st1" d="M59,34.9c-1.8,0-3.5,0.5-5,1.5c-0.3-0.7-3.7-2.1-3.7-2.1l-0.3,1c0,0-5-3.9-10.3-3c-1.4,7.6,1.1,11.4,1.1,11.4
	l-1.5,1.8c0,0,2.4,0.4,1.6,0.5c-0.8,0.2-6,4-6,4l2.6,8.3l5.5,2.9l7.5,3.3l8.5,0.3L59,34.9L59,34.9z"/>
<path class="st2" d="M59,36.6c-1.5,0-3,0.4-4.3,1.2v0.8c-0.8-0.6-3.2-1.9-3.2-1.9s-1,1.2-0.9,1.8c-2.6-3.2-7.8-4.6-7.8-4.6
	s5.7,4.7,6,6.3c-2.6,0.4-5.9,4.7-5.9,4.7l1.8,1.3C44,46.4,37.5,51,37.5,51l2.5,8l1.5,2.1L59,65V36.6L59,36.6z"/>
<path class="st1" d="M59,41.1c0,0-5,0.2-6.4,1.5C55.2,43.9,55,46,55,46s-3.9-2.3-5.9-1.7c3.1,2.7,5.5,6,7.1,9.8
	c-1.6-0.4-3.5-2.8-4.4-4.1c-0.3-0.4-0.5-0.7-0.7-1.1c-0.3-0.5-1-1.4-3-2.2c-2.8-1.1-5.7,3-5.7,3h0.7c-1.8,2-2.2,3.5,1.6,7.2
	c2.3,1.5,4.4,3.3,6.1,5.4l0.4,0.6l7.8,0.8L59,41.1L59,41.1z"/>
<path class="st2" d="M57.3,54.2c0,0-1.1,1.5-1.6,1.5s-2.7-1.2-4.6,0c-0.2,0.8,2,0.8,2,0.8s-0.8,1-3.3,0.7s0.6,3.5,0.6,3.5
	s0.3-2.6,0.4-2.1c0.7,2.1,4.6,4.7,4.6,4.7c-0.3-0.9,0.2-1.9,1-2.3v-4.5L57.3,54.2z"/>
<path class="st0" d="M50.1,48.7c0,0,2.2,4.2,4.9,5.4c-5.7,0.6-4.9-5.2-4.9-5.2"/>
<line class="st3" x1="52.2" y1="51.9" x2="50.9" y2="51.4"/>
<path class="st1" d="M59,61.4c-1.5,0-2.6,0.7-2.6,1.5s1.2,1.5,2.6,1.5V61.4z"/>
<path class="st1" d="M59,34.9c1.8,0,3.5,0.5,5,1.5c0.3-0.7,3.7-2.1,3.7-2.1l0.3,1c0,0,5-3.9,10.3-3c1.4,7.6-1.1,11.4-1.1,11.4
	l1.5,1.8c0,0-2.4,0.4-1.6,0.5s6,4,6,4l-2.6,8.3L75,61.2l-7.5,3.3L59,64.8V34.9L59,34.9z"/>
<path class="st2" d="M59,36.6c1.5,0,3,0.4,4.3,1.2v0.8c0.8-0.6,3.2-1.9,3.2-1.9s1,1.2,0.9,1.8c2.6-3.2,7.8-4.6,7.8-4.6
	s-5.7,4.7-6,6.3c2.6,0.4,5.9,4.7,5.9,4.7l-1.8,1.3c0.6,0.2,7.1,4.9,7.1,4.9L78,59l-1.5,2.1L59,65V36.6L59,36.6z"/>
<path class="st1" d="M59,41.1c0,0,5,0.2,6.4,1.5C62.8,43.9,63,46,63,46s3.9-2.3,5.9-1.7c-3.1,2.7-5.5,6-7,9.7
	c1.6-0.4,3.5-2.8,4.4-4.1c0.3-0.4,0.5-0.7,0.7-1.1c0.3-0.5,1-1.4,3-2.2c2.8-1.1,5.7,3,5.7,3H75c1.8,2,2.2,3.5-1.6,7.2
	c-2.3,1.5-4.4,3.3-6.1,5.4l-0.4,0.6L59,63.6V41.1z"/>
<path class="st2" d="M60.7,54.2c0,0,1.1,1.5,1.6,1.5s2.7-1.2,4.6,0c0.2,0.8-2,0.8-2,0.8s0.8,1,3.3,0.7s-0.6,3.5-0.6,3.5
	s-0.3-2.6-0.4-2.1c-0.7,2.1-4.6,4.7-4.6,4.7c0.3-0.9-0.2-1.9-1-2.3v-4.5L60.7,54.2z"/>
<path class="st0" d="M67.9,48.7c0,0-2.2,4.2-4.9,5.4c5.7,0.6,4.9-5.2,4.9-5.2"/>
<line class="st3" x1="65.7" y1="51.9" x2="67.1" y2="51.4"/>
<path class="st1" d="M59,61.4c1.5,0,2.6,0.7,2.6,1.5s-1.2,1.5-2.6,1.5V61.4z"/>
<path class="st1" d="M36.5,55c0,0,11.1,8.7,23.5,7.6c7.1-0.4,21.4-7.1,21.4-7.1s1.9,18.7-19.8,25.6c-7.2,1.9-17.1,3.4-17.1,3.4
	S51,80,45.8,72.6C43.1,68.6,36.8,69,36.5,55z"/>
<path class="st0" d="M38.3,58.4c0,0,3.5,6.3,13,8.8c-2.4,0-11.1-2.6-11.1-2.6s0,1.5,5.6,4.9s4.5,10.2,2.6,12.3
	c26.1-5,27.2-13.5,27.2-13.5s-4.8,3.4-12.7,3.7c16.2-5.4,16.9-13.6,16.9-13.6S57.3,72.4,38.3,58.4z"/>
<path class="st1" d="M79.9,56.5c0,0,0.2-1.3,2-0.8c0.3,0,2-6.9,8.3-3.1c-1.2,0.2-2.3,0.8-3.1,1.6c0,0,2,0.1,2.5,1.4
	c0,0-4,3.8-7.9,2.4c-0.7,0.2-1.5,0-2-0.6"/>
<path class="st0" d="M82.5,56l4.6-3.1C85.1,52.6,83.1,53.9,82.5,56z"/>
<ellipse transform="matrix(0.3647 -0.9311 0.9311 0.3647 -1.5098 111.4428)" class="st0" cx="80.9" cy="56.8" rx="0.5" ry="0.5"/>
<path class="st0" d="M81.9,56.4c0,0,1.2,0.3,3.8-0.8c1.7-0.7,2.4-0.1,2.4-0.1S83,58.3,81.9,56.4z"/>
<polygon class="st1" points="59,41.1 58,50.2 58.7,63.7 60,58.8 59.8,45.8 "/>
<polygon class="st2" points="59,36.6 57.7,38.1 59,41.1 61.2,39.1 "/>
<path class="st2" d="M30.2,22.2l2.9,3.3l-0.4,0.3L30.1,23l0,0l1.5,3.7l-0.4,0.4l-3.5-1.9l-0.1,0.1l2.6,2.9l-0.4,0.3l-2.9-3.3
	l0.7-0.6l3.5,1.9l-1.5-3.7L30.2,22.2z"/>
<path class="st2" d="M35.4,23.7c-0.3-0.1-0.5-0.2-0.6-0.5c-0.2-0.2-0.2-0.5-0.2-0.7c0.1-0.3,0.3-0.5,0.5-0.7l0.8-0.7l-0.1-0.2
	c-0.1-0.3-0.4-0.4-0.7-0.3c-0.1,0-0.1,0.1-0.2,0.1c-0.4,0.2-0.7,0.5-1.1,0.8l-0.2-0.3c0.3-0.3,0.7-0.6,1-0.8
	c0.2-0.2,0.5-0.3,0.8-0.2c0.3,0.1,0.5,0.3,0.6,0.5l0.9,1.4c0.1,0.1,0.3,0.1,0.5,0l0.2,0.3c-0.2,0.2-0.5,0.3-0.8,0.2
	c-0.2,0.3-0.5,0.6-0.9,0.8C35.9,23.6,35.6,23.7,35.4,23.7z M36.6,22.5l0.1-0.1l-0.6-0.9l-0.8,0.6c-0.1,0.1-0.2,0.2-0.3,0.4
	c0,0.1,0,0.3,0.1,0.4c0.1,0.3,0.4,0.4,0.6,0.3c0,0,0.1,0,0.1-0.1C36.2,22.9,36.5,22.7,36.6,22.5L36.6,22.5z"/>
<path class="st2" d="M38.6,18.3l0.4-0.2l0.2,0.4c0.2-0.4,0.5-0.7,0.9-1l0.2,0.4c-0.2,0.1-0.3,0.2-0.4,0.4c-0.1,0.1-0.2,0.3-0.3,0.4
	l-0.1,0.1l1,2.1L40,21.2L38.6,18.3z"/>
<path class="st2" d="M42.3,15.1l0.5-0.2l0.9,2.6l0.5-0.2l0.5-1.5l0.5-0.2l-0.5,1.8l1.7,1.2l-0.5,0.2l-1.4-1.1L44,17.9l0.5,1.4
	L44,19.5L42.3,15.1z"/>
<path class="st2" d="M47.6,14.9l0.5-0.1l1.4,2.5h0.2l0.2-2.9l0.5-0.1l-0.2,3.3l-1,0.2L47.6,14.9z"/>
<path class="st2" d="M53.2,12.6l0.5-0.1l0.1,0.6l-0.5,0.1L53.2,12.6z M53.3,13.8l0.5-0.1l0.4,3.2L53.7,17L53.3,13.8z"/>
<path class="st2" d="M56.9,12.2h0.5l0.1,4.6H57L56.9,12.2z"/>
<path class="st2" d="M60.8,12.2h0.5L61,16.8h-0.5L60.8,12.2z"/>
<path class="st2" d="M64.1,16.8c-0.2-0.4-0.2-0.8-0.1-1.2c0-0.5,0.2-0.9,0.6-1.2c0.7-0.4,1.5-0.3,2.1,0.3c0.2,0.4,0.2,0.8,0.1,1.2
	l-0.1,0.4l-2.2-0.4c0,0.2,0,0.4,0,0.6s0.1,0.3,0.2,0.4c0.2,0.1,0.4,0.2,0.6,0.2l0.4,0.1h0.5h0.2v0.4c-0.4,0-0.8,0-1.2-0.1
	C64.7,17.3,64.4,17.1,64.1,16.8z M66.3,15.7c0.1-0.3,0-0.6-0.1-0.8s-0.3-0.3-0.6-0.3c-0.3-0.1-0.5,0-0.7,0.1
	c-0.2,0.2-0.3,0.5-0.4,0.8L66.3,15.7z"/>
<path class="st2" d="M72.4,19.1L72.2,19l0.2-0.4c0.4,0.2,0.8,0.4,1.3,0.6c0.4,0.3,0.9,0.1,1.1-0.2c0-0.1,0.1-0.1,0.1-0.2
	c0.1-0.1,0.1-0.3,0.1-0.4s-0.1-0.2-0.2-0.3c-0.2-0.1-0.3-0.3-0.5-0.4c-0.3-0.2-0.5-0.3-0.7-0.5c-0.1-0.1-0.2-0.3-0.3-0.5
	c0-0.2,0-0.4,0.1-0.6c0.3-0.7,0.9-0.9,1.8-0.6c0.4,0.2,0.9,0.4,1.3,0.6l-0.2,0.4c-0.6-0.3-1-0.5-1.2-0.6c-0.6-0.2-1-0.1-1.2,0.3
	c-0.1,0.1-0.1,0.3-0.1,0.4s0.1,0.3,0.2,0.3c0.2,0.2,0.4,0.3,0.6,0.5c0.2,0.1,0.4,0.3,0.6,0.5c0.1,0.1,0.2,0.3,0.2,0.5s0,0.4-0.1,0.6
	c-0.2,0.7-0.9,1.1-1.6,0.9c-0.1,0-0.2-0.1-0.3-0.1C73.1,19.5,72.8,19.3,72.4,19.1z"/>
<path class="st2" d="M77.4,21.3l-0.2-0.1l0.2-0.3c0.4,0.3,0.8,0.5,1.2,0.8c0.3,0.3,0.9,0.3,1.2-0.1c0.1-0.1,0.1-0.1,0.1-0.2
	C80,21.3,80,21.2,80,21c0-0.1-0.1-0.3-0.2-0.3c-0.1-0.2-0.3-0.3-0.5-0.5s-0.4-0.4-0.6-0.6c-0.1-0.2-0.2-0.3-0.2-0.5s0.1-0.4,0.2-0.6
	c0.4-0.7,1-0.8,1.9-0.3c0.4,0.2,0.8,0.5,1.2,0.8l-0.2,0.3c-0.6-0.4-0.9-0.6-1.1-0.7c-0.6-0.3-1-0.3-1.2,0.1
	c-0.1,0.1-0.1,0.3-0.1,0.4s0.1,0.3,0.2,0.4c0.2,0.2,0.4,0.4,0.6,0.5c0.2,0.2,0.4,0.4,0.5,0.6c0.1,0.1,0.2,0.3,0.2,0.5
	s-0.1,0.4-0.2,0.6c-0.3,0.6-1,0.9-1.7,0.7c-0.1,0-0.2-0.1-0.3-0.2C78.1,21.8,77.8,21.6,77.4,21.3z"/>
<path class="st2" d="M83.2,22.6l1.7,1.2l-0.3,0.4L82.9,23L83.2,22.6z"/>
<path class="st2" d="M89.5,25.6l-1.3-0.3l0.1-0.4l1.7,0.3l0.3,0.3l-3,3l-0.4-0.4L89.5,25.6z"/>
<path class="st2" d="M26.5,85.6l-3.4,2.9l-0.3-0.4l3-2.5l-0.1-0.1L22,86.9l-0.4-0.4l2-3.4L23.5,83l-3,2.5L20.3,85l3.4-2.9l0.6,0.7
	l-2,3.4l3.7-1.4L26.5,85.6z"/>
<path class="st2" d="M28.9,87.9l0.4,0.3l-3,3.3L26,91.2L28.9,87.9z"/>
<path class="st2" d="M29.3,93.9l-0.2-0.2l0.3-0.3c0.3,0.3,0.7,0.6,1.1,0.9c0.3,0.3,0.8,0.4,1.2,0.1c0.1-0.1,0.1-0.1,0.2-0.2
	S32,94,32,93.8c0-0.1,0-0.3-0.1-0.4c-0.1-0.2-0.3-0.4-0.4-0.5c-0.2-0.2-0.4-0.4-0.5-0.7c-0.1-0.2-0.2-0.4-0.1-0.6
	c0-0.2,0.1-0.4,0.3-0.6c0.5-0.6,1.1-0.7,1.9-0.1c0.4,0.3,0.7,0.6,1.1,0.9l-0.3,0.3c-0.5-0.4-0.8-0.7-1-0.8c-0.6-0.4-1-0.4-1.2,0
	c-0.1,0.1-0.2,0.3-0.2,0.4s0.1,0.3,0.1,0.4c0.1,0.2,0.3,0.4,0.5,0.6c0.2,0.2,0.3,0.4,0.5,0.6c0.1,0.2,0.1,0.3,0.1,0.5
	s-0.1,0.4-0.2,0.5c-0.4,0.6-1.1,0.8-1.7,0.4c-0.1-0.1-0.2-0.1-0.3-0.2C29.9,94.5,29.6,94.2,29.3,93.9z"/>
<path class="st2" d="M35.1,97.5c-0.1-0.3-0.2-0.6-0.1-0.9c0.2-0.8,0.7-1.6,1.2-2.3c0.2-0.2,0.5-0.4,0.8-0.4c0.4,0,0.7,0.1,1.1,0.3
	c0.4,0.2,0.7,0.4,1,0.7l-0.2,0.4c-0.3-0.2-0.6-0.5-1-0.7c-0.2-0.1-0.5-0.2-0.8-0.2c-0.2,0-0.4,0.1-0.6,0.3c-0.2,0.3-0.5,0.6-0.6,1
	c-0.2,0.3-0.3,0.6-0.4,0.9c-0.1,0.2,0,0.5,0.1,0.7c0.2,0.2,0.4,0.4,0.7,0.6s0.7,0.3,1,0.4l-0.2,0.4c-0.4-0.1-0.8-0.3-1.1-0.5
	C35.6,98.1,35.3,97.9,35.1,97.5z"/>
<path class="st2" d="M45,97.3l-1.5,4.1l-0.5-0.2l0.7-1.9l-2.2-0.8l-0.7,1.9l-0.5-0.2l1.5-4.1l0.5,0.2l-0.7,1.9l2.2,0.8l0.7-1.9
	L45,97.3z"/>
<path class="st2" d="M48.2,98.2l0.5,0.1l-1,4.3l-0.5-0.1L48.2,98.2z"/>
<path class="st2" d="M52.4,99.5l-0.2,1.5l1.9,0.2v0.4l-1.9-0.2L52,103l2.3,0.3l-0.1,0.4l-2.8-0.4L52,99l2.8,0.4l-0.1,0.4L52.4,99.5z
	"/>
<path class="st2" d="M58.3,99.9v1.7h1.9v0.4h-1.9v1.8h-0.5v-4.4h2.8v0.4L58.3,99.9z"/>
<path class="st2" d="M70.2,101.4l-1.9,0.4l-0.1,1.2l-0.5,0.1l0.3-4.6l1.1-0.2l2.2,4l-0.5,0.1L70.2,101.4z M68.3,101.4L70,101
	l-1.2-2.2l-0.3,0.1L68.3,101.4z"/>
<path class="st2" d="M74.9,101c-0.3-0.1-0.6-0.3-0.7-0.5c-0.5-0.7-0.8-1.6-0.9-2.4c0-0.3,0-0.6,0.2-0.9s0.6-0.5,0.9-0.6
	c0.4-0.1,0.8-0.2,1.2-0.3l0.1,0.4c-0.4,0.1-0.8,0.2-1.1,0.3c-0.3,0.1-0.5,0.2-0.7,0.4c-0.1,0.2-0.2,0.4-0.1,0.7
	c0.1,0.4,0.2,0.8,0.3,1.1c0.1,0.3,0.3,0.6,0.4,0.9c0.1,0.2,0.3,0.3,0.5,0.4c0.3,0,0.6,0,0.8-0.1c0.3-0.1,0.7-0.3,1-0.5l0.2,0.4
	c-0.3,0.2-0.7,0.4-1.1,0.5C75.7,101,75.3,101,74.9,101z"/>
<path class="st2" d="M82,96.7l-1.7,0.9l0.2,1.2L80.1,99l-1-4.5l1-0.5l3.2,3.3l-0.4,0.2L82,96.7z M80.2,97.2l1.5-0.8l-1.8-1.8
	l-0.3,0.2L80.2,97.2z"/>
<path class="st2" d="M86,90.5c0.3,0,0.6,0.1,0.8,0.3c0.3,0.2,0.5,0.5,0.7,0.8c0.4,0.5,0.7,1,0.7,1.7c0,0.5-0.3,1-0.7,1.2l-1.3,1
	l-2.6-3.6l1.3-1C85.2,90.7,85.6,90.5,86,90.5z M87.2,91.9c-0.2-0.4-0.6-0.7-1-0.9c-0.3-0.1-0.7,0-1,0.2l-0.9,0.7l2.1,2.9l0.9-0.7
	C88,93.7,87.9,92.9,87.2,91.9L87.2,91.9z"/>
<path class="st2" d="M89.3,87.8l1.1,1.1l1.4-1.3l0.3,0.3l-1.4,1.3l1.1,1.1l1.7-1.6l0.3,0.3l-2,2l-3.1-3.2l2-2l0.3,0.3L89.3,87.8z"/>
<path class="st2" d="M95.4,80l3.5,2.7l-0.3,0.4l-3.1-2.3l-0.1,0.1l2.2,3.3l-0.3,0.5l-3.8-1.2l-0.1,0.1l3.1,2.3l-0.3,0.4l-3.5-2.7
	l0.6-0.7l3.8,1.2l-2.2-3.3L95.4,80z"/>
<path class="st2" d="M99.8,77.6l-3,0.1l0.3-0.5h2.4l-1.3-2l0.3-0.5l1.6,2.5l1.7,0.9l-0.2,0.5L99.8,77.6z"/>
</svg>
