<svg id="Layer_1" data-name="Layer 1" xmlns="http://www.w3.org/2000/svg" viewBox="0 0 116.66 116.66">
  <defs>
    <style>
      .cls-1 {
        fill: #4bab27;
      }

      .cls-2 {
        fill: #070606;
      }

      .cls-3 {
        fill: #fff;
      }

      .cls-4 {
        fill: none;
      }
    </style>
  </defs>
  <title>MarkvilleSS-1-icon2</title>
  <rect class="cls-1" width="116.66" height="116.66"/>
  <circle class="cls-1" cx="58.33" cy="58.32" r="44.19"/>
  <path class="cls-2" d="M58.33,106.66a48.33,48.33,0,1,1,48.33-48.33A48.33,48.33,0,0,1,58.33,106.66Zm0-88.38a40,40,0,1,0,40,40,40,40,0,0,0-40-40h0Z" transform="translate(0 -0.01)"/>
  <polygon class="cls-3" points="15.82 53.91 18.2 54.66 16.16 56.1 16.2 58.59 14.19 57.1 11.83 57.91 12.63 55.54 11.14 53.54 13.64 53.56 15.08 51.53 15.82 53.91"/>
  <polygon class="cls-3" points="103.67 53.91 106.06 54.66 104.02 56.1 104.05 58.59 102.05 57.1 99.68 57.91 100.49 55.54 98.99 53.54 101.49 53.56 102.93 51.53 103.67 53.91"/>
  <path class="cls-2" d="M59,34.93a9.57,9.57,0,0,0-5,1.47c-0.35-.73-3.73-2.06-3.73-2.06l-0.29,1s-5-3.94-10.27-3c-1.38,7.57,1.09,11.38,1.09,11.38l-1.49,1.76s2.41,0.36,1.61.55-6,4-6,4l2.62,8.29L43,61.24l7.46,3.31L59,64.82V34.93h0Z" transform="translate(0 -0.01)"/>
  <path class="cls-3" d="M59,36.62a8.71,8.71,0,0,0-4.29,1.18v0.83c-0.83-.6-3.21-1.88-3.21-1.88a4.2,4.2,0,0,0-.9,1.79c-2.61-3.2-7.82-4.64-7.82-4.64s5.68,4.66,6,6.3c-2.64.36-5.86,4.66-5.86,4.66l1.78,1.28C44,46.37,37.49,51,37.49,51L40,59l1.51,2.15L59,65V36.62h0Z" transform="translate(0 -0.01)"/>
  <path class="cls-2" d="M59,41.05s-5,.18-6.43,1.54C55.16,43.87,55,46,55,46s-3.93-2.33-5.86-1.66a26.6,26.6,0,0,1,7.06,9.8c-1.57-.38-3.5-2.79-4.43-4.07a10.57,10.57,0,0,1-.7-1.12,5.56,5.56,0,0,0-3-2.22c-2.84-1.09-5.65,3-5.65,3h0.69c-1.78,2-2.18,3.51,1.61,7.19a26.9,26.9,0,0,1,6.14,5.36l0.43,0.6L59,63.71V41.05h0Z" transform="translate(0 -0.01)"/>
  <path class="cls-3" d="M57.25,54.15s-1.06,1.49-1.58,1.46-2.68-1.18-4.61,0c-0.22.83,2,.83,2,0.83s-0.83,1-3.31.72,0.6,3.51.6,3.51,0.27-2.57.44-2.05c0.71,2.07,4.56,4.73,4.56,4.73a2,2,0,0,1,1-2.3V56.52Z" transform="translate(0 -0.01)"/>
  <path class="cls-1" d="M50.07,48.74s2.18,4.24,4.86,5.38c-5.74.62-4.86-5.17-4.86-5.17" transform="translate(0 -0.01)"/>
  <line class="cls-4" x1="52.22" y1="51.9" x2="50.86" y2="51.43"/>
  <path class="cls-2" d="M59,61.43c-1.46,0-2.64.67-2.64,1.5s1.18,1.5,2.64,1.5v-3Z" transform="translate(0 -0.01)"/>
  <path class="cls-2" d="M59,34.93a9.57,9.57,0,0,1,5,1.47c0.35-.73,3.73-2.06,3.73-2.06l0.29,1s5-3.94,10.27-3c1.38,7.57-1.09,11.38-1.09,11.38l1.49,1.76s-2.41.36-1.61,0.55,6,4,6,4l-2.62,8.29L75,61.24l-7.46,3.31L59,64.82V34.93h0Z" transform="translate(0 -0.01)"/>
  <path class="cls-3" d="M59,36.62a8.71,8.71,0,0,1,4.29,1.18v0.83c0.83-.6,3.21-1.88,3.21-1.88a4.2,4.2,0,0,1,.9,1.79c2.61-3.2,7.82-4.64,7.82-4.64s-5.68,4.66-6,6.3c2.64,0.36,5.86,4.66,5.86,4.66l-1.78,1.28C73.95,46.37,80.46,51,80.46,51L78,59l-1.51,2.15L59,65V36.62h0Z" transform="translate(0 -0.01)"/>
  <path class="cls-2" d="M59,41.05s5,0.18,6.43,1.54C62.8,43.87,63,46,63,46s3.93-2.33,5.86-1.66a26.61,26.61,0,0,0-7,9.74c1.57-.38,3.5-2.79,4.43-4.07a10.57,10.57,0,0,0,.7-1.12,5.56,5.56,0,0,1,3-2.22c2.84-1.09,5.65,3,5.65,3H74.93c1.78,2,2.18,3.51-1.61,7.19a26.9,26.9,0,0,0-6.14,5.36l-0.43.6L59,63.65V41.05Z" transform="translate(0 -0.01)"/>
  <path class="cls-3" d="M60.69,54.15s1.06,1.49,1.58,1.46,2.68-1.18,4.61,0c0.22,0.83-2,.83-2,0.83s0.83,1,3.31.72-0.6,3.51-.6,3.51-0.27-2.57-.44-2.05c-0.71,2.07-4.56,4.73-4.56,4.73a2,2,0,0,0-1-2.3V56.52Z" transform="translate(0 -0.01)"/>
  <path class="cls-1" d="M67.88,48.74S65.7,53,63,54.11c5.74,0.62,4.86-5.17,4.86-5.17" transform="translate(0 -0.01)"/>
  <line class="cls-4" x1="65.75" y1="51.9" x2="67.09" y2="51.43"/>
  <path class="cls-2" d="M59,61.43c1.46,0,2.64.67,2.64,1.5s-1.18,1.5-2.64,1.5v-3Z" transform="translate(0 -0.01)"/>
  <path class="cls-2" d="M36.49,55S47.54,63.66,60,62.56c7.1-.37,21.38-7.11,21.38-7.11s1.89,18.7-19.77,25.64C54.41,83,44.54,84.47,44.54,84.47S51,80,45.84,72.61C43.07,68.57,36.85,69,36.49,55Z" transform="translate(0 -0.01)"/>
  <path class="cls-1" d="M38.3,58.38s3.54,6.28,13,8.82c-2.43,0-11.06-2.56-11.06-2.56s0,1.5,5.59,4.91,4.5,10.22,2.58,12.35c26.12-5,27.23-13.54,27.23-13.54A24.46,24.46,0,0,1,62.95,72c16.21-5.43,16.89-13.62,16.89-13.62S57.25,72.44,38.3,58.38Z" transform="translate(0 -0.01)"/>
  <path class="cls-2" d="M79.9,56.47s0.22-1.26,2-.83c0.33,0,2-6.91,8.34-3.07a5.74,5.74,0,0,0-3.11,1.59s2,0.11,2.49,1.38c0,0-4,3.8-7.89,2.41a2,2,0,0,1-2-.61" transform="translate(0 -0.01)"/>
  <path class="cls-1" d="M82.54,56l4.63-3.13A4.29,4.29,0,0,0,82.54,56Z" transform="translate(0 -0.01)"/>
  <ellipse class="cls-1" cx="80.85" cy="56.85" rx="0.53" ry="0.49" transform="translate(-1.57 111.39) rotate(-68.61)"/>
  <path class="cls-1" d="M81.92,56.42s1.19,0.29,3.84-.83c1.66-.71,2.38-0.13,2.38-0.13S83,58.33,81.92,56.42Z" transform="translate(0 -0.01)"/>
  <polygon class="cls-2" points="58.98 41.09 58.03 50.15 58.74 63.68 60 58.75 59.82 45.74 58.98 41.09"/>
  <polygon class="cls-3" points="58.98 36.62 57.66 38.05 58.98 41.09 61.18 39.12 58.98 36.62"/>
  <path class="cls-3" d="M30.18,22.22l2.94,3.31-0.39.34L30.14,23,30.07,23l1.47,3.7-0.43.38L27.62,25.2l-0.07.07,2.59,2.92-0.39.34L26.81,25.2l0.7-.62L31,26.51l-1.49-3.69Z" transform="translate(0 -0.01)"/>
  <path class="cls-3" d="M35.4,23.65a1,1,0,0,1-.59-0.47,0.88,0.88,0,0,1-.17-0.7,1.33,1.33,0,0,1,.51-0.65L36,21.17l-0.15-.23A0.51,0.51,0,0,0,35,20.72a13,13,0,0,0-1.07.79l-0.22-.3a6.79,6.79,0,0,1,1-.83,1.18,1.18,0,0,1,.83-0.24,1,1,0,0,1,.64.52L37.09,22a0.36,0.36,0,0,0,.48,0l0.19,0.33a1.12,1.12,0,0,1-.83.22,3.06,3.06,0,0,1-.88.83A0.94,0.94,0,0,1,35.4,23.65Zm1.25-1.17,0.1-.12-0.57-.89-0.79.61a0.66,0.66,0,0,0-.27.37,0.57,0.57,0,0,0,.11.41,0.49,0.49,0,0,0,.63.28L36,23.09a2.87,2.87,0,0,0,.68-0.57v0Z" transform="translate(0 -0.01)"/>
  <path class="cls-3" d="M38.59,18.3L39,18.09l0.19,0.39a3.43,3.43,0,0,1,.88-1l0.22,0.44a4.3,4.3,0,0,0-.44.39,4.5,4.5,0,0,0-.35.39l-0.12.15,1,2.1L40,21.18Z" transform="translate(0 -0.01)"/>
  <path class="cls-3" d="M42.26,15.13L42.73,15l0.91,2.55,0.48-.2,0.47-1.54,0.54-.19-0.55,1.76,1.66,1.24-0.54.19-1.44-1.06-0.49.2,0.49,1.38-0.47.17Z" transform="translate(0 -0.01)"/>
  <path class="cls-3" d="M47.64,14.86l0.52-.12,1.37,2.54,0.24,0L50,14.35l0.51-.11-0.23,3.31-1,.22Z" transform="translate(0 -0.01)"/>
  <path class="cls-3" d="M53.18,12.56l0.5-.06,0.07,0.56-0.5.06Zm0.14,1.27,0.5-.06L54.17,17,53.7,17Z" transform="translate(0 -0.01)"/>
  <path class="cls-3" d="M56.95,12.15h0.51l0.13,4.59H57.08Z" transform="translate(0 -0.01)"/>
  <path class="cls-3" d="M60.8,12.19H61.3L61,16.77H60.53Z" transform="translate(0 -0.01)"/>
  <path class="cls-3" d="M64.11,16.79A1.86,1.86,0,0,1,64,15.55a2.1,2.1,0,0,1,.56-1.24,1.56,1.56,0,0,1,2.05.27,1.66,1.66,0,0,1,.14,1.17l-0.08.36-2.19-.36a1.72,1.72,0,0,0,0,.63,0.59,0.59,0,0,0,.25.37,1.5,1.5,0,0,0,.58.2L65.75,17H66.4l0,0.37a9.26,9.26,0,0,1-1.23-.1A1.34,1.34,0,0,1,64.11,16.79Zm2.14-1.14a1.37,1.37,0,0,0-.06-0.83,0.77,0.77,0,0,0-.59-0.35,0.83,0.83,0,0,0-.72.15,1.26,1.26,0,0,0-.36.77Z" transform="translate(0 -0.01)"/>
  <path class="cls-3" d="M72.41,19.1L72.19,19l0.2-.36a12.33,12.33,0,0,0,1.25.62,0.83,0.83,0,0,0,1.25-.46A0.71,0.71,0,0,0,75,18.38a0.65,0.65,0,0,0-.2-0.33,3.31,3.31,0,0,0-.53-0.39,4,4,0,0,1-.7-0.55,1,1,0,0,1-.27-0.51,1.23,1.23,0,0,1,.1-0.64q0.44-1.11,1.83-.56a10.29,10.29,0,0,1,1.26.64l-0.2.37A10,10,0,0,0,75,15.83q-0.94-.37-1.2.3a0.74,0.74,0,0,0-.07.42,0.67,0.67,0,0,0,.22.34,5.54,5.54,0,0,0,.62.46,3.52,3.52,0,0,1,.62.51,0.91,0.91,0,0,1,.24.48,1.17,1.17,0,0,1-.1.59,1.26,1.26,0,0,1-1.88.72A8.84,8.84,0,0,1,72.41,19.1Z" transform="translate(0 -0.01)"/>
  <path class="cls-3" d="M77.44,21.31l-0.2-.15,0.25-.33a12.25,12.25,0,0,0,1.15.78,0.83,0.83,0,0,0,1.3-.29A0.72,0.72,0,0,0,80,20.94a0.65,0.65,0,0,0-.16-0.35,3.31,3.31,0,0,0-.47-0.46,3.92,3.92,0,0,1-.62-0.64,1,1,0,0,1-.21-0.55,1.23,1.23,0,0,1,.19-0.62q0.58-1,1.89-.31a10.27,10.27,0,0,1,1.16.83l-0.24.34-1.1-.75q-0.88-.49-1.23.14a0.74,0.74,0,0,0-.12.41,0.68,0.68,0,0,0,.17.36,5.53,5.53,0,0,0,.56.54,3.51,3.51,0,0,1,.55.59,0.9,0.9,0,0,1,.17.51,1.16,1.16,0,0,1-.17.57,1.26,1.26,0,0,1-2,.46A9.05,9.05,0,0,1,77.44,21.31Z" transform="translate(0 -0.01)"/>
  <path class="cls-3" d="M83.17,22.56l1.66,1.21-0.27.36-1.66-1.21Z" transform="translate(0 -0.01)"/>
  <path class="cls-3" d="M89.47,25.63l-1.32-.27,0.09-.43,1.66,0.33,0.35,0.34-3,3-0.37-.36Z" transform="translate(0 -0.01)"/>
  <path class="cls-3" d="M26.55,85.6l-3.38,2.86-0.33-.4,3-2.49-0.06-.07L22,86.89l-0.37-.44,2-3.45-0.06-.07-3,2.49L20.27,85l3.38-2.86,0.6,0.71-2,3.43,3.71-1.42Z" transform="translate(0 -0.01)"/>
  <path class="cls-3" d="M28.93,87.88l0.38,0.35-3,3.31L26,91.19Z" transform="translate(0 -0.01)"/>
  <path class="cls-3" d="M29.31,93.92l-0.17-.17,0.28-.3a12.28,12.28,0,0,0,1.05.91,0.83,0.83,0,0,0,1.33-.13,0.7,0.7,0,0,0,.15-0.36,0.64,0.64,0,0,0-.12-0.36A3.22,3.22,0,0,0,31.41,93a4,4,0,0,1-.55-0.7,1,1,0,0,1-.14-0.56,1.23,1.23,0,0,1,.26-0.6q0.7-1,1.91-.08a10.46,10.46,0,0,1,1.06.93l-0.28.31a7.88,7.88,0,0,0-1-.83q-0.83-.59-1.24,0a0.75,0.75,0,0,0-.17.4,0.67,0.67,0,0,0,.13.38,5.37,5.37,0,0,0,.49.6,3.52,3.52,0,0,1,.48.65,0.92,0.92,0,0,1,.12.52,1.19,1.19,0,0,1-.24.55,1.26,1.26,0,0,1-2,.23A9.17,9.17,0,0,1,29.31,93.92Z" transform="translate(0 -0.01)"/>
  <path class="cls-3" d="M35.06,97.54a1.28,1.28,0,0,1-.11-0.9,5.91,5.91,0,0,1,1.23-2.25A1.29,1.29,0,0,1,37,94a1.9,1.9,0,0,1,1.06.29,6.5,6.5,0,0,1,1,.72l-0.22.36a7.11,7.11,0,0,0-1-.65,1.43,1.43,0,0,0-.78-0.22,0.92,0.92,0,0,0-.6.33,5.09,5.09,0,0,0-.64,1,4.56,4.56,0,0,0-.41.94,0.9,0.9,0,0,0,.07.66,1.53,1.53,0,0,0,.65.57,6.37,6.37,0,0,0,1,.42l-0.18.38a6.55,6.55,0,0,1-1.14-.46A2,2,0,0,1,35.06,97.54Z" transform="translate(0 -0.01)"/>
  <path class="cls-3" d="M45,97.35l-1.54,4.14L43,101.32l0.7-1.87-2.21-.83-0.7,1.87-0.48-.18,1.54-4.14,0.48,0.18-0.7,1.88,2.21,0.83,0.69-1.86Z" transform="translate(0 -0.01)"/>
  <path class="cls-3" d="M48.2,98.23l0.51,0.12-1,4.3-0.51-.12Z" transform="translate(0 -0.01)"/>
  <path class="cls-3" d="M52.42,99.51L52.23,101l1.89,0.24,0,0.42-1.89-.24L52,103l2.29,0.29-0.06.43-2.8-.36L52,99l2.8,0.36-0.06.43Z" transform="translate(0 -0.01)"/>
  <path class="cls-3" d="M58.31,99.95v1.72h1.91v0.43H58.31v1.83H57.84V99.51h2.78v0.43H58.31Z" transform="translate(0 -0.01)"/>
  <path class="cls-3" d="M70.21,101.42l-1.94.44L68.2,103l-0.5.11L68,98.55l1.1-.25,2.21,4-0.5.12Zm-1.92,0L70,101l-1.22-2.21-0.34.07Z" transform="translate(0 -0.01)"/>
  <path class="cls-3" d="M74.92,101a1.27,1.27,0,0,1-.75-0.51,5.89,5.89,0,0,1-.89-2.41,1.29,1.29,0,0,1,.22-0.88,1.9,1.9,0,0,1,.91-0.62,6.63,6.63,0,0,1,1.23-.31l0.12,0.4a7,7,0,0,0-1.14.3,1.43,1.43,0,0,0-.68.44,0.92,0.92,0,0,0-.14.66,5.17,5.17,0,0,0,.31,1.11,4.47,4.47,0,0,0,.44.93,0.89,0.89,0,0,0,.54.39,1.54,1.54,0,0,0,.83-0.12,6.41,6.41,0,0,0,1-.49l0.17,0.39a6.55,6.55,0,0,1-1.1.55A2,2,0,0,1,74.92,101Z" transform="translate(0 -0.01)"/>
  <path class="cls-3" d="M82,96.74l-1.75.94,0.24,1.16-0.45.24-1-4.51,1-.53,3.21,3.31-0.45.24Zm-1.86.49,1.55-.83L79.94,94.6l-0.31.17Z" transform="translate(0 -0.01)"/>
  <path class="cls-3" d="M86,90.51a1.41,1.41,0,0,1,.83.3,3.88,3.88,0,0,1,.73.78,3,3,0,0,1,.71,1.66,1.52,1.52,0,0,1-.72,1.22l-1.33,1L83.6,91.89l1.33-1A1.73,1.73,0,0,1,86,90.51Zm1.18,1.43a2.3,2.3,0,0,0-1-.88,1,1,0,0,0-1,.2l-0.92.68,2.11,2.87,0.92-.68q0.94-.71-0.15-2.2h0Z" transform="translate(0 -0.01)"/>
  <path class="cls-3" d="M89.33,87.81L90.4,88.9l1.36-1.33,0.3,0.31-1.36,1.33,1.12,1.14,1.66-1.62,0.31,0.31-2,2-3.09-3.17,2-2L91,86.2Z" transform="translate(0 -0.01)"/>
  <path class="cls-3" d="M95.43,80L99,82.7l-0.31.41-3.12-2.34-0.06.07,2.19,3.31-0.35.46-3.8-1.17-0.06.07,3.12,2.34-0.31.41-3.55-2.65,0.56-.75,3.79,1.19-2.21-3.31Z" transform="translate(0 -0.01)"/>
  <path class="cls-3" d="M99.83,77.62l-3,.1,0.27-.51h2.37l-1.28-2,0.27-.51,1.57,2.49,1.66,0.88-0.24.46Z" transform="translate(0 -0.01)"/>
</svg>
