<svg id="Layer_1" data-name="Layer 1" xmlns="http://www.w3.org/2000/svg" viewBox="0 0 116.67 116.67"><defs><style>.cls-1{fill:#4bab27;}.cls-2{fill:#070606;}.cls-3{fill:#fff;}</style></defs><title>MarkvilleSS-3</title><circle class="cls-1" cx="58.33" cy="58.33" r="53.33"/><path class="cls-2" d="M768.59,549.94a58.33,58.33,0,1,1,58.33-58.33A58.4,58.4,0,0,1,768.59,549.94Zm0-106.67a48.33,48.33,0,1,0,48.33,48.33A48.39,48.39,0,0,0,768.59,443.27Z" transform="translate(-710.26 -433.27)"/><polygon class="cls-3" points="7.02 53.01 9.9 53.91 7.44 55.65 7.48 58.66 5.06 56.86 2.21 57.83 3.18 54.97 1.38 52.56 4.39 52.59 6.13 50.13 7.02 53.01"/><polygon class="cls-3" points="113.05 53.01 115.93 53.91 113.47 55.65 113.51 58.66 111.09 56.86 108.24 57.83 109.21 54.97 107.4 52.56 110.42 52.59 112.16 50.13 113.05 53.01"/><path class="cls-2" d="M769.37,463.37a11.55,11.55,0,0,0-6.08,1.77c-0.42-.88-4.5-2.49-4.5-2.49l-0.35,1.17s-6-4.75-12.4-3.58c-1.66,9.14,1.32,13.74,1.32,13.74l-1.8,2.12s2.91,0.44,1.94.66-7.2,4.88-7.2,4.88l3.16,10,6.61,3.48,9,4,10.3,0.32V463.37Z" transform="translate(-710.26 -433.27)"/><path class="cls-3" d="M769.37,465.41a10.51,10.51,0,0,0-5.18,1.42v1c-1-.73-3.88-2.27-3.88-2.27s-1.16,1.46-1.09,2.16c-3.15-3.86-9.44-5.6-9.44-5.6s6.86,5.63,7.2,7.6c-3.19.44-7.07,5.63-7.07,5.63l2.15,1.54c-0.76.29-8.62,5.88-8.62,5.88l3,9.61,1.82,2.59,21.13,4.69V465.41Z" transform="translate(-710.26 -433.27)"/><path class="cls-2" d="M769.37,470.81s-6.06.22-7.76,1.86c3.15,1.54,2.94,4.06,2.94,4.06s-4.74-2.81-7.07-2A32.11,32.11,0,0,1,766,486.51c-1.89-.46-4.23-3.37-5.35-4.91a12.76,12.76,0,0,1-.84-1.35c-0.33-.59-1.25-1.75-3.67-2.68-3.43-1.32-6.82,3.66-6.82,3.66h0.83c-2.15,2.41-2.63,4.24,1.94,8.68a32.47,32.47,0,0,1,7.41,6.47l0.52,0.72,9.39,1V470.81Z" transform="translate(-710.26 -433.27)"/><path class="cls-3" d="M767.29,486.57s-1.28,1.8-1.91,1.76-3.23-1.42-5.56,0c-0.26,1,2.4,1,2.4,1s-1,1.18-4,.87,0.72,4.24.72,4.24,0.32-3.1.53-2.48c0.86,2.5,5.5,5.71,5.5,5.71a2.35,2.35,0,0,1,1.22-2.78l0-5.46Z" transform="translate(-710.26 -433.27)"/><path class="cls-1" d="M758.62,480s2.63,5.12,5.86,6.49c-6.93.75-5.86-6.24-5.86-6.24" transform="translate(-710.26 -433.27)"/><line class="cls-3" x1="50.95" y1="50.58" x2="49.32" y2="50.02"/><path class="cls-2" d="M769.37,495.35c-1.76,0-3.19.81-3.19,1.81s1.43,1.81,3.19,1.81v-3.62Z" transform="translate(-710.26 -433.27)"/><path class="cls-2" d="M769.37,463.37a11.55,11.55,0,0,1,6.08,1.77c0.42-.88,4.5-2.49,4.5-2.49l0.35,1.17s6-4.75,12.4-3.58c1.66,9.14-1.32,13.74-1.32,13.74l1.8,2.12s-2.91.44-1.94,0.66,7.2,4.88,7.2,4.88l-3.16,10-6.61,3.48-9,4-10.3.32V463.37Z" transform="translate(-710.26 -433.27)"/><path class="cls-3" d="M769.37,465.41a10.51,10.51,0,0,1,5.18,1.42v1c1-.73,3.88-2.27,3.88-2.27s1.16,1.46,1.09,2.16c3.15-3.86,9.44-5.6,9.44-5.6s-6.86,5.63-7.2,7.6c3.19,0.44,7.07,5.63,7.07,5.63l-2.15,1.54c0.76,0.29,8.62,5.88,8.62,5.88l-3,9.61L790.49,495l-21.13,4.69V465.41Z" transform="translate(-710.26 -433.27)"/><path class="cls-2" d="M769.37,470.81s6.06,0.22,7.76,1.86c-3.15,1.54-2.94,4.06-2.94,4.06s4.74-2.81,7.07-2a32.11,32.11,0,0,0-8.48,11.76c1.89-.46,4.23-3.37,5.35-4.91a12.76,12.76,0,0,0,.84-1.35c0.33-.59,1.25-1.75,3.67-2.68,3.43-1.32,6.82,3.66,6.82,3.66h-0.83c2.15,2.41,2.63,4.24-1.94,8.68a32.47,32.47,0,0,0-7.41,6.47l-0.52.72-9.39,1V470.81Z" transform="translate(-710.26 -433.27)"/><path class="cls-3" d="M771.44,486.57s1.28,1.8,1.91,1.76,3.23-1.42,5.56,0c0.26,1-2.4,1-2.4,1s1,1.18,4,.87-0.72,4.24-.72,4.24-0.32-3.1-.53-2.48c-0.86,2.5-5.5,5.71-5.5,5.71a2.35,2.35,0,0,0-1.22-2.78l0-5.46Z" transform="translate(-710.26 -433.27)"/><path class="cls-1" d="M780.12,480s-2.63,5.12-5.86,6.49c6.93,0.75,5.86-6.24,5.86-6.24" transform="translate(-710.26 -433.27)"/><line class="cls-3" x1="67.28" y1="50.58" x2="68.9" y2="50.02"/><path class="cls-2" d="M769.37,495.35c1.76,0,3.19.81,3.19,1.81s-1.43,1.81-3.19,1.81v-3.62Z" transform="translate(-710.26 -433.27)"/><path class="cls-2" d="M742.23,487.56S755.57,498,770.6,496.7c8.57-.45,25.8-8.58,25.8-8.58s2.28,22.57-23.86,30.94c-8.68,2.31-20.59,4.09-20.59,4.09s7.74-5.34,1.57-14.31C750.17,504,742.66,504.5,742.23,487.56Z" transform="translate(-710.26 -433.27)"/><path class="cls-1" d="M744.41,491.66s4.27,7.58,15.67,10.64c-2.93,0-13.35-3.09-13.35-3.09s0,1.81,6.75,5.92,5.43,12.33,3.11,14.9c31.52-6,32.86-16.34,32.86-16.34s-5.79,4.14-15.29,4.41c19.57-6.55,20.38-16.44,20.38-16.44S767.29,508.64,744.41,491.66Z" transform="translate(-710.26 -433.27)"/><path class="cls-2" d="M794.62,489.37s0.27-1.52,2.45-1c0.4,0,2.37-8.34,10.06-3.7a6.93,6.93,0,0,0-3.75,1.92s2.4,0.13,3,1.67c0,0-4.8,4.59-9.52,2.91a2.4,2.4,0,0,1-2.43-.74" transform="translate(-710.26 -433.27)"/><path class="cls-1" d="M797.81,488.78L803.4,485A5.18,5.18,0,0,0,797.81,488.78Z" transform="translate(-710.26 -433.27)"/><ellipse class="cls-1" cx="795.78" cy="489.83" rx="0.64" ry="0.59" transform="translate(-660.8 618.86) rotate(-68.61)"/><path class="cls-1" d="M797.06,489.3s1.44,0.35,4.63-1c2-.86,2.87-0.16,2.87-0.16S798.36,491.61,797.06,489.3Z" transform="translate(-710.26 -433.27)"/><polygon class="cls-2" points="59.11 37.53 57.97 48.47 58.82 64.8 60.35 58.85 60.13 43.15 59.11 37.53"/><polygon class="cls-3" points="59.11 32.14 57.52 33.86 59.11 37.53 61.77 35.16 59.11 32.14"/><path class="cls-3" d="M734.62,448l3.55,4-0.47.41-3.13-3.52-0.09.08,1.78,4.46-0.52.46-4.21-2.3-0.09.08,3.13,3.52-0.47.41-3.55-4,0.84-.75,4.19,2.33-1.82-4.44Z" transform="translate(-710.26 -433.27)"/><path class="cls-3" d="M740.91,449.79a1.2,1.2,0,0,1-.71-0.57,1.06,1.06,0,0,1-.2-0.85,1.6,1.6,0,0,1,.61-0.79l1-.79-0.18-.28a0.62,0.62,0,0,0-1-.26,15.73,15.73,0,0,0-1.29.95l-0.26-.36a8.19,8.19,0,0,1,1.24-1,1.42,1.42,0,0,1,1-.29,1.26,1.26,0,0,1,.77.63l1.07,1.66a0.43,0.43,0,0,0,.58,0l0.23,0.4a1.35,1.35,0,0,1-1,.26,3.69,3.69,0,0,1-1.06,1A1.13,1.13,0,0,1,740.91,449.79Zm1.51-1.41,0.12-.15-0.69-1.07-0.95.74a0.8,0.8,0,0,0-.33.45,0.69,0.69,0,0,0,.13.5,0.59,0.59,0,0,0,.9.26A3.47,3.47,0,0,0,742.42,448.38Z" transform="translate(-710.26 -433.27)"/><path class="cls-3" d="M744.76,443.3l0.54-.26,0.23,0.47a4.14,4.14,0,0,1,1.06-1.2l0.26,0.53a5.19,5.19,0,0,0-.53.47,5.44,5.44,0,0,0-.42.47l-0.14.18L747,446.5l-0.55.27Z" transform="translate(-710.26 -433.27)"/><path class="cls-3" d="M749.19,439.47l0.57-.2,1.1,3.08,0.58-.24,0.57-1.86,0.65-.23L752,442.13l2,1.5-0.65.23-1.74-1.28-0.59.24,0.59,1.67-0.57.2Z" transform="translate(-710.26 -433.27)"/><path class="cls-3" d="M755.69,439.15l0.63-.14,1.65,3.07,0.29-.06,0.23-3.49,0.61-.13-0.28,4-1.19.26Z" transform="translate(-710.26 -433.27)"/><path class="cls-3" d="M762.37,436.36l0.6-.07L763,437l-0.6.07Zm0.17,1.53,0.6-.07,0.43,3.84-0.6.07Z" transform="translate(-710.26 -433.27)"/><path class="cls-3" d="M766.92,435.88l0.61,0,0.16,5.54-0.61,0Z" transform="translate(-710.26 -433.27)"/><path class="cls-3" d="M771.57,435.92l0.61,0-0.32,5.53-0.61,0Z" transform="translate(-710.26 -433.27)"/><path class="cls-3" d="M775.57,441.47a2.24,2.24,0,0,1-.14-1.49,2.53,2.53,0,0,1,.67-1.5,1.88,1.88,0,0,1,2.48.33,2,2,0,0,1,.17,1.41l-0.1.43-2.64-.43a2.08,2.08,0,0,0,0,.76,0.71,0.71,0,0,0,.3.45,1.81,1.81,0,0,0,.7.24l0.54,0.08,0.56,0.06,0.23,0-0.06.45a11.18,11.18,0,0,1-1.49-.12A1.62,1.62,0,0,1,775.57,441.47Zm2.58-1.37a1.65,1.65,0,0,0-.07-1,0.93,0.93,0,0,0-.71-0.42,1,1,0,0,0-.87.18,1.52,1.52,0,0,0-.43.93Z" transform="translate(-710.26 -433.27)"/><path class="cls-3" d="M785.58,444.26l-0.26-.14,0.24-.44a14.87,14.87,0,0,0,1.51.75,1,1,0,0,0,1.51-.56,0.86,0.86,0,0,0,.07-0.47,0.78,0.78,0,0,0-.24-0.4,4,4,0,0,0-.64-0.47,4.86,4.86,0,0,1-.85-0.66,1.18,1.18,0,0,1-.33-0.62,1.49,1.49,0,0,1,.12-0.77q0.53-1.34,2.21-.67a12.42,12.42,0,0,1,1.52.77l-0.24.45q-1-.55-1.44-0.71-1.13-.45-1.45.36a0.89,0.89,0,0,0-.08.51,0.81,0.81,0,0,0,.27.41,6.68,6.68,0,0,0,.75.55,4.25,4.25,0,0,1,.75.61,1.1,1.1,0,0,1,.29.58,1.41,1.41,0,0,1-.12.71,1.52,1.52,0,0,1-2.27.87A10.67,10.67,0,0,1,785.58,444.26Z" transform="translate(-710.26 -433.27)"/><path class="cls-3" d="M791.65,446.93l-0.24-.18,0.3-.4a14.79,14.79,0,0,0,1.39.94,1,1,0,0,0,1.57-.35,0.87,0.87,0,0,0,.13-0.46,0.78,0.78,0,0,0-.19-0.42,4,4,0,0,0-.57-0.55,4.73,4.73,0,0,1-.75-0.77,1.16,1.16,0,0,1-.25-0.66,1.48,1.48,0,0,1,.23-0.75q0.7-1.25,2.28-.37a12.39,12.39,0,0,1,1.4,1l-0.29.41q-1-.68-1.33-0.9-1.06-.59-1.49.17a0.89,0.89,0,0,0-.15.5,0.82,0.82,0,0,0,.21.44,6.68,6.68,0,0,0,.67.65,4.24,4.24,0,0,1,.66.71,1.08,1.08,0,0,1,.21.61,1.4,1.4,0,0,1-.21.69,1.52,1.52,0,0,1-2.37.56A10.93,10.93,0,0,1,791.65,446.93Z" transform="translate(-710.26 -433.27)"/><path class="cls-3" d="M798.57,448.44l2,1.46-0.32.43-2-1.46Z" transform="translate(-710.26 -433.27)"/><path class="cls-3" d="M801.87,454l-0.14-.21,0.38-.31a7.92,7.92,0,0,0,.92,1.15,1.83,1.83,0,0,0,.86.52,0.85,0.85,0,0,0,.8-0.31,0.93,0.93,0,0,0-.13-1.45l-0.77-.75,0.35-.37,0.78,0.75a1,1,0,0,0,.41.23,1,1,0,0,0,.5,0,0.85,0.85,0,0,0,.44-0.25,0.72,0.72,0,0,0,.24-0.62,1.44,1.44,0,0,0-.47-0.72,7.11,7.11,0,0,0-1-.81l-0.18-.12,0.29-.38a5.89,5.89,0,0,1,1.33,1,2,2,0,0,1,.68,1.1,1.4,1.4,0,0,1-1.06,1.35,1.21,1.21,0,0,1-.74-0.07,2.1,2.1,0,0,1,.2.55,0.87,0.87,0,0,1,0,.47,1.53,1.53,0,0,1-.35.51,1.48,1.48,0,0,1-1.11.54,1.93,1.93,0,0,1-1.2-.64A8.17,8.17,0,0,1,801.87,454Z" transform="translate(-710.26 -433.27)"/><path class="cls-3" d="M730.23,524.52L726.15,528l-0.4-.48,3.59-3-0.07-.09-4.5,1.68-0.45-.53,2.39-4.16-0.07-.09-3.59,3-0.4-.48,4.08-3.45,0.73,0.86L725,525.37l4.48-1.71Z" transform="translate(-710.26 -433.27)"/><path class="cls-3" d="M733.11,527.27l0.46,0.42-3.59,4-0.46-.42Z" transform="translate(-710.26 -433.27)"/><path class="cls-3" d="M733.56,534.55l-0.21-.2,0.34-.36a14.82,14.82,0,0,0,1.27,1.1,1,1,0,0,0,1.6-.16,0.85,0.85,0,0,0,.18-0.44,0.77,0.77,0,0,0-.14-0.44,3.89,3.89,0,0,0-.5-0.61,4.77,4.77,0,0,1-.66-0.85,1.17,1.17,0,0,1-.17-0.68,1.48,1.48,0,0,1,.31-0.72q0.85-1.16,2.3-.1a12.63,12.63,0,0,1,1.28,1.12l-0.34.37q-0.86-.79-1.21-1-1-.71-1.5,0a0.91,0.91,0,0,0-.2.48,0.81,0.81,0,0,0,.16.46,6.49,6.49,0,0,0,.59.72,4.25,4.25,0,0,1,.58.78,1.11,1.11,0,0,1,.14.63,1.44,1.44,0,0,1-.29.66,1.52,1.52,0,0,1-2.41.28A11.07,11.07,0,0,1,733.56,534.55Z" transform="translate(-710.26 -433.27)"/><path class="cls-3" d="M740.51,538.93a1.54,1.54,0,0,1-.13-1.09,7.13,7.13,0,0,1,1.48-2.72,1.56,1.56,0,0,1,1-.49,2.29,2.29,0,0,1,1.28.35,7.85,7.85,0,0,1,1.25.87l-0.26.43a8.58,8.58,0,0,0-1.17-.79,1.73,1.73,0,0,0-.94-0.27,1.11,1.11,0,0,0-.72.4,6.14,6.14,0,0,0-.77,1.16,5.5,5.5,0,0,0-.49,1.14,1.09,1.09,0,0,0,.08.8,1.85,1.85,0,0,0,.79.69,7.69,7.69,0,0,0,1.24.51l-0.22.46a7.91,7.91,0,0,1-1.37-.56A2.4,2.4,0,0,1,740.51,538.93Z" transform="translate(-710.26 -433.27)"/><path class="cls-3" d="M752.52,538.7l-1.86,5-0.58-.21,0.84-2.26-2.67-1-0.84,2.26-0.58-.22,1.86-5,0.58,0.22-0.84,2.24,2.67,1,0.83-2.24Z" transform="translate(-710.26 -433.27)"/><path class="cls-3" d="M756.37,539.77l0.61,0.15-1.25,5.19-0.61-.15Z" transform="translate(-710.26 -433.27)"/><path class="cls-3" d="M761.46,541.3l-0.23,1.83,2.28,0.29-0.06.51-2.28-.29-0.24,1.92,2.76,0.35-0.07.52-3.38-.43,0.67-5.3,3.38,0.43-0.07.52Z" transform="translate(-710.26 -433.27)"/><path class="cls-3" d="M768.56,541.84v2.08h2.31v0.52h-2.31v2.21H768l0-5.34,3.35,0v0.52Z" transform="translate(-710.26 -433.27)"/><path class="cls-3" d="M782.93,543.61l-2.34.53-0.09,1.43-0.6.13,0.33-5.55,1.33-.3,2.67,4.87-0.6.14Zm-2.32,0,2.07-.47-1.47-2.67-0.41.09Z" transform="translate(-710.26 -433.27)"/><path class="cls-3" d="M788.61,543.1a1.54,1.54,0,0,1-.9-0.62,5.72,5.72,0,0,1-.7-1.39,5.79,5.79,0,0,1-.38-1.51,1.56,1.56,0,0,1,.27-1.06,2.29,2.29,0,0,1,1.1-.73,8,8,0,0,1,1.48-.37l0.15,0.48a8.49,8.49,0,0,0-1.37.36,1.73,1.73,0,0,0-.82.53,1.11,1.11,0,0,0-.17.8,6.24,6.24,0,0,0,.37,1.34,5.42,5.42,0,0,0,.53,1.12,1.09,1.09,0,0,0,.65.47,1.87,1.87,0,0,0,1-.14,7.78,7.78,0,0,0,1.21-.59l0.2,0.47a7.9,7.9,0,0,1-1.33.66A2.39,2.39,0,0,1,788.61,543.1Z" transform="translate(-710.26 -433.27)"/><path class="cls-3" d="M797.17,538l-2.11,1.13,0.29,1.4-0.54.29-1.17-5.44,1.2-.64,3.88,4-0.54.29Zm-2.24.59,1.87-1-2.13-2.18-0.37.2Z" transform="translate(-710.26 -433.27)"/><path class="cls-3" d="M802,530.44a1.7,1.7,0,0,1,1,.36,4.68,4.68,0,0,1,.88.94,3.56,3.56,0,0,1,.86,2,1.84,1.84,0,0,1-.87,1.47l-1.61,1.19-3.17-4.3,1.61-1.19A2.09,2.09,0,0,1,802,530.44Zm1.43,1.73a2.78,2.78,0,0,0-1.21-1.06,1.23,1.23,0,0,0-1.17.24l-1.11.82,2.55,3.46,1.11-.82Q804.74,534,803.42,532.17Z" transform="translate(-710.26 -433.27)"/><path class="cls-3" d="M806,527.19l1.29,1.32L809,526.9l0.36,0.37-1.64,1.61,1.35,1.38,2-1.95,0.37,0.38L809,531.07l-3.73-3.82,2.44-2.38,0.37,0.38Z" transform="translate(-710.26 -433.27)"/><path class="cls-3" d="M813.37,517.82l4.28,3.2-0.37.5-3.77-2.82-0.07.09,2.64,4-0.42.56L811.06,522,811,522l3.77,2.82-0.37.5-4.28-3.2,0.67-.9,4.57,1.44-2.67-4Z" transform="translate(-710.26 -433.27)"/><path class="cls-3" d="M818.68,514.89l-3.58.12,0.33-.62,2.86,0-1.55-2.41,0.33-.62,1.89,3,2,1.06-0.29.55Z" transform="translate(-710.26 -433.27)"/></svg>