<svg id="Layer_1" data-name="Layer 1" xmlns="http://www.w3.org/2000/svg" viewBox="0 0 116.66 116.66">
  <defs>
    <style>
      .cls-1 {
        fill: #4bab27;
      }

      .cls-2 {
        fill: #070606;
      }

      .cls-3 {
        fill: #fff;
      }

      .cls-4 {
        fill: none;
      }
    </style>
  </defs>
  <title>MarkvilleSS-3-icon2</title>
  <rect class="cls-1" width="116.66" height="116.66"/>
  <circle class="cls-1" cx="58.33" cy="58.32" r="43.95"/>
  <path class="cls-2" d="M58.33,106.41A48.07,48.07,0,1,1,106.4,58.34,48.07,48.07,0,0,1,58.33,106.41Zm0-87.9A39.83,39.83,0,1,0,98.16,58.33,39.83,39.83,0,0,0,58.33,18.51h0Z" transform="translate(0 -0.01)"/>
  <polygon class="cls-3" points="16.05 53.94 18.42 54.68 16.39 56.11 16.43 58.59 14.43 57.11 12.08 57.91 12.88 55.55 11.4 53.57 13.88 53.59 15.31 51.56 16.05 53.94"/>
  <polygon class="cls-3" points="103.42 53.94 105.8 54.68 103.77 56.11 103.8 58.59 101.81 57.11 99.46 57.91 100.26 55.55 98.77 53.57 101.25 53.59 102.69 51.56 103.42 53.94"/>
  <path class="cls-2" d="M59,35.07a9.52,9.52,0,0,0-5,1.46c-0.35-.73-3.71-2.05-3.71-2.05l-0.29,1s-4.94-3.91-10.22-3C38.38,40,40.84,43.81,40.84,43.81l-1.48,1.75s2.4,0.36,1.6.54-5.93,4-5.93,4l2.6,8.24,5.45,2.87,7.42,3.3L59,64.79V35.07h0Z" transform="translate(0 -0.01)"/>
  <path class="cls-3" d="M59,36.75a8.66,8.66,0,0,0-4.27,1.17v0.82c-0.82-.6-3.2-1.87-3.2-1.87a4.17,4.17,0,0,0-.9,1.78C48,35.47,42.83,34,42.83,34s5.65,4.64,5.93,6.26c-2.63.36-5.83,4.64-5.83,4.64l1.77,1.27c-0.63.24-7.1,4.85-7.1,4.85L40.08,59l1.5,2.13L59,65V36.75h0Z" transform="translate(0 -0.01)"/>
  <path class="cls-2" d="M59,41.2s-5,.18-6.39,1.53C55.17,44,55,46.08,55,46.08s-3.91-2.32-5.83-1.65a26.46,26.46,0,0,1,7,9.71c-1.56-.38-3.49-2.78-4.41-4A10.51,10.51,0,0,1,51.09,49a5.53,5.53,0,0,0-3-2.21c-2.83-1.09-5.62,3-5.62,3h0.68c-1.77,2-2.17,3.49,1.6,7.15a26.76,26.76,0,0,1,6.11,5.33l0.43,0.59L59,63.69V41.2h0Z" transform="translate(0 -0.01)"/>
  <path class="cls-3" d="M57.26,54.19s-1.05,1.48-1.57,1.45-2.66-1.17-4.58,0c-0.21.82,2,.82,2,0.82s-0.82,1-3.3.72,0.59,3.49.59,3.49,0.26-2.55.44-2c0.71,2.06,4.53,4.71,4.53,4.71a1.94,1.94,0,0,1,1-2.29v-4.5Z" transform="translate(0 -0.01)"/>
  <path class="cls-1" d="M50.11,48.77s2.17,4.22,4.83,5.35c-5.71.62-4.83-5.14-4.83-5.14" transform="translate(0 -0.01)"/>
  <line class="cls-4" x1="52.25" y1="51.94" x2="50.91" y2="51.47"/>
  <path class="cls-2" d="M59,61.42c-1.45,0-2.63.67-2.63,1.49S57.52,64.4,59,64.4v-3Z" transform="translate(0 -0.01)"/>
  <path class="cls-2" d="M59,35.07a9.52,9.52,0,0,1,5,1.46c0.35-.73,3.71-2.05,3.71-2.05l0.29,1s4.94-3.91,10.22-3c1.37,7.53-1.09,11.32-1.09,11.32l1.48,1.75s-2.4.36-1.6,0.54,5.93,4,5.93,4l-2.6,8.24-5.45,2.87-7.42,3.3L59,64.79V35.07h0Z" transform="translate(0 -0.01)"/>
  <path class="cls-3" d="M59,36.75a8.66,8.66,0,0,1,4.27,1.17v0.82c0.82-.6,3.2-1.87,3.2-1.87a4.17,4.17,0,0,1,.9,1.78c2.6-3.18,7.78-4.61,7.78-4.61s-5.65,4.64-5.93,6.26C71.81,40.66,75,44.94,75,44.94l-1.77,1.27c0.63,0.24,7.1,4.85,7.1,4.85L77.87,59l-1.49,2.16L59,65V36.75h0Z" transform="translate(0 -0.01)"/>
  <path class="cls-2" d="M59,41.2s5,0.18,6.39,1.53c-2.6,1.27-2.42,3.35-2.42,3.35s3.91-2.32,5.83-1.65a26.46,26.46,0,0,0-7,9.69c1.56-.38,3.49-2.78,4.41-4A10.51,10.51,0,0,0,66.88,49a5.53,5.53,0,0,1,3-2.21c2.83-1.09,5.62,3,5.62,3H74.84c1.77,2,2.17,3.49-1.6,7.15a26.76,26.76,0,0,0-6.11,5.33l-0.43.59L59,63.67V41.2Z" transform="translate(0 -0.01)"/>
  <path class="cls-3" d="M60.68,54.19s1.05,1.48,1.57,1.45,2.66-1.17,4.58,0c0.21,0.82-2,.82-2,0.82s0.82,1,3.3.72-0.59,3.49-.59,3.49-0.26-2.55-.44-2c-0.71,2.06-4.53,4.71-4.53,4.71a1.94,1.94,0,0,0-1-2.29v-4.5Z" transform="translate(0 -0.01)"/>
  <path class="cls-1" d="M67.83,48.77S65.66,53,63,54.12C68.71,54.74,67.83,49,67.83,49" transform="translate(0 -0.01)"/>
  <line class="cls-4" x1="65.71" y1="51.94" x2="67.04" y2="51.47"/>
  <path class="cls-2" d="M59,61.42c1.45,0,2.63.67,2.63,1.49S60.42,64.4,59,64.4v-3Z" transform="translate(0 -0.01)"/>
  <path class="cls-2" d="M36.61,55s11,8.6,23.38,7.53c7.06-.37,21.26-7.07,21.26-7.07S83.13,74.06,61.58,81c-7.15,1.9-17,3.37-17,3.37s6.38-4.4,1.29-11.79C43.15,68.55,37,69,36.61,55Z" transform="translate(0 -0.01)"/>
  <path class="cls-1" d="M38.4,58.38s3.52,6.25,12.91,8.77c-2.41,0-11-2.55-11-2.55s0,1.49,5.56,4.88,4.47,10.16,2.56,12.28c26-4.94,27.08-13.46,27.08-13.46a24.33,24.33,0,0,1-12.6,3.63C79,66.53,79.71,58.38,79.71,58.38S57.26,72.37,38.4,58.38Z" transform="translate(0 -0.01)"/>
  <path class="cls-2" d="M79.78,56.49s0.22-1.25,2-.82c0.33,0,2-6.87,8.29-3A5.71,5.71,0,0,0,87,54.2s2,0.11,2.47,1.38c0,0-4,3.78-7.84,2.4a2,2,0,0,1-2-.61" transform="translate(0 -0.01)"/>
  <path class="cls-1" d="M82.41,56L87,52.89A4.27,4.27,0,0,0,82.41,56Z" transform="translate(0 -0.01)"/>
  <ellipse class="cls-1" cx="80.74" cy="56.86" rx="0.53" ry="0.49" transform="translate(-1.65 111.29) rotate(-68.61)"/>
  <path class="cls-1" d="M81.79,56.44s1.19,0.29,3.82-.82C87.25,54.9,88,55.48,88,55.48S82.86,58.34,81.79,56.44Z" transform="translate(0 -0.01)"/>
  <polygon class="cls-2" points="58.97 41.18 58.03 50.2 58.73 63.65 59.99 58.75 59.81 45.81 58.97 41.18"/>
  <polygon class="cls-3" points="58.97 36.74 57.66 38.16 58.97 41.18 61.16 39.23 58.97 36.74"/>
  <path class="cls-3" d="M30.34,22.4l2.93,3.3L32.88,26l-2.58-2.9-0.07.07,1.47,3.68-0.43.38-3.47-1.9-0.07.07,2.58,2.9-0.39.34L27,25.37l0.69-.62,3.45,1.92L29.63,23Z" transform="translate(0 -0.01)"/>
  <path class="cls-3" d="M35.52,23.88a1,1,0,0,1-.59-0.47,0.87,0.87,0,0,1-.16-0.7,1.32,1.32,0,0,1,.5-0.65l0.82-.65-0.15-.23A0.51,0.51,0,0,0,35.12,21a13,13,0,0,0-1.06.78l-0.21-.3a6.75,6.75,0,0,1,1-.82,1.17,1.17,0,0,1,.82-0.24,1,1,0,0,1,.63.52l0.88,1.37a0.35,0.35,0,0,0,.48,0l0.19,0.33a1.11,1.11,0,0,1-.82.21,3,3,0,0,1-.87.82A0.93,0.93,0,0,1,35.52,23.88Zm1.24-1.16,0.1-.12-0.57-.88-0.78.61a0.66,0.66,0,0,0-.27.37,0.57,0.57,0,0,0,.11.41,0.49,0.49,0,0,0,.63.28l0.11-.06A2.86,2.86,0,0,0,36.76,22.72Z" transform="translate(0 -0.01)"/>
  <path class="cls-3" d="M38.69,18.53l0.44-.21,0.19,0.39a3.41,3.41,0,0,1,.87-1l0.21,0.44a4.28,4.28,0,0,0-.44.39,4.48,4.48,0,0,0-.35.39l-0.12.15,1,2.09-0.45.22Z" transform="translate(0 -0.01)"/>
  <path class="cls-3" d="M42.34,15.37l0.47-.16,0.91,2.54,0.48-.2L44.67,16l0.54-.19-0.54,1.74,1.65,1.24L45.77,19l-1.43-1.05-0.49.2,0.49,1.38-0.47.16Z" transform="translate(0 -0.01)"/>
  <path class="cls-3" d="M47.7,15.11L48.22,15l1.36,2.53,0.24,0L50,14.6l0.5-.11-0.23,3.3-1,.21Z" transform="translate(0 -0.01)"/>
  <path class="cls-3" d="M53.2,12.81l0.49-.06,0,0.59-0.49.06Zm0.14,1.26L53.84,14l0.35,3.16-0.49.06Z" transform="translate(0 -0.01)"/>
  <path class="cls-3" d="M57,12.42h0.5L57.59,17h-0.5Z" transform="translate(0 -0.01)"/>
  <path class="cls-3" d="M60.79,12.45h0.5L61,17h-0.5Z" transform="translate(0 -0.01)"/>
  <path class="cls-3" d="M64.08,17A1.85,1.85,0,0,1,64,15.79a2.08,2.08,0,0,1,.55-1.24,1.55,1.55,0,0,1,2,.27A1.65,1.65,0,0,1,66.7,16l-0.08.35L64.44,16a1.71,1.71,0,0,0,0,.63,0.58,0.58,0,0,0,.25.37,1.49,1.49,0,0,0,.58.2l0.44,0.07,0.46,0h0.19l0,0.37a9.21,9.21,0,0,1-1.23-.1A1.33,1.33,0,0,1,64.08,17Zm2.13-1.13a1.36,1.36,0,0,0-.06-0.82,0.77,0.77,0,0,0-.59-0.35,0.82,0.82,0,0,0-.72.15,1.25,1.25,0,0,0-.35.77Z" transform="translate(0 -0.01)"/>
  <path class="cls-3" d="M72.33,19.32l-0.21-.12,0.2-.36a12.26,12.26,0,0,0,1.24.62A0.82,0.82,0,0,0,74.8,19a0.71,0.71,0,0,0,.06-0.39,0.64,0.64,0,0,0-.2-0.33,3.29,3.29,0,0,0-.53-0.39,4,4,0,0,1-.7-0.54,1,1,0,0,1-.27-0.51,1.23,1.23,0,0,1,.1-0.63q0.44-1.1,1.82-.55a10.23,10.23,0,0,1,1.25.63l-0.2.37A10,10,0,0,0,75,16.07q-0.93-.37-1.19.3a0.73,0.73,0,0,0-.07.42,0.67,0.67,0,0,0,.22.34,5.51,5.51,0,0,0,.62.45,3.5,3.5,0,0,1,.62.5,0.91,0.91,0,0,1,.24.48,1.16,1.16,0,0,1-.1.59,1.25,1.25,0,0,1-1.87.72A8.79,8.79,0,0,1,72.33,19.32Z" transform="translate(0 -0.01)"/>
  <path class="cls-3" d="M77.33,21.52l-0.2-.15L77.38,21a12.19,12.19,0,0,0,1.15.77,0.82,0.82,0,0,0,1.29-.29,0.72,0.72,0,0,0,.11-0.38,0.64,0.64,0,0,0-.16-0.35,3.3,3.3,0,0,0-.47-0.45,3.9,3.9,0,0,1-.62-0.63,1,1,0,0,1-.21-0.54,1.22,1.22,0,0,1,.19-0.62q0.58-1,1.88-.3a10.21,10.21,0,0,1,1.15.82l-0.24.34-1.1-.74q-0.87-.49-1.23.14a0.73,0.73,0,0,0-.12.41,0.68,0.68,0,0,0,.17.36,5.5,5.5,0,0,0,.55.54,3.5,3.5,0,0,1,.54.59,0.89,0.89,0,0,1,.17.5,1.15,1.15,0,0,1-.17.57,1.25,1.25,0,0,1-2,.46A9,9,0,0,1,77.33,21.52Z" transform="translate(0 -0.01)"/>
  <path class="cls-3" d="M83,22.77L84.68,24l-0.26.35-1.65-1.2Z" transform="translate(0 -0.01)"/>
  <path class="cls-3" d="M85.75,27.35l-0.12-.17L86,26.92a6.52,6.52,0,0,0,.76.95,1.51,1.51,0,0,0,.71.43A0.7,0.7,0,0,0,88.08,28a0.77,0.77,0,0,0,0-1.08L88,26.84l-0.63-.62,0.29-.3,0.64,0.62a0.79,0.79,0,0,0,.75.19,0.7,0.7,0,0,0,.36-0.21,0.59,0.59,0,0,0,.2-0.51,1.19,1.19,0,0,0-.39-0.59,5.86,5.86,0,0,0-.82-0.67l-0.15-.1,0.24-.31a4.85,4.85,0,0,1,1.1.82,1.65,1.65,0,0,1,.56.91,1.15,1.15,0,0,1-.87,1.11,1,1,0,0,1-.61-0.06,1.73,1.73,0,0,1,.16.45,0.72,0.72,0,0,1,0,.39,1.26,1.26,0,0,1-.29.42,1.22,1.22,0,0,1-.91.44,1.59,1.59,0,0,1-1-.53A6.73,6.73,0,0,1,85.75,27.35Z" transform="translate(0 -0.01)"/>
  <path class="cls-3" d="M26.72,85.46l-3.36,2.87L23,87.93l3-2.47-0.06-.07-3.71,1.38-0.37-.44,2-3.43-0.06-.07-3,2.47-0.33-.4,3.36-2.84,0.6,0.71-2,3.39,3.69-1.41Z" transform="translate(0 -0.01)"/>
  <path class="cls-3" d="M29.09,87.73l0.38,0.35-3,3.3L26.13,91Z" transform="translate(0 -0.01)"/>
  <path class="cls-3" d="M29.46,93.72l-0.17-.16,0.28-.3a12.22,12.22,0,0,0,1,.91A0.82,0.82,0,0,0,31.94,94a0.7,0.7,0,0,0,.15-0.36A0.63,0.63,0,0,0,32,93.31a3.21,3.21,0,0,0-.41-0.5,3.93,3.93,0,0,1-.54-0.7,1,1,0,0,1-.14-0.56A1.22,1.22,0,0,1,31.13,91q0.7-1,1.9-.08a10.4,10.4,0,0,1,1.05.92l-0.28.3a7.84,7.84,0,0,0-1-.82q-0.82-.59-1.24,0a0.75,0.75,0,0,0-.16.4,0.67,0.67,0,0,0,.13.38,5.35,5.35,0,0,0,.49.59,3.5,3.5,0,0,1,.48.64,0.91,0.91,0,0,1,.12.52,1.19,1.19,0,0,1-.24.54,1.25,1.25,0,0,1-2,.23A9.13,9.13,0,0,1,29.46,93.72Z" transform="translate(0 -0.01)"/>
  <path class="cls-3" d="M35.19,97.33a1.27,1.27,0,0,1-.11-0.9,5.87,5.87,0,0,1,1.22-2.24,1.29,1.29,0,0,1,.82-0.4,1.89,1.89,0,0,1,1.05.29,6.47,6.47,0,0,1,1,.72L39,95.15a7.07,7.07,0,0,0-1-.65,1.43,1.43,0,0,0-.77-0.22,0.91,0.91,0,0,0-.59.33,5.06,5.06,0,0,0-.63,1,4.53,4.53,0,0,0-.4.94,0.9,0.9,0,0,0,.07.66,1.52,1.52,0,0,0,.65.57,6.34,6.34,0,0,0,1,.42l-0.18.38a6.52,6.52,0,0,1-1.13-.46A2,2,0,0,1,35.19,97.33Z" transform="translate(0 -0.01)"/>
  <path class="cls-3" d="M45.09,97.14l-1.53,4.12-0.48-.17,0.69-1.86-2.2-.82-0.69,1.86-0.48-.18L41.93,96l0.48,0.18L41.72,98l2.2,0.82L44.6,97Z" transform="translate(0 -0.01)"/>
  <path class="cls-3" d="M48.26,98l0.5,0.12-1,4.28-0.5-.12Z" transform="translate(0 -0.01)"/>
  <path class="cls-3" d="M52.45,99.29l-0.19,1.51L54.14,101l0,0.42-1.88-.24L52,102.8l2.27,0.29-0.06.43-2.79-.35L52,98.79l2.79,0.35-0.06.43Z" transform="translate(0 -0.01)"/>
  <path class="cls-3" d="M58.31,99.73v1.71h1.9v0.43h-1.9v1.82H57.84V99.3H60.6v0.43h-2.3Z" transform="translate(0 -0.01)"/>
  <path class="cls-3" d="M70.15,101.19l-1.93.44-0.07,1.18-0.49.11,0.27-4.57,1.1-.25,2.2,4-0.49.12Zm-1.91,0,1.71-.39-1.21-2.2-0.34.07Z" transform="translate(0 -0.01)"/>
  <path class="cls-3" d="M74.83,100.77a1.27,1.27,0,0,1-.74-0.51,4.71,4.71,0,0,1-.58-1.15,4.77,4.77,0,0,1-.31-1.24A1.29,1.29,0,0,1,73.42,97a1.89,1.89,0,0,1,.91-0.6,6.6,6.6,0,0,1,1.22-.3l0.12,0.4a7,7,0,0,0-1.13.3,1.43,1.43,0,0,0-.68.44,0.91,0.91,0,0,0-.14.66A5.14,5.14,0,0,0,74,99a4.47,4.47,0,0,0,.44.92,0.9,0.9,0,0,0,.54.39,1.54,1.54,0,0,0,.82-0.12,6.41,6.41,0,0,0,1-.49L77,100.08a6.51,6.51,0,0,1-1.1.54A2,2,0,0,1,74.83,100.77Z" transform="translate(0 -0.01)"/>
  <path class="cls-3" d="M81.88,96.57l-1.74.93,0.24,1.15-0.44.24-1-4.48,1-.53,3.2,3.3-0.44.24ZM80,97.05l1.54-.82-1.76-1.8-0.3.16Z" transform="translate(0 -0.01)"/>
  <path class="cls-3" d="M85.86,90.34a1.4,1.4,0,0,1,.82.3,3.86,3.86,0,0,1,.73.77,2.93,2.93,0,0,1,.71,1.65,1.52,1.52,0,0,1-.72,1.21l-1.33,1-2.61-3.54,1.33-1A1.72,1.72,0,0,1,85.86,90.34ZM87,91.76a2.29,2.29,0,0,0-1-.87,1,1,0,0,0-1,.2l-0.91.68,2.1,2.85,0.91-.68q0.94-.67-0.15-2.18h0Z" transform="translate(0 -0.01)"/>
  <path class="cls-3" d="M89.16,87.66l1.06,1.09,1.41-1.33,0.3,0.3-1.35,1.33,1.11,1.14,1.65-1.61,0.3,0.31-2,2-3.07-3.15,2-2,0.3,0.31Z" transform="translate(0 -0.01)"/>
  <path class="cls-3" d="M95.23,79.94l3.53,2.64-0.3.41-3.11-2.32-0.06.07L97.46,84l-0.35.46-3.79-1.11h0l3.11,2.32-0.3.41-3.53-2.64,0.55-.74,3.77,1.19-2.2-3.3Z" transform="translate(0 -0.01)"/>
  <path class="cls-3" d="M99.61,77.52l-3,.1,0.27-.51h2.36l-1.28-2,0.27-.51,1.56,2.47L101.49,78l-0.24.45Z" transform="translate(0 -0.01)"/>
</svg>
