<svg id="Layer_1" data-name="Layer 1" xmlns="http://www.w3.org/2000/svg" viewBox="0 0 75.48 71.25"><defs><style>.cls-1{fill:#fff;}.cls-2{fill:#4eb748;}</style></defs><title>michief</title><path d="M57,25.37a13,13,0,0,0-6.87,2c-0.47-1-5.08-2.81-5.08-2.81l-0.39,1.32s-6.81-5.37-14-4c-1.88,10.32,1.49,15.52,1.49,15.52l-2,2.39s3.29,0.5,2.19.74S24.16,46,24.16,46L27.73,57.3l7.46,3.93,10.17,4.52L57,66.11V25.37Z" transform="translate(-24.16 -21.63)"/><path class="cls-1" d="M57,27.67a11.87,11.87,0,0,0-5.85,1.6v1.16c-1.17-.83-4.38-2.56-4.38-2.56s-1.31,1.65-1.23,2.44C42,25.94,34.87,24,34.87,24s7.74,6.36,8.14,8.59c-3.6.5-8,6.36-8,6.36l2.42,1.73c-0.86.33-9.73,6.64-9.73,6.64l3.35,10.86,2.06,2.92L57,66.39V27.67Z" transform="translate(-24.16 -21.63)"/><path d="M57,33.76s-6.84.25-8.76,2.11c3.56,1.73,3.32,4.58,3.32,4.58s-5.36-3.18-8-2.23A36.26,36.26,0,0,1,53.16,51.5C51,51,48.39,47.7,47.12,46a14.41,14.41,0,0,1-1-1.53c-0.37-.67-1.41-2-4.15-3-3.87-1.49-7.7,4.13-7.7,4.13h0.94c-2.42,2.72-3,4.79,2.19,9.8a36.67,36.67,0,0,1,8.37,7.31l0.59,0.81L57,64.56V33.76Z" transform="translate(-24.16 -21.63)"/><path class="cls-1" d="M54.65,51.57s-1.45,2-2.16,2-3.64-1.61-6.28,0c-0.3,1.14,2.71,1.14,2.71,1.14s-1.08,1.33-4.5,1,0.82,4.79.82,4.79,0.36-3.5.59-2.8c1,2.83,6.21,6.45,6.21,6.45A2.66,2.66,0,0,1,53.42,61l0-6.16Z" transform="translate(-24.16 -21.63)"/><path class="cls-2" d="M44.85,44.18s3,5.78,6.62,7.33c-7.82.84-6.62-7.05-6.62-7.05" transform="translate(-24.16 -21.63)"/><line class="cls-1" x1="23.62" y1="26.87" x2="21.78" y2="26.24"/><path d="M57,61.48c-2,0-3.6.92-3.6,2s1.61,2,3.6,2V61.48Z" transform="translate(-24.16 -21.63)"/><path d="M57,25.37a13,13,0,0,1,6.87,2c0.47-1,5.08-2.81,5.08-2.81l0.39,1.32s6.81-5.37,14-4c1.88,10.32-1.49,15.52-1.49,15.52l2,2.39s-3.29.5-2.19,0.74S89.83,46,89.83,46L86.26,57.3,78.8,61.22,68.63,65.75,57,66.11V25.37Z" transform="translate(-24.16 -21.63)"/><path class="cls-1" d="M57,27.67a11.87,11.87,0,0,1,5.85,1.6v1.16c1.17-.83,4.38-2.56,4.38-2.56s1.31,1.65,1.23,2.44C72,25.94,79.11,24,79.11,24S71.37,30.35,71,32.57c3.6,0.5,8,6.36,8,6.36l-2.42,1.73c0.86,0.33,9.73,6.64,9.73,6.64L82.91,58.17l-2.06,2.92L57,66.39V27.67Z" transform="translate(-24.16 -21.63)"/><path d="M57,33.76s6.84,0.25,8.76,2.11c-3.56,1.73-3.32,4.58-3.32,4.58s5.36-3.18,8-2.23A36.26,36.26,0,0,0,60.83,51.5C63,51,65.6,47.7,66.87,46a14.41,14.41,0,0,0,1-1.53c0.37-.67,1.41-2,4.15-3,3.87-1.49,7.7,4.13,7.7,4.13H78.74c2.42,2.72,3,4.79-2.19,9.8a36.67,36.67,0,0,0-8.37,7.31l-0.59.81L57,64.56V33.76Z" transform="translate(-24.16 -21.63)"/><path class="cls-1" d="M59.34,51.57s1.45,2,2.16,2,3.64-1.61,6.28,0c0.3,1.14-2.71,1.14-2.71,1.14s1.08,1.33,4.5,1-0.82,4.79-.82,4.79-0.36-3.5-.59-2.8c-1,2.83-6.21,6.45-6.21,6.45A2.66,2.66,0,0,0,60.57,61l0-6.16Z" transform="translate(-24.16 -21.63)"/><path class="cls-2" d="M69.13,44.18s-3,5.78-6.62,7.33c7.82,0.84,6.62-7.05,6.62-7.05" transform="translate(-24.16 -21.63)"/><line class="cls-1" x1="42.06" y1="26.87" x2="43.89" y2="26.24"/><path d="M57,61.48c2,0,3.6.92,3.6,2s-1.61,2-3.6,2V61.48Z" transform="translate(-24.16 -21.63)"/><path d="M26.35,52.68S41.41,64.52,58.39,63c9.68-.51,29.13-9.69,29.13-9.69s2.57,25.49-26.94,34.94c-9.8,2.61-23.26,4.62-23.26,4.62s8.74-6,1.77-16.17C35.31,71.22,26.83,71.82,26.35,52.68Z" transform="translate(-24.16 -21.63)"/><path class="cls-2" d="M28.8,57.32s4.82,8.56,17.69,12c-3.31,0-15.08-3.49-15.08-3.49s0,2,7.62,6.68,6.13,13.92,3.52,16.82C78.15,82.54,79.66,70.9,79.66,70.9s-6.54,4.68-17.27,5c22.1-7.4,23-18.56,23-18.56S54.65,76.49,28.8,57.32Z" transform="translate(-24.16 -21.63)"/><path d="M85.52,54.73s0.31-1.72,2.76-1.15c0.45,0,2.67-9.42,11.36-4.17a7.83,7.83,0,0,0-4.24,2.17s2.71,0.14,3.42,1.88c0,0-5.42,5.18-10.75,3.29-2.06.26-2.75-.83-2.75-0.83" transform="translate(-24.16 -21.63)"/><path class="cls-2" d="M89.12,54.06l6.31-4.26A5.85,5.85,0,0,0,89.12,54.06Z" transform="translate(-24.16 -21.63)"/><ellipse class="cls-2" cx="86.82" cy="55.25" rx="0.72" ry="0.66" transform="translate(-20.44 94.31) rotate(-68.61)"/><path class="cls-2" d="M88.26,54.65s1.63,0.39,5.22-1.15c2.21-1,3.24-.18,3.24-0.18S89.74,57.26,88.26,54.65Z" transform="translate(-24.16 -21.63)"/><polygon points="32.84 12.13 31.55 24.49 32.51 42.93 34.24 36.2 33.98 18.48 32.84 12.13"/><polygon class="cls-1" points="32.84 6.04 31.04 7.98 32.84 12.13 35.84 9.46 32.84 6.04"/></svg>