<svg id="Layer_1" data-name="Layer 1" xmlns="http://www.w3.org/2000/svg" viewBox="0 0 285.43 191.23"><defs><style>.cls-1{fill:#231f20;}.cls-2{fill:#fff;}.cls-3{fill:#4eb748;}</style></defs><title>michief-big2</title><path class="cls-1" d="M184.07,602.18v-36.5q0-1.07-.66-1.07h-0.48a0.9,0.9,0,0,0-.79.87l-8.72,35.16a2.16,2.16,0,0,1-.61,1.23,1.77,1.77,0,0,1-1.1.3H161.33a1.75,1.75,0,0,1-1.12-.3,2.25,2.25,0,0,1-.59-1.23l-8.68-35.16a0.92,0.92,0,0,0-.83-0.87h-0.44q-0.7,0-.7,1.07v36.5h-8.46V555.61q0-2,1.23-2h14.42q1.4,0,1.84,1.8l7.85,34.69a0.4,0.4,0,0,0,.44.4h0.79a0.4,0.4,0,0,0,.35-0.4l7.89-34.69a3.14,3.14,0,0,1,.64-1.33,1.48,1.48,0,0,1,1.16-.47h14.25q1.23,0,1.23,2v46.57h-8.5Z" transform="translate(-140.51 -410.96)"/><path class="cls-1" d="M196.65,602.18V553.61h9v48.57h-9Z" transform="translate(-140.51 -410.96)"/><path class="cls-1" d="M238.38,570.42H238v-5.34q0-.8-0.53-0.8H220.67a1.35,1.35,0,0,0-1.27.6,3.48,3.48,0,0,0-.35,1.74v1.2a3.38,3.38,0,0,0,.31,1.8,2,2,0,0,0,1.18.6l19.81,4.2a9.7,9.7,0,0,1,3.2,1.23,6.69,6.69,0,0,1,2.15,2.2,9.66,9.66,0,0,1,1.18,3.37,27.86,27.86,0,0,1,.35,4.74v3.87a26.06,26.06,0,0,1-.48,5.3,10.43,10.43,0,0,1-1.58,3.87,6.85,6.85,0,0,1-2.89,2.37,10.86,10.86,0,0,1-4.43.8h-28.4V589.57h25.47a1.61,1.61,0,0,0,1.51-.63,4.76,4.76,0,0,0,.37-2.24v-1.33a3.88,3.88,0,0,0-.29-1.77,1.46,1.46,0,0,0-1.12-.63l-19.11-3.67a11,11,0,0,1-3.31-1.2,6.66,6.66,0,0,1-2.26-2.14,9.25,9.25,0,0,1-1.27-3.27,23.33,23.33,0,0,1-.39-4.6v-3.4q0-5.27,1.84-8.17t6.14-2.9h28.36q1.36,0,1.36,2.13v10Z" transform="translate(-140.51 -410.96)"/><path class="cls-1" d="M280.41,573h-0.35v-6.54c0-.44-0.13-0.67-0.39-0.67H264.42a4.07,4.07,0,0,0-3.7,1.67q-1.07,1.67-1.07,6.14v8.14q0,4.34,1.05,6.1a4,4,0,0,0,3.73,1.77H288.3v12.61H263.63a12.43,12.43,0,0,1-6-1.37,10.69,10.69,0,0,1-4-3.87,18.25,18.25,0,0,1-2.24-6.07,41.48,41.48,0,0,1-.7-8v-10a41.5,41.5,0,0,1,.7-8,18.26,18.26,0,0,1,2.24-6.07,10.69,10.69,0,0,1,4-3.87,12.44,12.44,0,0,1,6-1.37h23.89q1.27,0,1.27,2v12.61Z" transform="translate(-140.51 -410.96)"/><path class="cls-1" d="M301.67,573h-0.31v29.22h-9V553.61h9v18h21.3v-18h9.07v48.57h-9.07V583.5H304.35Z" transform="translate(-140.51 -410.96)"/><path class="cls-1" d="M335.82,602.18V553.61h9v48.57h-9Z" transform="translate(-140.51 -410.96)"/><path class="cls-1" d="M358.26,574.09H358v14.54c0,0.62.2,0.93,0.61,0.93h26.91v12.61H350.19q-1.27,0-1.27-2V555.61q0-2,1.27-2h34.28q1.31,0,1.31,2v12.61L377.41,573h-0.35v-6.47c0-.49-0.15-0.73-0.44-0.73h-18.1a0.44,0.44,0,0,0-.46.3,1.83,1.83,0,0,0-.11.63v6.07h14.9v9.87H360.36Z" transform="translate(-140.51 -410.96)"/><path class="cls-1" d="M398.71,577.83h-0.31v24.35h-9V555.61q0-2,1.27-2h34q1.27,0,1.27,2v13.08L417.6,573h-0.39v-6.47c0-.49-0.13-0.73-0.39-0.73H399.24q-0.83,0-.83,1.2v9.61H413v10.88h-12Z" transform="translate(-140.51 -410.96)"/><path class="cls-2" d="M209.08,546V534.3c0-.23-0.08-0.34-0.23-0.34h-0.17a0.3,0.3,0,0,0-.28.28l-3.06,11.31a0.67,0.67,0,0,1-.22.4,0.66,0.66,0,0,1-.38.1h-3.65a0.66,0.66,0,0,1-.39-0.1,0.7,0.7,0,0,1-.21-0.4l-3-11.31a0.31,0.31,0,0,0-.29-0.28H197c-0.16,0-.25.12-0.25,0.34V546h-3v-15q0-.64.43-0.64h5.06a0.65,0.65,0,0,1,.65.58l2.75,11.16a0.14,0.14,0,0,0,.15.13h0.28a0.13,0.13,0,0,0,.12-0.13L206,531a1,1,0,0,1,.22-0.43,0.54,0.54,0,0,1,.41-0.15h5q0.43,0,.43.64v15h-3Z" transform="translate(-140.51 -410.96)"/><path class="cls-2" d="M216.57,546V530.41h3.17V546h-3.17Z" transform="translate(-140.51 -410.96)"/><path class="cls-2" d="M234.3,535.82h-0.12V534.1q0-.26-0.18-0.26h-5.91a0.49,0.49,0,0,0-.45.19,1,1,0,0,0-.12.56V535a1,1,0,0,0,.11.58,0.73,0.73,0,0,0,.42.19l7,1.35a3.61,3.61,0,0,1,1.12.4,2.26,2.26,0,0,1,.75.71,3,3,0,0,1,.42,1.08,8.23,8.23,0,0,1,.12,1.52v1.25a7.74,7.74,0,0,1-.17,1.71,3.21,3.21,0,0,1-.55,1.24,2.38,2.38,0,0,1-1,.76,4.14,4.14,0,0,1-1.55.26h-10V542h8.94a0.59,0.59,0,0,0,.53-0.2,1.42,1.42,0,0,0,.13-0.72v-0.43a1.16,1.16,0,0,0-.1-0.57,0.52,0.52,0,0,0-.39-0.2l-6.71-1.18a4.1,4.1,0,0,1-1.16-.39,2.27,2.27,0,0,1-.79-0.69,2.84,2.84,0,0,1-.45-1.05,6.9,6.9,0,0,1-.14-1.48V534a4.58,4.58,0,0,1,.65-2.63,2.43,2.43,0,0,1,2.15-.93h10q0.48,0,.48.69v3.22Z" transform="translate(-140.51 -410.96)"/><path class="cls-2" d="M251.86,535.82h-0.12V534.1q0-.26-0.18-0.26h-5.91a0.49,0.49,0,0,0-.45.19,1,1,0,0,0-.12.56V535a1,1,0,0,0,.11.58,0.73,0.73,0,0,0,.42.19l7,1.35a3.61,3.61,0,0,1,1.12.4,2.26,2.26,0,0,1,.75.71,3,3,0,0,1,.42,1.08,8.23,8.23,0,0,1,.12,1.52v1.25a7.74,7.74,0,0,1-.17,1.71,3.21,3.21,0,0,1-.55,1.24,2.38,2.38,0,0,1-1,.76,4.14,4.14,0,0,1-1.55.26h-10V542h8.94a0.59,0.59,0,0,0,.53-0.2,1.42,1.42,0,0,0,.13-0.72v-0.43a1.16,1.16,0,0,0-.1-0.57,0.52,0.52,0,0,0-.39-0.2l-6.71-1.18a4.1,4.1,0,0,1-1.16-.39,2.27,2.27,0,0,1-.79-0.69,2.84,2.84,0,0,1-.45-1.05,6.9,6.9,0,0,1-.14-1.48V534a4.58,4.58,0,0,1,.65-2.63,2.43,2.43,0,0,1,2.15-.93h10q0.48,0,.48.69v3.22Z" transform="translate(-140.51 -410.96)"/><path class="cls-2" d="M259.37,546V530.41h3.17V546h-3.17Z" transform="translate(-140.51 -410.96)"/><path class="cls-2" d="M277.1,535.82H277V534.1q0-.26-0.18-0.26h-5.91a0.49,0.49,0,0,0-.45.19,1,1,0,0,0-.12.56V535a1,1,0,0,0,.11.58,0.73,0.73,0,0,0,.42.19l7,1.35a3.61,3.61,0,0,1,1.12.4,2.26,2.26,0,0,1,.75.71,3,3,0,0,1,.42,1.08,8.23,8.23,0,0,1,.12,1.52v1.25a7.74,7.74,0,0,1-.17,1.71,3.21,3.21,0,0,1-.55,1.24,2.38,2.38,0,0,1-1,.76,4.14,4.14,0,0,1-1.55.26h-10V542h8.94a0.59,0.59,0,0,0,.53-0.2,1.42,1.42,0,0,0,.13-0.72v-0.43a1.16,1.16,0,0,0-.1-0.57,0.52,0.52,0,0,0-.39-0.2l-6.71-1.18a4.1,4.1,0,0,1-1.16-.39,2.27,2.27,0,0,1-.79-0.69,2.84,2.84,0,0,1-.45-1.05,6.9,6.9,0,0,1-.14-1.48V534a4.58,4.58,0,0,1,.65-2.63,2.43,2.43,0,0,1,2.15-.93h10q0.48,0,.48.69v3.22Z" transform="translate(-140.51 -410.96)"/><path class="cls-2" d="M294.66,535.82h-0.12V534.1q0-.26-0.18-0.26h-5.91a0.49,0.49,0,0,0-.45.19,1,1,0,0,0-.12.56V535a1,1,0,0,0,.11.58,0.73,0.73,0,0,0,.42.19l7,1.35a3.61,3.61,0,0,1,1.12.4,2.26,2.26,0,0,1,.75.71,3,3,0,0,1,.42,1.08,8.23,8.23,0,0,1,.12,1.52v1.25a7.74,7.74,0,0,1-.17,1.71A3.21,3.21,0,0,1,297,545a2.38,2.38,0,0,1-1,.76,4.14,4.14,0,0,1-1.55.26h-10V542h8.94a0.59,0.59,0,0,0,.53-0.2,1.42,1.42,0,0,0,.13-0.72v-0.43a1.16,1.16,0,0,0-.1-0.57,0.52,0.52,0,0,0-.39-0.2l-6.71-1.18a4.1,4.1,0,0,1-1.16-.39,2.27,2.27,0,0,1-.79-0.69,2.84,2.84,0,0,1-.45-1.05,6.9,6.9,0,0,1-.14-1.48V534a4.58,4.58,0,0,1,.65-2.63,2.43,2.43,0,0,1,2.15-.93h10q0.48,0,.48.69v3.22Z" transform="translate(-140.51 -410.96)"/><path class="cls-2" d="M304.6,546h-3.66v-0.17l5.62-14.94a1.15,1.15,0,0,1,.22-0.41,0.51,0.51,0,0,1,.37-0.11H311a0.54,0.54,0,0,1,.38.11,1.19,1.19,0,0,1,.24.41l5.57,14.94V546h-9.59l-0.92-3.39v-0.43h4.63l0.49,0,0.42,0,0-.15c-0.06-.16-0.12-0.31-0.19-0.46s-0.14-.33-0.22-0.55l-0.29-.77-0.42-1.14-1.77-4.94a0.22,0.22,0,0,0-.21-0.15H309a0.21,0.21,0,0,0-.2.15Z" transform="translate(-140.51 -410.96)"/><path class="cls-2" d="M320.21,530.41h3.17v9.16a3.29,3.29,0,0,0,.39,1.87A1.47,1.47,0,0,0,325,542h4.23a1.47,1.47,0,0,0,1.29-.55,3.4,3.4,0,0,0,.39-1.9v-9.12h3.17v9.42a12.49,12.49,0,0,1-.25,2.61,5.59,5.59,0,0,1-.79,2,3.49,3.49,0,0,1-1.41,1.22,4.9,4.9,0,0,1-2.13.42h-4.79a4.86,4.86,0,0,1-2.12-.42,3.48,3.48,0,0,1-1.41-1.22,5.57,5.57,0,0,1-.79-2,12.49,12.49,0,0,1-.25-2.61v-9.42Z" transform="translate(-140.51 -410.96)"/><path class="cls-2" d="M348.74,539.34c0-.23,0-0.47,0-0.72s0-.47-0.05-0.65v-0.19h3.14v7.66q0,0.6-.38.6H343a4.7,4.7,0,0,1-2.12-.44,3.63,3.63,0,0,1-1.42-1.25,5.57,5.57,0,0,1-.79-2,12.26,12.26,0,0,1-.25-2.56v-3.22a12.27,12.27,0,0,1,.25-2.56,5.59,5.59,0,0,1,.79-2,3.63,3.63,0,0,1,1.42-1.24,4.7,4.7,0,0,1,2.12-.44h8.39q0.45,0,.45.64v3.37l-2.94,1.5h-0.12v-1.5c0-.14,0-0.21-0.14-0.21h-5.36a2.24,2.24,0,0,0-.78.12,1.07,1.07,0,0,0-.52.41,2,2,0,0,0-.29.77,6.5,6.5,0,0,0-.09,1.19v2.75a3.67,3.67,0,0,0,.38,2,1.45,1.45,0,0,0,1.29.56h5.31c0.11,0,.17-0.09.17-0.26v-2.38Z" transform="translate(-140.51 -410.96)"/><path class="cls-2" d="M359.44,546h-3.66v-0.17l5.62-14.94a1.16,1.16,0,0,1,.22-0.41,0.51,0.51,0,0,1,.37-0.11h3.86a0.55,0.55,0,0,1,.38.11,1.21,1.21,0,0,1,.24.41L372,545.86V546h-9.59l-0.92-3.39v-0.43h4.63l0.49,0,0.42,0,0-.15-0.19-.46c-0.07-.15-0.14-0.33-0.22-0.55l-0.29-.77L366,539.23l-1.77-4.94a0.22,0.22,0,0,0-.21-0.15h-0.18a0.21,0.21,0,0,0-.2.15Z" transform="translate(-140.51 -410.96)"/><path d="M284.18,416.78a20.33,20.33,0,0,0-10.7,3.12c-0.73-1.54-7.92-4.37-7.92-4.37l-0.61,2.06s-10.6-8.36-21.81-6.3c-2.92,16.08,2.32,24.18,2.32,24.18l-3.17,3.73s5.12,0.77,3.41,1.16S233,448.94,233,448.94l5.56,17.58,11.62,6.12,15.85,7,18.13,0.57V416.78Z" transform="translate(-140.51 -410.96)"/><path class="cls-2" d="M284.18,420.37a18.5,18.5,0,0,0-9.11,2.49v1.8c-1.83-1.29-6.82-4-6.82-4s-2,2.58-1.91,3.8c-5.54-6.8-16.61-9.85-16.61-9.85s12.06,9.9,12.67,13.38c-5.61.77-12.43,9.9-12.43,9.9l3.78,2.7c-1.34.51-15.16,10.35-15.16,10.35l5.22,16.92,3.21,4.55,37.17,8.26V420.37Z" transform="translate(-140.51 -410.96)"/><path d="M284.18,429.86s-10.66.39-13.65,3.28c5.55,2.7,5.18,7.14,5.18,7.14s-8.35-5-12.43-3.47a56.49,56.49,0,0,1,14.93,20.69c-3.33-.81-7.43-5.93-9.42-8.64a22.45,22.45,0,0,1-1.48-2.38c-0.58-1-2.19-3.07-6.46-4.71-6-2.32-12,6.43-12,6.43h1.46c-3.78,4.24-4.63,7.46,3.41,15.26a57.13,57.13,0,0,1,13,11.39l0.92,1.26,16.51,1.74v-48Z" transform="translate(-140.51 -410.96)"/><path class="cls-2" d="M280.52,457.59s-2.26,3.16-3.36,3.1-5.68-2.51-9.79,0c-0.46,1.77,4.23,1.77,4.23,1.77s-1.68,2.08-7,1.53,1.27,7.46,1.27,7.46,0.56-5.45.93-4.36c1.51,4.4,9.67,10,9.67,10a4.14,4.14,0,0,1,2.14-4.89l0.06-9.6Z" transform="translate(-140.51 -410.96)"/><path class="cls-3" d="M265.26,446.08s4.63,9,10.32,11.41c-12.19,1.31-10.32-11-10.32-11" transform="translate(-140.51 -410.96)"/><line class="cls-2" x1="129.31" y1="41.86" x2="126.45" y2="40.88"/><path d="M284.18,473c-3.1,0-5.61,1.43-5.61,3.19s2.51,3.19,5.61,3.19V473Z" transform="translate(-140.51 -410.96)"/><path d="M284.18,416.78a20.33,20.33,0,0,1,10.7,3.12c0.73-1.54,7.92-4.37,7.92-4.37l0.61,2.06s10.6-8.36,21.81-6.3c2.92,16.08-2.32,24.18-2.32,24.18l3.17,3.73s-5.12.77-3.41,1.16,12.67,8.59,12.67,8.59l-5.56,17.58-11.62,6.12-15.85,7-18.13.57V416.78Z" transform="translate(-140.51 -410.96)"/><path class="cls-2" d="M284.18,420.37a18.5,18.5,0,0,1,9.11,2.49v1.8c1.83-1.29,6.82-4,6.82-4s2,2.58,1.91,3.8c5.54-6.8,16.61-9.85,16.61-9.85S306.57,424.53,306,428c5.61,0.77,12.43,9.9,12.43,9.9l-3.78,2.7C316,441.12,329.77,451,329.77,451l-5.22,16.92-3.21,4.55-37.17,8.26V420.37Z" transform="translate(-140.51 -410.96)"/><path d="M284.18,429.86s10.66,0.39,13.65,3.28c-5.55,2.7-5.18,7.14-5.18,7.14s8.35-5,12.43-3.47a56.49,56.49,0,0,0-14.93,20.69c3.33-.81,7.43-5.93,9.42-8.64a22.45,22.45,0,0,0,1.48-2.38c0.58-1,2.19-3.07,6.46-4.71,6-2.32,12,6.43,12,6.43h-1.46c3.78,4.24,4.63,7.46-3.41,15.26a57.13,57.13,0,0,0-13,11.39l-0.92,1.26-16.51,1.74v-48Z" transform="translate(-140.51 -410.96)"/><path class="cls-2" d="M287.83,457.59s2.26,3.16,3.36,3.1,5.68-2.51,9.79,0c0.46,1.77-4.23,1.77-4.23,1.77s1.68,2.08,7,1.53-1.27,7.46-1.27,7.46-0.56-5.45-.93-4.36c-1.51,4.4-9.67,10-9.67,10a4.14,4.14,0,0,0-2.14-4.89l-0.06-9.6Z" transform="translate(-140.51 -410.96)"/><path class="cls-3" d="M303.09,446.08s-4.63,9-10.32,11.41c12.19,1.31,10.32-11,10.32-11" transform="translate(-140.51 -410.96)"/><line class="cls-2" x1="158.04" y1="41.86" x2="160.89" y2="40.88"/><path d="M284.18,473c3.1,0,5.61,1.43,5.61,3.19s-2.51,3.19-5.61,3.19V473Z" transform="translate(-140.51 -410.96)"/><path d="M236.43,459.33s23.48,18.44,49.92,16.09c15.08-.79,45.39-15.1,45.39-15.1s4,39.72-42,54.44c-15.27,4.07-36.24,7.2-36.24,7.2s13.62-9.39,2.76-25.19C250.4,488.21,237.18,489.14,236.43,459.33Z" transform="translate(-140.51 -410.96)"/><path class="cls-3" d="M240.26,466.56s7.52,13.34,27.56,18.72c-5.16,0-23.5-5.44-23.5-5.44s0,3.18,11.87,10.41,9.55,21.69,5.48,26.21c55.46-10.6,57.81-28.74,57.81-28.74s-10.18,7.29-26.91,7.77C327,484,328.44,466.56,328.44,466.56S280.52,496.43,240.26,466.56Z" transform="translate(-140.51 -410.96)"/><path d="M328.61,462.53s0.48-2.68,4.3-1.79c0.7,0,4.17-14.67,17.7-6.5a12.2,12.2,0,0,0-6.61,3.38s4.22,0.22,5.32,2.93c0,0-8.45,8.07-16.75,5.12-3.22.4-4.28-1.3-4.28-1.3" transform="translate(-140.51 -410.96)"/><path class="cls-3" d="M334.22,461.48l9.83-6.64A9.12,9.12,0,0,0,334.22,461.48Z" transform="translate(-140.51 -410.96)"/><ellipse class="cls-3" cx="330.65" cy="463.32" rx="1.12" ry="1.04" transform="translate(-361.86 191.26) rotate(-68.61)"/><path class="cls-3" d="M332.89,462.39s2.54,0.61,8.14-1.79c3.44-1.51,5-.29,5-0.29S335.19,466.46,332.89,462.39Z" transform="translate(-140.51 -410.96)"/><polygon points="143.67 18.9 141.67 38.15 143.16 66.88 145.85 56.41 145.45 28.78 143.67 18.9"/><polygon class="cls-2" points="143.67 9.41 140.87 12.44 143.67 18.9 148.34 14.73 143.67 9.41"/></svg>