<svg id="Layer_1" data-name="Layer 1" xmlns="http://www.w3.org/2000/svg" viewBox="0 0 118.19 49.85"><defs><style>.cls-1{fill:#ce93d8;}.cls-2{fill:#9c27b0;}</style></defs><title>OLAE1</title><circle cx="20.5" cy="21.56" r="3.29"/><path d="M25.44,609.25a15.9,15.9,0,0,1-6.5-1.32,16,16,0,0,1-8.61-9,18.56,18.56,0,0,1-1.23-6.8,18,18,0,0,1,1.23-6.76,15,15,0,0,1,3.42-5.21,15.42,15.42,0,0,1,5.18-3.33,17.52,17.52,0,0,1,6.5-1.18h8.19a18,18,0,0,1,6.69,1.2,14.9,14.9,0,0,1,8.58,8.58,18,18,0,0,1,1.2,6.69,18.57,18.57,0,0,1-1.23,6.8,16.31,16.31,0,0,1-3.42,5.44,16.08,16.08,0,0,1-5.21,3.61,16.29,16.29,0,0,1-6.62,1.32H25.44Zm8.19-5.88a10.7,10.7,0,0,0,4.26-.83,10.06,10.06,0,0,0,5.55-5.79,12.09,12.09,0,0,0,.79-4.4,11.91,11.91,0,0,0-.79-4.37,9.89,9.89,0,0,0-5.55-5.69,11,11,0,0,0-4.26-.81H25.44a10.68,10.68,0,0,0-4.19.81,9.9,9.9,0,0,0-3.31,2.24A10.33,10.33,0,0,0,15.77,588a11.85,11.85,0,0,0-.79,4.4,12.08,12.08,0,0,0,.79,4.4,10.46,10.46,0,0,0,2.17,3.49,10,10,0,0,0,3.31,2.29,10.42,10.42,0,0,0,4.19.83h8.19Z" transform="translate(-9.1 -570.87)"/><path d="M53.53,609.25V575.6h5.88v27.77h9.14l-0.92,5.88H53.53Z" transform="translate(-9.1 -570.87)"/><path d="M99,609.25V575.6h28.26v5.88H104.82v21.89H127.3v5.88H99Zm11.35-14.62v-5H126v5H110.35Z" transform="translate(-9.1 -570.87)"/><path class="cls-1" d="M73.82,586.68a38.13,38.13,0,0,1-.19-5.09c0-.84,0-1.69.1-2.53s0.1-1.68.2-2.52l0.14-1.23,1,0.65c0.59,0.38,1.18.74,1.75,1.15s1.15,0.79,1.71,1.21,1.11,0.85,1.66,1.28,1.08,0.9,1.59,1.4c-0.67-.24-1.32-0.51-2-0.8s-1.27-.59-1.89-0.91-1.24-.64-1.84-1-1.21-.69-1.8-1l1.15-.58c0,0.84-.15,1.68-0.23,2.52s-0.21,1.67-.33,2.51A38.13,38.13,0,0,1,73.82,586.68Z" transform="translate(-9.1 -570.87)"/><path class="cls-1" d="M79.93,606.24A29.32,29.32,0,0,1,76,608.36c-0.67.3-1.35,0.6-2,.87s-1.37.55-2.06,0.78l-1.08.36,0.06-1.09c0-.59.05-1.19,0.11-1.78s0.11-1.18.19-1.78,0.17-1.18.28-1.77,0.24-1.18.41-1.77c0.13,0.6.22,1.2,0.29,1.79s0.13,1.19.16,1.79,0.07,1.19.07,1.79,0,1.19,0,1.78l-1-.73c0.68-.28,1.38-0.5,2.07-0.75s1.4-.45,2.11-0.66A29.32,29.32,0,0,1,79.93,606.24Z" transform="translate(-9.1 -570.87)"/><path class="cls-1" d="M93.59,589.88a28.92,28.92,0,0,1,3.65,2.5c0.57,0.46,1.14.92,1.69,1.4s1.1,1,1.62,1.47l0.74,0.72-0.86.48c-0.51.29-1,.58-1.54,0.84s-1,.53-1.58.78-1.08.48-1.62,0.7-1.11.42-1.69,0.59c0.43-.43.88-0.81,1.33-1.19s0.92-.74,1.4-1.08,1-.68,1.44-1,1-.63,1.48-0.94l-0.13,1.21c-0.55-.48-1.07-1-1.6-1.49s-1-1-1.54-1.57A28.92,28.92,0,0,1,93.59,589.88Z" transform="translate(-9.1 -570.87)"/><path class="cls-2" d="M79.67,590.75a3.93,3.93,0,0,0-1.08-.87,5.13,5.13,0,0,0-1.23-.52,6.54,6.54,0,0,0-2.6-.16,8.33,8.33,0,0,0-1.29.23,10.53,10.53,0,0,0-1.26.39,18.38,18.38,0,0,0-2.45,1.08c-0.79.42-1.57,0.88-2.34,1.36s-1.52,1-2.25,1.55-1.48,1.07-2.2,1.65-1.42,1.17-2.14,1.75l-1.37-2.32a6.12,6.12,0,0,1,2-.35,7.32,7.32,0,0,1,1.87.22,10.78,10.78,0,0,1,3.2,1.36c0.48,0.29.94,0.6,1.39,0.93s0.9,0.7,1.23,1a11,11,0,0,0,2.41,1.49,6.48,6.48,0,0,0,1.32.46,8.59,8.59,0,0,0,1.39.19,11.22,11.22,0,0,0,1.46,0,9.81,9.81,0,0,0,1.46-.19,8.67,8.67,0,0,0,1.43-.4,8.44,8.44,0,0,0,1.36-.61,8.91,8.91,0,0,0,1.26-.84A9.25,9.25,0,0,0,82.31,597a9.43,9.43,0,0,1-.88,1.31,7.5,7.5,0,0,1-1.14,1.13,8.2,8.2,0,0,1-1.34.91,9.67,9.67,0,0,1-1.49.67,11.3,11.3,0,0,1-3.22.67,10.11,10.11,0,0,1-1.71,0,8.85,8.85,0,0,1-1.68-.35,13.07,13.07,0,0,1-3.07-1.42c-0.51-.33-0.86-0.6-1.28-0.86s-0.83-.5-1.25-0.72a12.46,12.46,0,0,0-1.28-.57,8,8,0,0,0-1.27-.39,4.65,4.65,0,0,0-1.21-.12,3.41,3.41,0,0,0-1.07.21l-6.73,2.14L59,595.12c0.74-.62,1.49-1.22,2.26-1.79q0.57-.44,1.17-0.86c0.4-.28.78-0.57,1.2-0.82,0.82-.52,1.65-1,2.52-1.48a20.64,20.64,0,0,1,2.67-1.24c0.46-.18.93-0.34,1.4-0.49a13.81,13.81,0,0,1,1.45-.37,12.19,12.19,0,0,1,1.5-.21,9.47,9.47,0,0,1,1.52,0,7.15,7.15,0,0,1,2.92.82A4.62,4.62,0,0,1,79.67,590.75Z" transform="translate(-9.1 -570.87)"/><path class="cls-2" d="M81.64,595.2a7.51,7.51,0,0,1-1.86-2.62,8.9,8.9,0,0,1-.71-3.25A10.76,10.76,0,0,1,79.6,586a12.34,12.34,0,0,1,.64-1.57,16.65,16.65,0,0,1,.82-1.47,17.12,17.12,0,0,1,2-2.64c0.38-.39.74-0.81,1.15-1.18s0.79-.76,1.2-1.11c0.82-.71,1.69-1.36,2.57-2s1.78-1.21,2.69-1.78l5.48-3.38-3.68,5.37a3.77,3.77,0,0,0-.47.87,4.63,4.63,0,0,0-.27,1.05,9.94,9.94,0,0,0,0,2.41,16,16,0,0,0,.46,2.53c0.1,0.42.25,0.83,0.36,1.35a14.38,14.38,0,0,1,.26,1.48,11.62,11.62,0,0,1-.27,4.45A8.91,8.91,0,0,1,92,591.8a7,7,0,0,1-1.75,2.4,6,6,0,0,1-1.21.82,7.39,7.39,0,0,1-1.33.49,7.17,7.17,0,0,0,1.1-.83,5.75,5.75,0,0,0,.89-1,6.47,6.47,0,0,0,1-2.33A9.46,9.46,0,0,0,91,590.1a9.81,9.81,0,0,0,0-1.28,11.88,11.88,0,0,0-.68-3.74l-0.46-1.29a18.5,18.5,0,0,1-.72-2.88,10.48,10.48,0,0,1-.07-3.11,7.31,7.31,0,0,1,.39-1.63,6.47,6.47,0,0,1,.82-1.57l1.8,2c-0.43.28-.87,0.54-1.3,0.81s-0.85.56-1.27,0.84c-0.84.57-1.66,1.17-2.44,1.8-0.41.3-.78,0.63-1.17,0.95s-0.74.67-1.11,1a23.19,23.19,0,0,0-2,2.19,14.57,14.57,0,0,0-.85,1.19c-0.25.41-.48,0.84-0.69,1.27a9.27,9.27,0,0,0-.85,2.76,8.41,8.41,0,0,0,.08,2.94A8.62,8.62,0,0,0,81.64,595.2Z" transform="translate(-9.1 -570.87)"/><path class="cls-2" d="M83.73,595.2a6.93,6.93,0,0,1,3.1-.61,6.79,6.79,0,0,1,3.18.91,7.18,7.18,0,0,1,1.36,1,9,9,0,0,1,1.12,1.28,9.24,9.24,0,0,1,.86,1.44,16.29,16.29,0,0,1,.67,1.52c0.17,0.52.37,1,.49,1.56s0.26,1.06.34,1.59a29.06,29.06,0,0,1,.4,3.18c0.05,0.53,0,1.06.06,1.59s0,1.06,0,1.58c0,1.06-.07,2.1-0.14,3.15l-0.5,7.3-2.16-7a2.61,2.61,0,0,0-1.14-1.44,8.64,8.64,0,0,0-2.19-.92c-0.84-.25-1.71-0.4-2.74-0.71a12.05,12.05,0,0,1-1.42-.55,12.78,12.78,0,0,1-1.35-.71,10.94,10.94,0,0,1-1.25-.88l-0.3-.26L81.87,608c-0.19-.18-0.38-0.37-0.55-0.56A11,11,0,0,1,79.59,605a9.77,9.77,0,0,1-.59-1.36,6.88,6.88,0,0,1-.35-1.44,6.62,6.62,0,0,1-.05-1.46,6.86,6.86,0,0,1,.29-1.4,6.66,6.66,0,0,0,.07,1.39,7.24,7.24,0,0,0,.35,1.31,9.07,9.07,0,0,0,1.31,2.31,11.83,11.83,0,0,0,1.83,1.89c0.17,0.15.33,0.26,0.5,0.38l0.29,0.2,0.13,0.08L83.5,607a11,11,0,0,0,1.13.6,10.69,10.69,0,0,0,1.19.46c0.42,0.14.8,0.23,1.24,0.33,0.77,0.17,1.77.28,2.74,0.49a9.11,9.11,0,0,1,3,1.14,5.84,5.84,0,0,1,1.38,1.18,5.25,5.25,0,0,1,.93,1.66l-2.66.31c0.05-1,.16-2,0.18-3s0-2,0-3a26.59,26.59,0,0,0-.18-2.94c0-.49-0.13-1-0.22-1.44s-0.19-.94-0.29-1.42-0.25-.92-0.43-1.36a10.36,10.36,0,0,0-.58-1.28,7.28,7.28,0,0,0-.75-1.17,5.88,5.88,0,0,0-1-1,6,6,0,0,0-2.52-1.27A7.84,7.84,0,0,0,83.73,595.2Z" transform="translate(-9.1 -570.87)"/></svg>