<svg id="Layer_1" data-name="Layer 1" xmlns="http://www.w3.org/2000/svg" viewBox="0 0 125.96 49.85"><defs><style>.cls-1{fill:#fff;}.cls-2{fill:#ce93d8;}.cls-3{fill:#9c27b0;}</style></defs><title>OLAE-bold</title><path class="cls-1" d="M-199.3,732.5c-12.54,0-20,9.25-20,20.67s7.5,20.67,20,20.67H-93.37V732.5H-199.3Z" transform="translate(219.34 -731.3)"/><path class="cls-1" d="M-206.46,779.44a1.42,1.42,0,0,1-.58-0.12,1.46,1.46,0,0,1-.47-0.32,1.46,1.46,0,0,1-.31-0.49,1.66,1.66,0,0,1-.11-0.61,1.61,1.61,0,0,1,.11-0.61,1.35,1.35,0,0,1,.31-0.47,1.41,1.41,0,0,1,.47-0.3,1.58,1.58,0,0,1,.58-0.11h0.74a1.63,1.63,0,0,1,.6.11,1.37,1.37,0,0,1,.47.3,1.36,1.36,0,0,1,.3.47,1.61,1.61,0,0,1,.11.6,1.67,1.67,0,0,1-.11.61,1.45,1.45,0,0,1-.31.49,1.45,1.45,0,0,1-.47.32,1.46,1.46,0,0,1-.59.12h-0.74Zm0.74-.53a1,1,0,0,0,.38-0.08,0.92,0.92,0,0,0,.3-0.21,0.93,0.93,0,0,0,.2-0.31,1.08,1.08,0,0,0,.07-0.4,1.06,1.06,0,0,0-.07-0.39,0.9,0.9,0,0,0-.2-0.31,0.91,0.91,0,0,0-.3-0.2,1,1,0,0,0-.38-0.07h-0.74a1,1,0,0,0-.38.07,0.89,0.89,0,0,0-.3.2,0.94,0.94,0,0,0-.2.31,1.07,1.07,0,0,0-.07.39,1.09,1.09,0,0,0,.07.4,1,1,0,0,0,.2.31,0.9,0.9,0,0,0,.3.21,0.94,0.94,0,0,0,.38.08h0.74Z" transform="translate(219.34 -731.3)"/><path class="cls-1" d="M-203.32,777.23v2.21h-0.5V776.7a0.34,0.34,0,0,1,.07-0.23,0.25,0.25,0,0,1,.2-0.09l0.11,0a0.4,0.4,0,0,1,.11.08l2.13,2.11V776.4h0.5v2.77a0.34,0.34,0,0,1-.07.23,0.24,0.24,0,0,1-.19.08,0.34,0.34,0,0,1-.24-0.11Z" transform="translate(219.34 -731.3)"/><path class="cls-1" d="M-199.22,779.44v-2.49h-1.15v-0.53h2.82v0.53h-1.15v2.49h-0.53Z" transform="translate(219.34 -731.3)"/><path class="cls-1" d="M-194.62,779.44l-0.45-.76h-1.43l0.25-.43h0.93l-0.67-1.13-1.37,2.32H-198l1.74-2.89a0.4,0.4,0,0,1,.11-0.12,0.25,0.25,0,0,1,.15,0,0.24,0.24,0,0,1,.15,0,0.4,0.4,0,0,1,.11.13l1.74,2.89h-0.64Z" transform="translate(219.34 -731.3)"/><path class="cls-1" d="M-190.86,779.44l-0.76-.84h-1.13v-0.47h1.26a0.56,0.56,0,0,0,.43-0.16,0.64,0.64,0,0,0,.15-0.45,0.58,0.58,0,0,0-.15-0.44,0.59,0.59,0,0,0-.43-0.14h-1.65v2.49h-0.52v-3h2.17a1.31,1.31,0,0,1,.46.08,1,1,0,0,1,.34.22,1,1,0,0,1,.22.35,1.32,1.32,0,0,1,.07.46,1.15,1.15,0,0,1-.16.63,0.92,0.92,0,0,1-.46.37l0.91,0.92h-0.75Z" transform="translate(219.34 -731.3)"/><path class="cls-1" d="M-189.81,779.44v-3h0.53v3h-0.53Z" transform="translate(219.34 -731.3)"/><path class="cls-1" d="M-187.35,779.44a1.42,1.42,0,0,1-.58-0.12,1.46,1.46,0,0,1-.47-0.32,1.46,1.46,0,0,1-.31-0.49,1.66,1.66,0,0,1-.11-0.61,1.61,1.61,0,0,1,.11-0.61,1.35,1.35,0,0,1,.31-0.47,1.41,1.41,0,0,1,.47-0.3,1.58,1.58,0,0,1,.58-0.11h0.74a1.63,1.63,0,0,1,.6.11,1.37,1.37,0,0,1,.47.3,1.36,1.36,0,0,1,.3.47,1.61,1.61,0,0,1,.11.6,1.67,1.67,0,0,1-.11.61,1.45,1.45,0,0,1-.31.49,1.45,1.45,0,0,1-.47.32,1.46,1.46,0,0,1-.59.12h-0.74Zm0.74-.53a1,1,0,0,0,.38-0.08,0.92,0.92,0,0,0,.3-0.21,0.93,0.93,0,0,0,.2-0.31,1.08,1.08,0,0,0,.07-0.4,1.06,1.06,0,0,0-.07-0.39,0.9,0.9,0,0,0-.2-0.31,0.91,0.91,0,0,0-.3-0.2,1,1,0,0,0-.38-0.07h-0.74a1,1,0,0,0-.38.07,0.89,0.89,0,0,0-.3.2,0.94,0.94,0,0,0-.2.31,1.07,1.07,0,0,0-.07.39,1.09,1.09,0,0,0,.07.4,1,1,0,0,0,.2.31,0.9,0.9,0,0,0,.3.21,0.94,0.94,0,0,0,.38.08h0.74Z" transform="translate(219.34 -731.3)"/><path class="cls-1" d="M-183.48,779.44v-3H-183v2.49h2v0.53h-2.56Z" transform="translate(219.34 -731.3)"/><path class="cls-1" d="M-180.55,779.44v-3h2.7v0.53H-180v2h2.18v0.53h-2.7Zm0.91-1.31v-0.44H-178v0.44h-1.67Z" transform="translate(219.34 -731.3)"/><path class="cls-1" d="M-174.25,779.44l-0.45-.76h-1.43l0.25-.43H-175l-0.67-1.13-1.37,2.32h-0.6l1.74-2.89a0.4,0.4,0,0,1,.11-0.12,0.25,0.25,0,0,1,.15,0,0.24,0.24,0,0,1,.15,0,0.4,0.4,0,0,1,.11.13l1.74,2.89h-0.64Z" transform="translate(219.34 -731.3)"/><path class="cls-1" d="M-172.31,779.44a1.42,1.42,0,0,1-.58-0.12,1.46,1.46,0,0,1-.47-0.32,1.46,1.46,0,0,1-.31-0.49,1.66,1.66,0,0,1-.11-0.61,1.61,1.61,0,0,1,.11-0.61,1.35,1.35,0,0,1,.31-0.47,1.41,1.41,0,0,1,.47-0.3,1.58,1.58,0,0,1,.58-0.11h1.64v0.53h-1.64a1,1,0,0,0-.38.07,0.89,0.89,0,0,0-.3.2,0.94,0.94,0,0,0-.2.31,1.07,1.07,0,0,0-.07.39,1.09,1.09,0,0,0,.07.4,1,1,0,0,0,.2.31,0.9,0.9,0,0,0,.3.21,0.94,0.94,0,0,0,.38.08H-171v-0.79h-1.36v-0.44h1.89v1.76h-1.82Z" transform="translate(219.34 -731.3)"/><path class="cls-1" d="M-167.3,776.42h0.52v1.69a1.83,1.83,0,0,1-.09.61,1,1,0,0,1-.29.43,1.24,1.24,0,0,1-.5.25,2.92,2.92,0,0,1-.75.08,2.89,2.89,0,0,1-.75-0.08,1.24,1.24,0,0,1-.5-0.25,1,1,0,0,1-.29-0.43,1.83,1.83,0,0,1-.09-0.61v-1.69h0.54v1.69a1.19,1.19,0,0,0,.06.39,0.58,0.58,0,0,0,.18.27,0.81,0.81,0,0,0,.34.15,2.4,2.4,0,0,0,.52,0,2.4,2.4,0,0,0,.52,0,0.81,0.81,0,0,0,.34-0.15,0.59,0.59,0,0,0,.18-0.27,1.2,1.2,0,0,0,.06-0.39v-1.69Z" transform="translate(219.34 -731.3)"/><path class="cls-1" d="M-166.31,779.44v-3h2.7v0.53h-2.17v2h2.18v0.53h-2.7Zm0.91-1.31v-0.44h1.67v0.44h-1.67Z" transform="translate(219.34 -731.3)"/><path class="cls-1" d="M-160.55,779.44a1.42,1.42,0,0,1-.58-0.12,1.46,1.46,0,0,1-.47-0.32,1.46,1.46,0,0,1-.31-0.49,1.66,1.66,0,0,1-.11-0.61,1.61,1.61,0,0,1,.11-0.61,1.35,1.35,0,0,1,.31-0.47,1.41,1.41,0,0,1,.47-0.3,1.58,1.58,0,0,1,.58-0.11h0.74a1.63,1.63,0,0,1,.6.11,1.37,1.37,0,0,1,.47.3,1.36,1.36,0,0,1,.3.47,1.61,1.61,0,0,1,.11.6,1.67,1.67,0,0,1-.11.61,1.45,1.45,0,0,1-.31.49,1.45,1.45,0,0,1-.47.32,1.46,1.46,0,0,1-.59.12h-0.74Zm0.74-.53a1,1,0,0,0,.38-0.08,0.92,0.92,0,0,0,.3-0.21,0.93,0.93,0,0,0,.2-0.31,1.08,1.08,0,0,0,.07-0.4,1.06,1.06,0,0,0-.07-0.39,0.9,0.9,0,0,0-.2-0.31,0.91,0.91,0,0,0-.3-0.2,1,1,0,0,0-.38-0.07h-0.74a1,1,0,0,0-.38.07,0.89,0.89,0,0,0-.3.2,0.94,0.94,0,0,0-.2.31,1.07,1.07,0,0,0-.07.39,1.09,1.09,0,0,0,.07.4,1,1,0,0,0,.2.31,0.9,0.9,0,0,0,.3.21,0.94,0.94,0,0,0,.38.08h0.74Z" transform="translate(219.34 -731.3)"/><path class="cls-1" d="M-157.91,779.44v-3h2.56v0.53h-2v2.49h-0.52Zm0.91-1.25v-0.46h1.53v0.46H-157Z" transform="translate(219.34 -731.3)"/><path class="cls-1" d="M-150.61,779.44l-0.45-.76h-1.43l0.25-.43h0.93l-0.67-1.13-1.37,2.32H-154l1.74-2.89a0.4,0.4,0,0,1,.11-0.12,0.25,0.25,0,0,1,.15,0,0.24,0.24,0,0,1,.15,0,0.4,0.4,0,0,1,.11.13l1.74,2.89h-0.64Z" transform="translate(219.34 -731.3)"/><path class="cls-1" d="M-149.66,779.44v-0.53h2.26a0.46,0.46,0,0,0,.33-0.11,0.37,0.37,0,0,0,.11-0.29,0.36,0.36,0,0,0-.11-0.29,0.49,0.49,0,0,0-.33-0.1h-1.39a1.09,1.09,0,0,1-.38-0.06,0.83,0.83,0,0,1-.29-0.18,0.78,0.78,0,0,1-.18-0.27,0.9,0.9,0,0,1-.06-0.34,0.92,0.92,0,0,1,.06-0.34,0.72,0.72,0,0,1,.18-0.27,0.85,0.85,0,0,1,.29-0.18,1.15,1.15,0,0,1,.4-0.06h2.17v0.53h-2.17a0.39,0.39,0,0,0-.28.1,0.36,0.36,0,0,0-.1.27,0.35,0.35,0,0,0,.1.27,0.39,0.39,0,0,0,.28.1h1.38a1,1,0,0,1,.7.22,0.84,0.84,0,0,1,.24.66,1,1,0,0,1-.06.35,0.77,0.77,0,0,1-.17.28,0.8,0.8,0,0,1-.29.18,1.18,1.18,0,0,1-.41.07h-2.26Z" transform="translate(219.34 -731.3)"/><path class="cls-1" d="M-146,779.44v-0.53h2.26a0.46,0.46,0,0,0,.33-0.11,0.37,0.37,0,0,0,.11-0.29,0.36,0.36,0,0,0-.11-0.29,0.49,0.49,0,0,0-.33-0.1h-1.39a1.09,1.09,0,0,1-.38-0.06,0.83,0.83,0,0,1-.29-0.18,0.78,0.78,0,0,1-.18-0.27,0.9,0.9,0,0,1-.06-0.34,0.92,0.92,0,0,1,.06-0.34,0.72,0.72,0,0,1,.18-0.27,0.85,0.85,0,0,1,.29-0.18,1.15,1.15,0,0,1,.4-0.06h2.17v0.53h-2.17a0.39,0.39,0,0,0-.28.1,0.36,0.36,0,0,0-.1.27,0.35,0.35,0,0,0,.1.27,0.39,0.39,0,0,0,.28.1h1.38a1,1,0,0,1,.7.22,0.84,0.84,0,0,1,.24.66,1,1,0,0,1-.06.35,0.77,0.77,0,0,1-.17.28,0.8,0.8,0,0,1-.29.18,1.18,1.18,0,0,1-.41.07H-146Z" transform="translate(219.34 -731.3)"/><path class="cls-1" d="M-141,779.44a1.42,1.42,0,0,1-.58-0.12A1.46,1.46,0,0,1-142,779a1.46,1.46,0,0,1-.31-0.49,1.66,1.66,0,0,1-.11-0.61,1.61,1.61,0,0,1,.11-0.61,1.35,1.35,0,0,1,.31-0.47,1.41,1.41,0,0,1,.47-0.3,1.58,1.58,0,0,1,.58-0.11h0.74a1.63,1.63,0,0,1,.6.11,1.37,1.37,0,0,1,.47.3,1.36,1.36,0,0,1,.3.47,1.61,1.61,0,0,1,.11.6,1.67,1.67,0,0,1-.11.61,1.45,1.45,0,0,1-.31.49,1.45,1.45,0,0,1-.47.32,1.46,1.46,0,0,1-.59.12H-141Zm0.74-.53a1,1,0,0,0,.38-0.08,0.92,0.92,0,0,0,.3-0.21,0.93,0.93,0,0,0,.2-0.31,1.08,1.08,0,0,0,.07-0.4,1.06,1.06,0,0,0-.07-0.39,0.9,0.9,0,0,0-.2-0.31,0.91,0.91,0,0,0-.3-0.2,1,1,0,0,0-.38-0.07H-141a1,1,0,0,0-.38.07,0.89,0.89,0,0,0-.3.2,0.94,0.94,0,0,0-.2.31,1.07,1.07,0,0,0-.07.39,1.09,1.09,0,0,0,.07.4,1,1,0,0,0,.2.31,0.9,0.9,0,0,0,.3.21,0.94,0.94,0,0,0,.38.08h0.74Z" transform="translate(219.34 -731.3)"/><path class="cls-1" d="M-136.94,779.44a1.42,1.42,0,0,1-.58-0.12A1.46,1.46,0,0,1-138,779a1.46,1.46,0,0,1-.31-0.49,1.66,1.66,0,0,1-.11-0.61,1.61,1.61,0,0,1,.11-0.61,1.35,1.35,0,0,1,.31-0.47,1.41,1.41,0,0,1,.47-0.3,1.58,1.58,0,0,1,.58-0.11h1.64v0.53h-1.64a1,1,0,0,0-.38.07,0.89,0.89,0,0,0-.3.2,0.94,0.94,0,0,0-.2.31,1.07,1.07,0,0,0-.07.39,1.09,1.09,0,0,0,.07.4,1,1,0,0,0,.2.31,0.9,0.9,0,0,0,.3.21,0.94,0.94,0,0,0,.38.08h1.64v0.53h-1.64Z" transform="translate(219.34 -731.3)"/><path class="cls-1" d="M-134.85,779.44v-3h0.53v3h-0.53Z" transform="translate(219.34 -731.3)"/><path class="cls-1" d="M-130.62,779.44l-0.45-.76h-1.43l0.25-.43h0.93l-0.67-1.13-1.37,2.32H-134l1.74-2.89a0.4,0.4,0,0,1,.11-0.12,0.25,0.25,0,0,1,.15,0,0.24,0.24,0,0,1,.15,0,0.4,0.4,0,0,1,.11.13l1.74,2.89h-0.64Z" transform="translate(219.34 -731.3)"/><path class="cls-1" d="M-129.23,779.44v-2.49h-1.15v-0.53h2.82v0.53h-1.15v2.49h-0.53Z" transform="translate(219.34 -731.3)"/><path class="cls-1" d="M-127.21,779.44v-3h2.7v0.53h-2.17v2h2.18v0.53h-2.7Zm0.91-1.31v-0.44h1.67v0.44h-1.67Z" transform="translate(219.34 -731.3)"/><path class="cls-1" d="M-124.06,779.44v-3h1.75a1.59,1.59,0,0,1,.59.11,1.38,1.38,0,0,1,.47.3,1.39,1.39,0,0,1,.31.47,1.58,1.58,0,0,1,.11.6,1.66,1.66,0,0,1-.11.61,1.47,1.47,0,0,1-.31.49,1.43,1.43,0,0,1-.47.32,1.45,1.45,0,0,1-.59.12h-1.75Zm1.75-.53a0.93,0.93,0,0,0,.38-0.08,0.93,0.93,0,0,0,.3-0.21,0.94,0.94,0,0,0,.2-0.31,1.09,1.09,0,0,0,.07-0.4,1.07,1.07,0,0,0-.07-0.39,0.9,0.9,0,0,0-.2-0.31,0.92,0.92,0,0,0-.3-0.2,1,1,0,0,0-.38-0.07h-1.23v2h1.23Z" transform="translate(219.34 -731.3)"/><path class="cls-1" d="M-119.18,779.44v-3h2.7v0.53h-2.17v2h2.18v0.53h-2.7Zm0.91-1.31v-0.44h1.67v0.44h-1.67Z" transform="translate(219.34 -731.3)"/><path class="cls-1" d="M-116,779.44v-0.53h2.26a0.46,0.46,0,0,0,.33-0.11,0.37,0.37,0,0,0,.11-0.29,0.36,0.36,0,0,0-.11-0.29,0.49,0.49,0,0,0-.33-0.1h-1.39a1.09,1.09,0,0,1-.38-0.06,0.83,0.83,0,0,1-.29-0.18,0.78,0.78,0,0,1-.18-0.27,0.9,0.9,0,0,1-.06-0.34,0.92,0.92,0,0,1,.06-0.34,0.72,0.72,0,0,1,.18-0.27,0.85,0.85,0,0,1,.29-0.18,1.15,1.15,0,0,1,.4-0.06H-113v0.53h-2.17a0.39,0.39,0,0,0-.28.1,0.36,0.36,0,0,0-.1.27,0.35,0.35,0,0,0,.1.27,0.39,0.39,0,0,0,.28.1h1.38a1,1,0,0,1,.7.22,0.84,0.84,0,0,1,.24.66,1,1,0,0,1-.06.35,0.77,0.77,0,0,1-.17.28,0.8,0.8,0,0,1-.29.18,1.18,1.18,0,0,1-.41.07H-116Z" transform="translate(219.34 -731.3)"/><path class="cls-1" d="M-111.47,778.6v-0.51h1.21a0.58,0.58,0,0,0,.43-0.16,0.56,0.56,0,0,0,.16-0.42,0.56,0.56,0,0,0-.16-0.42,0.59,0.59,0,0,0-.43-0.15h-1.6v2.49h-0.52v-3h2.12a1.34,1.34,0,0,1,.47.08,1,1,0,0,1,.35.22,0.92,0.92,0,0,1,.22.34,1.27,1.27,0,0,1,.07.45,1.28,1.28,0,0,1-.07.45,1,1,0,0,1-.22.35,1,1,0,0,1-.35.23,1.27,1.27,0,0,1-.47.08h-1.21Z" transform="translate(219.34 -731.3)"/><path class="cls-1" d="M-107.4,779.44a1.42,1.42,0,0,1-.58-0.12,1.46,1.46,0,0,1-.47-0.32,1.46,1.46,0,0,1-.31-0.49,1.66,1.66,0,0,1-.11-0.61,1.61,1.61,0,0,1,.11-0.61,1.35,1.35,0,0,1,.31-0.47,1.41,1.41,0,0,1,.47-0.3,1.58,1.58,0,0,1,.58-0.11h0.74a1.63,1.63,0,0,1,.6.11,1.37,1.37,0,0,1,.47.3,1.36,1.36,0,0,1,.3.47,1.61,1.61,0,0,1,.11.6,1.67,1.67,0,0,1-.11.61,1.45,1.45,0,0,1-.31.49,1.45,1.45,0,0,1-.47.32,1.46,1.46,0,0,1-.59.12h-0.74Zm0.74-.53a1,1,0,0,0,.38-0.08,0.92,0.92,0,0,0,.3-0.21,0.93,0.93,0,0,0,.2-0.31,1.08,1.08,0,0,0,.07-0.4,1.06,1.06,0,0,0-.07-0.39,0.9,0.9,0,0,0-.2-0.31,0.91,0.91,0,0,0-.3-0.2,1,1,0,0,0-.38-0.07h-0.74a1,1,0,0,0-.38.07,0.89,0.89,0,0,0-.3.2,0.94,0.94,0,0,0-.2.31,1.07,1.07,0,0,0-.07.39,1.09,1.09,0,0,0,.07.4,1,1,0,0,0,.2.31,0.9,0.9,0,0,0,.3.21,0.94,0.94,0,0,0,.38.08h0.74Z" transform="translate(219.34 -731.3)"/><path class="cls-1" d="M-102,779.44l-0.76-.84h-1.13v-0.47h1.26a0.56,0.56,0,0,0,.43-0.16,0.64,0.64,0,0,0,.15-0.45,0.58,0.58,0,0,0-.15-0.44,0.59,0.59,0,0,0-.43-0.14h-1.65v2.49h-0.52v-3h2.17a1.31,1.31,0,0,1,.46.08,1,1,0,0,1,.34.22,1,1,0,0,1,.22.35,1.32,1.32,0,0,1,.07.46,1.15,1.15,0,0,1-.16.63,0.92,0.92,0,0,1-.46.37l0.91,0.92H-102Z" transform="translate(219.34 -731.3)"/><path class="cls-1" d="M-100,779.44v-2.49h-1.15v-0.53h2.82v0.53H-99.5v2.49H-100Z" transform="translate(219.34 -731.3)"/><path class="cls-1" d="M-98,779.44v-0.53h2.26a0.46,0.46,0,0,0,.33-0.11,0.37,0.37,0,0,0,.11-0.29,0.36,0.36,0,0,0-.11-0.29,0.49,0.49,0,0,0-.33-0.1h-1.39a1.09,1.09,0,0,1-.38-0.06,0.83,0.83,0,0,1-.29-0.18,0.78,0.78,0,0,1-.18-0.27,0.9,0.9,0,0,1-.06-0.34,0.92,0.92,0,0,1,.06-0.34,0.72,0.72,0,0,1,.18-0.27,0.85,0.85,0,0,1,.29-0.18,1.15,1.15,0,0,1,.4-0.06H-95v0.53h-2.17a0.39,0.39,0,0,0-.28.1,0.36,0.36,0,0,0-.1.27,0.35,0.35,0,0,0,.1.27,0.39,0.39,0,0,0,.28.1h1.38a1,1,0,0,1,.7.22,0.84,0.84,0,0,1,.24.66,1,1,0,0,1-.06.35,0.77,0.77,0,0,1-.17.28,0.8,0.8,0,0,1-.29.18,1.18,1.18,0,0,1-.41.07H-98Z" transform="translate(219.34 -731.3)"/><circle cx="24.99" cy="21.56" r="3.29"/><path d="M-198.51,769.67a15.9,15.9,0,0,1-6.5-1.32,16.14,16.14,0,0,1-5.18-3.61,16.29,16.29,0,0,1-3.42-5.44,18.56,18.56,0,0,1-1.23-6.8,18,18,0,0,1,1.23-6.76,15,15,0,0,1,3.42-5.21,15.42,15.42,0,0,1,5.18-3.33,17.52,17.52,0,0,1,6.5-1.18h8.19a18,18,0,0,1,6.69,1.2,15.19,15.19,0,0,1,5.21,3.38,15.21,15.21,0,0,1,3.38,5.21,18,18,0,0,1,1.2,6.69,18.57,18.57,0,0,1-1.23,6.8,16.31,16.31,0,0,1-3.42,5.44,16.08,16.08,0,0,1-5.21,3.61,16.29,16.29,0,0,1-6.62,1.32h-8.19Zm8.19-5.88a10.7,10.7,0,0,0,4.26-.83,10.22,10.22,0,0,0,3.35-2.29,10.28,10.28,0,0,0,2.2-3.49,12.09,12.09,0,0,0,.79-4.4,11.91,11.91,0,0,0-.79-4.37,10.09,10.09,0,0,0-2.2-3.45,10.1,10.1,0,0,0-3.35-2.24,11,11,0,0,0-4.26-.81h-8.19a10.68,10.68,0,0,0-4.19.81A9.9,9.9,0,0,0-206,745a10.33,10.33,0,0,0-2.17,3.42,11.85,11.85,0,0,0-.79,4.4,12.08,12.08,0,0,0,.79,4.4,10.46,10.46,0,0,0,2.17,3.49A10,10,0,0,0-202.7,763a10.42,10.42,0,0,0,4.19.83h8.19Z" transform="translate(219.34 -731.3)"/><path d="M-170.42,769.67V736h5.88V763.8h9.14l-0.92,5.88h-14.1Z" transform="translate(219.34 -731.3)"/><path d="M-125,769.67V736H-96.7v5.88h-22.43V763.8h22.47v5.88H-125Zm11.35-14.62v-5h15.65v5H-113.6Z" transform="translate(219.34 -731.3)"/><path class="cls-2" d="M-150.13,747.11a38.13,38.13,0,0,1-.19-5.09c0-.84,0-1.69.1-2.53s0.1-1.68.2-2.52l0.14-1.23,1,0.65c0.59,0.38,1.18.74,1.75,1.15s1.15,0.79,1.71,1.21,1.11,0.85,1.66,1.28,1.08,0.9,1.59,1.4c-0.67-.24-1.32-0.51-2-0.8s-1.27-.59-1.89-0.91-1.24-.64-1.84-1-1.21-.69-1.8-1l1.15-.58c0,0.84-.15,1.68-0.23,2.52s-0.21,1.67-.33,2.51A38.13,38.13,0,0,1-150.13,747.11Z" transform="translate(219.34 -731.3)"/><path class="cls-2" d="M-144,766.66a29.33,29.33,0,0,1-3.92,2.12c-0.67.3-1.35,0.6-2,.87s-1.37.55-2.06,0.78l-1.08.36,0.06-1.09c0-.59.05-1.19,0.11-1.78s0.11-1.19.19-1.78,0.17-1.18.28-1.77,0.24-1.18.41-1.77c0.13,0.6.22,1.2,0.29,1.79s0.13,1.19.16,1.79,0.07,1.19.07,1.79,0,1.19,0,1.78l-1-.73c0.68-.28,1.38-0.5,2.07-0.75s1.4-.45,2.11-0.66A29.31,29.31,0,0,1-144,766.66Z" transform="translate(219.34 -731.3)"/><path class="cls-2" d="M-130.36,750.31a28.92,28.92,0,0,1,3.65,2.5c0.57,0.46,1.14.92,1.69,1.4s1.1,1,1.62,1.47l0.74,0.72-0.86.48c-0.51.29-1,.58-1.54,0.84s-1,.53-1.58.78-1.08.48-1.62,0.7-1.11.42-1.69,0.59c0.43-.43.88-0.81,1.33-1.19s0.92-.74,1.4-1.08,1-.68,1.44-1,1-.63,1.48-0.94l-0.13,1.21c-0.55-.48-1.07-1-1.6-1.49s-1-1-1.54-1.57A28.93,28.93,0,0,1-130.36,750.31Z" transform="translate(219.34 -731.3)"/><path class="cls-3" d="M-144.28,751.17a3.93,3.93,0,0,0-1.08-.87,5.13,5.13,0,0,0-1.23-.52,6.54,6.54,0,0,0-2.6-.16,8.34,8.34,0,0,0-1.29.23,10.53,10.53,0,0,0-1.26.39,18.37,18.37,0,0,0-2.45,1.08c-0.79.42-1.57,0.88-2.34,1.36s-1.52,1-2.25,1.55-1.48,1.07-2.2,1.65-1.42,1.17-2.14,1.75l-1.37-2.32a6.12,6.12,0,0,1,2-.35,7.32,7.32,0,0,1,1.87.22,10.78,10.78,0,0,1,3.2,1.36c0.48,0.29.94,0.6,1.39,0.93s0.9,0.7,1.23,1a11,11,0,0,0,2.41,1.49,6.48,6.48,0,0,0,1.32.46,8.59,8.59,0,0,0,1.39.19,11.23,11.23,0,0,0,1.46,0,9.8,9.8,0,0,0,1.46-.19,8.67,8.67,0,0,0,1.43-.4,8.44,8.44,0,0,0,1.36-.61,8.9,8.9,0,0,0,1.26-.84,9.24,9.24,0,0,0,1.12-1.07,9.43,9.43,0,0,1-.88,1.31,7.5,7.5,0,0,1-1.14,1.13,8.2,8.2,0,0,1-1.34.91,9.67,9.67,0,0,1-1.49.67,11.3,11.3,0,0,1-3.22.67,10.12,10.12,0,0,1-1.71,0,8.85,8.85,0,0,1-1.68-.35,13.08,13.08,0,0,1-3.07-1.42c-0.51-.33-0.86-0.6-1.28-0.86s-0.83-.5-1.25-0.72a12.45,12.45,0,0,0-1.28-.57,8,8,0,0,0-1.27-.39,4.65,4.65,0,0,0-1.21-.12,3.41,3.41,0,0,0-1.07.21l-6.73,2.14,5.36-4.46c0.74-.62,1.49-1.22,2.26-1.79q0.57-.44,1.17-0.86c0.4-.28.78-0.57,1.2-0.82,0.82-.52,1.65-1,2.52-1.48a20.65,20.65,0,0,1,2.67-1.24c0.46-.18.93-0.34,1.4-0.49a13.82,13.82,0,0,1,1.45-.37,12.18,12.18,0,0,1,1.5-.21,9.46,9.46,0,0,1,1.52,0,7.15,7.15,0,0,1,2.92.82A4.62,4.62,0,0,1-144.28,751.17Z" transform="translate(219.34 -731.3)"/><path class="cls-3" d="M-142.31,755.63a7.51,7.51,0,0,1-1.86-2.62,8.9,8.9,0,0,1-.71-3.25,10.76,10.76,0,0,1,.52-3.34,12.34,12.34,0,0,1,.64-1.57,16.63,16.63,0,0,1,.82-1.47,17.12,17.12,0,0,1,2-2.64c0.38-.39.74-0.81,1.15-1.18s0.79-.76,1.2-1.11c0.82-.71,1.69-1.36,2.57-2s1.78-1.21,2.69-1.78l5.48-3.38-3.68,5.37a3.77,3.77,0,0,0-.47.87,4.63,4.63,0,0,0-.27,1.05,9.94,9.94,0,0,0,0,2.41,16,16,0,0,0,.46,2.53c0.1,0.42.25,0.83,0.36,1.35a14.37,14.37,0,0,1,.26,1.48,11.66,11.66,0,0,1,0,3,11.58,11.58,0,0,1-.28,1.46,8.91,8.91,0,0,1-.49,1.42,7,7,0,0,1-1.75,2.4,6,6,0,0,1-1.21.82,7.4,7.4,0,0,1-1.33.49,7.17,7.17,0,0,0,1.1-.83,5.74,5.74,0,0,0,.89-1,6.47,6.47,0,0,0,1-2.33,9.47,9.47,0,0,0,.21-1.26,9.81,9.81,0,0,0,0-1.28,12.13,12.13,0,0,0-.32-2.52,12.18,12.18,0,0,0-.36-1.22l-0.46-1.29a18.5,18.5,0,0,1-.72-2.88,10.48,10.48,0,0,1-.07-3.11,7.31,7.31,0,0,1,.39-1.63,6.47,6.47,0,0,1,.82-1.57l1.8,2c-0.43.28-.87,0.54-1.3,0.81s-0.85.56-1.27,0.84c-0.84.57-1.66,1.17-2.44,1.8-0.41.3-.78,0.63-1.17,0.95s-0.74.67-1.11,1a23.19,23.19,0,0,0-2,2.19,14.57,14.57,0,0,0-.85,1.19c-0.25.41-.48,0.84-0.69,1.27a9.27,9.27,0,0,0-.85,2.76,8.41,8.41,0,0,0,.08,2.94A8.62,8.62,0,0,0-142.31,755.63Z" transform="translate(219.34 -731.3)"/><path class="cls-3" d="M-140.22,755.63a6.93,6.93,0,0,1,3.1-.61,6.79,6.79,0,0,1,3.18.91,7.18,7.18,0,0,1,1.36,1,9,9,0,0,1,1.12,1.28,9.25,9.25,0,0,1,.86,1.44,16.29,16.29,0,0,1,.67,1.52c0.17,0.52.37,1,.49,1.56s0.26,1.06.34,1.59a29.06,29.06,0,0,1,.4,3.18c0.05,0.53,0,1.06.06,1.59s0,1.06,0,1.58c0,1.06-.07,2.1-0.14,3.15l-0.5,7.3-2.16-7a2.62,2.62,0,0,0-1.14-1.44,8.64,8.64,0,0,0-2.19-.92c-0.84-.25-1.71-0.4-2.74-0.71a12,12,0,0,1-1.42-.55,12.79,12.79,0,0,1-1.35-.71,11,11,0,0,1-1.25-.88l-0.3-.26-0.26-.24c-0.19-.18-0.38-0.37-0.55-0.56a11,11,0,0,1-1.73-2.43,9.77,9.77,0,0,1-.59-1.36,6.88,6.88,0,0,1-.35-1.44,6.62,6.62,0,0,1-.05-1.46,6.86,6.86,0,0,1,.29-1.4,6.66,6.66,0,0,0,.07,1.39,7.23,7.23,0,0,0,.35,1.31,9.07,9.07,0,0,0,1.31,2.31,11.83,11.83,0,0,0,1.83,1.89c0.17,0.15.33,0.26,0.5,0.38l0.29,0.2,0.13,0.08,0.14,0.08a11,11,0,0,0,1.13.6,10.69,10.69,0,0,0,1.19.46c0.42,0.14.8,0.23,1.24,0.33,0.77,0.17,1.77.28,2.74,0.49a9.11,9.11,0,0,1,3,1.14,5.84,5.84,0,0,1,1.38,1.18,5.25,5.25,0,0,1,.93,1.66l-2.66.31c0.05-1,.16-2,0.18-3s0-2,0-3a26.59,26.59,0,0,0-.18-2.94c0-.49-0.13-1-0.22-1.44s-0.19-.94-0.29-1.42-0.25-.92-0.43-1.36a10.36,10.36,0,0,0-.58-1.28,7.29,7.29,0,0,0-.75-1.17,5.88,5.88,0,0,0-1-1,6,6,0,0,0-2.52-1.27A7.84,7.84,0,0,0-140.22,755.63Z" transform="translate(219.34 -731.3)"/></svg>