<svg id="Layer_1" data-name="Layer 1" xmlns="http://www.w3.org/2000/svg" viewBox="0 0 116.67 116.67"><defs><style>.cls-1{fill:#2b2b2b;}.cls-2{fill:#cc8e35;}.cls-3{fill:#fff;}.cls-4{fill:#fbc531;}</style></defs><title>RegNotreDame-1</title><circle class="cls-1" cx="58.33" cy="58.33" r="53.33"/><path class="cls-2" d="M638,300.09a58.33,58.33,0,1,1,58.33-58.33A58.4,58.4,0,0,1,638,300.09Zm0-106.67a48.33,48.33,0,1,0,48.33,48.33A48.39,48.39,0,0,0,638,193.42Z" transform="translate(-579.62 -183.42)"/><polygon class="cls-3" points="7.02 53.01 9.9 53.91 7.44 55.65 7.48 58.66 5.06 56.86 2.21 57.83 3.18 54.97 1.38 52.56 4.39 52.59 6.13 50.13 7.02 53.01"/><polygon class="cls-3" points="113.05 53.01 115.93 53.91 113.47 55.65 113.51 58.66 111.09 56.86 108.24 57.83 109.21 54.97 107.4 52.56 110.42 52.59 112.16 50.13 113.05 53.01"/><path class="cls-2" d="M618.49,223.47a6,6,0,0,0,4.56-5.85s0-.09,0-0.13h16.34v-4.84l-19.86-.11a24.08,24.08,0,0,1,.14,2.57,6,6,0,0,1-5.83,6V256.4L639.56,275v-6.43L618.49,253.1V223.47Z" transform="translate(-579.62 -183.42)"/><path class="cls-4" d="M660.33,223.47a6,6,0,0,1-4.56-5.85s0-.09,0-0.13H639.43v-4.84l19.86-.11a24.08,24.08,0,0,0-.14,2.57,6,6,0,0,0,5.83,6V256.4L639.56,275v-6.43l20.77-15.45V223.47Z" transform="translate(-579.62 -183.42)"/><polygon class="cls-4" points="61.84 38.92 61.79 45.7 68.62 45.69 68.63 52.17 50.91 52.19 50.91 45.7 57.74 45.7 57.74 38.92 43.5 38.93 43.52 67.4 58.01 77.53 58.01 69.02 50.91 64.12 50.91 58.96 68.63 58.95 68.63 64.11 61.55 69.02 61.55 77.53 76.03 67.5 76.02 38.91 61.84 38.92"/><path class="cls-3" d="M593.23,208.88l1.23-1.67a2,2,0,0,1,1.12-.85,1.56,1.56,0,0,1,1.25.37,1.43,1.43,0,0,1,.64,1.75l2.39,0.42-0.41.55-2.25-.4-0.94,1.28,1.65,1.21-0.37.5Zm3.47,0a1.12,1.12,0,1,0-1.81-1.33L594,208.69l1.81,1.33Z" transform="translate(-579.62 -183.42)"/><path class="cls-3" d="M601.77,206.13a2.23,2.23,0,0,1-1.31-.73,2.53,2.53,0,0,1-.85-1.4,1.88,1.88,0,0,1,1.69-1.85,2,2,0,0,1,1.26.66l0.29,0.33L601,205.05a2.06,2.06,0,0,0,.61.44,0.7,0.7,0,0,0,.54,0,1.82,1.82,0,0,0,.6-0.44l0.37-.4,0.36-.43,0.15-.18,0.34,0.31a11.45,11.45,0,0,1-.95,1.15A1.62,1.62,0,0,1,601.77,206.13Zm0.35-2.9a1.65,1.65,0,0,0-.88-0.53,0.92,0.92,0,0,0-.75.35,1,1,0,0,0-.35.81,1.52,1.52,0,0,0,.52.88Z" transform="translate(-579.62 -183.42)"/><path class="cls-3" d="M607.6,203.24a1,1,0,0,1-.83-0.44,1.14,1.14,0,0,1-.21-0.36,0.75,0.75,0,0,1,0-.34,4.5,4.5,0,0,1,.11-0.49,0.43,0.43,0,0,1-.26-0.06,0.8,0.8,0,0,1-.23-0.2,0.62,0.62,0,0,1-.1-0.2,3.87,3.87,0,0,1-.08-0.47,1.12,1.12,0,0,1-1.22-.51,1.25,1.25,0,0,1-.32-1,1.73,1.73,0,0,1,.7-1,3.88,3.88,0,0,1,.71-0.44l0.92-.77,0.31,0.39-0.61.47a0.78,0.78,0,0,1,.36.13,1.51,1.51,0,0,1,.35.34,1.17,1.17,0,0,1,.32,1,1.89,1.89,0,0,1-.74,1,2.1,2.1,0,0,1-.34.23l0.09,0.28a0.65,0.65,0,0,0,.09.18,0.25,0.25,0,0,0,.29.1,1.62,1.62,0,0,0,.44-0.27l0.25-.2a3.93,3.93,0,0,1,.72-0.48,0.86,0.86,0,0,1,.59-0.07,1.34,1.34,0,0,1,.83,1.46,2.56,2.56,0,0,1-.94,1.14A2.38,2.38,0,0,1,607.6,203.24Zm-0.7-3.95a0.86,0.86,0,0,0-.24-0.65,0.85,0.85,0,0,0-.57-0.38,1,1,0,0,0-.67.28,1,1,0,0,0-.44.6,1.09,1.09,0,0,0,.81,1,1,1,0,0,0,.67-0.29A1,1,0,0,0,606.9,199.29Zm2.23,2.21a0.82,0.82,0,0,0-.47-0.87,0.47,0.47,0,0,0-.34.05,2.94,2.94,0,0,0-.5.34l-0.71.51a1.39,1.39,0,0,0-.08.48,0.65,0.65,0,0,0,.16.35,0.6,0.6,0,0,0,.54.28,1.75,1.75,0,0,0,.78-0.42A1.83,1.83,0,0,0,609.14,201.5Z" transform="translate(-579.62 -183.42)"/><path class="cls-3" d="M611.17,197.61l0.56-.36L612.2,198l-0.56.36Z" transform="translate(-579.62 -183.42)"/><path class="cls-3" d="M616.59,189.64l2.31,4.82-1,.49-4-3.41-0.14.07,2.08,4.35-0.56.27-2.31-4.82,1.05-.5,4,3.42,0.15-.07L616,189.9Z" transform="translate(-579.62 -183.42)"/><path class="cls-3" d="M622.6,192.94a1.15,1.15,0,0,1-.71-0.45,4.12,4.12,0,0,1-.68-2.22,1.18,1.18,0,0,1,.33-0.78,2.13,2.13,0,0,1,.9-0.5,2.1,2.1,0,0,1,1-.1,1.21,1.21,0,0,1,.72.46,4.13,4.13,0,0,1,.7,2.21,1.15,1.15,0,0,1-.32.77A2.69,2.69,0,0,1,622.6,192.94Zm1.51-.93a0.76,0.76,0,0,0,.18-0.53,3.28,3.28,0,0,0-.18-0.87,3.41,3.41,0,0,0-.37-0.86,0.76,0.76,0,0,0-.45-0.34,1.33,1.33,0,0,0-.68.07,1.36,1.36,0,0,0-.6.33,0.78,0.78,0,0,0-.19.54,3.31,3.31,0,0,0,.18.92,3.25,3.25,0,0,0,.35.81,0.75,0.75,0,0,0,.45.34,1.37,1.37,0,0,0,.7-0.07A1.32,1.32,0,0,0,624.11,192Z" transform="translate(-579.62 -183.42)"/><path class="cls-3" d="M629,191.36a0.73,0.73,0,0,1-.4-0.36,2.81,2.81,0,0,1-.26-0.82l-0.37-2-0.56.1-0.09-.49,0.57-.11-0.22-1.16,0.59-.11,0.22,1.16,1.27-.24,0.09,0.49-1.26.24,0.34,1.81a4.68,4.68,0,0,0,.15.63,0.52,0.52,0,0,0,.21.29,0.58,0.58,0,0,0,.41,0l0.7-.18,0.13,0.46a6.59,6.59,0,0,1-.83.24A1.35,1.35,0,0,1,629,191.36Z" transform="translate(-579.62 -183.42)"/><path class="cls-3" d="M633.16,186.91l0.6,0,0,0.52a4.15,4.15,0,0,1,1.43-.73l0,0.58a6,6,0,0,0-1.23.52l-0.19.12,0.23,2.82-0.61,0Z" transform="translate(-579.62 -183.42)"/><path class="cls-3" d="M638.66,190.14a2.24,2.24,0,0,1-.33-1.46,2.53,2.53,0,0,1,.47-1.57,1.88,1.88,0,0,1,2.51,0,2,2,0,0,1,.35,1.38l0,0.44-2.67-.09a2.05,2.05,0,0,0,.08.75,0.7,0.7,0,0,0,.36.4,1.8,1.8,0,0,0,.73.14h1.1l0.23,0v0.46a11.45,11.45,0,0,1-1.49.07A1.63,1.63,0,0,1,638.66,190.14Zm2.39-1.69a1.64,1.64,0,0,0-.2-1,0.92,0.92,0,0,0-.76-0.32,1,1,0,0,0-.84.28,1.52,1.52,0,0,0-.31,1Z" transform="translate(-579.62 -183.42)"/><path class="cls-3" d="M653.34,187.69a1.69,1.69,0,0,1,.36,1,4.74,4.74,0,0,1-.18,1.28,3.57,3.57,0,0,1-1,1.94,1.84,1.84,0,0,1-1.69.25l-1.93-.51,1.35-5.17,1.93,0.51A2.09,2.09,0,0,1,653.34,187.69Zm-0.45,2.2a2.78,2.78,0,0,0,.06-1.61,1.24,1.24,0,0,0-.92-0.75l-1.33-.35-1.09,4.15,1.33,0.35Q652.33,192,652.89,189.89Z" transform="translate(-579.62 -183.42)"/><path class="cls-3" d="M656,193.62a1.2,1.2,0,0,1,.06-0.91,1.07,1.07,0,0,1,.59-0.65,1.6,1.6,0,0,1,1,.06l1.22,0.38,0.13-.31a0.62,0.62,0,0,0-.33-0.93,15.5,15.5,0,0,0-1.51-.52l0.15-.42a8.33,8.33,0,0,1,1.52.45,1.41,1.41,0,0,1,.81.66,1.25,1.25,0,0,1-.08,1l-0.76,1.82a0.43,0.43,0,0,0,.3.49l-0.2.41a1.35,1.35,0,0,1-.77-0.66,3.67,3.67,0,0,1-1.46-.28A1.13,1.13,0,0,1,656,193.62Zm2,0.45h0.2l0.49-1.17-1.15-.36a0.8,0.8,0,0,0-.56,0,0.7,0.7,0,0,0-.34.39,0.59,0.59,0,0,0,.29.89A3.5,3.5,0,0,0,658,194.07Z" transform="translate(-579.62 -183.42)"/><path class="cls-3" d="M663.67,193.09l0.51,0.31-0.14.23a2.42,2.42,0,0,1,1.22.34,1.77,1.77,0,0,1,.46.4,0.91,0.91,0,0,1,.2.47,3.08,3.08,0,0,1,.75.13,3.13,3.13,0,0,1,.76.34,1.35,1.35,0,0,1,.55.56,1,1,0,0,1,0,.72,4.18,4.18,0,0,1-.48,1l-1.07,1.74-0.52-.32L667,197.3a4.16,4.16,0,0,0,.39-0.75,0.69,0.69,0,0,0,0-.49,0.84,0.84,0,0,0-.37-0.38,2.48,2.48,0,0,0-.51-0.24,2.38,2.38,0,0,0-.47-0.11l-0.17,0a3.68,3.68,0,0,1-.5,1L664.32,198l-0.52-.32,1-1.7a4.44,4.44,0,0,0,.4-0.77,0.72,0.72,0,0,0,0-.49,0.82,0.82,0,0,0-.37-0.38,2.34,2.34,0,0,0-.5-0.23A2.1,2.1,0,0,0,664,194H663.8l-1.64,2.67-0.52-.32Z" transform="translate(-579.62 -183.42)"/><path class="cls-3" d="M669.48,201.24a2.24,2.24,0,0,1,.65-1.35,2.54,2.54,0,0,1,1.35-.94,1.88,1.88,0,0,1,1.95,1.58,2,2,0,0,1-.58,1.3l-0.31.31-2-1.74a2,2,0,0,0-.4.64,0.7,0.7,0,0,0,0,.54,1.8,1.8,0,0,0,.48.57l0.42,0.34,0.45,0.34,0.19,0.13-0.28.36a11.14,11.14,0,0,1-1.21-.87A1.62,1.62,0,0,1,669.48,201.24Zm2.92,0.17a1.63,1.63,0,0,0,.47-0.91,0.92,0.92,0,0,0-.39-0.73,1,1,0,0,0-.83-0.3,1.52,1.52,0,0,0-.85.57Z" transform="translate(-579.62 -183.42)"/><path class="cls-3" d="M675.49,204.06l1.65,1.81-0.4.36-1.65-1.81Z" transform="translate(-579.62 -183.42)"/><path class="cls-3" d="M682.25,209.15l-1.5-.63L681,208l1.86,0.77,0.33,0.48L679,212.2l-0.36-.51Z" transform="translate(-579.62 -183.42)"/><path class="cls-3" d="M604.23,279l-3.59,4-0.45-.41,1.63-1.79-2.11-1.92-1.63,1.79-0.46-.42,3.59-4,0.46,0.42-1.61,1.77,2.11,1.92,1.61-1.77Z" transform="translate(-579.62 -183.42)"/><path class="cls-3" d="M605,286a1.59,1.59,0,0,1-.09-1.11,6,6,0,0,1,1.75-2.6,1.65,1.65,0,0,1,1.08-.36,3,3,0,0,1,2.17,1.45,1.67,1.67,0,0,1,.08,1.14,6,6,0,0,1-1.75,2.63,1.55,1.55,0,0,1-1.05.34A3.23,3.23,0,0,1,605,286Zm2.14,0.88a1.16,1.16,0,0,0,.77-0.31,4.69,4.69,0,0,0,.83-1,4.78,4.78,0,0,0,.61-1.16,1.27,1.27,0,0,0,0-.87,1.65,1.65,0,0,0-.66-0.72,1.67,1.67,0,0,0-.92-0.33,1.26,1.26,0,0,0-.8.33,6,6,0,0,0-1.44,2.14,1.17,1.17,0,0,0,0,.85,1.78,1.78,0,0,0,.67.72A1.75,1.75,0,0,0,607.17,286.9Z" transform="translate(-579.62 -183.42)"/><path class="cls-3" d="M617.77,287.28l-2.28,4.83-1-.49,0.08-5.29-0.14-.07-2.05,4.36-0.56-.27,2.28-4.83,1.05,0.5L615,291.3l0.15,0.07,2.05-4.36Z" transform="translate(-579.62 -183.42)"/><path class="cls-3" d="M620.63,293.79a1.58,1.58,0,0,1-.41-1,6,6,0,0,1,.9-3,1.65,1.65,0,0,1,.93-0.67,3,3,0,0,1,2.5.75,1.66,1.66,0,0,1,.41,1.07,6,6,0,0,1-.89,3,1.54,1.54,0,0,1-.91.63,2.62,2.62,0,0,1-1.34-.11A2.59,2.59,0,0,1,620.63,293.79Zm2.31,0.21a1.17,1.17,0,0,0,.65-0.52,6,6,0,0,0,.74-2.48,1.26,1.26,0,0,0-.25-0.83,1.65,1.65,0,0,0-.84-0.5,1.66,1.66,0,0,0-1,0,1.25,1.25,0,0,0-.67.55,6,6,0,0,0-.74,2.47,1.18,1.18,0,0,0,.26.8,1.79,1.79,0,0,0,.86.49A1.77,1.77,0,0,0,622.93,294Z" transform="translate(-579.62 -183.42)"/><path class="cls-3" d="M629.13,290.65l2.05,0.3a2,2,0,0,1,1.27.59,1.56,1.56,0,0,1,.27,1.27,1.43,1.43,0,0,1-1.24,1.39l0.75,2.3-0.68-.1-0.71-2.17-1.57-.23L629,296l-0.62-.09Zm1.66,3a1.12,1.12,0,1,0,.31-2.23l-1.43-.21-0.32,2.22Z" transform="translate(-579.62 -183.42)"/><path class="cls-3" d="M644.35,295.14l-2.39.19-0.29,1.4-0.61,0,1.1-5.45,1.36-.11,2,5.2-0.61,0Zm-2.29-.35,2.12-.17-1.08-2.85-0.42,0Z" transform="translate(-579.62 -183.42)"/><path class="cls-3" d="M650,295.44a1.54,1.54,0,0,1-.8-0.74,7.09,7.09,0,0,1-.65-3,1.56,1.56,0,0,1,.42-1,2.29,2.29,0,0,1,1.2-.57,7.91,7.91,0,0,1,1.51-.15l0.08,0.5a8.66,8.66,0,0,0-1.41.16,1.72,1.72,0,0,0-.89.41,1.11,1.11,0,0,0-.29.77,6.25,6.25,0,0,0,.18,1.38,5.41,5.41,0,0,0,.37,1.18,1.08,1.08,0,0,0,.58.56,1.86,1.86,0,0,0,1.05,0,7.76,7.76,0,0,0,1.28-.42l0.13,0.49a7.77,7.77,0,0,1-1.41.47A2.39,2.39,0,0,1,650,295.44Z" transform="translate(-579.62 -183.42)"/><path class="cls-3" d="M659.25,291.58l-2.25.82,0.09,1.43-0.58.21-0.37-5.55,1.28-.46,3.27,4.5-0.58.21Zm-2.3.27,2-.72-1.8-2.46-0.4.14Z" transform="translate(-579.62 -183.42)"/><path class="cls-3" d="M665.09,284.81a1.7,1.7,0,0,1,1,.51,4.76,4.76,0,0,1,.74,1.06,3.58,3.58,0,0,1,.56,2.12,1.84,1.84,0,0,1-1.06,1.33l-1.76.94L662,286.06l1.76-.94A2.1,2.1,0,0,1,665.09,284.81Zm1.17,1.92a2.79,2.79,0,0,0-1.05-1.22,1.24,1.24,0,0,0-1.19.08l-1.21.65,2,3.78,1.21-.65Q667.31,288.69,666.26,286.73Z" transform="translate(-579.62 -183.42)"/><path class="cls-3" d="M669.54,282.18l1.09,1.49,1.86-1.36,0.3,0.42-1.85,1.36,1.14,1.56,2.25-1.65,0.31,0.42-2.75,2-3.16-4.31,2.75-2,0.31,0.42Z" transform="translate(-579.62 -183.42)"/><path class="cls-3" d="M678.11,274l3.78,3.78-0.44.44-3.33-3.33-0.08.08,2,4.34-0.49.49-4.35-2-0.08.08,3.33,3.33-0.44.44-3.78-3.78,0.79-.8,4.32,2.08-2.08-4.32Z" transform="translate(-579.62 -183.42)"/><path class="cls-3" d="M683.81,271.77l-3.55-.39,0.42-.57,2.84,0.36-1.19-2.6,0.42-.57,1.44,3.27,1.81,1.33-0.37.5Z" transform="translate(-579.62 -183.42)"/></svg>