<svg id="Layer_1" data-name="Layer 1" xmlns="http://www.w3.org/2000/svg" viewBox="0 0 116.71 116.71">
  <defs>
    <style>
      .cls-1 {
        fill: #2b2b2b;
      }

      .cls-2 {
        fill: #cc8e35;
      }

      .cls-3 {
        fill: #fff;
      }

      .cls-4 {
        fill: #fbc531;
      }
    </style>
  </defs>
  <title>RegNotreDame-1-icon2</title>
  <rect class="cls-1" width="116.71" height="116.71"/>
  <circle class="cls-1" cx="58.34" cy="58.32" r="44.6"/>
  <path class="cls-2" d="M58.38,107.12a48.78,48.78,0,1,1,48.78-48.78A48.78,48.78,0,0,1,58.38,107.12Zm0-89.21A40.42,40.42,0,1,0,98.8,58.33,40.42,40.42,0,0,0,58.38,17.91Z" transform="translate(0 -0.01)"/>
  <polygon class="cls-3" points="15.43 53.87 17.84 54.63 15.78 56.08 15.81 58.6 13.79 57.09 11.41 57.9 12.22 55.51 10.71 53.5 13.23 53.52 14.69 51.46 15.43 53.87"/>
  <polygon class="cls-3" points="104.1 53.87 106.51 54.63 104.45 56.08 104.48 58.6 102.46 57.09 100.08 57.9 100.89 55.51 99.37 53.5 101.9 53.52 103.36 51.46 104.1 53.87"/>
  <path class="cls-2" d="M42.06,43a5,5,0,0,0,3.81-4.89V38H59.54V34L42.93,33.9a20.13,20.13,0,0,1,.12,2.15,5,5,0,0,1-4.88,5V70.58L59.68,86.14V80.76L42.06,67.82V43Z" transform="translate(0 -0.01)"/>
  <path class="cls-4" d="M77.05,43a5,5,0,0,1-3.81-4.89V38H59.58V34l16.61-.09a20.13,20.13,0,0,0-.12,2.15,5,5,0,0,0,4.88,5V70.58L59.68,86.14V80.76L77.05,67.84V43Z" transform="translate(0 -0.01)"/>
  <polygon class="cls-4" points="61.27 42.09 61.23 47.76 66.94 47.75 66.95 53.17 52.13 53.19 52.13 47.76 57.84 47.76 57.84 42.09 45.94 42.1 45.95 65.91 58.07 74.38 58.07 67.26 52.13 63.16 52.13 58.85 66.95 58.84 66.95 63.16 61.03 67.26 61.03 74.38 73.14 65.99 73.13 42.08 61.27 42.09"/>
  <path class="cls-3" d="M20.94,30.84l1-1.4a1.67,1.67,0,0,1,.94-0.71A1.3,1.3,0,0,1,24,29a1.2,1.2,0,0,1,.54,1.46l2,0.35-0.34.46L24.26,31l-0.79,1.07,1.38,1-0.31.42Zm2.9,0a0.94,0.94,0,1,0-1.51-1.11h0l-0.74,1L23.1,31.8Z" transform="translate(0 -0.01)"/>
  <path class="cls-3" d="M28.08,28.54a1.86,1.86,0,0,1-1.1-.61,2.12,2.12,0,0,1-.71-1.17,1.57,1.57,0,0,1,1.41-1.55,1.67,1.67,0,0,1,1.05.55L29,26l-1.55,1.6a1.72,1.72,0,0,0,.51.37,0.59,0.59,0,0,0,.45,0,1.52,1.52,0,0,0,.5-0.37l0.31-.33,0.3-.36,0.13-.15,0.28,0.26a9.58,9.58,0,0,1-.79,1A1.35,1.35,0,0,1,28.08,28.54Zm0.29-2.43a1.38,1.38,0,0,0-.74-0.44A0.77,0.77,0,0,0,27,26a0.84,0.84,0,0,0-.29.68,1.27,1.27,0,0,0,.43.74Z" transform="translate(0 -0.01)"/>
  <path class="cls-3" d="M33,26.13a0.84,0.84,0,0,1-.69-0.37,1,1,0,0,1-.18-0.3,0.63,0.63,0,0,1,0-.28,3.76,3.76,0,0,1,.09-0.41A0.36,0.36,0,0,1,32,24.71a0.67,0.67,0,0,1-.19-0.17,0.52,0.52,0,0,1-.08-0.17A3.23,3.23,0,0,1,31.62,24a0.94,0.94,0,0,1-1-.43,1,1,0,0,1-.27-0.84,1.45,1.45,0,0,1,.59-0.84,3.25,3.25,0,0,1,.59-0.37l0.77-.64,0.26,0.33L32,21.59a0.65,0.65,0,0,1,.3.11,1.26,1.26,0,0,1,.29.28,1,1,0,0,1,.27.84,1.58,1.58,0,0,1-.62.84,1.75,1.75,0,0,1-.28.19l0.08,0.23a0.54,0.54,0,0,0,.08.15,0.21,0.21,0,0,0,.24.08,1.35,1.35,0,0,0,.37-0.23L33,23.93a3.29,3.29,0,0,1,.6-0.4,0.72,0.72,0,0,1,.49-0.06,1.12,1.12,0,0,1,.69,1.22,2.14,2.14,0,0,1-.79,1A2,2,0,0,1,33,26.13Zm-0.59-3.3a0.72,0.72,0,0,0-.2-0.54A0.71,0.71,0,0,0,31.69,22a1.15,1.15,0,0,0-.93.74,0.91,0.91,0,0,0,.68.84,1.23,1.23,0,0,0,.93-0.71h0Zm1.86,1.85a0.69,0.69,0,0,0-.39-0.73,0.39,0.39,0,0,0-.28,0,2.46,2.46,0,0,0-.42.28l-0.59.43a1.16,1.16,0,0,0-.07.4,0.54,0.54,0,0,0,.13.29,0.5,0.5,0,0,0,.45.23,1.46,1.46,0,0,0,.65-0.35,1.53,1.53,0,0,0,.53-0.6h0Z" transform="translate(0 -0.01)"/>
  <path class="cls-3" d="M35.94,21.42l0.47-.3,0.39,0.63-0.47.3Z" transform="translate(0 -0.01)"/>
  <path class="cls-3" d="M40.48,14.75l1.93,4-0.84.41-3.35-2.85-0.12.06L39.85,20l-0.47.23-1.93-4,0.88-.42,3.35,2.86,0.13-.06L40,15Z" transform="translate(0 -0.01)"/>
  <path class="cls-3" d="M45.5,17.51a1,1,0,0,1-.59-0.38,3.45,3.45,0,0,1-.57-1.86,1,1,0,0,1,.28-0.65,1.78,1.78,0,0,1,.75-0.42,1.76,1.76,0,0,1,.84-0.08,1,1,0,0,1,.6.38,3.45,3.45,0,0,1,.59,1.85,1,1,0,0,1-.27.64A2.25,2.25,0,0,1,45.5,17.51Zm1.26-.78a0.64,0.64,0,0,0,.15-0.44,2.74,2.74,0,0,0-.15-0.73,2.85,2.85,0,0,0-.31-0.72,0.64,0.64,0,0,0-.38-0.28,1.11,1.11,0,0,0-.57.06,1.14,1.14,0,0,0-.5.28,0.65,0.65,0,0,0-.16.45,2.77,2.77,0,0,0,.15.77,2.72,2.72,0,0,0,.29.68,0.63,0.63,0,0,0,.38.28A1.15,1.15,0,0,0,46.25,17a1.1,1.1,0,0,0,.51-0.29h0Z" transform="translate(0 -0.01)"/>
  <path class="cls-3" d="M50.85,16.19a0.61,0.61,0,0,1-.33-0.3,2.35,2.35,0,0,1-.22-0.69L50,13.53l-0.47.08-0.08-.41,0.48-.09-0.18-1,0.49-.09,0.18,1,1.06-.2,0.08,0.41-1.05.2,0.28,1.51a3.91,3.91,0,0,0,.13.53,0.43,0.43,0,0,0,.18.24,0.49,0.49,0,0,0,.34,0L52,15.56l0.11,0.38a5.51,5.51,0,0,1-.69.2A1.13,1.13,0,0,1,50.85,16.19Z" transform="translate(0 -0.01)"/>
  <path class="cls-3" d="M54.33,12.47h0.5v0.43a3.47,3.47,0,0,1,1.2-.61v0.49a5,5,0,0,0-1,.43l-0.16.1L55,15.67H54.52Z" transform="translate(0 -0.01)"/>
  <path class="cls-3" d="M58.93,15.17A1.87,1.87,0,0,1,58.66,14,2.12,2.12,0,0,1,59,12.64a1.57,1.57,0,0,1,2.1,0,1.67,1.67,0,0,1,.29,1.15v0.37l-2.23-.08a1.71,1.71,0,0,0,.07.63,0.59,0.59,0,0,0,.3.33,1.51,1.51,0,0,0,.61.12H61.3v0.38a9.57,9.57,0,0,1-1.25.06A1.36,1.36,0,0,1,58.93,15.17Zm2-1.41a1.37,1.37,0,0,0-.17-0.84,0.77,0.77,0,0,0-.64-0.27,0.84,0.84,0,0,0-.7.23,1.27,1.27,0,0,0-.26.84Z" transform="translate(0 -0.01)"/>
  <path class="cls-3" d="M71.21,13.12a1.41,1.41,0,0,1,.3.84A4,4,0,0,1,71.36,15a3,3,0,0,1-.84,1.62,1.54,1.54,0,0,1-1.41.21l-1.61-.43,1.13-4.32,1.61,0.43A1.75,1.75,0,0,1,71.21,13.12ZM70.83,15a2.33,2.33,0,0,0,.05-1.35A1,1,0,0,0,70.11,13L69,12.7l-0.91,3.47,1.11,0.29Q70.36,16.73,70.83,15Z" transform="translate(0 -0.01)"/>
  <path class="cls-3" d="M73.43,18.08a1,1,0,0,1,.05-0.76A0.89,0.89,0,0,1,74,16.78a1.34,1.34,0,0,1,.84.05l1,0.32,0.11-.26a0.52,0.52,0,0,0-.15-0.72l-0.13-.06a13,13,0,0,0-1.26-.43l0.13-.35a7,7,0,0,1,1.27.38,1.18,1.18,0,0,1,.68.55,1,1,0,0,1-.07.84l-0.64,1.52A0.36,0.36,0,0,0,76,19l-0.17.34a1.13,1.13,0,0,1-.64-0.55A3.07,3.07,0,0,1,74,18.58,1,1,0,0,1,73.43,18.08Zm1.67,0.38h0.17l0.41-1-1-.3a0.67,0.67,0,0,0-.47,0,0.59,0.59,0,0,0-.28.33,0.49,0.49,0,0,0,.13.69l0.11,0.06a2.93,2.93,0,0,0,.89.21h0Z" transform="translate(0 -0.01)"/>
  <path class="cls-3" d="M79.85,17.64l0.43,0.26-0.12.19a2,2,0,0,1,1,.28,1.48,1.48,0,0,1,.38.33,0.76,0.76,0,0,1,.17.39,2.58,2.58,0,0,1,.63.11,2.62,2.62,0,0,1,.64.28,1.13,1.13,0,0,1,.46.47,0.84,0.84,0,0,1,0,.6,3.49,3.49,0,0,1-.4.84l-0.89,1.46-0.43-.27,0.91-1.43A3.48,3.48,0,0,0,83,20.53a0.58,0.58,0,0,0,0-.41,0.7,0.7,0,0,0-.31-0.32,2.07,2.07,0,0,0-.43-0.2,2,2,0,0,0-.39-0.09H81.69a3.08,3.08,0,0,1-.42.84l-0.88,1.4L80,21.48l0.84-1.42a3.72,3.72,0,0,0,.33-0.64,0.6,0.6,0,0,0,0-.41,0.69,0.69,0,0,0-.31-0.32,2,2,0,0,0-.42-0.19l-0.28-.09H80l-1.37,2.23-0.43-.27Z" transform="translate(0 -0.01)"/>
  <path class="cls-3" d="M84.71,24.45a1.87,1.87,0,0,1,.54-1.13,2.12,2.12,0,0,1,1.13-.79A1.57,1.57,0,0,1,88,23.86a1.67,1.67,0,0,1-.49,1.09l-0.26.26-1.67-1.46a1.67,1.67,0,0,0-.33.54,0.59,0.59,0,0,0,0,.45,1.51,1.51,0,0,0,.4.48L86,25.5l0.38,0.28,0.16,0.11-0.23.3a9.32,9.32,0,0,1-1-.73A1.35,1.35,0,0,1,84.71,24.45Zm2.44,0.14a1.36,1.36,0,0,0,.39-0.76,0.77,0.77,0,0,0-.33-0.61A0.84,0.84,0,0,0,86.52,23a1.27,1.27,0,0,0-.71.48Z" transform="translate(0 -0.01)"/>
  <path class="cls-3" d="M89.73,26.81l1.38,1.51-0.33.3L89.4,27.11Z" transform="translate(0 -0.01)"/>
  <path class="cls-3" d="M95.39,31.07l-1.25-.53,0.21-.43,1.56,0.64,0.28,0.4-3.5,2.47-0.3-.43Z" transform="translate(0 -0.01)"/>
  <path class="cls-3" d="M30.14,89.48l-3,3.35-0.38-.34L28.12,91l-1.76-1.61L25,90.88l-0.38-.35,3-3.35L28,87.53,26.65,89l1.76,1.61,1.35-1.48Z" transform="translate(0 -0.01)"/>
  <path class="cls-3" d="M30.78,95.34a1.33,1.33,0,0,1-.08-0.93,5,5,0,0,1,1.46-2.17,1.38,1.38,0,0,1,.9-0.3,2.51,2.51,0,0,1,1.81,1.21,1.4,1.4,0,0,1,.07,1,5,5,0,0,1-1.46,2.2,1.3,1.3,0,0,1-.88.28A2.7,2.7,0,0,1,30.78,95.34Zm1.79,0.74a1,1,0,0,0,.64-0.26A3.92,3.92,0,0,0,33.91,95a4,4,0,0,0,.51-1,1.06,1.06,0,0,0,0-.73,1.38,1.38,0,0,0-.55-0.6,1.4,1.4,0,0,0-.77-0.28,1.05,1.05,0,0,0-.67.28,5,5,0,0,0-1.2,1.79,1,1,0,0,0,0,.71,1.49,1.49,0,0,0,.56.6,1.46,1.46,0,0,0,.81.31Z" transform="translate(0 -0.01)"/>
  <path class="cls-3" d="M41.46,96.41l-1.91,4L38.72,100l0.07-4.42-0.12-.06L37,99.2,36.49,99l1.91-4,0.88,0.42-0.13,4.42,0.13,0.06L41,96.18Z" transform="translate(0 -0.01)"/>
  <path class="cls-3" d="M43.85,101.85a1.32,1.32,0,0,1-.34-0.84,5,5,0,0,1,.75-2.51A1.38,1.38,0,0,1,45,97.95a2.51,2.51,0,0,1,2.09.63,1.39,1.39,0,0,1,.34.89,5,5,0,0,1-.74,2.51,1.29,1.29,0,0,1-.76.53,2.19,2.19,0,0,1-1.12-.09A2.17,2.17,0,0,1,43.85,101.85ZM45.79,102a1,1,0,0,0,.54-0.43,5,5,0,0,0,.62-2.07,1.05,1.05,0,0,0-.21-0.69,1.56,1.56,0,0,0-1.54-.42,1,1,0,0,0-.56.46,5,5,0,0,0-.62,2.07,1,1,0,0,0,.22.67A1.5,1.5,0,0,0,45,102a1.48,1.48,0,0,0,.82,0h0Z" transform="translate(0 -0.01)"/>
  <path class="cls-3" d="M51,99.23l1.71,0.25a1.67,1.67,0,0,1,1.06.49A1.3,1.3,0,0,1,54,101a1.2,1.2,0,0,1-1,1.16l0.63,1.92L53,104l-0.59-1.81L51.08,102l-0.23,1.67-0.52-.08Zm1.39,2.51a0.94,0.94,0,1,0,.26-1.86l-1.2-.18-0.27,1.86Z" transform="translate(0 -0.01)"/>
  <path class="cls-3" d="M63.69,103l-2,.16-0.24,1.17H60.94l0.92-4.56L63,99.66,64.67,104H64.16Zm-1.92-.29,1.77-.14-0.9-2.38H62.29Z" transform="translate(0 -0.01)"/>
  <path class="cls-3" d="M68.42,103.23a1.29,1.29,0,0,1-.67-0.62,5.93,5.93,0,0,1-.54-2.51,1.3,1.3,0,0,1,.35-0.84,1.92,1.92,0,0,1,1-.48,6.62,6.62,0,0,1,1.26-.13l0.07,0.42a7.24,7.24,0,0,0-1.18.13,1.44,1.44,0,0,0-.74.34,0.93,0.93,0,0,0-.24.64,5.23,5.23,0,0,0,.15,1.15,4.52,4.52,0,0,0,.31,1,0.9,0.9,0,0,0,.49.47,1.56,1.56,0,0,0,.88,0,6.49,6.49,0,0,0,1.07-.35l0.11,0.41a6.5,6.5,0,0,1-1.18.39A2,2,0,0,1,68.42,103.23Z" transform="translate(0 -0.01)"/>
  <path class="cls-3" d="M76.15,100l-1.88.69,0.08,1.2-0.49.18-0.31-4.64L74.62,97l2.73,3.76-0.49.18Zm-1.92.23,1.67-.6-1.51-2.06-0.33.12Z" transform="translate(0 -0.01)"/>
  <path class="cls-3" d="M81,94.34a1.42,1.42,0,0,1,.84.43,4,4,0,0,1,.62.89A3,3,0,0,1,83,97.43a1.54,1.54,0,0,1-.89,1.11l-1.47.79-2.15-3.94,1.47-.79A1.76,1.76,0,0,1,81,94.34Zm1,1.61a2.33,2.33,0,0,0-.88-1,1,1,0,0,0-1,.07l-1,.54L80.8,98.7l1-.54Q82.89,97.59,82,95.95Z" transform="translate(0 -0.01)"/>
  <path class="cls-3" d="M84.76,92.14l0.91,1.25,1.56-1.14,0.25,0.35-1.55,1.14,1,1.3,1.88-1.38L89,94l-2.3,1.67-2.64-3.6,2.3-1.67,0.26,0.35Z" transform="translate(0 -0.01)"/>
  <path class="cls-3" d="M91.92,85.3l3.16,3.16-0.37.37L91.93,86l-0.07.07,1.67,3.63-0.41.41-3.64-1.67-0.07.07,2.78,2.78-0.37.37-3.16-3.16,0.66-.67L93,89.61,91.21,86Z" transform="translate(0 -0.01)"/>
  <path class="cls-3" d="M96.69,83.44l-3-.33,0.35-.48,2.38,0.3-1-2.17,0.35-.48L97,83l1.51,1.11-0.31.42Z" transform="translate(0 -0.01)"/>
</svg>
