<svg id="Layer_1" data-name="Layer 1" xmlns="http://www.w3.org/2000/svg" viewBox="0 0 116.67 116.67"><defs><style>.cls-1{fill:#dbdbdb;}.cls-2{fill:#1c1c1c;}.cls-3{fill:#fff;}.cls-4{fill:#501589;}</style></defs><title>SirWinstonChurchill-4</title><circle class="cls-1" cx="58.33" cy="58.33" r="53.33"/><path class="cls-2" d="M374.63,690.26A58.33,58.33,0,1,1,433,631.93,58.4,58.4,0,0,1,374.63,690.26Zm0-106.67A48.33,48.33,0,1,0,423,631.93,48.39,48.39,0,0,0,374.63,583.6Z" transform="translate(-316.29 -573.6)"/><path class="cls-3" d="M327.47,615.76l-0.13.26-0.45-.22a14.79,14.79,0,0,0,.66-1.55,1,1,0,0,0-.64-1.47,0.85,0.85,0,0,0-.47,0,0.77,0.77,0,0,0-.38.26,4.1,4.1,0,0,0-.43.66,4.75,4.75,0,0,1-.61.88,1.17,1.17,0,0,1-.6.37,1.51,1.51,0,0,1-.78-0.08q-1.36-.45-0.79-2.17a12.57,12.57,0,0,1,.68-1.56l0.46,0.21q-0.49,1.06-.63,1.47-0.38,1.15.45,1.43a0.89,0.89,0,0,0,.52,0,0.8,0.8,0,0,0,.39-0.29,6.74,6.74,0,0,0,.51-0.78,4.15,4.15,0,0,1,.57-0.79,1.1,1.1,0,0,1,.56-0.32,1.41,1.41,0,0,1,.72.08,1.52,1.52,0,0,1,1,2.22A11.15,11.15,0,0,1,327.47,615.76Z" transform="translate(-316.29 -573.6)"/><path class="cls-3" d="M324.91,607.43l0.25-.54,0.61,0.28-0.25.54Zm1.4,0.64,0.25-.54,3.51,1.61-0.25.54Z" transform="translate(-316.29 -573.6)"/><path class="cls-3" d="M328.3,604.12l0.3-.52,0.45,0.26a4.13,4.13,0,0,1,.21-1.59l0.51,0.29a5.13,5.13,0,0,0-.18.69,5.32,5.32,0,0,0-.09.63v0.22l2.45,1.42-0.3.53Z" transform="translate(-316.29 -573.6)"/><path class="cls-3" d="M332.6,595.06l0.44-.47,4.16,2.6,0.16-.17-2.69-4.1,0.5-.53,4.26,2.44,0.16-.17-2.85-4,0.44-.47,3.12,4.49-0.78.83-4.05-2.35,2.6,3.9-0.78.83Z" transform="translate(-316.29 -573.6)"/><path class="cls-3" d="M340,587.72l0.47-.38,0.42,0.52-0.47.38Zm1,1.2,0.47-.38,2.43,3-0.46.38Z" transform="translate(-316.29 -573.6)"/><path class="cls-3" d="M344.58,586.22l0.5-.32,0.15,0.23a3.08,3.08,0,0,1,.42-0.59,2.59,2.59,0,0,1,.49-0.41,1.47,1.47,0,0,1,.77-0.28,1,1,0,0,1,.66.28,4.25,4.25,0,0,1,.71.88l1.1,1.71-0.5.33-1.1-1.7a3.94,3.94,0,0,0-.51-0.67,0.7,0.7,0,0,0-.44-0.22,0.87,0.87,0,0,0-.51.17,2.43,2.43,0,0,0-.44.36,2.29,2.29,0,0,0-.31.38l-0.09.14,1.7,2.63-0.51.33Z" transform="translate(-316.29 -573.6)"/><path class="cls-3" d="M352.4,586l-0.24.07-0.19-.47a11.28,11.28,0,0,0,1.31-.48,1.38,1.38,0,0,0,.59-0.45,0.53,0.53,0,0,0,0-.54,0.51,0.51,0,0,0-.26-0.28,0.66,0.66,0,0,0-.35,0,3.64,3.64,0,0,0-.51.13l-0.2.06a3.8,3.8,0,0,1-.77.16,0.88,0.88,0,0,1-.5-0.1,0.94,0.94,0,0,1-.36-0.43,1,1,0,0,1,0-1,2,2,0,0,1,.9-0.72,7.12,7.12,0,0,1,1.1-.41l0.22-.06,0.2,0.45a9.79,9.79,0,0,0-1.29.48,1.39,1.39,0,0,0-.57.43,0.47,0.47,0,0,0,0,.49,0.43,0.43,0,0,0,.24.24,0.65,0.65,0,0,0,.34,0l0.51-.13,0.2-.05a3.81,3.81,0,0,1,.79-0.16,0.85,0.85,0,0,1,.51.11,1.29,1.29,0,0,1,.42,1.46,2,2,0,0,1-.94.77A8.17,8.17,0,0,1,352.4,586Z" transform="translate(-316.29 -573.6)"/><path class="cls-3" d="M358.47,583.45a0.73,0.73,0,0,1-.45-0.3,2.78,2.78,0,0,1-.37-0.77L357,580.46l-0.54.19-0.16-.47,0.54-.19-0.39-1.12,0.57-.19,0.38,1.12,1.22-.42,0.16,0.47-1.22.42,0.6,1.74a4.53,4.53,0,0,0,.24.6,0.53,0.53,0,0,0,.26.26,0.58,0.58,0,0,0,.41,0l0.67-.28,0.19,0.44a6.38,6.38,0,0,1-.79.36A1.33,1.33,0,0,1,358.47,583.45Z" transform="translate(-316.29 -573.6)"/><path class="cls-3" d="M363.24,582a1.15,1.15,0,0,1-.66-0.51,4.14,4.14,0,0,1-.48-2.27,1.18,1.18,0,0,1,.4-0.75,2.6,2.6,0,0,1,2-.42,1.22,1.22,0,0,1,.67.52,3.36,3.36,0,0,1,.41,1.11,3.31,3.31,0,0,1,.08,1.15,1.15,1.15,0,0,1-.39.74,2.17,2.17,0,0,1-1,.42A2.2,2.2,0,0,1,363.24,582Zm1.58-.79a0.77,0.77,0,0,0,.22-0.51,3.33,3.33,0,0,0-.1-0.88,3.42,3.42,0,0,0-.29-0.89,0.76,0.76,0,0,0-.42-0.38,1.31,1.31,0,0,0-.69,0,1.36,1.36,0,0,0-.63.28,0.78,0.78,0,0,0-.23.52,4.25,4.25,0,0,0,.37,1.77,0.75,0.75,0,0,0,.42.38,1.36,1.36,0,0,0,.71,0A1.33,1.33,0,0,0,364.82,581.16Z" transform="translate(-316.29 -573.6)"/><path class="cls-3" d="M368.85,577.19l0.6,0,0,0.27a3,3,0,0,1,.64-0.32,2.56,2.56,0,0,1,.63-0.13,1.46,1.46,0,0,1,.81.12,1,1,0,0,1,.45.56,4.17,4.17,0,0,1,.21,1.11l0.16,2-0.6,0-0.16-2a3.91,3.91,0,0,0-.13-0.83,0.71,0.71,0,0,0-.28-0.4,0.87,0.87,0,0,0-.53-0.09,2.47,2.47,0,0,0-.56.11,2.3,2.3,0,0,0-.45.19l-0.15.08,0.25,3.13-0.61,0Z" transform="translate(-316.29 -573.6)"/><path class="cls-3" d="M380.53,580.89a1.54,1.54,0,0,1-.5-1,7.17,7.17,0,0,1,.43-3.07,1.57,1.57,0,0,1,.74-0.8,2.3,2.3,0,0,1,1.32-.12,8,8,0,0,1,1.48.38l-0.09.49a8.45,8.45,0,0,0-1.38-.33,1.72,1.72,0,0,0-1,.08,1.11,1.11,0,0,0-.53.63,6.22,6.22,0,0,0-.31,1.36,5.4,5.4,0,0,0-.06,1.23,1.09,1.09,0,0,0,.35.73,1.88,1.88,0,0,0,1,.37,7.78,7.78,0,0,0,1.34,0l0,0.51a7.84,7.84,0,0,1-1.48,0A2.39,2.39,0,0,1,380.53,580.89Z" transform="translate(-316.29 -573.6)"/><path class="cls-3" d="M387.85,576.83l0.58,0.16-0.51,1.83a3.73,3.73,0,0,1,.69,0,2.7,2.7,0,0,1,.61.1,1.52,1.52,0,0,1,.74.39,1,1,0,0,1,.23.68,4.26,4.26,0,0,1-.19,1.12l-0.55,2-0.58-.16,0.54-1.95a4.06,4.06,0,0,0,.17-0.85,0.64,0.64,0,0,0-.14-0.47,1.05,1.05,0,0,0-.51-0.27,2.94,2.94,0,0,0-1-.09h-0.16l-0.86,3.07-0.58-.16Z" transform="translate(-316.29 -573.6)"/><path class="cls-3" d="M393.11,584.24a1,1,0,0,1-.13-0.7,4.55,4.55,0,0,1,.35-1.1l0.8-1.85,0.56,0.24-0.79,1.84a4.31,4.31,0,0,0-.28.83,0.67,0.67,0,0,0,.05.48,0.9,0.9,0,0,0,.43.32,2.54,2.54,0,0,0,1.15.19l1.24-2.88,0.56,0.24-1.52,3.55-0.56-.24,0.11-.25a3,3,0,0,1-.67,0,2.38,2.38,0,0,1-.63-0.18A1.47,1.47,0,0,1,393.11,584.24Z" transform="translate(-316.29 -573.6)"/><path class="cls-3" d="M400.51,583.64l0.52,0.3-0.26.45a4.16,4.16,0,0,1,1.59.22l-0.29.51a5,5,0,0,0-.69-0.18,5.28,5.28,0,0,0-.63-0.09h-0.23l-1.42,2.45-0.53-.3Z" transform="translate(-316.29 -573.6)"/><path class="cls-3" d="M403.27,589.8a1.14,1.14,0,0,1,0-.82,3.61,3.61,0,0,1,.57-1,2.87,2.87,0,0,1,1.13-1,1.33,1.33,0,0,1,1.34.3l0.39,0.31c0.13,0.12.3,0.28,0.51,0.5l-0.3.37a9.75,9.75,0,0,0-.75-0.64,1.49,1.49,0,0,0-.65-0.31,0.75,0.75,0,0,0-.55.16,3.25,3.25,0,0,0-.62.68,3.1,3.1,0,0,0-.44.76,0.76,0.76,0,0,0,0,.58,1.56,1.56,0,0,0,.51.55l0.81,0.51-0.26.4a9.59,9.59,0,0,1-1-.6A1.92,1.92,0,0,1,403.27,589.8Z" transform="translate(-316.29 -573.6)"/><path class="cls-3" d="M411.16,589.18l0.44,0.42L410.29,591a3.83,3.83,0,0,1,.63.29,2.82,2.82,0,0,1,.5.38,1.52,1.52,0,0,1,.46.69,1,1,0,0,1-.11.71,4.35,4.35,0,0,1-.69.9l-1.41,1.48-0.44-.42,1.4-1.46a4.06,4.06,0,0,0,.54-0.67,0.64,0.64,0,0,0,.1-0.48,1,1,0,0,0-.32-0.48,2.9,2.9,0,0,0-.82-0.54L410,591.3l-2.2,2.31-0.44-.42Z" transform="translate(-316.29 -573.6)"/><path class="cls-3" d="M414.89,595.44l0.39,0.46-2.95,2.49-0.39-.46Zm1.18-1,0.39,0.46-0.51.43-0.39-.46Z" transform="translate(-316.29 -573.6)"/><path class="cls-3" d="M419,598l0.35,0.49-4.52,3.21-0.35-.49Z" transform="translate(-316.29 -573.6)"/><path class="cls-3" d="M421.58,601.86l0.31,0.52-4.77,2.82-0.31-.52Z" transform="translate(-316.29 -573.6)"/><path class="cls-3" d="M420.9,607.17l1,2.22-0.49.23-1-2.22Z" transform="translate(-316.29 -573.6)"/><path class="cls-3" d="M422.66,615.47L421.88,613l0.44-.14,3.93,0.35,0.21,0.65-3.87-.4,0.58,1.84,1.52-.48,0.19,0.59-1.52.48,0.2,0.65-0.5.16-0.2-.65-1,.3-0.19-.59Z" transform="translate(-316.29 -573.6)"/><path class="cls-3" d="M339.61,668.3l-3.69,3.86-0.45-.43,1.67-1.75-2.06-2-1.67,1.75-0.45-.43,3.69-3.86,0.45,0.43-1.65,1.73,2.06,2,1.65-1.73Z" transform="translate(-316.29 -573.6)"/><path class="cls-3" d="M341.81,674l0.36-3.56,0.57,0.41-0.33,2.84,2.59-1.22,0.57,0.41-3.25,1.47L341,676.18l-0.51-.36Z" transform="translate(-316.29 -573.6)"/><path class="cls-3" d="M351.21,676.51a1.7,1.7,0,0,1,.12,1.08,4.81,4.81,0,0,1-.46,1.21,3.57,3.57,0,0,1-1.44,1.65,1.83,1.83,0,0,1-1.7-.14l-1.77-.93,2.49-4.72,1.77,0.93A2.09,2.09,0,0,1,351.21,676.51Zm-0.93,2a2.78,2.78,0,0,0,.43-1.55A1.24,1.24,0,0,0,350,676l-1.22-.64-2,3.8,1.22,0.64Q349.24,680.51,350.28,678.54Z" transform="translate(-316.29 -573.6)"/><path class="cls-3" d="M355.46,678l2,0.69a2,2,0,0,1,1.13.83,1.56,1.56,0,0,1,0,1.3,1.43,1.43,0,0,1-1.49,1.12l0.29,2.4-0.65-.23-0.27-2.27-1.5-.53-0.69,1.93-0.59-.21Zm1,3.31a1.12,1.12,0,1,0,.75-2.12l-1.37-.49-0.75,2.12Z" transform="translate(-316.29 -573.6)"/><path class="cls-3" d="M364.72,684.75l-2.35-.48-0.67,1.27-0.6-.12,2.57-4.93,1.33,0.27,0.44,5.54-0.6-.12Zm-2.11-1,2.08,0.42-0.25-3-0.41-.08Z" transform="translate(-316.29 -573.6)"/><path class="cls-3" d="M382.18,685.2l-2.38.25-0.26,1.41-0.61.07,1-5.48,1.35-.14,2.1,5.15-0.61.06Zm-2.3-.29,2.11-.22-1.15-2.82-0.42,0Z" transform="translate(-316.29 -573.6)"/><path class="cls-3" d="M387.88,685.35a1.55,1.55,0,0,1-.82-0.72,5.74,5.74,0,0,1-.53-1.47,5.66,5.66,0,0,1-.2-1.54,1.54,1.54,0,0,1,.39-1,2.3,2.3,0,0,1,1.18-.6,8,8,0,0,1,1.51-.19l0.09,0.49a8.54,8.54,0,0,0-1.4.2,1.73,1.73,0,0,0-.88.44,1.1,1.1,0,0,0-.26.78,6.13,6.13,0,0,0,.21,1.38,5.34,5.34,0,0,0,.4,1.17,1.09,1.09,0,0,0,.59.55,1.88,1.88,0,0,0,1.05,0,7.8,7.8,0,0,0,1.26-.45l0.14,0.49a7.94,7.94,0,0,1-1.39.5A2.4,2.4,0,0,1,387.88,685.35Z" transform="translate(-316.29 -573.6)"/><path class="cls-3" d="M397,681.26l-2.23.87,0.13,1.43-0.57.22-0.52-5.54,1.27-.5,3.38,4.41-0.57.22Zm-2.3.33,2-.77-1.86-2.42-0.39.15Z" transform="translate(-316.29 -573.6)"/><path class="cls-3" d="M402.66,674.36a1.7,1.7,0,0,1,1,.48,4.8,4.8,0,0,1,.77,1A3.56,3.56,0,0,1,405,678a1.84,1.84,0,0,1-1,1.35l-1.74,1-2.64-4.64,1.74-1A2.1,2.1,0,0,1,402.66,674.36Zm1.21,1.88a2.78,2.78,0,0,0-1.08-1.2,1.23,1.23,0,0,0-1.19.11l-1.2.68,2.12,3.73,1.2-.68Q405,678.17,403.88,676.24Z" transform="translate(-316.29 -573.6)"/><path class="cls-3" d="M407,671.6l1.13,1.46,1.82-1.41,0.32,0.41-1.82,1.4,1.18,1.53,2.2-1.7,0.32,0.42-2.7,2.08-3.26-4.23,2.7-2.08,0.32,0.42Z" transform="translate(-316.29 -573.6)"/><path class="cls-3" d="M415.42,663.16l3.88,3.68-0.43.45L415.45,664l-0.08.08,2.16,4.29-0.48.51-4.4-1.93-0.08.08,3.42,3.24-0.43.45-3.87-3.68,0.77-.82,4.37,2L414.64,664Z" transform="translate(-316.29 -573.6)"/><path class="cls-3" d="M421,660.85l-3.56-.3,0.4-.58,2.85,0.29-1.26-2.57,0.4-.58,1.52,3.23,1.85,1.28-0.36.51Z" transform="translate(-316.29 -573.6)"/><polygon class="cls-3" points="7.02 53.01 9.9 53.91 7.44 55.65 7.48 58.66 5.06 56.86 2.21 57.83 3.18 54.97 1.38 52.56 4.39 52.59 6.13 50.13 7.02 53.01"/><polygon class="cls-3" points="113.05 53.01 115.93 53.91 113.47 55.65 113.51 58.66 111.09 56.86 108.24 57.83 109.21 54.97 107.4 52.56 110.42 52.59 112.16 50.13 113.05 53.01"/><path class="cls-4" d="M409,641.63c0.06-.33.11-0.67,0.15-1h0a13,13,0,0,0-.54-8.27c-3-7.24-10.29-10.13-15.92-8.6A13.85,13.85,0,0,0,383,632a14.43,14.43,0,0,0,0,11,13,13,0,0,0,2.58,4s-2.35-11.91,4.91-16.28a9.3,9.3,0,0,1,8.28-.9,9.1,9.1,0,0,1,5.32,9l-0.12,1.38c-0.18.67-.33,1.07-0.33,1.07-0.29,1-1.13,2.41-3.56,4.7a9.91,9.91,0,0,0,3.16,2.37l-1.39-1.64,1.17,0.34-0.92-1.23,3.15-2.23,0.88,0.13-0.25,4.13-1.08.12,1,0.84-1.73,0,2.29,0.89,1.75-5a7.26,7.26,0,0,0,4.11-6.17S410.59,641.27,409,641.63Z" transform="translate(-316.29 -573.6)"/><path class="cls-4" d="M366.94,632a13.85,13.85,0,0,0-9.73-8.3c-5.64-1.53-12.94,1.36-15.92,8.6a13,13,0,0,0-.54,8.27h0c0,0.34.09,0.68,0.15,1-1.55-.35-3.19-3-3.19-3a7.26,7.26,0,0,0,4.11,6.17l1.75,5,2.29-.89-1.73,0,1-.84-1.08-.12-0.25-4.13,0.88-.13,3.15,2.23-0.92,1.23,1.17-.34-1.39,1.64a9.91,9.91,0,0,0,3.16-2.37c-2.42-2.3-3.27-3.73-3.56-4.7,0,0-.15-0.41-0.33-1.07l-0.12-1.38a9.1,9.1,0,0,1,5.32-9,9.3,9.3,0,0,1,8.28.9c7.26,4.37,4.91,16.28,4.91,16.28a13,13,0,0,0,2.58-4A14.43,14.43,0,0,0,366.94,632Z" transform="translate(-316.29 -573.6)"/><path class="cls-2" d="M378.88,638.08c-3.72-14.45-8-15.53-10.53-23.44-0.5-1.57-2-9.83,6.32-9.83,5.22,0.19,6.7,5,7.08,8.58-1.45-1.5-2.37-4.87-2.49-5.88-1.44,3,.86,7.51.86,7.51s-2.33-1.4-3.14-1.08a13.2,13.2,0,0,1,2.35,4.94L378.58,620a4.39,4.39,0,0,1,1.39,3c0.36,4.39,2.25,4.82,2.25,4.82s1.93-.18,2.85-4.49a4.39,4.39,0,0,1,1.78-2.84l-0.6-1.24a13.2,13.2,0,0,1,3-4.59c-0.76-.42-3.25.66-3.25,0.66s2.86-4.16,1.83-7.34a14.57,14.57,0,0,1-2.66,5,18.42,18.42,0,0,0,.26-1.93c0.56-7.3-5.18-12.45-12.46-11.6a12,12,0,0,0-7.94,3.94c-8.31,10.07,4.64,16,6.13,32.51,0.8,8.89-7.17,12.94-14.52,16,15,0.62,18.56,10.33,18.56,10.33s3.72-9.82,18.54-10.21C388.94,650.75,381.63,648.77,378.88,638.08Zm2.77-18.78-1.62-.58,0-1,1.6,1.23Zm3.92-.21-1.68.36,0-.33,1.74-1Z" transform="translate(-316.29 -573.6)"/></svg>