<svg id="Layer_1" data-name="Layer 1" xmlns="http://www.w3.org/2000/svg" viewBox="0 0 116.67 116.67">
  <defs>
    <style>
      .cls-1 {
        fill: #501589;
      }

      .cls-2 {
        fill: #dbdbdb;
      }

      .cls-3 {
        fill: #1c1c1c;
      }

      .cls-4 {
        fill: #fff;
      }
    </style>
  </defs>
  <title>SirWinstonChurchill-4-icon2</title>
  <rect class="cls-1" width="116.67" height="116.67"/>
  <circle class="cls-2" cx="58.34" cy="58.33" r="44.22"/>
  <path class="cls-3" d="M58.35,106.7a48.37,48.37,0,1,1,48.4-48.37A48.37,48.37,0,0,1,58.35,106.7Zm0-88.46A40.08,40.08,0,1,0,98.46,58.33,40.08,40.08,0,0,0,58.35,18.24h0Z"/>
  <path class="cls-4" d="M19.24,44.92l-0.11.22L18.76,45a12.26,12.26,0,0,0,.55-1.29,0.83,0.83,0,0,0-.53-1.22,0.7,0.7,0,0,0-.39,0,0.64,0.64,0,0,0-.32.22,3.4,3.4,0,0,0-.36.55,3.94,3.94,0,0,1-.51.73,1,1,0,0,1-.5.31,1.25,1.25,0,0,1-.65-0.07q-1.13-.37-0.66-1.8A10.42,10.42,0,0,1,16,41.09l0.38,0.17q-0.41.88-.52,1.22-0.32,1,.37,1.19a0.74,0.74,0,0,0,.43,0A0.66,0.66,0,0,0,17,43.43a5.59,5.59,0,0,0,.42-0.65,3.44,3.44,0,0,1,.47-0.66,0.91,0.91,0,0,1,.46-0.27,1.17,1.17,0,0,1,.6.07,1.26,1.26,0,0,1,.83,1.84A9.24,9.24,0,0,1,19.24,44.92Z"/>
  <path class="cls-4" d="M17.12,38l0.21-.45,0.51,0.23-0.21.45Zm1.16,0.53,0.21-.45,2.91,1.34-0.21.45Z"/>
  <path class="cls-4" d="M19.93,35.27l0.25-.43,0.37,0.22a3.42,3.42,0,0,1,.17-1.32L21.15,34a4.25,4.25,0,0,0-.15.57,4.41,4.41,0,0,0-.07.52v0.18l2,1.18-0.25.44Z"/>
  <path class="cls-4" d="M23.49,27.76l0.36-.39,3.45,2.16,0.13-.14L25.21,26l0.41-.44,3.53,2,0.13-.14-2.36-3.32,0.36-.39,2.59,3.72-0.65.69-3.36-1.95L28,29.41l-0.65.69Z"/>
  <path class="cls-4" d="M29.63,21.67L30,21.35l0.35,0.43L30,22.1Zm0.83,1,0.39-.32,2,2.49-0.38.32Z"/>
  <path class="cls-4" d="M33.43,20.43l0.41-.27L34,20.35a2.55,2.55,0,0,1,.35-0.49,2.15,2.15,0,0,1,.41-0.34,1.22,1.22,0,0,1,.64-0.23,0.83,0.83,0,0,1,.55.23,3.52,3.52,0,0,1,.59.73l0.91,1.42L37,21.94l-0.91-1.41A3.27,3.27,0,0,0,35.66,20a0.58,0.58,0,0,0-.36-0.18,0.72,0.72,0,0,0-.42.14,2,2,0,0,0-.36.3,1.9,1.9,0,0,0-.26.32l-0.07.12,1.41,2.18-0.42.27Z"/>
  <path class="cls-4" d="M39.91,20.24l-0.2.06-0.16-.39a9.35,9.35,0,0,0,1.09-.4,1.14,1.14,0,0,0,.49-0.37,0.44,0.44,0,0,0,0-.45,0.42,0.42,0,0,0-.22-0.23,0.55,0.55,0,0,0-.29,0,3,3,0,0,0-.42.11l-0.17,0a3.15,3.15,0,0,1-.64.13A0.73,0.73,0,0,1,39,18.67a0.78,0.78,0,0,1-.3-0.36,0.83,0.83,0,0,1,0-.83,1.66,1.66,0,0,1,.75-0.6,5.91,5.91,0,0,1,.91-0.34l0.18,0,0.17,0.37a8.12,8.12,0,0,0-1.07.4,1.15,1.15,0,0,0-.47.36,0.39,0.39,0,0,0,0,.41,0.36,0.36,0,0,0,.2.2,0.54,0.54,0,0,0,.28,0l0.42-.11,0.17,0a3.16,3.16,0,0,1,.66-0.13,0.7,0.7,0,0,1,.42.09,1.07,1.07,0,0,1,.35,1.21,1.66,1.66,0,0,1-.78.64A6.78,6.78,0,0,1,39.91,20.24Z"/>
  <path class="cls-4" d="M44.95,18.13a0.61,0.61,0,0,1-.37-0.25,2.31,2.31,0,0,1-.31-0.64l-0.54-1.59-0.45.16-0.13-.39,0.45-.16-0.32-.93,0.47-.16,0.32,0.93,1-.35,0.13,0.39-1,.35,0.5,1.44a3.76,3.76,0,0,0,.2.5,0.44,0.44,0,0,0,.22.22,0.48,0.48,0,0,0,.34,0L46,17.41l0.16,0.36a5.29,5.29,0,0,1-.66.3A1.1,1.1,0,0,1,44.95,18.13Z"/>
  <path class="cls-4" d="M48.9,16.93a1,1,0,0,1-.55-0.42,3.43,3.43,0,0,1-.4-1.88A1,1,0,0,1,48.29,14a2.16,2.16,0,0,1,1.66-.35,1,1,0,0,1,.56.43,2.79,2.79,0,0,1,.34.92,2.75,2.75,0,0,1,.07,1,1,1,0,0,1-.32.61,1.8,1.8,0,0,1-.83.35A1.82,1.82,0,0,1,48.9,16.93Zm1.31-.66a0.64,0.64,0,0,0,.18-0.42,2.76,2.76,0,0,0-.08-0.73,2.84,2.84,0,0,0-.24-0.74,0.63,0.63,0,0,0-.35-0.32,1.09,1.09,0,0,0-.57,0,1.13,1.13,0,0,0-.52.23,0.65,0.65,0,0,0-.19.43,3.52,3.52,0,0,0,.31,1.47,0.62,0.62,0,0,0,.35.32,1.13,1.13,0,0,0,.59,0,1.1,1.1,0,0,0,.53-0.28v0Z"/>
  <path class="cls-4" d="M53.55,12.94h0.5v0.22a2.49,2.49,0,0,1,.53-0.27,2.12,2.12,0,0,1,.52-0.11,1.21,1.21,0,0,1,.67.1,0.83,0.83,0,0,1,.37.46,3.46,3.46,0,0,1,.17.92l0.13,1.66H56l-0.13-1.66a3.24,3.24,0,0,0-.11-0.69,0.59,0.59,0,0,0-.23-0.33A0.72,0.72,0,0,0,55,13.18a2,2,0,0,0-.46.09,1.91,1.91,0,0,0-.37.16l-0.12.07,0.21,2.6H53.79Z"/>
  <path class="cls-4" d="M63.24,16a1.28,1.28,0,0,1-.41-0.83,6,6,0,0,1,.36-2.55A1.3,1.3,0,0,1,63.79,12a1.91,1.91,0,0,1,1.09-.1,6.64,6.64,0,0,1,1.23.32L66,12.59a7,7,0,0,0-1.14-.27,1.43,1.43,0,0,0-.83.07,0.92,0.92,0,0,0-.44.52A5.16,5.16,0,0,0,63.37,14a4.48,4.48,0,0,0,0,1,0.9,0.9,0,0,0,.29.61,1.56,1.56,0,0,0,.83.31,6.46,6.46,0,0,0,1.11,0v0.42a6.5,6.5,0,0,1-1.23,0A2,2,0,0,1,63.24,16Z"/>
  <path class="cls-4" d="M69.31,12.64l0.48,0.13-0.42,1.52a3.1,3.1,0,0,1,.57,0,2.24,2.24,0,0,1,.51.08,1.26,1.26,0,0,1,.61.32,0.83,0.83,0,0,1,.19.56,3.53,3.53,0,0,1-.16.93l-0.46,1.66-0.48-.13L70.6,16.1a3.37,3.37,0,0,0,.14-0.7A0.53,0.53,0,0,0,70.63,15a0.87,0.87,0,0,0-.42-0.22,2.44,2.44,0,0,0-.83-0.07H69.24l-0.71,2.55L68,17.12Z"/>
  <path class="cls-4" d="M73.67,18.78a0.83,0.83,0,0,1-.11-0.58,3.77,3.77,0,0,1,.29-0.91l0.66-1.53L75,16l-0.66,1.53a3.57,3.57,0,0,0-.23.69,0.56,0.56,0,0,0,0,.4,0.75,0.75,0,0,0,.36.27,2.11,2.11,0,0,0,1,.16l1-2.39,0.46,0.2-1.26,2.94-0.46-.2,0.09-.21a2.49,2.49,0,0,1-.56,0,2,2,0,0,1-.52-0.15A1.22,1.22,0,0,1,73.67,18.78Z"/>
  <path class="cls-4" d="M79.81,18.29l0.43,0.25L80,18.91a3.45,3.45,0,0,1,1.32.18l-0.24.42a4.15,4.15,0,0,0-.57-0.15A4.38,4.38,0,0,0,80,19.29H79.82l-1.18,2-0.44-.25Z"/>
  <path class="cls-4" d="M82.1,23.39a1,1,0,0,1,0-.68,3,3,0,0,1,.47-0.83,2.38,2.38,0,0,1,.94-0.83,1.1,1.1,0,0,1,1.11.25l0.32,0.26c0.11,0.1.25,0.23,0.42,0.41l-0.25.31a8.09,8.09,0,0,0-.62-0.53A1.24,1.24,0,0,0,84,21.49a0.62,0.62,0,0,0-.46.13,2.69,2.69,0,0,0-.51.56,2.57,2.57,0,0,0-.36.63,0.63,0.63,0,0,0,0,.48,1.29,1.29,0,0,0,.42.46l0.67,0.42-0.22.33a8,8,0,0,1-.83-0.5A1.59,1.59,0,0,1,82.1,23.39Z"/>
  <path class="cls-4" d="M88.64,22.88L89,23.23l-1.09,1.16a3.17,3.17,0,0,1,.52.24,2.34,2.34,0,0,1,.41.32,1.26,1.26,0,0,1,.38.57,0.83,0.83,0,0,1-.09.59,3.61,3.61,0,0,1-.57.75L87.4,28.08,87,27.73l1.16-1.21A3.37,3.37,0,0,0,88.65,26a0.53,0.53,0,0,0,.08-0.4,0.83,0.83,0,0,0-.27-0.4,2.41,2.41,0,0,0-.68-0.45l-0.11-.08-1.82,1.92-0.36-.35Z"/>
  <path class="cls-4" d="M91.73,28.07l0.32,0.38-2.45,2.06-0.32-.38Zm1-.83L93,27.62,92.61,28l-0.32-.38Z"/>
  <path class="cls-4" d="M95.14,30.19l0.29,0.41-3.75,2.66-0.29-.41Z"/>
  <path class="cls-4" d="M97.28,33.39l0.26,0.43-4,2.34-0.26-.43Z"/>
  <path class="cls-4" d="M96.72,37.8l0.83,1.84-0.41.19L96.31,38Z"/>
  <path class="cls-4" d="M98.18,44.68l-0.65-2,0.36-.12,3.26,0.29,0.17,0.54L98.12,43l0.48,1.53,1.26-.4L100,44.63l-1.26.4,0.17,0.54-0.41.13-0.17-.54-0.83.25-0.16-.49Z"/>
  <path class="cls-4" d="M29.31,88.49l-3.06,3.2-0.37-.36,1.38-1.45-1.71-1.66-1.38,1.45-0.37-.36,3.06-3.2,0.37,0.36-1.37,1.43,1.71,1.66,1.37-1.43Z"/>
  <path class="cls-4" d="M31.13,93.22l0.3-3L31.9,90.6,31.63,93l2.15-1,0.47,0.34-2.7,1.22L30.46,95,30,94.73Z"/>
  <path class="cls-4" d="M38.93,95.3a1.41,1.41,0,0,1,.1.9,4,4,0,0,1-.38,1,3,3,0,0,1-1.19,1.37A1.52,1.52,0,0,1,36,98.45l-1.47-.77,2.06-3.91,1.47,0.77A1.73,1.73,0,0,1,38.93,95.3ZM38.15,97a2.31,2.31,0,0,0,.36-1.29,1,1,0,0,0-.59-0.8l-1-.53L35.25,97.5l1,0.53q1,0.59,1.89-1v0Z"/>
  <path class="cls-4" d="M42.45,96.53l1.66,0.57a1.66,1.66,0,0,1,.94.69,1.29,1.29,0,0,1,0,1.08,1.19,1.19,0,0,1-1.24.93l0.24,2-0.54-.19-0.22-1.88L42,99.28l-0.57,1.6L41,100.7Zm0.83,2.74a0.93,0.93,0,0,0,.62-1.76l-1.14-.41-0.62,1.76Z"/>
  <path class="cls-4" d="M50.13,102.13l-1.95-.4-0.56,1.05-0.5-.1,2.13-4.09,1.1,0.22,0.36,4.59-0.5-.1Zm-1.75-.83,1.72,0.35L49.9,99.16l-0.34-.07Z"/>
  <path class="cls-4" d="M64.61,102.5l-2,.21-0.22,1.17-0.51.06,0.83-4.54,1.12-.12,1.74,4.27-0.51,0Zm-1.91-.24,1.75-.18-1-2.34H63.15Z"/>
  <path class="cls-4" d="M69.33,102.63a1.29,1.29,0,0,1-.68-0.6,4.76,4.76,0,0,1-.44-1.22A4.69,4.69,0,0,1,68,99.54a1.28,1.28,0,0,1,.32-0.83,1.91,1.91,0,0,1,1-.5,6.63,6.63,0,0,1,1.25-.16l0.07,0.41a7.08,7.08,0,0,0-1.16.17,1.43,1.43,0,0,0-.73.36,0.91,0.91,0,0,0-.22.65,5.08,5.08,0,0,0,.17,1.14,4.43,4.43,0,0,0,.33,1,0.9,0.9,0,0,0,.49.46,1.56,1.56,0,0,0,.87,0,6.47,6.47,0,0,0,1-.37l0.12,0.41a6.59,6.59,0,0,1-1.15.41A2,2,0,0,1,69.33,102.63Z"/>
  <path class="cls-4" d="M76.9,99.24L75,100l0.11,1.19-0.47.18-0.43-4.59,1.05-.41,2.8,3.66-0.47.18ZM75,99.51l1.66-.64-1.54-2L74.78,97Z"/>
  <path class="cls-4" d="M81.59,93.51a1.41,1.41,0,0,1,.83.4,4,4,0,0,1,.64.83,3,3,0,0,1,.47,1.79,1.53,1.53,0,0,1-.83,1.12l-1.44.83-2.19-3.85,1.44-.83A1.74,1.74,0,0,1,81.59,93.51Zm1,1.56a2.31,2.31,0,0,0-.9-1,1,1,0,0,0-1,.09l-1,.56,1.76,3.09,1-.56q1.06-.59.13-2.19h0Z"/>
  <path class="cls-4" d="M85.19,91.23l0.94,1.21,1.51-1.17,0.27,0.34-1.51,1.16,1,1.27,1.82-1.41L89.46,93,87.22,94.7l-2.7-3.51,2.24-1.72L87,89.82Z"/>
  <path class="cls-4" d="M92.17,84.23l3.22,3.05L95,87.65,92.2,84.92,92.13,85l1.79,3.56-0.4.42-3.65-1.6-0.07.07,2.84,2.69-0.36.37-3.21-3.05,0.64-.68,3.62,1.66-1.82-3.5Z"/>
  <path class="cls-4" d="M96.8,82.31l-3-.25,0.33-.48,2.36,0.24-1-2.13,0.33-.48,1.26,2.68L98.62,83l-0.3.42Z"/>
  <polygon class="cls-4" points="15.79 53.92 18.18 54.66 16.14 56.11 16.17 58.6 14.16 57.11 11.8 57.91 12.61 55.54 11.11 53.55 13.61 53.57 15.05 51.53 15.79 53.92"/>
  <polygon class="cls-4" points="103.72 53.92 106.1 54.66 104.06 56.11 104.1 58.6 102.09 57.11 99.73 57.91 100.53 55.54 99.03 53.55 101.53 53.57 102.98 51.53 103.72 53.92"/>
  <path class="cls-1" d="M86.85,66.37c0-.27.09-0.56,0.12-0.83h0a10.78,10.78,0,0,0-.45-6.86c-2.49-6-8.53-8.4-13.2-7.13a11.48,11.48,0,0,0-8,6.83,12,12,0,0,0,0,9.12,10.78,10.78,0,0,0,2.14,3.32S65.48,61,71.5,57.33a7.71,7.71,0,0,1,6.87-.75A7.55,7.55,0,0,1,82.78,64l-0.1,1.14c-0.15.56-.27,0.89-0.27,0.89-0.24.83-.94,2-3,3.9a8.22,8.22,0,0,0,2.62,2l-1.15-1.36,1,0.28-0.76-1L83.74,68l0.73,0.11-0.21,3.42-0.9.1,0.83,0.7H82.76l1.9,0.74,1.45-4.15a6,6,0,0,0,3.41-5.12S88.17,66.08,86.85,66.37Z"/>
  <path class="cls-1" d="M52,58.39a11.49,11.49,0,0,0-8.07-6.88c-4.68-1.27-10.73,1.13-13.2,7.13a10.78,10.78,0,0,0-.45,6.86h0a4.55,4.55,0,0,0,.12.83c-1.29-.29-2.65-2.49-2.65-2.49A6,6,0,0,0,31.14,69l1.45,4.15,1.9-.74H33.05l0.83-.7-0.9-.1-0.21-3.42L33.51,68l2.61,1.85-0.76,1,1-.28L35.18,72a8.22,8.22,0,0,0,2.62-2c-2-1.91-2.71-3.09-3-3.9,0,0-.12-0.34-0.27-0.89l-0.1-1.14a7.55,7.55,0,0,1,4.41-7.46,7.71,7.71,0,0,1,6.87.75c6,3.62,4.07,13.5,4.07,13.5A10.78,10.78,0,0,0,52,67.55,12,12,0,0,0,52,58.39Z"/>
  <path class="cls-3" d="M61.87,63.43c-3.08-12-6.63-12.88-8.73-19.44-0.41-1.3-1.66-8.15,5.24-8.15C62.71,36,63.94,40,64.25,43a10.93,10.93,0,0,1-2.06-4.88c-1.19,2.49.71,6.23,0.71,6.23s-1.93-1.16-2.6-.9a11,11,0,0,1,1.95,4.1l-0.62.93a3.64,3.64,0,0,1,1.15,2.49c0.3,3.64,1.87,4,1.87,4s1.6-.15,2.36-3.72a3.64,3.64,0,0,1,1.48-2.36l-0.5-1A11,11,0,0,1,70.47,44c-0.63-.35-2.7.55-2.7,0.55s2.37-3.45,1.52-6.09a12.08,12.08,0,0,1-2.21,4.15A15.28,15.28,0,0,0,67.3,41C67.77,35,63,30.69,57,31.4a10,10,0,0,0-6.58,3.27c-6.89,8.35,3.85,13.27,5.08,27,0.66,7.37-5.95,10.73-12,13.27,12.44,0.51,15.39,8.57,15.39,8.57S61.9,75.31,74.19,75C70.21,73.94,64.15,72.29,61.87,63.43Zm2.3-15.57-1.34-.48V46.55l1.33,1Zm3.25-.17L66,48V47.71l1.44-.83Z"/>
</svg>
