<svg id="Layer_1" data-name="Layer 1" xmlns="http://www.w3.org/2000/svg" viewBox="0 0 96.7 96.7">
  <defs>
    <style>
      .cls-1 {
        fill: #dbdbdb;
      }

      .cls-2 {
        fill: #1c1c1c;
      }

      .cls-3 {
        fill: #fff;
      }

      .cls-4 {
        fill: #501589;
      }
    </style>
  </defs>
  <title>SirWinstonChurchill-4</title>
  <circle class="cls-1" cx="48.3" cy="48.3" r="44.2"/>
  <path class="cls-2" d="M58.3,106.7a48.35,48.35,0,1,1,48.4-48.3A48.35,48.35,0,0,1,58.3,106.7Zm0-88.5a40.05,40.05,0,1,0,40.1,40,40,40,0,0,0-40.1-40h0Z" transform="translate(-10 -10)"/>
  <path class="cls-3" d="M19.2,44.9l-0.1.2L18.8,45a5,5,0,0,0,.5-1.3,0.8,0.8,0,0,0-.3-1.1c-0.1,0-.1-0.1-0.2-0.1H18.4a0.53,0.53,0,0,0-.3.2,2.18,2.18,0,0,1-.4.5,1.79,1.79,0,0,1-.5.7,0.55,0.55,0,0,1-.5.3,1.27,1.27,0,0,1-.6-0.1c-0.8-.2-1-0.8-0.7-1.8A7.54,7.54,0,0,1,16,41l0.4,0.2c-0.3.6-.4,1-0.5,1.2a0.82,0.82,0,0,0,.4,1.2h0.4a0.53,0.53,0,0,0,.3-0.2,2.09,2.09,0,0,0,.4-0.6,3,3,0,0,1,.5-0.7,2.19,2.19,0,0,1,.5-0.3,1.27,1.27,0,0,1,.6.1,1.33,1.33,0,0,1,1,1.5c0,0.1-.1.2-0.1,0.3C19.6,44.2,19.4,44.5,19.2,44.9Z" transform="translate(-10 -10)"/>
  <path class="cls-3" d="M17.1,38l0.2-.4,0.5,0.2-0.2.4Zm1.2,0.5,0.2-.4,2.9,1.3-0.2.4Z" transform="translate(-10 -10)"/>
  <path class="cls-3" d="M19.9,35.3l0.2-.4,0.4,0.2a3,3,0,0,1,.2-1.3L21.1,34a1.27,1.27,0,0,0-.1.6c0,0.2-.1.3-0.1,0.5v0.2l2,1.2-0.2.4Z" transform="translate(-10 -10)"/>
  <path class="cls-3" d="M23.5,27.8l0.4-.4,3.4,2.2,0.1-.1L25.2,26l0.4-.4,3.5,2,0.1-.1-2.4-3.3,0.4-.4,2.6,3.7-0.6.7-3.4-1.9L28,29.5l-0.6.7Z" transform="translate(-10 -10)"/>
  <path class="cls-3" d="M29.6,21.7l0.4-.3,0.3,0.4-0.3.3Zm0.9,1,0.4-.3,2,2.5-0.4.3Z" transform="translate(-10 -10)"/>
  <path class="cls-3" d="M33.4,20.4l0.4-.3,0.1,0.2c0.1-.2.2-0.3,0.3-0.5s0.3-.2.4-0.3a1.42,1.42,0,0,1,.6-0.2,0.76,0.76,0,0,1,.5.2c0.2,0.2.4,0.5,0.6,0.7l0.9,1.4-0.2.3-0.9-1.4c-0.1-.2-0.3-0.4-0.4-0.6a0.52,0.52,0,0,0-.4-0.2,2.27,2.27,0,0,0-.4.1c-0.1.1-.3,0.2-0.4,0.3l-0.3.3-0.1.1,1.4,2.2-0.4.3Z" transform="translate(-10 -10)"/>
  <path class="cls-3" d="M39.9,20.2l-0.2.1-0.2-.4a4.87,4.87,0,0,0,1.1-.4,1,1,0,0,0,.5-0.4,0.3,0.3,0,0,0,0-.4,0.22,0.22,0,0,0-.2-0.2H40.6c-0.1,0-.3.1-0.4,0.1H40a1.27,1.27,0,0,1-.6.1,0.6,0.6,0,0,1-.4-0.1,1.38,1.38,0,0,1-.3-0.4,1.1,1.1,0,0,1,0-.8,1.34,1.34,0,0,1,.7-0.6,3.18,3.18,0,0,1,.9-0.3h0.2l0.2,0.4a4.87,4.87,0,0,0-1.1.4,1.76,1.76,0,0,0-.5.4,0.3,0.3,0,0,0,0,.4,0.22,0.22,0,0,0,.2.2h0.3l0.4-.1h0.2a1.48,1.48,0,0,1,.7-0.1,0.6,0.6,0,0,1,.4.1,1,1,0,0,1,.3,1.2,1.56,1.56,0,0,1-.8.6A3.71,3.71,0,0,0,39.9,20.2Z" transform="translate(-10 -10)"/>
  <path class="cls-3" d="M44.9,18.1a0.52,0.52,0,0,1-.4-0.2l-0.3-.6-0.5-1.6-0.4.2-0.1-.4,0.4-.2-0.3-.9,0.5-.2,0.3,0.9,1-.3,0.1,0.4-1,.3,0.5,1.4c0.1,0.2.1,0.3,0.2,0.5a0.22,0.22,0,0,0,.2.2h0.3l0.6-.2,0.2,0.4a4.88,4.88,0,0,1-.7.3A1.22,1.22,0,0,1,44.9,18.1Z" transform="translate(-10 -10)"/>
  <path class="cls-3" d="M48.9,16.9a1,1,0,0,1-.5-0.4,4.06,4.06,0,0,1-.4-1.9,0.71,0.71,0,0,1,.3-0.6,2,2,0,0,1,1.7-.3,2.09,2.09,0,0,1,.6.4,1.61,1.61,0,0,1,.3.9,3.08,3.08,0,0,1,.1,1,0.71,0.71,0,0,1-.3.6,1.14,1.14,0,0,1-.8.3A1.7,1.7,0,0,1,48.9,16.9Zm1.3-.6a0.76,0.76,0,0,0,.2-0.4,1.7,1.7,0,0,0-.1-0.7,1.45,1.45,0,0,0-.2-0.7,0.85,0.85,0,0,0-.3-0.3,0.64,0.64,0,0,0-.6,0,0.69,0.69,0,0,0-.7.6,4,4,0,0,0,.3,1.5,0.85,0.85,0,0,0,.3.3,0.64,0.64,0,0,0,.6,0,2.19,2.19,0,0,0,.5-0.3h0Z" transform="translate(-10 -10)"/>
  <path class="cls-3" d="M53.6,12.9h0.5v0.2c0.2-.1.3-0.2,0.5-0.3a0.9,0.9,0,0,1,.5-0.1,1.7,1.7,0,0,1,.7.1,1,1,0,0,1,.4.5,2.92,2.92,0,0,1,.2.9l0.1,1.7H56l-0.1-1.7a1.7,1.7,0,0,0-.1-0.7,0.34,0.34,0,0,0-.2-0.3,0.6,0.6,0,0,0-.4-0.1,0.9,0.9,0,0,0-.5.1,0.76,0.76,0,0,0-.4.2l-0.1.1,0.2,2.6H53.9Z" transform="translate(-10 -10)"/>
  <path class="cls-3" d="M63.2,16a1.23,1.23,0,0,1-.4-0.8,5.28,5.28,0,0,1,.4-2.5,1.34,1.34,0,0,1,.6-0.7,2,2,0,0,1,1.1-.1l1.2,0.3-0.1.4c-0.4-.1-0.8-0.2-1.1-0.3a1.06,1.06,0,0,0-.8.1,0.66,0.66,0,0,0-.4.5c-0.1.4-.2,0.7-0.3,1.1a1.7,1.7,0,0,0,0,1,0.86,0.86,0,0,0,.3.6,1.14,1.14,0,0,0,.8.3h1.1v0.4H64.4A1.68,1.68,0,0,1,63.2,16Z" transform="translate(-10 -10)"/>
  <path class="cls-3" d="M69.3,12.6l0.5,0.1-0.4,1.5H70a0.9,0.9,0,0,1,.5.1,1.69,1.69,0,0,1,.6.3,1.42,1.42,0,0,1,.2.6,2.92,2.92,0,0,1-.2.9l-0.5,1.7-0.5-.1,0.4-1.6a1.7,1.7,0,0,0,.1-0.7,0.6,0.6,0,0,0-.1-0.4,0.76,0.76,0,0,0-.4-0.2,2.49,2.49,0,0,0-.8-0.1H69.2l-0.7,2.5L68,17.1Z" transform="translate(-10 -10)"/>
  <path class="cls-3" d="M73.7,18.8a1.27,1.27,0,0,1-.1-0.6l0.3-.9,0.7-1.5L75,16l-0.7,1.5a1.85,1.85,0,0,0-.2.7v0.4a1.38,1.38,0,0,0,.4.3,3,3,0,0,0,1,.2l1-2.4L77,16.9l-1.3,2.9-0.5-.2,0.1-.2H74.7a4.33,4.33,0,0,1-.5-0.1A2.36,2.36,0,0,1,73.7,18.8Z" transform="translate(-10 -10)"/>
  <path class="cls-3" d="M79.8,18.3l0.4,0.2-0.2.4a3,3,0,0,1,1.3.2l-0.2.4a1.27,1.27,0,0,0-.6-0.1c-0.2,0-.3-0.1-0.5-0.1H79.8l-1.2,2-0.4-.2Z" transform="translate(-10 -10)"/>
  <path class="cls-3" d="M82.1,23.4a0.85,0.85,0,0,1,0-.7,2.18,2.18,0,0,1,.5-0.8,2.28,2.28,0,0,1,.9-0.8,1.39,1.39,0,0,1,1.1.2l0.3,0.3L85.3,22l-0.2.3a2.65,2.65,0,0,0-.6-0.5c-0.2-.1-0.3-0.2-0.5-0.3a0.9,0.9,0,0,0-.5.1,2.65,2.65,0,0,0-.5.6,2.09,2.09,0,0,0-.4.6,0.45,0.45,0,0,0,0,.5,1.76,1.76,0,0,0,.4.5l0.7,0.4-0.2.3a2.18,2.18,0,0,1-.8-0.5A1.17,1.17,0,0,1,82.1,23.4Z" transform="translate(-10 -10)"/>
  <path class="cls-3" d="M88.6,22.9L89,23.2l-1.1,1.2a2.57,2.57,0,0,1,.5.2c0.1,0.1.3,0.2,0.4,0.3a1.27,1.27,0,0,1,.4.6,1.27,1.27,0,0,1-.1.6,2,2,0,0,1-.6.7L87.3,28,87,27.7l1.2-1.2a2.09,2.09,0,0,0,.4-0.6,0.6,0.6,0,0,0,.1-0.4,0.42,0.42,0,0,0-.3-0.4,1.61,1.61,0,0,0-.7-0.4l-0.1-.1-1.8,1.9-0.4-.3Z" transform="translate(-10 -10)"/>
  <path class="cls-3" d="M91.7,28.1L92,28.5l-2.4,2.1-0.3-.4Zm1-.9L93,27.6l-0.4.4-0.3-.4Z" transform="translate(-10 -10)"/>
  <path class="cls-3" d="M95.1,30.2l0.3,0.4-3.7,2.7-0.3-.4Z" transform="translate(-10 -10)"/>
  <path class="cls-3" d="M97.3,33.4l0.3,0.4-4,2.3-0.3-.4Z" transform="translate(-10 -10)"/>
  <path class="cls-3" d="M96.7,37.8l0.8,1.8-0.4.2L96.3,38Z" transform="translate(-10 -10)"/>
  <path class="cls-3" d="M98.2,44.7l-0.6-2,0.4-.1,3.3,0.3,0.2,0.5L98.1,43l0.5,1.5,1.3-.4,0.2,0.5-1.3.4L99,45.5l-0.4.1-0.2-.5-0.8.2-0.2-.5Z" transform="translate(-10 -10)"/>
  <path class="cls-3" d="M29.3,88.5l-3.1,3.2-0.4-.4,1.4-1.5-1.7-1.7-1.4,1.5-0.4-.4L26.8,86l0.4,0.4-1.4,1.4,1.7,1.7,1.4-1.4Z" transform="translate(-10 -10)"/>
  <path class="cls-3" d="M31.1,93.2l0.3-3,0.5,0.3L31.6,93l2.1-1,0.5,0.3-2.7,1.2-1,1.5L30,94.7Z" transform="translate(-10 -10)"/>
  <path class="cls-3" d="M38.9,95.3a1.41,1.41,0,0,1,.1.9,3,3,0,0,1-.4,1,3.23,3.23,0,0,1-1.2,1.4,1.39,1.39,0,0,1-1.4-.1l-1.5-.8,2.1-3.9,1.5,0.8A1.39,1.39,0,0,1,38.9,95.3ZM38.2,97a2.84,2.84,0,0,0,.4-1.3,1.16,1.16,0,0,0-.6-0.8l-1-.5-1.7,3.2,1,0.5c0.6,0.3,1.3,0,1.9-1.1h0Z" transform="translate(-10 -10)"/>
  <path class="cls-3" d="M42.5,96.5l1.7,0.6a1.6,1.6,0,0,1,.9.7,1.46,1.46,0,0,1-1.2,2l0.2,2-0.5-.2-0.2-1.9L42,99.3l-0.6,1.6-0.5-.2Zm0.8,2.8a0.95,0.95,0,1,0,.6-1.8l-1.1-.4-0.6,1.8Z" transform="translate(-10 -10)"/>
  <path class="cls-3" d="M50.1,102.1l-1.9-.4-0.6,1.1-0.5-.1,2.1-4.1,1.1,0.2,0.4,4.6-0.5-.1Zm-1.7-.8,1.7,0.3-0.2-2.5L49.6,99Z" transform="translate(-10 -10)"/>
  <path class="cls-3" d="M64.6,102.5l-2,.2-0.2,1.2-0.5.1,0.8-4.5,1.1-.1,1.7,4.3H65Zm-1.9-.2,1.7-.2-1-2.3H63.1Z" transform="translate(-10 -10)"/>
  <path class="cls-3" d="M69.3,102.6a1.34,1.34,0,0,1-.7-0.6,5.64,5.64,0,0,1-.4-1.2,5.07,5.07,0,0,1-.2-1.3,1.14,1.14,0,0,1,.3-0.8,1.91,1.91,0,0,1,1-.5c0.4-.1.8-0.1,1.3-0.2l0.1,0.4a5,5,0,0,0-1.2.2,1,1,0,0,0-.7.4,0.73,0.73,0,0,0-.2.6,3.59,3.59,0,0,0,.2,1.1c0.1,0.3.2,0.7,0.3,1a1.21,1.21,0,0,0,.5.5,1.39,1.39,0,0,0,.9,0,3,3,0,0,0,1-.4l0.1,0.4a5.64,5.64,0,0,1-1.2.4A1.39,1.39,0,0,1,69.3,102.6Z" transform="translate(-10 -10)"/>
  <path class="cls-3" d="M76.9,99.2L75,100l0.1,1.2-0.5.2-0.4-4.6,1.1-.4,2.8,3.7-0.5.2Zm-1.9.3,1.7-.6-1.5-2-0.4.1Z" transform="translate(-10 -10)"/>
  <path class="cls-3" d="M81.6,93.5a1.23,1.23,0,0,1,.8.4,2.41,2.41,0,0,1,.6.8,3.74,3.74,0,0,1,.5,1.8,1.55,1.55,0,0,1-.8,1.1l-1.4.8-2.2-3.8,1.4-.8A2,2,0,0,1,81.6,93.5Zm1,1.6a2.19,2.19,0,0,0-.9-1,1.18,1.18,0,0,0-1,.1l-1,.6,1.8,3.1,1-.6c0.7-.4.7-1.2,0.1-2.2h0Z" transform="translate(-10 -10)"/>
  <path class="cls-3" d="M85.2,91.2l0.9,1.2,1.5-1.2,0.3,0.3-1.5,1.2,1,1.3,1.8-1.4,0.3,0.3-2.2,1.7-2.7-3.5,2.2-1.7,0.3,0.3Z" transform="translate(-10 -10)"/>
  <path class="cls-3" d="M92.2,84.2l3.2,3.1-0.4.4L92.2,85H92.1l1.8,3.6-0.4.4-3.6-1.6-0.1.1,2.8,2.7-0.4.4L89,87.5l0.6-.7,3.6,1.7L91.4,85Z" transform="translate(-10 -10)"/>
  <path class="cls-3" d="M96.8,82.3l-3-.2,0.3-.5,2.4,0.2-1-2.1,0.3-.5,1.3,2.7L98.6,83l-0.3.4Z" transform="translate(-10 -10)"/>
  <polygon class="cls-3" points="5.8 43.9 8.2 44.7 6.1 46.1 6.2 48.6 4.2 47.1 1.8 47.9 2.6 45.5 1.1 43.5 3.6 43.6 5.1 41.5 5.8 43.9"/>
  <polygon class="cls-3" points="93.7 43.9 96.1 44.7 94.1 46.1 94.1 48.6 92.1 47.1 89.7 47.9 90.5 45.5 89 43.5 91.5 43.6 93 41.5 93.7 43.9"/>
  <path class="cls-4" d="M86.8,66.4c0-.3.1-0.6,0.1-0.8h0a11.61,11.61,0,0,0-.4-6.9c-2.5-6-8.5-8.4-13.2-7.1a11.43,11.43,0,0,0-8,6.8,12,12,0,0,0,0,9.1,10.32,10.32,0,0,0,2.1,3.3s-1.9-9.9,4.1-13.5a7.64,7.64,0,0,1,6.9-.7,7.47,7.47,0,0,1,4.4,7.5l-0.1,1.1a2.48,2.48,0,0,1-.3.9c-0.2.8-.9,2-3,3.9A8.6,8.6,0,0,0,82,72l-1.2-1.4,1,0.3-0.8-1,2.6-1.8,0.7,0.1-0.2,3.4-0.9.1L84,72.4H82.6l1.9,0.7L86,69a6,6,0,0,0,3.4-5.1C89.5,63.8,88.2,66.1,86.8,66.4Z" transform="translate(-10 -10)"/>
  <path class="cls-4" d="M52,58.4a11.52,11.52,0,0,0-8.1-6.9c-4.7-1.3-10.7,1.1-13.2,7.1a10.23,10.23,0,0,0-.4,6.9h0c0,0.3.1,0.6,0.1,0.8-1.3-.3-2.6-2.5-2.6-2.5a5.87,5.87,0,0,0,3.4,5.1L32.7,73l1.9-.7H33.2l0.8-.7H33l-0.2-3.4,0.7-.1,2.6,1.8-0.8,1,1-.3L35.2,72a7.27,7.27,0,0,0,2.6-2,11.07,11.07,0,0,1-3-3.9l-0.3-.9-0.1-1.1a7.61,7.61,0,0,1,4.4-7.5,8,8,0,0,1,6.9.7c6,3.6,4.1,13.5,4.1,13.5A11.94,11.94,0,0,0,52,58.4Z" transform="translate(-10 -10)"/>
  <path class="cls-2" d="M61.9,63.4c-3.1-12-6.6-12.9-8.7-19.4-0.4-1.3-1.7-8.2,5.2-8.2,4.3,0.2,5.6,4.1,5.9,7.1A10.67,10.67,0,0,1,62.2,38c-1.2,2.5.7,6.2,0.7,6.2S61,43,60.3,43.3a10.28,10.28,0,0,1,1.9,4.1l-0.6.9a3.72,3.72,0,0,1,1.2,2.5c0.3,3.6,1.9,4,1.9,4s1.6-.1,2.4-3.7a4.12,4.12,0,0,1,1.5-2.4l-0.5-1a12,12,0,0,1,2.5-3.8c-0.6-.3-2.7.5-2.7,0.5s2.4-3.4,1.5-6.1a12.5,12.5,0,0,1-2.2,4.1,8.75,8.75,0,0,0,.2-1.6C67.8,35,63,30.7,57,31.4a10,10,0,0,0-6.6,3.3c-6.9,8.4,3.8,13.3,5.1,27,0.7,7.4-5.9,10.7-12,13.3,12.4,0.5,15.4,8.6,15.4,8.6s3.1-8.1,15.4-8.5C70.2,73.9,64.2,72.3,61.9,63.4Zm2.3-15.5-1.3-.5V46.6l1.3,1v0.3Zm3.2-.2L66,48V47.7l1.4-.8v0.8Z" transform="translate(-10 -10)"/>
</svg>
