<svg id="Layer_1" data-name="Layer 1" xmlns="http://www.w3.org/2000/svg" viewBox="0 0 116.67 116.67">
  <defs>
    <style>
      .cls-1 {
        fill: #501589;
      }

      .cls-2 {
        fill: #dbdbdb;
      }

      .cls-3 {
        fill: #1c1c1c;
      }

      .cls-4 {
        fill: #fff;
      }
    </style>
  </defs>
  <title>SirWinstonChurchill-5-icon2</title>
  <rect class="cls-1" width="116.67" height="116.67"/>
  <circle class="cls-2" cx="58.34" cy="58.33" r="44.18"/>
  <path class="cls-3" d="M58.35,106.65A48.32,48.32,0,1,1,106.7,58.33,48.32,48.32,0,0,1,58.35,106.65Zm0-88.36a40,40,0,1,0,40.07,40,40,40,0,0,0-40.07-40h0Z"/>
  <path class="cls-4" d="M19.28,44.94l-0.11.22L18.8,45a12.25,12.25,0,0,0,.55-1.28,0.83,0.83,0,0,0-.53-1.22,0.7,0.7,0,0,0-.39,0,0.64,0.64,0,0,0-.31.22,3.4,3.4,0,0,0-.36.55,3.94,3.94,0,0,1-.51.73,1,1,0,0,1-.5.31,1.25,1.25,0,0,1-.65-0.07q-1.13-.37-0.65-1.8A10.41,10.41,0,0,1,16,41.12l0.38,0.17q-0.41.88-.52,1.22-0.31,1,.37,1.18a0.74,0.74,0,0,0,.43,0A0.66,0.66,0,0,0,17,43.45a5.58,5.58,0,0,0,.42-0.65,3.44,3.44,0,0,1,.47-0.65,0.91,0.91,0,0,1,.46-0.27A1.17,1.17,0,0,1,19,42a1.26,1.26,0,0,1,.83,1.84A9.23,9.23,0,0,1,19.28,44.94Z"/>
  <path class="cls-4" d="M17.16,38l0.21-.45,0.51,0.23-0.21.45Zm1.16,0.53,0.21-.45,2.91,1.33-0.21.45Z"/>
  <path class="cls-4" d="M20,35.29l0.25-.43,0.37,0.22a3.42,3.42,0,0,1,.17-1.32L21.19,34a4.25,4.25,0,0,0-.15.57,4.41,4.41,0,0,0-.07.52v0.18l2,1.18-0.25.44Z"/>
  <path class="cls-4" d="M23.53,27.79l0.36-.39,3.45,2.15,0.13-.14L25.24,26l0.41-.44,3.53,2,0.13-.14L27,24.14l0.36-.39,2.58,3.72-0.65.69-3.35-1.95,2.15,3.23-0.65.69Z"/>
  <path class="cls-4" d="M29.66,21.75L30,21.43l0.35,0.43L30,22.18Zm0.83,1,0.39-.31,2,2.49-0.38.31Z"/>
  <path class="cls-4" d="M33.45,20.46l0.41-.27L34,20.39a2.55,2.55,0,0,1,.35-0.49,2.14,2.14,0,0,1,.41-0.34,1.22,1.22,0,0,1,.64-0.23,0.83,0.83,0,0,1,.55.23,3.52,3.52,0,0,1,.59.73l0.91,1.42L37,22,36.1,20.57A3.26,3.26,0,0,0,35.68,20a0.58,0.58,0,0,0-.36-0.18,0.72,0.72,0,0,0-.42.14,2,2,0,0,0-.36.3,1.9,1.9,0,0,0-.26.31l-0.07.12,1.41,2.18-0.42.27Z"/>
  <path class="cls-4" d="M39.93,20.31l-0.2.06L39.58,20a9.34,9.34,0,0,0,1.09-.4,1.14,1.14,0,0,0,.49-0.37,0.44,0.44,0,0,0,0-.45,0.42,0.42,0,0,0-.22-0.23,0.55,0.55,0,0,0-.29,0,3,3,0,0,0-.42.11l-0.17,0a3.15,3.15,0,0,1-.64.13A0.73,0.73,0,0,1,39,18.73a0.78,0.78,0,0,1-.3-0.36,0.83,0.83,0,0,1,0-.83,1.66,1.66,0,0,1,.75-0.6,5.9,5.9,0,0,1,.91-0.34l0.18,0,0.17,0.37a8.11,8.11,0,0,0-1.07.4,1.15,1.15,0,0,0-.47.36,0.39,0.39,0,0,0,0,.41,0.36,0.36,0,0,0,.2.2,0.54,0.54,0,0,0,.28,0l0.42-.11,0.17,0A3.16,3.16,0,0,1,40.89,18a0.7,0.7,0,0,1,.42.09,1.07,1.07,0,0,1,.35,1.21,1.66,1.66,0,0,1-.78.64A6.77,6.77,0,0,1,39.93,20.31Z"/>
  <path class="cls-4" d="M45,18.17a0.6,0.6,0,0,1-.37-0.25,2.3,2.3,0,0,1-.31-0.64l-0.54-1.59-0.45.16-0.13-.39,0.45-.16-0.32-.93,0.47-.16,0.31,0.93,1-.35,0.13,0.39-1,.35L44.7,17a3.75,3.75,0,0,0,.2.5,0.44,0.44,0,0,0,.22.22,0.48,0.48,0,0,0,.34,0L46,17.46l0.16,0.36a5.28,5.28,0,0,1-.65.3A1.1,1.1,0,0,1,45,18.17Z"/>
  <path class="cls-4" d="M48.91,16.94a1,1,0,0,1-.55-0.42,3.43,3.43,0,0,1-.4-1.88A1,1,0,0,1,48.3,14,2.15,2.15,0,0,1,50,13.66a1,1,0,0,1,.56.43,2.78,2.78,0,0,1,.34.92,2.74,2.74,0,0,1,.07,1,1,1,0,0,1-.32.61,1.8,1.8,0,0,1-.83.35A1.82,1.82,0,0,1,48.91,16.94Zm1.31-.65a0.64,0.64,0,0,0,.18-0.42,2.76,2.76,0,0,0,0-.74,2.83,2.83,0,0,0-.24-0.74,0.63,0.63,0,0,0-.35-0.31,1.09,1.09,0,0,0-.57,0,1.13,1.13,0,0,0-.52.23,0.65,0.65,0,0,0-.19.43,3.52,3.52,0,0,0,.31,1.47,0.62,0.62,0,0,0,.35.31,1.13,1.13,0,0,0,.59,0,1.1,1.1,0,0,0,.48-0.24h0Z"/>
  <path class="cls-4" d="M53.56,13h0.5v0.22a2.48,2.48,0,0,1,.53-0.27,2.12,2.12,0,0,1,.52-0.11,1.21,1.21,0,0,1,.67.1,0.83,0.83,0,0,1,.37.46,3.45,3.45,0,0,1,.17.92L56.46,16H56l-0.13-1.66a3.24,3.24,0,0,0-.11-0.69,0.59,0.59,0,0,0-.23-0.33A0.72,0.72,0,0,0,55,13.22a2,2,0,0,0-.46.09,1.91,1.91,0,0,0-.37.16l-0.12.07,0.21,2.59H53.79Z"/>
  <path class="cls-4" d="M63.23,16a1.28,1.28,0,0,1-.41-0.83,5.94,5.94,0,0,1,.36-2.54A1.3,1.3,0,0,1,63.79,12a1.91,1.91,0,0,1,1.09-.1,6.63,6.63,0,0,1,1.23.31L66,12.64a7,7,0,0,0-1.14-.27,1.42,1.42,0,0,0-.83.07,0.92,0.92,0,0,0-.44.52,5.15,5.15,0,0,0-.26,1.13,4.47,4.47,0,0,0,0,1,0.9,0.9,0,0,0,.29.6,1.56,1.56,0,0,0,.83.31,6.45,6.45,0,0,0,1.11,0v0.42a6.49,6.49,0,0,1-1.23,0A2,2,0,0,1,63.23,16Z"/>
  <path class="cls-4" d="M69.3,12.69l0.48,0.13-0.42,1.52a3.09,3.09,0,0,1,.57,0,2.24,2.24,0,0,1,.51.08,1.26,1.26,0,0,1,.61.32,0.83,0.83,0,0,1,.19.56,3.53,3.53,0,0,1-.16.93l-0.46,1.66-0.48-.13,0.45-1.62a3.36,3.36,0,0,0,.14-0.7A0.53,0.53,0,0,0,70.62,15a0.87,0.87,0,0,0-.42-0.22,2.44,2.44,0,0,0-.83-0.07H69.23l-0.71,2.54L68,17.16Z"/>
  <path class="cls-4" d="M73.66,18.82a0.83,0.83,0,0,1-.11-0.58,3.77,3.77,0,0,1,.29-0.91L74.5,15.8,75,16l-0.65,1.52a3.57,3.57,0,0,0-.23.69,0.55,0.55,0,0,0,0,.4,0.75,0.75,0,0,0,.36.27,2.1,2.1,0,0,0,1,.16l1-2.39,0.46,0.2-1.26,2.94-0.46-.2,0.09-.21a2.48,2.48,0,0,1-.56,0,2,2,0,0,1-.52-0.15A1.22,1.22,0,0,1,73.66,18.82Z"/>
  <path class="cls-4" d="M79.79,18.33l0.43,0.25L80,18.95a3.45,3.45,0,0,1,1.32.18l-0.24.42a4.14,4.14,0,0,0-.57-0.15A4.38,4.38,0,0,0,80,19.33H79.79l-1.18,2-0.44-.25Z"/>
  <path class="cls-4" d="M82.07,23.41a0.94,0.94,0,0,1,0-.68,3,3,0,0,1,.47-0.83,2.38,2.38,0,0,1,.94-0.83,1.1,1.1,0,0,1,1.11.25l0.32,0.26c0.11,0.1.25,0.23,0.42,0.41l-0.25.31a8.08,8.08,0,0,0-.62-0.53,1.23,1.23,0,0,0-.54-0.26,0.62,0.62,0,0,0-.46.13,2.69,2.69,0,0,0-.51.56,2.57,2.57,0,0,0-.36.63,0.63,0.63,0,0,0,0,.48,1.29,1.29,0,0,0,.42.46l0.67,0.42-0.22.33a7.94,7.94,0,0,1-.83-0.5A1.59,1.59,0,0,1,82.07,23.41Z"/>
  <path class="cls-4" d="M88.61,22.92L89,23.26l-1.09,1.14a3.17,3.17,0,0,1,.52.24,2.34,2.34,0,0,1,.41.31,1.26,1.26,0,0,1,.38.57,0.83,0.83,0,0,1-.09.59,3.6,3.6,0,0,1-.57.75l-1.17,1.23L87,27.75l1.16-1.21A3.36,3.36,0,0,0,88.62,26a0.53,0.53,0,0,0,.08-0.4,0.83,0.83,0,0,0-.27-0.4,2.4,2.4,0,0,0-.68-0.45l-0.12-.06-1.82,1.91-0.36-.35Z"/>
  <path class="cls-4" d="M91.7,28.1L92,28.48l-2.44,2.06-0.32-.38Zm1-.83L93,27.65,92.58,28l-0.32-.38Z"/>
  <path class="cls-4" d="M95.1,30.19l0.29,0.41-3.74,2.66-0.29-.41Z"/>
  <path class="cls-4" d="M97.24,33.42l0.26,0.43-4,2.34-0.26-.43Z"/>
  <path class="cls-4" d="M96.68,37.82l0.83,1.84-0.41.19L96.27,38Z"/>
  <path class="cls-4" d="M96.89,43.23V43l0.39-.06a7.33,7.33,0,0,0,.26,1.28,1.1,1.1,0,0,0,.48.67,0.94,0.94,0,0,0,.78,0,0.83,0.83,0,0,0,.56-0.42,1.06,1.06,0,0,0,0-.73,2.21,2.21,0,0,0-.21-0.45,2.4,2.4,0,0,0-.26-0.36l-0.1-.12,0-.36,2.13-.55,0.78,2.49-0.43.13-0.68-2.08-1.35.3a2.28,2.28,0,0,1,.56.91A1.18,1.18,0,0,1,99,45.39a1.46,1.46,0,0,1-1.16,0,1.49,1.49,0,0,1-.7-0.93A6.07,6.07,0,0,1,96.89,43.23Z"/>
  <path class="cls-4" d="M29.34,88.46l-3.06,3.2-0.37-.35,1.38-1.45L25.58,88.2,24.2,89.68l-0.37-.36,3.06-3.2,0.37,0.36-1.37,1.43,1.71,1.66L29,88.14Z"/>
  <path class="cls-4" d="M31.16,93.17l0.3-2.95,0.47,0.34-0.27,2.35,2.15-1,0.47,0.34-2.69,1.22L30.49,95l-0.41-.34Z"/>
  <path class="cls-4" d="M38.95,95.26a1.41,1.41,0,0,1,.1.89,4,4,0,0,1-.38,1,3,3,0,0,1-1.19,1.37,1.52,1.52,0,0,1-1.41-.12l-1.43-.78,2.06-3.91,1.47,0.77A1.73,1.73,0,0,1,38.95,95.26Zm-0.77,1.66a2.3,2.3,0,0,0,.36-1.28,1,1,0,0,0-.6-0.78l-1-.53-1.66,3.14,1,0.53q1,0.58,1.91-1.05v0Z"/>
  <path class="cls-4" d="M42.47,96.51l1.66,0.57a1.66,1.66,0,0,1,.94.69,1.3,1.3,0,0,1,0,1.08,1.18,1.18,0,0,1-1.23.93l0.24,2-0.54-.19L43.3,99.69l-1.24-.44-0.57,1.6L41,100.68Zm0.83,2.74a0.93,0.93,0,1,0,.62-1.76l-1.13-.41-0.62,1.76Z"/>
  <path class="cls-4" d="M50.14,102.1l-1.95-.4-0.56,1.05-0.5-.1,2.13-4.08,1.1,0.22,0.36,4.59-0.5-.1Zm-1.75-.83,1.72,0.35-0.21-2.49-0.34-.07Z"/>
  <path class="cls-4" d="M64.6,102.46l-2,.21-0.22,1.17-0.51.06,0.83-4.54,1.12-.12,1.74,4.27-0.51.06Zm-1.91-.24,1.75-.19-1-2.34H63.14Z"/>
  <path class="cls-4" d="M69.32,102.58a1.28,1.28,0,0,1-.68-0.6,4.76,4.76,0,0,1-.44-1.22A4.69,4.69,0,0,1,68,99.49a1.28,1.28,0,0,1,.32-0.83,1.9,1.9,0,0,1,1-.5A6.56,6.56,0,0,1,70.59,98l0.07,0.41a7.16,7.16,0,0,0-1.16.17,1.44,1.44,0,0,0-.73.36,0.91,0.91,0,0,0-.22.65,5.07,5.07,0,0,0,.17,1.14,4.39,4.39,0,0,0,.33,1,0.89,0.89,0,0,0,.49.46,1.55,1.55,0,0,0,.87,0,6.3,6.3,0,0,0,1-.37l0.12,0.41a6.44,6.44,0,0,1-1.15.41A2,2,0,0,1,69.32,102.58Z"/>
  <path class="cls-4" d="M76.88,99.19L75,99.92l0.11,1.18-0.47.18L74.24,96.7l1.05-.41,2.8,3.65-0.47.18ZM75,99.47l1.66-.64-1.54-2L74.77,97Z"/>
  <path class="cls-4" d="M81.57,93.48a1.41,1.41,0,0,1,.83.4,3.92,3.92,0,0,1,.64.83,2.94,2.94,0,0,1,.51,1.75,1.52,1.52,0,0,1-.83,1.12l-1.44.83-2.19-3.84,1.44-.83A1.74,1.74,0,0,1,81.57,93.48Zm1,1.56a2.29,2.29,0,0,0-.89-1,1,1,0,0,0-1,.09l-1,.56,1.76,3.09,1-.56q1.06-.59.13-2.19h0Z"/>
  <path class="cls-4" d="M85.16,91.19L86.1,92.4l1.51-1.16,0.27,0.34-1.51,1.17,1,1.27,1.82-1.41L89.43,93l-2.24,1.72-2.7-3.5,2.24-1.72L87,89.8Z"/>
  <path class="cls-4" d="M92.14,84.2l3.21,3L95,87.62l-2.82-2.68L92.1,85l1.79,3.55L93.5,89l-3.64-1.6-0.07.07,2.83,2.68-0.36.37-3.21-3,0.64-.68,3.62,1.66L91.5,84.9Z"/>
  <path class="cls-4" d="M96.76,82.29L93.81,82l0.33-.48L96.5,81.8l-1-2.13,0.33-.48L97,81.86l1.53,1.06-0.3.42Z"/>
  <polygon class="cls-4" points="15.83 53.92 18.22 54.67 16.18 56.11 16.21 58.6 14.21 57.11 11.85 57.92 12.65 55.55 11.16 53.55 13.65 53.58 15.1 51.54 15.83 53.92"/>
  <polygon class="cls-4" points="103.67 53.92 106.05 54.67 104.02 56.11 104.05 58.6 102.04 57.11 99.68 57.92 100.49 55.55 98.99 53.55 101.49 53.58 102.93 51.54 103.67 53.92"/>
  <path class="cls-1" d="M86.82,66.36c0-.27.09-0.56,0.12-0.83h0a10.77,10.77,0,0,0-.45-6.85c-2.49-6-8.52-8.39-13.19-7.12a11.47,11.47,0,0,0-8.06,6.88,12,12,0,0,0,0,9.11,10.77,10.77,0,0,0,2.14,3.31S65.44,61,71.45,57.37a7.7,7.7,0,0,1,6.86-.75,7.54,7.54,0,0,1,4.41,7.46l-0.1,1.14c-0.15.56-.27,0.89-0.27,0.89-0.24.83-.94,2-2.95,3.89A8.21,8.21,0,0,0,82,72l-1.14-1.34,1,0.28-0.76-1L83.69,68l0.73,0.1-0.21,3.42-0.89.1,0.83,0.7H82.71l1.9,0.74,1.45-4.14a6,6,0,0,0,3.4-5.11S88.14,66.07,86.82,66.36Z"/>
  <path class="cls-1" d="M52,58.43a11.47,11.47,0,0,0-8.06-6.88c-4.67-1.27-10.72,1.13-13.19,7.12a10.77,10.77,0,0,0-.45,6.85h0a4.54,4.54,0,0,0,.12.83c-1.28-.29-2.64-2.49-2.64-2.49A6,6,0,0,0,31.15,69l1.45,4.14,1.9-.74H33.06l0.83-.7L33,71.58l-0.17-3.44L33.55,68l2.61,1.85-0.76,1,1-.28L35.22,72a8.21,8.21,0,0,0,2.62-2c-2-1.91-2.71-3.09-2.95-3.89,0,0-.12-0.34-0.27-0.89l-0.1-1.14a7.54,7.54,0,0,1,4.41-7.46,7.7,7.7,0,0,1,6.86.75c6,3.62,4.07,13.49,4.07,13.49A10.77,10.77,0,0,0,52,67.55,12,12,0,0,0,52,58.43Z"/>
  <path class="cls-3" d="M61.87,63.42c-3.08-12-6.63-12.86-8.72-19.42-0.41-1.3-1.66-8.14,5.24-8.14C62.7,36,63.93,40,64.24,43a10.92,10.92,0,0,1-2.06-4.87c-1.19,2.49.71,6.22,0.71,6.22s-1.93-1.16-2.6-.89a10.93,10.93,0,0,1,1.95,4.09l-0.62,1A3.64,3.64,0,0,1,62.77,51c0.3,3.64,1.86,4,1.86,4s1.6-.15,2.36-3.72a3.64,3.64,0,0,1,1.47-2.35l-0.5-1A10.93,10.93,0,0,1,70.46,44c-0.63-.35-2.69.55-2.69,0.55s2.37-3.45,1.52-6.08a12.07,12.07,0,0,1-2.2,4.14,15.26,15.26,0,0,0,.22-1.6C67.76,35,63,30.74,57,31.45a9.94,9.94,0,0,0-6.58,3.26C43.51,43.05,54.24,48,55.47,61.64c0.66,7.36-5.94,10.72-12,13.25,12.43,0.51,15.37,8.56,15.37,8.56S61.9,75.32,74.18,75C70.2,73.94,64.15,72.28,61.87,63.42Zm2.29-15.56-1.34-.48V46.56l1.33,1Zm3.25-.17L66,48V47.72l1.44-.83Z"/>
</svg>
