<svg id="Layer_1" data-name="Layer 1" xmlns="http://www.w3.org/2000/svg" viewBox="0 0 116.67 116.67"><defs><style>.cls-1{fill:#5f93cc;}.cls-2{fill:#2c3d4f;}.cls-3{fill:#fff;}</style></defs><title>SuttonDistrict-1</title><circle class="cls-1" cx="58.33" cy="58.33" r="53.33"/><path class="cls-2" d="M508,299.57a58.33,58.33,0,1,1,58.33-58.33A58.4,58.4,0,0,1,508,299.57Zm0-106.67a48.33,48.33,0,1,0,48.33,48.33A48.39,48.39,0,0,0,508,192.91Z" transform="translate(-449.65 -182.91)"/><path class="cls-3" d="M544.74,237.39a2.2,2.2,0,0,0-2-2.18v0H529.21a5.61,5.61,0,0,0-.6,0h-0.08a6.21,6.21,0,0,0-3.82,1.75c-2.39,2.21-2.13,4.21-2.13,7.18v9a2.63,2.63,0,0,1-.23,1.13,2.56,2.56,0,0,1-2.09,1.43,2.41,2.41,0,0,1-2.47-2.2L518,223c0-2.73-.88-3.82-2.71-5.42a7,7,0,0,0-3.23-1.37l-0.84-16.38-0.84,16.39a7.65,7.65,0,0,0-2.23.74c-3.55,2.24-3.91,4.7-3.91,8v36.83a2.45,2.45,0,0,1-2.36,2.73,2.35,2.35,0,0,1-2.29-1.84,3.39,3.39,0,0,1-.09-0.84V234a7.09,7.09,0,0,0-.8-2.91,6.52,6.52,0,0,0-4.55-3.43,6.82,6.82,0,0,0-5.57,1.32,7.62,7.62,0,0,0-2.61,6.19V251a2.5,2.5,0,0,1-2.51,2.5H480l-6.27,0h-0.07a2.46,2.46,0,1,0,.46,4.88l5.77,0.13h0.38l3.34,0.07h0a6,6,0,0,0,4.47-1.71,8.91,8.91,0,0,0,2.22-6V234.39a2.43,2.43,0,0,1,.87-1.79,2.33,2.33,0,0,1,2.4-.37,2.39,2.39,0,0,1,1.46,1.82V260.5c0,2.42-.12,3.81,1.18,5.59a6.66,6.66,0,0,0,5.37,2.82h0.12a6.59,6.59,0,0,0,4.91-2.21,7.25,7.25,0,0,0,2.14-5.79c0-1,0-2.06,0-3.09l1.08-29h-1L506.56,225l2.31-3.84h1.31l0.18-4.91H512l0.25,4.91h1.19l2.31,3.84-2.31,3.84h-0.79L514,254.05a6.42,6.42,0,0,0,4.88,5.94h0.06a6.12,6.12,0,0,0,5.1-1.34c1.93-1.6,2.87-2.75,3-5.74V242.11a2.49,2.49,0,0,1,1.55-2.47h14.25v-0.06A2.2,2.2,0,0,0,544.74,237.39Z" transform="translate(-449.65 -182.91)"/><polygon class="cls-3" points="7.02 53.01 9.9 53.91 7.44 55.65 7.48 58.66 5.06 56.86 2.21 57.83 3.18 54.97 1.38 52.56 4.39 52.59 6.13 50.13 7.02 53.01"/><polygon class="cls-3" points="113.05 53.01 115.93 53.91 113.47 55.65 113.51 58.66 111.09 56.86 108.24 57.83 109.21 54.97 107.4 52.56 110.42 52.59 112.16 50.13 113.05 53.01"/><path class="cls-3" d="M467,211.49l-0.2.21-0.36-.34a14.77,14.77,0,0,0,1.1-1.27,1,1,0,0,0-.16-1.6,0.85,0.85,0,0,0-.44-0.19,0.78,0.78,0,0,0-.44.14,4.07,4.07,0,0,0-.61.5,4.81,4.81,0,0,1-.85.66,1.17,1.17,0,0,1-.69.17,1.48,1.48,0,0,1-.72-0.31q-1.16-.85-0.1-2.3a12.4,12.4,0,0,1,1.12-1.28l0.37,0.34q-0.79.86-1,1.21-0.72,1,0,1.5a0.91,0.91,0,0,0,.48.2,0.82,0.82,0,0,0,.46-0.16,6.82,6.82,0,0,0,.72-0.58,4.12,4.12,0,0,1,.78-0.58,1.09,1.09,0,0,1,.63-0.14,1.42,1.42,0,0,1,.66.29,1.52,1.52,0,0,1,.27,2.42A11.08,11.08,0,0,1,467,211.49Z" transform="translate(-449.65 -182.91)"/><path class="cls-3" d="M471.32,206a1,1,0,0,1-.7-0.13,4.59,4.59,0,0,1-.91-0.71l-1.45-1.4,0.42-.44,1.45,1.39a4.3,4.3,0,0,0,.67.56,0.67,0.67,0,0,0,.46.12,0.89,0.89,0,0,0,.45-0.29,2.56,2.56,0,0,0,.58-1L470,201.92l0.42-.44,2.78,2.67-0.42.44-0.2-.19a2.84,2.84,0,0,1-.23.63,2.37,2.37,0,0,1-.39.52A1.46,1.46,0,0,1,471.32,206Z" transform="translate(-449.65 -182.91)"/><path class="cls-3" d="M476.25,201.43a0.73,0.73,0,0,1-.53-0.12,2.82,2.82,0,0,1-.62-0.6l-1.29-1.57-0.44.36-0.32-.39,0.44-.37-0.75-.91,0.46-.38,0.75,0.91,1-.82,0.32,0.39-1,.82,1.17,1.43a4.54,4.54,0,0,0,.43.48,0.52,0.52,0,0,0,.33.15,0.59,0.59,0,0,0,.37-0.16l0.53-.49,0.33,0.35a6.37,6.37,0,0,1-.62.61A1.35,1.35,0,0,1,476.25,201.43Z" transform="translate(-449.65 -182.91)"/><path class="cls-3" d="M480.37,198.37a0.72,0.72,0,0,1-.51-0.18,2.83,2.83,0,0,1-.56-0.66l-1.12-1.69-0.48.32-0.28-.42,0.48-.32-0.65-1,0.5-.33,0.65,1,1.07-.71,0.28,0.42-1.07.71,1,1.54a4.47,4.47,0,0,0,.38.52,0.52,0.52,0,0,0,.31.18,0.58,0.58,0,0,0,.39-0.12l0.58-.44,0.3,0.38a6.76,6.76,0,0,1-.68.55A1.34,1.34,0,0,1,480.37,198.37Z" transform="translate(-449.65 -182.91)"/><path class="cls-3" d="M484.6,195.74a1.15,1.15,0,0,1-.77-0.33,3.29,3.29,0,0,1-.66-0.95,3.35,3.35,0,0,1-.38-1.13,1.18,1.18,0,0,1,.2-0.83,2.14,2.14,0,0,1,.81-0.64,2.11,2.11,0,0,1,1-.27,1.22,1.22,0,0,1,.78.33,4.13,4.13,0,0,1,1,2.07,1.16,1.16,0,0,1-.19.81A2.7,2.7,0,0,1,484.6,195.74Zm1.34-1.16A0.76,0.76,0,0,0,486,194a3.26,3.26,0,0,0-.31-0.83,3.39,3.39,0,0,0-.5-0.78,0.76,0.76,0,0,0-.5-0.26,1.7,1.7,0,0,0-1.2.61,0.77,0.77,0,0,0-.1.57,3.28,3.28,0,0,0,.33.87,3.24,3.24,0,0,0,.48.75,0.76,0.76,0,0,0,.5.26,1.36,1.36,0,0,0,.68-0.18A1.33,1.33,0,0,0,485.93,194.57Z" transform="translate(-449.65 -182.91)"/><path class="cls-3" d="M488.87,189.7l0.57-.2,0.09,0.25a3.08,3.08,0,0,1,.54-0.47,2.6,2.6,0,0,1,.58-0.28,1.46,1.46,0,0,1,.82-0.09,1,1,0,0,1,.57.43,4.31,4.31,0,0,1,.48,1l0.66,1.93-0.57.2-0.66-1.91a3.85,3.85,0,0,0-.34-0.77,0.7,0.7,0,0,0-.37-0.32,0.86,0.86,0,0,0-.53,0,2.57,2.57,0,0,0-.51.25,2.28,2.28,0,0,0-.39.29l-0.12.12,1,3-0.57.2Z" transform="translate(-449.65 -182.91)"/><path class="cls-3" d="M503.29,185.32a1.69,1.69,0,0,1,.7.83,4.77,4.77,0,0,1,.29,1.26,3.56,3.56,0,0,1-.28,2.18,1.83,1.83,0,0,1-1.49.83l-2,.21L500,185.31l2-.21A2.1,2.1,0,0,1,503.29,185.32Zm0.36,2.21a2.79,2.79,0,0,0-.51-1.53,1.24,1.24,0,0,0-1.13-.38l-1.37.15,0.45,4.27,1.37-.15Q503.89,189.74,503.65,187.53Z" transform="translate(-449.65 -182.91)"/><path class="cls-3" d="M507.92,186.29h0.6l0,3.86h-0.6Zm0-1.54h0.6v0.67h-0.6v-0.67Z" transform="translate(-449.65 -182.91)"/><path class="cls-3" d="M512,190.3l-0.24-.07,0.09-.49a11.15,11.15,0,0,0,1.37.29A1.4,1.4,0,0,0,514,190a0.53,0.53,0,0,0,.29-0.45,0.5,0.5,0,0,0-.08-0.37,0.66,0.66,0,0,0-.28-0.21,3.87,3.87,0,0,0-.5-0.16l-0.2-.05a3.88,3.88,0,0,1-.73-0.27,0.87,0.87,0,0,1-.37-0.35,1,1,0,0,1-.07-0.56,1,1,0,0,1,.5-0.84,2,2,0,0,1,1.15-.13,7.3,7.3,0,0,1,1.15.23l0.22,0.07-0.07.49a10.39,10.39,0,0,0-1.35-.28,1.4,1.4,0,0,0-.71.06,0.47,0.47,0,0,0-.28.4,0.44,0.44,0,0,0,.08.33,0.65,0.65,0,0,0,.27.19l0.5,0.16,0.2,0.06a3.85,3.85,0,0,1,.75.29,0.84,0.84,0,0,1,.37.36,1.08,1.08,0,0,1,.07.59,1.07,1.07,0,0,1-.49.86,2,2,0,0,1-1.2.15A8.27,8.27,0,0,1,512,190.3Z" transform="translate(-449.65 -182.91)"/><path class="cls-3" d="M518.52,191.33a0.72,0.72,0,0,1-.23-0.49,2.8,2.8,0,0,1,.09-0.85l0.46-2-0.56-.13,0.11-.49,0.56,0.13,0.27-1.15,0.58,0.13-0.26,1.15,1.25,0.29-0.11.49-1.25-.29-0.41,1.8a4.46,4.46,0,0,0-.11.63,0.52,0.52,0,0,0,.08.35,0.58,0.58,0,0,0,.36.2l0.71,0.12-0.07.48a6.35,6.35,0,0,1-.86-0.11A1.33,1.33,0,0,1,518.52,191.33Z" transform="translate(-449.65 -182.91)"/><path class="cls-3" d="M524.09,188.9l0.57,0.19-0.17.5a4.13,4.13,0,0,1,1.6-.1l-0.19.55a5.21,5.21,0,0,0-.71,0,5.54,5.54,0,0,0-.63,0l-0.22,0-0.92,2.68-0.58-.2Z" transform="translate(-449.65 -182.91)"/><path class="cls-3" d="M529.2,190.86l0.55,0.25-1.59,3.52-0.55-.25Zm0.63-1.41,0.55,0.25-0.28.61-0.55-.25Z" transform="translate(-449.65 -182.91)"/><path class="cls-3" d="M531.69,196.27a1.16,1.16,0,0,1-.12-0.81,3.63,3.63,0,0,1,.45-1.08,2.88,2.88,0,0,1,1-1.11,1.34,1.34,0,0,1,1.36.15l0.42,0.27q0.21,0.15.56,0.44l-0.26.4q-0.52-.38-0.81-0.55a1.49,1.49,0,0,0-.68-0.24,0.74,0.74,0,0,0-.53.22,3.18,3.18,0,0,0-.54.74,3.08,3.08,0,0,0-.35.81,0.75,0.75,0,0,0,.08.57,1.53,1.53,0,0,0,.57.49L533.7,197l-0.22.43a9.18,9.18,0,0,1-1.06-.49A1.94,1.94,0,0,1,531.69,196.27Z" transform="translate(-449.65 -182.91)"/><path class="cls-3" d="M536.65,199.56a0.73,0.73,0,0,1,0-.54,2.82,2.82,0,0,1,.42-0.75l1.2-1.63-0.46-.34,0.3-.4,0.46,0.34,0.7-1,0.48,0.36-0.7,1,1,0.76-0.3.4-1-.76-1.09,1.49a4.62,4.62,0,0,0-.36.54,0.52,0.52,0,0,0-.06.35,0.57,0.57,0,0,0,.25.32l0.61,0.39-0.25.41a6.48,6.48,0,0,1-.75-0.45A1.35,1.35,0,0,1,536.65,199.56Z" transform="translate(-449.65 -182.91)"/><path class="cls-3" d="M544.83,203.58l1.65,1.81-0.4.36-1.65-1.81Z" transform="translate(-449.65 -182.91)"/><path class="cls-3" d="M551.59,208.64l-1.5-.63,0.2-.49,1.86,0.77,0.34,0.48-4.17,2.94L548,211.2Z" transform="translate(-449.65 -182.91)"/><path class="cls-3" d="M469.87,275.77l-1.22-1.21,0.38-.38L471.9,277l-0.37.38-1.21-1.2-3.39,3.42-0.44-.43Z" transform="translate(-449.65 -182.91)"/><path class="cls-3" d="M474.65,280l-1.12,1.47,1.83,1.39-0.31.41-1.83-1.39L472,283.43l2.21,1.69-0.32.42-2.71-2.07,3.24-4.25,2.71,2.07-0.32.42Z" transform="translate(-449.65 -182.91)"/><path class="cls-3" d="M485,285.91l-2.55,4.69-0.55-.3,2.25-4.14-0.1-.05-3.59,3.19-0.61-.33,0.73-4.75-0.1-.05-2.25,4.14-0.55-.3,2.55-4.69,1,0.54-0.77,4.73,3.56-3.22Z" transform="translate(-449.65 -182.91)"/><path class="cls-3" d="M488.57,287.44l1.93,0.69a1.89,1.89,0,0,1,1.13.85,1.73,1.73,0,0,1,0,1.37,1.6,1.6,0,0,1-2.3,1.12L488,291l-0.6,1.7-0.59-.21Zm0.91,3.53a1.09,1.09,0,0,0,1.52-.83,1.27,1.27,0,0,0,0-1,1.18,1.18,0,0,0-.74-0.56l-1.33-.47-0.84,2.35Z" transform="translate(-449.65 -182.91)"/><path class="cls-3" d="M495.18,294.81a1.57,1.57,0,0,1-.51-1,6,6,0,0,1,.62-3.07,1.65,1.65,0,0,1,.86-0.75,3,3,0,0,1,2.55.51,1.66,1.66,0,0,1,.51,1,6,6,0,0,1-.62,3.09,1.54,1.54,0,0,1-.84.71,2.63,2.63,0,0,1-1.34,0A2.6,2.6,0,0,1,495.18,294.81Zm2.32,0a1.17,1.17,0,0,0,.6-0.58,4.76,4.76,0,0,0,.39-1.23,4.89,4.89,0,0,0,.12-1.31,1.27,1.27,0,0,0-.33-0.8,1.64,1.64,0,0,0-.88-0.42,1.67,1.67,0,0,0-1,0,1.25,1.25,0,0,0-.61.61,6.1,6.1,0,0,0-.51,2.53,1.18,1.18,0,0,0,.33.78,1.78,1.78,0,0,0,.9.4A1.76,1.76,0,0,0,497.49,294.81Z" transform="translate(-449.65 -182.91)"/><path class="cls-3" d="M515.61,294.53l-2.38.27L513,296.21l-0.61.07,0.92-5.48,1.35-.15,2.13,5.13-0.61.07Zm-2.3-.27,2.11-.24-1.18-2.81-0.42,0Z" transform="translate(-449.65 -182.91)"/><path class="cls-3" d="M521.29,294.65a1.55,1.55,0,0,1-.83-0.71,7.18,7.18,0,0,1-.75-3,1.57,1.57,0,0,1,.38-1,2.31,2.31,0,0,1,1.18-.61,7.86,7.86,0,0,1,1.51-.2l0.1,0.49a8.55,8.55,0,0,0-1.4.21,1.73,1.73,0,0,0-.87.44,1.11,1.11,0,0,0-.26.78,6.25,6.25,0,0,0,.22,1.38,5.38,5.38,0,0,0,.41,1.17,1.08,1.08,0,0,0,.6.54,1.86,1.86,0,0,0,1.05,0,7.72,7.72,0,0,0,1.26-.46l0.15,0.49a7.93,7.93,0,0,1-1.39.51A2.4,2.4,0,0,1,521.29,294.65Z" transform="translate(-449.65 -182.91)"/><path class="cls-3" d="M530.4,290.49l-2.22.89,0.13,1.43-0.57.23-0.56-5.53,1.26-.51,3.41,4.39-0.57.23Zm-2.29.34,2-.79-1.88-2.4-0.39.16Z" transform="translate(-449.65 -182.91)"/><path class="cls-3" d="M536,283.54a1.71,1.71,0,0,1,1,.48,4.72,4.72,0,0,1,.78,1,3.57,3.57,0,0,1,.63,2.1,1.84,1.84,0,0,1-1,1.36l-1.73,1L533,284.89l1.73-1A2.09,2.09,0,0,1,536,283.54Zm1.23,1.88a2.78,2.78,0,0,0-1.09-1.19,1.24,1.24,0,0,0-1.19.12l-1.19.69,2.15,3.72,1.19-.69Q538.35,287.34,537.24,285.42Z" transform="translate(-449.65 -182.91)"/><path class="cls-3" d="M540.39,280.75l1.14,1.45,1.81-1.42,0.32,0.41-1.81,1.42,1.19,1.52,2.19-1.72,0.33,0.41-2.68,2.1-3.3-4.2,2.68-2.1,0.32,0.41Z" transform="translate(-449.65 -182.91)"/><path class="cls-3" d="M548.68,272.25l3.9,3.65-0.43.46-3.44-3.22-0.08.08,2.18,4.27-0.48.51-4.41-1.9-0.08.08,3.44,3.22-0.43.46-3.9-3.65,0.77-.82,4.39,1.93-2.22-4.25Z" transform="translate(-449.65 -182.91)"/><path class="cls-3" d="M554.29,269.9l-3.56-.27,0.4-.58,2.85,0.27-1.28-2.56,0.4-.58,1.55,3.22,1.85,1.27-0.35.51Z" transform="translate(-449.65 -182.91)"/></svg>