<svg id="Layer_1" data-name="Layer 1" xmlns="http://www.w3.org/2000/svg" viewBox="0 0 116.65 116.65">
  <defs>
    <style>
      .cls-1 {
        fill: #5f93cc;
      }

      .cls-2 {
        fill: #2c3d4f;
      }

      .cls-3 {
        fill: #fff;
      }
    </style>
  </defs>
  <title>SuttonDistrict-1-icon2</title>
  <rect class="cls-1" width="116.65" height="116.65"/>
  <circle class="cls-1" cx="58.31" cy="58.33" r="44.2"/>
  <path class="cls-2" d="M58.35,106.67a48.34,48.34,0,1,1,48.34-48.34A48.34,48.34,0,0,1,58.35,106.67Zm0-88.4A40.05,40.05,0,1,0,98.4,58.32,40.05,40.05,0,0,0,58.35,18.27h0Z" transform="translate(-0.02)"/>
  <path class="cls-3" d="M88.8,55.14a1.82,1.82,0,0,0-1.66-1.81H75.36a5.15,5.15,0,0,0-3.17,1.45c-2,1.83-1.77,3.49-1.77,6v7.46a2.18,2.18,0,0,1-.19.94,2.12,2.12,0,0,1-1.73,1.19,2,2,0,0,1-2-1.82l0.17-25.28c0-2.26-.73-3.17-2.25-4.49a5.8,5.8,0,0,0-2.68-1.14L61,24,60.32,37.6a6.34,6.34,0,0,0-1.85.61c-2.94,1.86-3.24,3.9-3.24,6.63V75.36a2,2,0,0,1-1.78,2.25H53.28a2,2,0,0,1-1.9-1.52,2.81,2.81,0,0,1-.07-0.7V52.33a5.88,5.88,0,0,0-.66-2.41,5.4,5.4,0,0,0-3.77-2.84,5.65,5.65,0,0,0-4.62,1.09,6.31,6.31,0,0,0-2.16,5.13V66.42A2.07,2.07,0,0,1,38,68.49H29.89a2,2,0,1,0,.38,4l4.78,0.11h0.31l2.77,0.06h0a5,5,0,0,0,3.7-1.42,7.38,7.38,0,0,0,1.84-5V52.65a2,2,0,0,1,.72-1.48,1.93,1.93,0,0,1,2-.31,2,2,0,0,1,1.21,1.51V74.29c0,2-.1,3.16,1,4.63A5.52,5.52,0,0,0,53,81.26h0.1a5.46,5.46,0,0,0,4.07-1.83A6,6,0,0,0,59,74.63V72.07l0.9-24H59l-1.88-3.17,1.91-3.18h1.09l0.15-4.07h1.36l0.21,4.07h1l1.91,3.18-1.91,3.18H62.2l1.12,20.89a5.32,5.32,0,0,0,4,4.92h0a5.07,5.07,0,0,0,4.23-1.11A5.51,5.51,0,0,0,74.13,68v-9a2.06,2.06,0,0,1,1.28-2H87.22v0A1.82,1.82,0,0,0,88.8,55.14Z" transform="translate(-0.02)"/>
  <polygon class="cls-3" points="15.79 53.92 18.18 54.67 16.14 56.11 16.17 58.6 14.17 57.11 11.8 57.92 12.61 55.55 11.12 53.55 13.61 53.57 15.05 51.53 15.79 53.92"/>
  <polygon class="cls-3" points="103.66 53.92 106.05 54.67 104.01 56.11 104.04 58.6 102.04 57.11 99.67 57.92 100.48 55.55 98.98 53.55 101.48 53.57 102.92 51.53 103.66 53.92"/>
  <path class="cls-3" d="M24.37,33.68l-0.17.17-0.3-.28a12.24,12.24,0,0,0,.91-1.05,0.83,0.83,0,0,0-.13-1.33A0.7,0.7,0,0,0,24.32,31a0.65,0.65,0,0,0-.36.12,3.37,3.37,0,0,0-.51.41,4,4,0,0,1-.7.55,1,1,0,0,1-.57.14,1.23,1.23,0,0,1-.6-0.26q-1-.7-0.08-1.91A10.28,10.28,0,0,1,22.42,29l0.31,0.28a7.88,7.88,0,0,0-.83,1q-0.6.83,0,1.24a0.75,0.75,0,0,0,.4.17,0.68,0.68,0,0,0,.38-0.13,5.65,5.65,0,0,0,.6-0.48,3.41,3.41,0,0,1,.65-0.48,0.9,0.9,0,0,1,.52-0.12,1.18,1.18,0,0,1,.55.24,1.26,1.26,0,0,1,.22,2A9.18,9.18,0,0,1,24.37,33.68Z" transform="translate(-0.02)"/>
  <path class="cls-3" d="M28,29.13A0.83,0.83,0,0,1,27.37,29a3.8,3.8,0,0,1-.75-0.59l-1.2-1.16,0.35-.36L27,28.06a3.56,3.56,0,0,0,.56.46,0.56,0.56,0,0,0,.38.1,0.74,0.74,0,0,0,.37-0.24,2.12,2.12,0,0,0,.48-0.83l-1.9-1.81,0.35-.36,2.3,2.21L29.16,28,29,27.8a2.35,2.35,0,0,1-.19.52,2,2,0,0,1-.32.43A1.21,1.21,0,0,1,28,29.13Z" transform="translate(-0.02)"/>
  <path class="cls-3" d="M32,25.34a0.6,0.6,0,0,1-.44-0.1,2.34,2.34,0,0,1-.51-0.5L30,23.44l-0.36.3-0.27-.32,0.36-.31-0.62-.75L29.51,22l0.62,0.75L31,22.11l0.27,0.32-0.83.68,1,1.19a3.76,3.76,0,0,0,.36.4,0.43,0.43,0,0,0,.27.12,0.49,0.49,0,0,0,.31-0.13l0.44-.41L33,24.58a5.28,5.28,0,0,1-.51.51A1.12,1.12,0,0,1,32,25.34Z" transform="translate(-0.02)"/>
  <path class="cls-3" d="M35.45,22.8A0.6,0.6,0,0,1,35,22.65a2.35,2.35,0,0,1-.46-0.55l-0.93-1.4-0.4.27L33,20.62l0.4-.27-0.54-.83,0.41-.27,0.54,0.83,0.89-.59,0.23,0.35-0.89.59,0.83,1.28a3.71,3.71,0,0,0,.31.43,0.43,0.43,0,0,0,.26.15,0.48,0.48,0,0,0,.32-0.1l0.48-.36,0.25,0.31a5.6,5.6,0,0,1-.56.46A1.11,1.11,0,0,1,35.45,22.8Z" transform="translate(-0.02)"/>
  <path class="cls-3" d="M39,20.62a1,1,0,0,1-.64-0.27,2.73,2.73,0,0,1-.55-0.79,2.78,2.78,0,0,1-.31-0.94,1,1,0,0,1,.17-0.69,1.77,1.77,0,0,1,.67-0.53,1.75,1.75,0,0,1,.83-0.22,1,1,0,0,1,.65.27,3.42,3.42,0,0,1,.83,1.72,1,1,0,0,1-.16.67A2.24,2.24,0,0,1,39,20.62Zm1.11-1a0.63,0.63,0,0,0,0-.48,2.7,2.7,0,0,0-.26-0.69,2.81,2.81,0,0,0-.41-0.65A0.63,0.63,0,0,0,39,17.63a1.41,1.41,0,0,0-1,.51,0.64,0.64,0,0,0-.08.47,2.72,2.72,0,0,0,.27.72,2.69,2.69,0,0,0,.4.62,0.63,0.63,0,0,0,.41.22A1.13,1.13,0,0,0,39.6,20a1.1,1.1,0,0,0,.46-0.36h0Z" transform="translate(-0.02)"/>
  <path class="cls-3" d="M42.5,15.62L43,15.45,43,15.66a2.55,2.55,0,0,1,.45-0.39A2.15,2.15,0,0,1,44,15,1.21,1.21,0,0,1,44.65,15a0.83,0.83,0,0,1,.47.36,3.57,3.57,0,0,1,.4.83l0.55,1.6-0.47.17L45,16.33a3.19,3.19,0,0,0-.28-0.64,0.58,0.58,0,0,0-.31-0.27,0.71,0.71,0,0,0-.44,0,2.13,2.13,0,0,0-.42.21,1.89,1.89,0,0,0-.32.24l-0.1.1L44,18.46l-0.47.17Z" transform="translate(-0.02)"/>
  <path class="cls-3" d="M54.45,12a1.4,1.4,0,0,1,.58.69,4,4,0,0,1,.24,1A3,3,0,0,1,55,15.53a1.52,1.52,0,0,1-1.23.69l-1.66.17L51.72,12l1.66-.17A1.74,1.74,0,0,1,54.45,12Zm0.3,1.83a2.31,2.31,0,0,0-.42-1.27,1,1,0,0,0-.94-0.31l-1.14.12,0.37,3.54,1.14-.12q1.19-.12,1-2h0Z" transform="translate(-0.02)"/>
  <path class="cls-3" d="M58.28,12.79h0.5V16h-0.5v-3.2Zm0-1.28h0.5v0.56h-0.5V11.51Z" transform="translate(-0.02)"/>
  <path class="cls-3" d="M61.66,16.11l-0.2-.06,0.07-.41a9.24,9.24,0,0,0,1.14.24,1.16,1.16,0,0,0,.65,0,0.44,0.44,0,0,0,.24-0.37,0.41,0.41,0,0,0-.07-0.31A0.55,0.55,0,0,0,63.26,15a3.21,3.21,0,0,0-.41-0.13l-0.17,0a3.21,3.21,0,0,1-.6-0.22,0.72,0.72,0,0,1-.31-0.29,1,1,0,0,1,.36-1.16,1.66,1.66,0,0,1,1-.11,6,6,0,0,1,1,.19l0.18,0.06-0.06.41A8.61,8.61,0,0,0,63,13.48a1.16,1.16,0,0,0-.59,0,0.39,0.39,0,0,0-.23.33,0.36,0.36,0,0,0,.07.27,0.54,0.54,0,0,0,.22.16l0.41,0.13,0.17,0a3.19,3.19,0,0,1,.62.24A0.7,0.7,0,0,1,64,15a1.05,1.05,0,0,1-.35,1.2,1.66,1.66,0,0,1-1,.12A6.85,6.85,0,0,1,61.66,16.11Z" transform="translate(-0.02)"/>
  <path class="cls-3" d="M67.07,17a0.6,0.6,0,0,1-.19-0.41,2.32,2.32,0,0,1,.07-0.7l0.38-1.66-0.46-.11L67,13.69l0.46,0.11,0.22-1,0.48,0.11-0.22,1,1,0.24-0.09.41-1-.24L67.48,15.8a3.7,3.7,0,0,0-.09.52,0.43,0.43,0,0,0,.07.29,0.48,0.48,0,0,0,.3.17l0.59,0.1-0.06.4a5.26,5.26,0,0,1-.71-0.09A1.1,1.1,0,0,1,67.07,17Z" transform="translate(-0.02)"/>
  <path class="cls-3" d="M71.68,15l0.47,0.16L72,15.53a3.42,3.42,0,0,1,1.33-.08l-0.16.46a4.32,4.32,0,0,0-.59,0h-0.7l-0.76,2.22L70.65,18Z" transform="translate(-0.02)"/>
  <path class="cls-3" d="M75.92,16.58l0.46,0.21L75.06,19.7,74.6,19.5Zm0.52-1.17,0.46,0.21-0.23.51-0.46-.21Z" transform="translate(-0.02)"/>
  <path class="cls-3" d="M78,21.06a1,1,0,0,1-.1-0.67,3,3,0,0,1,.37-0.9,2.39,2.39,0,0,1,.83-0.92,1.11,1.11,0,0,1,1.13.12l0.35,0.22L81,19.29l-0.22.33q-0.43-.31-0.67-0.46a1.23,1.23,0,0,0-.56-0.2,0.61,0.61,0,0,0-.44.18,2.63,2.63,0,0,0-.45.61,2.55,2.55,0,0,0-.29.67,0.62,0.62,0,0,0,.07.47,1.27,1.27,0,0,0,.47.41l0.71,0.36L79.47,22a7.61,7.61,0,0,1-.88-0.41A1.61,1.61,0,0,1,78,21.06Z" transform="translate(-0.02)"/>
  <path class="cls-3" d="M82.09,23.79a0.6,0.6,0,0,1,0-.45,2.34,2.34,0,0,1,.35-0.62l1-1.35-0.38-.28,0.25-.33L83.68,21l0.58-.83,0.4,0.3-0.58.83L84.91,22l-0.25.33-0.83-.63-0.9,1.23a3.83,3.83,0,0,0-.3.45,0.43,0.43,0,0,0,0,.29,0.47,0.47,0,0,0,.21.27l0.51,0.32-0.21.34a5.37,5.37,0,0,1-.62-0.37A1.12,1.12,0,0,1,82.09,23.79Z" transform="translate(-0.02)"/>
  <path class="cls-3" d="M88.87,27.12l1.37,1.5-0.33.3-1.37-1.5Z" transform="translate(-0.02)"/>
  <path class="cls-3" d="M94.47,31.31l-1.24-.52,0.17-.41L94.94,31l0.28,0.4-3.46,2.44-0.27-.42Z" transform="translate(-0.02)"/>
  <path class="cls-3" d="M26.75,86.95l-1-1,0.31-.31L28.43,88l-0.31.31-1-1-2.81,2.83-0.36-.36Z" transform="translate(-0.02)"/>
  <path class="cls-3" d="M30.71,90.45l-0.93,1.22,1.52,1.15L31,93.16,29.53,92l-1,1.28,1.83,1.4L30.08,95l-2.25-1.72,2.69-3.52,2.25,1.72-0.27.35Z" transform="translate(-0.02)"/>
  <path class="cls-3" d="M39.29,95.35l-2.11,3.89L36.72,99l1.86-3.43-0.08,0-3,2.64L35,97.89l0.6-3.94-0.08,0-1.86,3.43-0.46-.25,2.11-3.89,0.83,0.45-0.64,3.92,3-2.67Z" transform="translate(-0.02)"/>
  <path class="cls-3" d="M42.25,96.62l1.6,0.57a1.57,1.57,0,0,1,.94.7,1.43,1.43,0,0,1,0,1.14,1.33,1.33,0,0,1-1.91.93l-1.1-.39L41.28,101l-0.49-.17ZM43,99.54a0.9,0.9,0,0,0,1.26-.69,1.05,1.05,0,0,0,0-.83,1,1,0,0,0-.61-0.46l-1.1-.39-0.7,1.95Z" transform="translate(-0.02)"/>
  <path class="cls-3" d="M47.73,102.73a1.3,1.3,0,0,1-.42-0.83,5,5,0,0,1,.51-2.54,1.37,1.37,0,0,1,.71-0.62,2.49,2.49,0,0,1,2.11.42,1.38,1.38,0,0,1,.42.83,5,5,0,0,1-.51,2.56,1.28,1.28,0,0,1-.7.59,2.18,2.18,0,0,1-1.11,0A2.15,2.15,0,0,1,47.73,102.73Zm1.92,0a1,1,0,0,0,.5-0.48,3.94,3.94,0,0,0,.32-1,4.05,4.05,0,0,0,.1-1.09,1.05,1.05,0,0,0-.27-0.66,1.36,1.36,0,0,0-.73-0.35,1.38,1.38,0,0,0-.83,0,1,1,0,0,0-.51.51,5.06,5.06,0,0,0-.42,2.1,1,1,0,0,0,.27.65,1.48,1.48,0,0,0,.75.33,1.46,1.46,0,0,0,.81,0h0Z" transform="translate(-0.02)"/>
  <path class="cls-3" d="M64.66,102.49l-2,.22-0.19,1.17-0.51.06,0.76-4.54,1.12-.12,1.77,4.25-0.51.06Zm-1.91-.22,1.75-.2-1-2.33H63.17Z" transform="translate(-0.02)"/>
  <path class="cls-3" d="M69.36,102.59a1.28,1.28,0,0,1-.69-0.59,6,6,0,0,1-.62-2.49,1.3,1.3,0,0,1,.31-0.83,1.91,1.91,0,0,1,1-.51A6.52,6.52,0,0,1,70.6,98l0.08,0.41a7.09,7.09,0,0,0-1.16.17,1.43,1.43,0,0,0-.72.36,0.92,0.92,0,0,0-.22.65,5.18,5.18,0,0,0,.18,1.14,4.46,4.46,0,0,0,.34,1,0.9,0.9,0,0,0,.5.45,1.54,1.54,0,0,0,.87,0,6.4,6.4,0,0,0,1-.38l0.12,0.41a6.57,6.57,0,0,1-1.15.42A2,2,0,0,1,69.36,102.59Z" transform="translate(-0.02)"/>
  <path class="cls-3" d="M76.91,99.15l-1.84.74,0.11,1.19-0.47.19-0.46-4.58,1-.42,2.83,3.64-0.47.19Zm-1.9.28,1.66-.65-1.56-2-0.32.13Z" transform="translate(-0.02)"/>
  <path class="cls-3" d="M81.55,93.39a1.42,1.42,0,0,1,.83.4,3.91,3.91,0,0,1,.65.83,3,3,0,0,1,.52,1.74,1.52,1.52,0,0,1-.83,1.13l-1.43.83-2.22-3.8,1.43-.83A1.73,1.73,0,0,1,81.55,93.39Zm1,1.56a2.3,2.3,0,0,0-.9-1,1,1,0,0,0-1,.1l-1,.57,1.78,3.08,1-.57q1-.6.12-2.2h0Z" transform="translate(-0.02)"/>
  <path class="cls-3" d="M85.19,91.07l0.94,1.2,1.5-1.18,0.27,0.34-1.5,1.18,1,1.26,1.81-1.43,0.27,0.34-2.22,1.74L84.52,91l2.22-1.74L87,89.65Z" transform="translate(-0.02)"/>
  <path class="cls-3" d="M92.06,84l3.23,3-0.36.38-2.85-2.67L92,84.83l1.81,3.54-0.4.42-3.65-1.57-0.07.07L92.56,90l-0.36.38-3.23-3,0.64-.68,3.64,1.6-1.84-3.52Z" transform="translate(-0.02)"/>
  <path class="cls-3" d="M96.71,82.08l-3-.22,0.33-.48,2.36,0.22-1.06-2.12L95.73,79,97,81.67l1.53,1.05-0.29.42Z" transform="translate(-0.02)"/>
</svg>
