<svg id="Layer_1" data-name="Layer 1" xmlns="http://www.w3.org/2000/svg" viewBox="0 0 80.77 75.86"><defs><style>.cls-1{fill:#fff;}</style></defs><title>tempo-white</title><path class="cls-1" d="M319.39,56.52a2.42,2.42,0,0,0-2.15-2.4v0H302.32a6.16,6.16,0,0,0-.66,0h-0.08a6.83,6.83,0,0,0-4.2,1.92c-2.63,2.43-2.34,4.62-2.34,7.89v9.92a2.89,2.89,0,0,1-.25,1.24,2.81,2.81,0,0,1-2.3,1.57,2.65,2.65,0,0,1-2.71-2.42L290,40.74c0-3-1-4.2-3-6a7.67,7.67,0,0,0-3.55-1.5l-0.92-18-0.92,18a8.4,8.4,0,0,0-2.45.81c-3.9,2.46-4.29,5.16-4.29,8.75V83.31a2.7,2.7,0,0,1-2.59,3,2.58,2.58,0,0,1-2.52-2,3.72,3.72,0,0,1-.1-0.92V52.84a7.79,7.79,0,0,0-.88-3.2,7.16,7.16,0,0,0-5-3.77,7.49,7.49,0,0,0-6.12,1.45,8.37,8.37,0,0,0-2.87,6.8V71.48A2.75,2.75,0,0,1,252,74.23h-3.74l-6.89,0,0,0h0a2.71,2.71,0,1,0,.5,5.36l6.33,0.14,0.29,0h0.13l3.67,0.08h0a6.56,6.56,0,0,0,4.91-1.88,9.79,9.79,0,0,0,2.44-6.62V53.21a2.67,2.67,0,0,1,1-2,2.56,2.56,0,0,1,2.64-.41,2.62,2.62,0,0,1,1.6,2V81.9c0,2.66-.13,4.19,1.3,6.14a7.31,7.31,0,0,0,5.9,3.1h0.13a7.24,7.24,0,0,0,5.4-2.43,8,8,0,0,0,2.35-6.36c0-1.13,0-2.26,0-3.4l1.18-31.83H280l-2.53-4.22L280,38.68h1.44l0.2-5.39h1.85l0.28,5.39H285l2.53,4.22L285,47.12h-0.87l1.42,27.69a7.05,7.05,0,0,0,5.36,6.53l0.07,0a6.72,6.72,0,0,0,5.61-1.47c2.12-1.76,3.15-3,3.26-6.31V61.69a2.73,2.73,0,0,1,1.7-2.71h15.66V58.91A2.42,2.42,0,0,0,319.39,56.52Z" transform="translate(-238.61 -15.29)"/></svg>