<svg id="Layer_1" data-name="Layer 1" xmlns="http://www.w3.org/2000/svg" viewBox="0 0 336.93 210.58"><defs><style>.cls-1{fill:#4382c1;}.cls-2{fill:#fff;}.cls-3{fill:#ed2690;}</style></defs><title>tempo-big2</title><path class="cls-1" d="M112.95,654.76V667H91V716.2H80V667H58.09V654.76h54.86Z" transform="translate(-58.09 -505.62)"/><path class="cls-1" d="M188.77,703.85v12.29H122.88V654.7h54.86v12.47H133.86v12.11h43.93v12.29H133.86v12.29h54.91Z" transform="translate(-58.09 -505.62)"/><path class="cls-1" d="M206.64,680.78l-3.21,35.36H192.36l5.58-61.44H209l16.29,42.74,16.29-42.68V654.7h11.07l5.58,61.44H247.17L244,680.78l-13.44,35.36h-10.4Z" transform="translate(-58.09 -505.62)"/><path class="cls-1" d="M316.12,654.7a10,10,0,0,1,7.77,3.6A12.58,12.58,0,0,1,327.1,667v24.58a12.58,12.58,0,0,1-3.21,8.69,10,10,0,0,1-7.77,3.6H283.17v12.29H272.23V654.7h43.88ZM283.17,667v24.58h28.75q4.24,0,4.24-3.84a4.14,4.14,0,0,0,0-.6v-15.7q0-4.5-3.3-4.5a7.63,7.63,0,0,0-.89.06H283.17Z" transform="translate(-58.09 -505.62)"/><path class="cls-1" d="M384,654.7a10,10,0,0,1,7.77,3.6A12.59,12.59,0,0,1,395,667v36.86a12.43,12.43,0,0,1-3.1,8.54,10.45,10.45,0,0,1-7.7,3.69v0.06H351.09a10.05,10.05,0,0,1-7.77-3.6,12.59,12.59,0,0,1-3.21-8.69V667a12.41,12.41,0,0,1,3.08-8.48,10.76,10.76,0,0,1,7.63-3.81H384Zm-28.75,49.15h25q3.7,0,3.71-4.08v-29q0-3.83-4.2-3.84H355.28q-4.24,0-4.24,3.84a4,4,0,0,0,0,.6v28q0,4.5,3.3,4.5A7.41,7.41,0,0,0,355.28,703.85Z" transform="translate(-58.09 -505.62)"/><path class="cls-2" d="M145.67,625.05v3.52h-7v14.1h-3.5v-14.1h-7v-3.52h17.49Z" transform="translate(-58.09 -505.62)"/><path class="cls-2" d="M173,625a3.36,3.36,0,0,1,2.48,1,3.41,3.41,0,0,1,1,2.49v10.57a3.36,3.36,0,0,1-1,2.45,3.49,3.49,0,0,1-2.46,1.06v0H162.54a3.36,3.36,0,0,1-2.48-1,3.41,3.41,0,0,1-1-2.49V628.56a3.35,3.35,0,0,1,1-2.43,3.58,3.58,0,0,1,2.43-1.09H173Zm-9.17,14.1h8A1,1,0,0,0,173,638v-8.3a1.09,1.09,0,0,0-1.34-1.1h-7.83a1.1,1.1,0,0,0-1.35,1.1,1,1,0,0,0,0,.17v8a1,1,0,0,0,1.05,1.29Z" transform="translate(-58.09 -505.62)"/><path class="cls-2" d="M205.51,625a3.36,3.36,0,0,1,2.48,1,3.41,3.41,0,0,1,1,2.49v7a3.39,3.39,0,0,1-.74,2.16,3.52,3.52,0,0,1-1.89,1.25l2.62,3.64h-4.64l-2.52-3.52H195v3.52h-3.5V625h14Zm-10.36,3.52v7h9.17a1.1,1.1,0,0,0,1.35-1.1,1.06,1.06,0,0,0,0-.17v-4.5a1,1,0,0,0-1.05-1.29l-0.28,0h-9.17Z" transform="translate(-58.09 -505.62)"/><path class="cls-2" d="M237.71,625a3.36,3.36,0,0,1,2.48,1,3.41,3.41,0,0,1,1,2.49v10.57a3.36,3.36,0,0,1-1,2.45,3.49,3.49,0,0,1-2.46,1.06v0H227.21a3.36,3.36,0,0,1-2.48-1,3.41,3.41,0,0,1-1-2.49V628.56a3.35,3.35,0,0,1,1-2.43,3.58,3.58,0,0,1,2.43-1.09h10.59Zm-9.17,14.1h8a1,1,0,0,0,1.18-1.17v-8.3a1.09,1.09,0,0,0-1.34-1.1h-7.83a1.1,1.1,0,0,0-1.35,1.1,1,1,0,0,0,0,.17v8a1,1,0,0,0,1.05,1.29Z" transform="translate(-58.09 -505.62)"/><path class="cls-2" d="M270.18,625h3.49v17.62h-3.49v0l-10.5-11.83v11.84h-3.5V625h3.5l10.5,11.83V625Z" transform="translate(-58.09 -505.62)"/><path class="cls-2" d="M304.37,625.05v3.52h-7v14.1h-3.5v-14.1h-7v-3.52h17.49Z" transform="translate(-58.09 -505.62)"/><path class="cls-2" d="M331.74,625a3.36,3.36,0,0,1,2.48,1,3.41,3.41,0,0,1,1,2.49v10.57a3.36,3.36,0,0,1-1,2.45,3.49,3.49,0,0,1-2.46,1.06v0H321.24a3.36,3.36,0,0,1-2.48-1,3.41,3.41,0,0,1-1-2.49V628.56a3.35,3.35,0,0,1,1-2.43,3.58,3.58,0,0,1,2.43-1.09h10.59Zm-9.17,14.1h8a1,1,0,0,0,1.18-1.17v-8.3a1.09,1.09,0,0,0-1.34-1.1h-7.83a1.1,1.1,0,0,0-1.35,1.1,1.12,1.12,0,0,0,0,.17v8a1,1,0,0,0,1.05,1.29Z" transform="translate(-58.09 -505.62)"/><path class="cls-3" d="M255.76,597.86" transform="translate(-58.09 -505.62)"/><path class="cls-1" d="M292.65,565a3.48,3.48,0,0,0-3.09-3.45v0H268.07a8.88,8.88,0,0,0-.95,0H267a9.83,9.83,0,0,0-6,2.77c-3.78,3.5-3.37,6.66-3.37,11.36V589.9a4.16,4.16,0,0,1-.36,1.79,4,4,0,0,1-3.31,2.26,3.81,3.81,0,0,1-3.9-3.48l0.27-48.2c0-4.31-1.38-6-4.29-8.58a11,11,0,0,0-5.11-2.17l-1.33-25.91-1.33,25.92a12.1,12.1,0,0,0-3.53,1.17c-5.62,3.55-6.18,7.43-6.18,12.59v58.27c0,4.06-3.41,4.32-3.73,4.31a3.72,3.72,0,0,1-3.63-2.92,5.36,5.36,0,0,1-.14-1.32V559.7a11.22,11.22,0,0,0-1.27-4.61,10.32,10.32,0,0,0-7.2-5.42,10.79,10.79,0,0,0-8.81,2.08c-2.83,2.38-4.13,5.67-4.13,9.79v25a4,4,0,0,1-4,4l-4.88,0h-0.5l-9.92,0,0,0h-0.07a3.9,3.9,0,1,0,.72,7.72l9.12,0.2,0.42,0h0.19l5.29,0.12h0a9.44,9.44,0,0,0,7.06-2.7,14.1,14.1,0,0,0,3.51-9.54v-26A3.84,3.84,0,0,1,208,557.4a3.68,3.68,0,0,1,3.8-.58,3.78,3.78,0,0,1,2.31,2.88v41.84c0,3.83-.18,6,1.87,8.84a10.53,10.53,0,0,0,8.5,4.47h0.19c2.64,0,5-.78,7.77-3.5a11.46,11.46,0,0,0,3.39-9.16c0-1.63,0-3.26,0-4.89l1.7-45.83h-1.62l-3.65-6.08,3.65-6.08H238l0.29-7.76h2.66l0.4,7.76h1.88l3.65,6.08-3.65,6.08h-1.26l2,39.88a10.16,10.16,0,0,0,7.72,9.4l0.1,0a9.68,9.68,0,0,0,8.07-2.12c3.05-2.54,4.54-4.35,4.7-9.08V572.44a3.94,3.94,0,0,1,2.45-3.91h22.55v-0.1A3.48,3.48,0,0,0,292.65,565Z" transform="translate(-58.09 -505.62)"/></svg>