<svg id="Layer_1" data-name="Layer 1" xmlns="http://www.w3.org/2000/svg" viewBox="0 0 351.27 162.61"><defs><style>.cls-1{fill:#fff;}.cls-2{fill:#854aaf;}</style></defs><title>thunder-big2</title><path class="cls-1" d="M-313.86,276.82v6.9h-2.33V271.2l8.55,8.55v-6.9h2.33v12.52Z" transform="translate(400.61 -243.79)"/><path class="cls-1" d="M-282.43,272.84v10.88h-2.33V272.84h2.33Z" transform="translate(400.61 -243.79)"/><path class="cls-1" d="M-261.89,272.84H-251v10.88h-2.33v-4.27h-6.22v4.27h-2.33V272.84Zm2.33,2.33v1.94h6.22v-1.94h-6.22Z" transform="translate(400.61 -243.79)"/><path class="cls-1" d="M-219.59,272.84v2.33h-8.55v6.22h6.22v-1.94h-4.27v-2.33h6.6v6.6h-10.88V272.84h10.88Z" transform="translate(400.61 -243.79)"/><path class="cls-1" d="M-192,278.28l5.44,5.44h-3.29l-5.44-5.44,3.11-3.11h-4.57v8.55h-2.33V272.84h12.52Z" transform="translate(400.61 -243.79)"/><path class="cls-1" d="M-167.63,272.84h10.88v10.88h-2.33v-4.27h-6.22v4.27h-2.33V272.84Zm2.33,2.33v1.94h6.22v-1.94h-6.22Z" transform="translate(400.61 -243.79)"/><path class="cls-1" d="M-375,301.62L-392,339.89h-8.57l17-38.27h-15.78l4.63-10.44h40.21l-4.67,10.44H-375Z" transform="translate(400.61 -243.79)"/><path class="cls-1" d="M-352.89,320.87L-361.48,340H-370l21.82-48.71h8.62l-8.59,19.13h22.93l8.64-19.13H-308l-22,48.71h-8.57l8.64-19.13h-22.9Z" transform="translate(400.61 -243.79)"/><path class="cls-1" d="M-286,329.46l17.47-38.27h8.62l-22.28,48.71h-40l22.06-48.71h8.62l-17.37,38.27H-286Z" transform="translate(400.61 -243.79)"/><path class="cls-1" d="M-163.36,291.3l8.72,24.35L-186,340h-26.05l22.53-48.71h26.19Zm-8.41,10.44h-14l-12.9,27.83h14l17.93-13.92Z" transform="translate(400.61 -243.79)"/><path class="cls-1" d="M-153.33,329.57h31.46L-126.8,340h-40L-144,291.3h40.21l-4.92,10.44H-140.3l-4.07,8.7h31.53l-4.92,10.44h-31.49Z" transform="translate(400.61 -243.79)"/><path class="cls-1" d="M-81,315.65L-72.59,340H-84.7l-8.46-24.35,18.07-13.92H-92L-110.07,340h-8.57l23-48.71h46.3Z" transform="translate(400.61 -243.79)"/><polygon class="cls-2" points="203.33 45.52 154.57 67.46 172.32 0 127.07 98.7 168.76 79.14 146.55 162.61 203.33 45.52"/></svg>