<svg id="Layer_1" data-name="Layer 1" xmlns="http://www.w3.org/2000/svg" viewBox="0 0 368.5 240.94"><defs><style>.cls-1{fill:#fff;}.cls-2{fill:#2c1116;}.cls-3{fill:#d12027;}</style></defs><title>warhawks-big</title><polyline class="cls-1" points="152.61 46.78 155.63 54.4 162.53 55.53 167.06 53.06 154.98 43.41 152.61 45.66"/><polygon class="cls-1" points="199.83 53.51 213.2 43.41 214.93 45.88 212.12 53.51 206.52 55.53 203.07 55.53 199.83 53.51"/><path class="cls-2" d="M271.1,159.3l7,2.54S267,130.64,256,117a56.94,56.94,0,0,0-15.89-7.59,86.5,86.5,0,0,0-52.76,0A56.94,56.94,0,0,0,171.44,117c-11,13.65-22.12,44.86-22.12,44.86l7-2.54s-9.64,35.38-16.65,39.54l7.89-1.39s2,25,36.36,35.38c-3.07-3.7-3.29-11.1-3.29-11.1,24.53,7.63,33.07,25.44,33.07,25.44s8.54-17.8,33.07-25.44c0,0-.22,7.4-3.29,11.1,34.39-10.41,36.36-35.38,36.36-35.38l7.89,1.39C280.73,194.68,271.1,159.3,271.1,159.3Z" transform="translate(-29.75 -105.28)"/><path class="cls-3" d="M174.6,139.26c-1.14,7.37,2.86,17.15,5.18,24.23h0l4.85,1.48a30,30,0,0,1,3.31,1.3c-3.12,6.07-11.9,5.53-11.9,5.53-7.11,7.25-7.21,18.88-5.21,29.12a33.52,33.52,0,0,0,8.48,16.5c-30.09-18.44-11.43-46.3-11.43-46.3l-6.43,1.79c7.31-44.2,17.44-48,17.44-48s19.35-9.44,28.82-8.77l-12.88,9.72a7.94,7.94,0,0,0-1.45,11.25l13.92,17.64Z" transform="translate(-29.75 -105.28)"/><path class="cls-3" d="M261.38,197.9l3.89,10s5.88-9.29,2.53-18.81c-2.62-7.43-7.81-18.2-7.81-18.2l7.05,4.49S256.68,131.86,249,125.8s-28.81-9.67-28.81-9.67l13.33,9.68a8,8,0,0,1,1.58,11.5l-13.79,17.43,28.43-15.48h0a72.67,72.67,0,0,1-2.94,24.38l-0.23.75-4.19.53a2.45,2.45,0,0,0-2,3.13l2.75,9.22a8.8,8.8,0,0,1-2.67,9.16L214,213.72,192,190.8s-15.38,22.71-3.69,26.71,22.48,5.26,25.4,15.93c2.22-11.06,32.83-20.59,37.24-27.32,3.08,3.37,1.1,14.13,1.1,14.13l0.15-.09a20.52,20.52,0,0,0,9.3-21.68,13.64,13.64,0,0,0-.42-1.56" transform="translate(-29.75 -105.28)"/><path class="cls-1" d="M235.23,180.43l-6.78-9.94a4.35,4.35,0,0,0-5.86-1.26l-5.65,3.46,4.68-11.21-5.07-3.29a4.67,4.67,0,0,0-5.08,0l-5.07,3.29,4.68,11.21-5-3.09a5.09,5.09,0,0,0-6.86,1.47l-6.38,9.36,11.82-3.62,9.4,27.11,9.4-27.11Z" transform="translate(-29.75 -105.28)"/><path class="cls-1" d="M219.81,193.22l8.21-5.08a2.48,2.48,0,0,0-.77-4.53l-2.7-.6Z" transform="translate(-29.75 -105.28)"/><path class="cls-1" d="M208,193.22l-8.21-5.08a2.48,2.48,0,0,1,.77-4.53l2.7-.6Z" transform="translate(-29.75 -105.28)"/><path class="cls-3" d="M114.25,257.1v21.62h-3.89v-8.89h-8v8.89H98.5V257.1h3.89V266h8V257.1h3.89Z" transform="translate(-29.75 -105.28)"/><path class="cls-3" d="M143.07,273.65h-7.29l-1.7,5.06h-4.17l7.57-21.62h3.89l7.57,21.62h-4.17Zm-1.3-3.83-2.35-6.95-2.35,6.95h4.69Z" transform="translate(-29.75 -105.28)"/><path class="cls-3" d="M185.2,278.71h-3.89V262.78l-4.54,12.11H173l-4.54-12.11v15.94H164.6V257.1h5.78l4.54,12.6,4.51-12.6h5.78v21.62Z" transform="translate(-29.75 -105.28)"/><path class="cls-3" d="M202.38,257.1h3.89v21.62h-3.89V257.1Z" transform="translate(-29.75 -105.28)"/><path class="cls-3" d="M239.16,274.88v3.83H223.44V257.1h3.89v17.79h11.83Z" transform="translate(-29.75 -105.28)"/><path class="cls-3" d="M266.59,260.92h-5.93v17.79h-3.89V260.92h-5.93V257.1h15.75v3.83Z" transform="translate(-29.75 -105.28)"/><path class="cls-3" d="M298.07,259.47v16.86a2.51,2.51,0,0,1-2.59,2.38H284.85a2.51,2.51,0,0,1-2.59-2.38V259.47a2.51,2.51,0,0,1,2.59-2.38h10.62A2.51,2.51,0,0,1,298.07,259.47Zm-4.51,1.45h-6.79a0.59,0.59,0,0,0-.62.56v12.85a0.59,0.59,0,0,0,.62.56h6.79a0.59,0.59,0,0,0,.62-0.56V261.48A0.59,0.59,0,0,0,293.56,260.92Z" transform="translate(-29.75 -105.28)"/><path class="cls-3" d="M331,257.1v21.62h-4.45l-7.41-14.18v14.18h-3.89V257.1h4.42l7.44,14.24V257.1H331Z" transform="translate(-29.75 -105.28)"/><polygon class="cls-2" points="45.27 182.67 40.04 217.68 34 192.4 23.13 192.4 17.09 217.68 11.86 182.67 0 182.67 9.53 240.94 22.86 240.94 28.6 217.79 34.27 240.94 47.61 240.94 57.13 182.67 45.27 182.67"/><path class="cls-2" d="M159.47,287.95H129.09v58.27h11.06V324.1h15.21v22.12h11.05V323.36a6.91,6.91,0,0,0-2-4.94,6.91,6.91,0,0,0,2-4.94V294.81A7,7,0,0,0,159.47,287.95Zm-4.12,11.36v13.42H140.15V299.32h15.21Z" transform="translate(-29.75 -105.28)"/><polygon class="cls-2" points="170.12 206.12 154.91 206.12 154.91 182.67 143.85 182.67 143.85 240.94 154.91 240.94 154.91 217.49 170.12 217.49 170.12 240.94 181.17 240.94 181.17 182.67 170.12 182.67 170.12 206.12"/><polygon class="cls-2" points="264.16 217.68 258.13 192.4 247.26 192.4 241.22 217.68 235.99 182.67 224.12 182.67 233.65 240.94 246.99 240.94 252.72 217.79 258.39 240.94 271.73 240.94 281.26 182.67 269.39 182.67 264.16 217.68"/><path class="cls-2" d="M343.43,287.95l-6.16,24.16h-10V287.95H316.19v58.27h11.05V323.47h15.21v22.75h11.05V319a7,7,0,0,0-5.28-6.66l6.21-24.36h-11Z" transform="translate(-29.75 -105.28)"/><path class="cls-2" d="M398.25,304.81v-10a7,7,0,0,0-6.94-6.86H367.87a7,7,0,0,0-6.94,6.86v21.1a7,7,0,0,0,6.94,6.86H387.2v12.08H372v-5.49H360.93v10a7,7,0,0,0,6.94,6.86h23.45a7,7,0,0,0,6.94-6.86v-21.1a7,7,0,0,0-6.94-6.86H372V299.32H387.2v5.49h11.05Z" transform="translate(-29.75 -105.28)"/><path class="cls-2" d="M108.73,287.95H98.56L82,346.22H93.38l3.93-14.27H110l3.93,14.27h11.35Zm-5.08,36.58-4.79-12.41h9.59Z" transform="translate(-29.75 -105.28)"/><path class="cls-2" d="M241.45,287.95H231.29l-16.54,58.27H226.1L230,331.94H242.7l3.93,14.27H258Zm-5.08,36.58-4.79-12.41h9.59Z" transform="translate(-29.75 -105.28)"/><path class="cls-1" d="M226.08,156.68l18.58-9.27S246.41,168.67,226.08,156.68Z" transform="translate(-29.75 -105.28)"/><path class="cls-1" d="M200.64,156.68l-18.58-9.27S180.31,168.67,200.64,156.68Z" transform="translate(-29.75 -105.28)"/></svg>