<svg id="Layer_1" data-name="Layer 1" xmlns="http://www.w3.org/2000/svg" viewBox="0 0 57.04 54.67"><defs><style>.cls-1{fill:#fff;}.cls-2{fill:#2c1116;}.cls-3{fill:#d12027;}</style></defs><title>warhawks</title><polyline class="cls-1" points="16.44 18.02 17.61 20.96 20.27 21.39 22.01 20.44 17.36 16.73 16.44 17.59"/><polygon class="cls-1" points="34.64 20.61 39.79 16.73 40.45 17.68 39.37 20.61 37.21 21.39 35.88 21.39 34.64 20.61"/><path class="cls-2" d="M133.61,30.65l2.7,1s-4.27-12-8.52-17.28a21.94,21.94,0,0,0-6.12-2.92,33.33,33.33,0,0,0-20.33,0,21.94,21.94,0,0,0-6.12,2.92C91,19.61,86.69,31.63,86.69,31.63l2.7-1S85.68,44.28,83,45.88l3-.53S86.78,55,100,59c-1.18-1.43-1.27-4.28-1.27-4.28,9.45,2.94,12.74,9.8,12.74,9.8s3.29-6.86,12.74-9.8c0,0-.08,2.85-1.27,4.28,13.25-4,14-13.63,14-13.63l3,0.53C137.32,44.28,133.61,30.65,133.61,30.65Z" transform="translate(-82.98 -9.83)"/><path class="cls-3" d="M96.43,22.93c-0.44,2.84,1.1,6.61,2,9.33h0l1.87,0.57a11.56,11.56,0,0,1,1.28.5c-1.2,2.34-4.58,2.13-4.58,2.13-2.74,2.79-2.78,7.27-2,11.22A12.91,12.91,0,0,0,98.25,53c-11.59-7.1-4.4-17.84-4.4-17.84l-2.48.69c2.82-17,6.72-18.5,6.72-18.5s7.45-3.64,11.11-3.38l-5,3.74a3.06,3.06,0,0,0-.56,4.33l5.36,6.8Z" transform="translate(-82.98 -9.83)"/><path class="cls-3" d="M129.86,45.52l1.5,3.86s2.27-3.58,1-7.25c-1-2.86-3-7-3-7L132,36.84s-4-16.77-7-19.1S114,14,114,14l5.13,3.73a3.1,3.1,0,0,1,.61,4.43l-5.31,6.72,11-6h0a28,28,0,0,1-1.13,9.39l-0.09.29-1.61.21a0.94,0.94,0,0,0-.79,1.21l1.06,3.55a3.39,3.39,0,0,1-1,3.53L111.61,51.61l-8.48-8.83s-5.93,8.75-1.42,10.29,8.66,2,9.78,6.14c0.86-4.26,12.65-7.93,14.35-10.52,1.19,1.3.42,5.45,0.42,5.45l0.06,0a7.9,7.9,0,0,0,3.58-8.35,5.26,5.26,0,0,0-.16-0.6" transform="translate(-82.98 -9.83)"/><path class="cls-1" d="M119.79,38.79L117.18,35a1.67,1.67,0,0,0-2.26-.48l-2.17,1.33,1.8-4.32-2-1.27a1.8,1.8,0,0,0-2,0l-2,1.27,1.8,4.32-1.94-1.19a2,2,0,0,0-2.64.57l-2.46,3.61,4.55-1.4,3.62,10.45,3.62-10.45Z" transform="translate(-82.98 -9.83)"/><path class="cls-1" d="M113.85,43.72l3.16-2a1,1,0,0,0-.3-1.75l-1-.23Z" transform="translate(-82.98 -9.83)"/><path class="cls-1" d="M109.3,43.72l-3.16-2a1,1,0,0,1,.3-1.75l1-.23Z" transform="translate(-82.98 -9.83)"/><path class="cls-1" d="M116.27,29.64l7.16-3.57S124.1,34.26,116.27,29.64Z" transform="translate(-82.98 -9.83)"/><path class="cls-1" d="M106.46,29.64l-7.16-3.57S98.63,34.26,106.46,29.64Z" transform="translate(-82.98 -9.83)"/></svg>