<svg id="Layer_1" data-name="Layer 1" xmlns="http://www.w3.org/2000/svg" viewBox="0 0 57.04 54.67"><defs><style>.cls-1{fill:#2c1116;opacity:0;}.cls-2{fill:#fff;}</style></defs><title>warhawks-white</title><path class="cls-1" d="M115.28-41l2.7,1s-4.27-12-8.52-17.28a21.94,21.94,0,0,0-6.12-2.92,33.33,33.33,0,0,0-20.33,0,21.94,21.94,0,0,0-6.12,2.92C72.63-52.06,68.36-40,68.36-40l2.7-1s-3.71,13.63-6.41,15.23l3-.53s0.76,9.62,14,13.63C80.51-14.12,80.42-17,80.42-17c9.45,2.94,12.74,9.8,12.74,9.8S96.46-14,105.91-17c0,0-.08,2.85-1.27,4.28,13.25-4,14-13.63,14-13.63l3,0.53C119-27.39,115.28-41,115.28-41Z" transform="translate(-64.64 61.83)"/><path class="cls-2" d="M78.1-48.74c-0.44,2.84,1.1,6.61,2,9.33h0L82-38.83a11.56,11.56,0,0,1,1.28.5C82-36,78.66-36.2,78.66-36.2c-2.74,2.79-2.78,7.27-2,11.22a12.91,12.91,0,0,0,3.27,6.36c-11.59-7.1-4.4-17.84-4.4-17.84L73-35.77c2.82-17,6.72-18.5,6.72-18.5s7.45-3.64,11.11-3.38l-5,3.74a3.06,3.06,0,0,0-.56,4.33l5.36,6.8Z" transform="translate(-64.64 61.83)"/><path class="cls-2" d="M111.53-26.15l1.5,3.86s2.27-3.58,1-7.25c-1-2.86-3-7-3-7l2.72,1.73s-4-16.77-7-19.1-11.1-3.73-11.1-3.73l5.13,3.73a3.1,3.1,0,0,1,.61,4.43l-5.31,6.72,11-6h0a28,28,0,0,1-1.13,9.39l-0.09.29-1.61.21a0.94,0.94,0,0,0-.79,1.21l1.06,3.55a3.39,3.39,0,0,1-1,3.53L93.28-20.05,84.8-28.88s-5.93,8.75-1.42,10.29,8.66,2,9.78,6.14C94-16.72,105.81-20.39,107.51-23c1.19,1.3.42,5.45,0.42,5.45l0.06,0a7.9,7.9,0,0,0,3.58-8.35,5.26,5.26,0,0,0-.16-0.6" transform="translate(-64.64 61.83)"/><path class="cls-2" d="M101.46-32.88l-2.61-3.83a1.67,1.67,0,0,0-2.26-.48l-2.17,1.33,1.8-4.32-2-1.27a1.8,1.8,0,0,0-2,0l-2,1.27,1.8,4.32L90.2-37.05a2,2,0,0,0-2.64.57L85.1-32.88l4.55-1.4,3.62,10.45L96.9-34.27Z" transform="translate(-64.64 61.83)"/><path class="cls-2" d="M95.52-28l3.16-2a1,1,0,0,0-.3-1.75l-1-.23Z" transform="translate(-64.64 61.83)"/><path class="cls-2" d="M91-28l-3.16-2a1,1,0,0,1,.3-1.75l1-.23Z" transform="translate(-64.64 61.83)"/><path class="cls-2" d="M97.93-42l7.16-3.57S105.76-37.41,97.93-42Z" transform="translate(-64.64 61.83)"/><path class="cls-2" d="M88.13-42L81-45.6S80.3-37.41,88.13-42Z" transform="translate(-64.64 61.83)"/></svg>