<svg id="Layer_1" data-name="Layer 1" xmlns="http://www.w3.org/2000/svg" viewBox="0 0 116.67 116.67"><defs><style>.cls-1{fill:#ff5c9e;}.cls-2{fill:#1c112d;}.cls-3{fill:#fff;}.cls-4{fill:#1e0435;}</style></defs><title>WaterlooOxford-1</title><circle class="cls-1" cx="58.33" cy="58.33" r="53.33"/><path class="cls-2" d="M239.3,299.65a58.33,58.33,0,1,1,58.33-58.33A58.4,58.4,0,0,1,239.3,299.65Zm0-106.67a48.33,48.33,0,1,0,48.33,48.33A48.39,48.39,0,0,0,239.3,193Z" transform="translate(-180.97 -182.98)"/><path class="cls-3" d="M192.16,211.73l0.36-.54,4.53,1.89,0.13-.2-3.33-3.61,0.41-.6,4.6,1.71,0.13-.2-3.47-3.48,0.36-.53,3.8,3.92-0.63.95-4.38-1.66,3.2,3.42-0.64.95Z" transform="translate(-180.97 -182.98)"/><path class="cls-3" d="M202.11,206.78a1.19,1.19,0,0,1-.83-0.37,1.07,1.07,0,0,1-.4-0.78,1.61,1.61,0,0,1,.4-0.92l0.78-1-0.24-.23a0.62,0.62,0,0,0-1,0,15.5,15.5,0,0,0-1,1.24l-0.34-.28a8.27,8.27,0,0,1,.95-1.27,1.42,1.42,0,0,1,.9-0.53,1.26,1.26,0,0,1,.91.42l1.45,1.34a0.43,0.43,0,0,0,.57-0.11l0.32,0.33a1.35,1.35,0,0,1-.88.5,3.66,3.66,0,0,1-.77,1.28A1.13,1.13,0,0,1,202.11,206.78Zm1.12-1.74,0.08-.18-0.93-.87-0.74,1a0.81,0.81,0,0,0-.21.52,0.69,0.69,0,0,0,.25.45,0.59,0.59,0,0,0,.94,0A3.45,3.45,0,0,0,203.23,205Z" transform="translate(-180.97 -182.98)"/><path class="cls-3" d="M207.17,202.05a0.73,0.73,0,0,1-.53-0.11,2.85,2.85,0,0,1-.63-0.58l-1.32-1.54-0.44.37-0.33-.38,0.44-.37-0.77-.9,0.46-.39,0.77,0.9,1-.83,0.33,0.38-1,.84,1.2,1.4a4.8,4.8,0,0,0,.44.47,0.53,0.53,0,0,0,.33.14,0.58,0.58,0,0,0,.37-0.17l0.52-.5,0.34,0.34a6.23,6.23,0,0,1-.6.63A1.34,1.34,0,0,1,207.17,202.05Z" transform="translate(-180.97 -182.98)"/><path class="cls-3" d="M210.67,198.87a2.24,2.24,0,0,1-1.13-1,2.53,2.53,0,0,1-.54-1.55,1.88,1.88,0,0,1,2-1.46,2,2,0,0,1,1.09.91l0.22,0.38-2.22,1.49a2.08,2.08,0,0,0,.51.56,0.71,0.71,0,0,0,.53.12,1.81,1.81,0,0,0,.67-0.31l0.44-.31,0.44-.34,0.18-.15,0.27,0.37a11.26,11.26,0,0,1-1.17.93A1.61,1.61,0,0,1,210.67,198.87Zm0.95-2.77a1.64,1.64,0,0,0-.75-0.7,0.93,0.93,0,0,0-.8.18,1,1,0,0,0-.51.72,1.53,1.53,0,0,0,.32,1Z" transform="translate(-180.97 -182.98)"/><path class="cls-3" d="M214.35,192.53l0.53-.27,0.24,0.47a4.14,4.14,0,0,1,1-1.22l0.27,0.52a5.2,5.2,0,0,0-.52.48,5.15,5.15,0,0,0-.41.48l-0.13.18,1.3,2.52-0.54.28Z" transform="translate(-180.97 -182.98)"/><path class="cls-3" d="M218.7,188.64l0.56-.23,2.06,5.15-0.56.23Z" transform="translate(-180.97 -182.98)"/><path class="cls-3" d="M225,192.12a1.16,1.16,0,0,1-.69-0.47,3.32,3.32,0,0,1-.46-1.06,3.36,3.36,0,0,1-.15-1.18,1.19,1.19,0,0,1,.35-0.77,2.14,2.14,0,0,1,.92-0.47,2.11,2.11,0,0,1,1-.07,1.2,1.2,0,0,1,.7.48,4.11,4.11,0,0,1,.63,2.23,1.16,1.16,0,0,1-.35.76A2.7,2.7,0,0,1,225,192.12Zm1.53-.89a0.76,0.76,0,0,0,.19-0.53,3.25,3.25,0,0,0-.15-0.88,3.39,3.39,0,0,0-.34-0.87,0.76,0.76,0,0,0-.45-0.36,1.33,1.33,0,0,0-.68,0,1.36,1.36,0,0,0-.61.32,0.77,0.77,0,0,0-.2.54,3.29,3.29,0,0,0,.15.92,3.25,3.25,0,0,0,.33.82,0.76,0.76,0,0,0,.44.35,1.37,1.37,0,0,0,.71,0A1.32,1.32,0,0,0,226.58,191.23Z" transform="translate(-180.97 -182.98)"/><path class="cls-3" d="M231.4,190.65a1.14,1.14,0,0,1-.63-0.55,3.32,3.32,0,0,1-.32-1.11,3.36,3.36,0,0,1,0-1.19,1.19,1.19,0,0,1,.45-0.72,2.16,2.16,0,0,1,1-.34,2.13,2.13,0,0,1,1,.06,1.21,1.21,0,0,1,.63.57,4.14,4.14,0,0,1,.33,2.29,1.16,1.16,0,0,1-.44.71,2.2,2.2,0,0,1-1,.35A2.17,2.17,0,0,1,231.4,190.65ZM233,190a0.76,0.76,0,0,0,.26-0.5,3.25,3.25,0,0,0,0-.89,3.48,3.48,0,0,0-.23-0.9,0.77,0.77,0,0,0-.39-0.41,1.32,1.32,0,0,0-.69,0,1.36,1.36,0,0,0-.65.23,0.77,0.77,0,0,0-.27.51,3.26,3.26,0,0,0,0,.93,3.3,3.3,0,0,0,.22.86,0.75,0.75,0,0,0,.39.41,1.36,1.36,0,0,0,.71,0A1.32,1.32,0,0,0,233,190Z" transform="translate(-180.97 -182.98)"/><path class="cls-3" d="M242.26,190a1.58,1.58,0,0,1-.61-0.93,6,6,0,0,1,.28-3.12,1.65,1.65,0,0,1,.77-0.84,3,3,0,0,1,2.6.23,1.66,1.66,0,0,1,.62,1,6,6,0,0,1-.27,3.14,1.54,1.54,0,0,1-.76.8,2.64,2.64,0,0,1-1.33.16A2.61,2.61,0,0,1,242.26,190Zm2.3-.25a1.16,1.16,0,0,0,.53-0.64,4.71,4.71,0,0,0,.25-1.27,4.87,4.87,0,0,0,0-1.31,1.28,1.28,0,0,0-.42-0.76,1.64,1.64,0,0,0-.92-0.32,1.67,1.67,0,0,0-1,.15,1.26,1.26,0,0,0-.54.67,4.78,4.78,0,0,0-.26,1.28,4.83,4.83,0,0,0,0,1.29,1.17,1.17,0,0,0,.42.74,1.78,1.78,0,0,0,.94.3A1.75,1.75,0,0,0,244.56,189.76Z" transform="translate(-180.97 -182.98)"/><path class="cls-3" d="M250.25,189.41l-0.81-2.16,0.65,0.15,0.63,1.7,1.3-1.26,0.65,0.15L251,189.56l0.82,2.18-0.65-.15-0.62-1.69-1.3,1.25-0.65-.15Z" transform="translate(-180.97 -182.98)"/><path class="cls-3" d="M256,189.5l-0.48-.17,0.16-.47,0.48,0.17,0.11-.33a2.71,2.71,0,0,1,.38-0.77,0.74,0.74,0,0,1,.46-0.3,1.36,1.36,0,0,1,.65.09l0.75,0.32-0.16.45-0.59-.22-0.14-.05a0.41,0.41,0,0,0-.46.08,1.67,1.67,0,0,0-.33.61l-0.11.32,1.11,0.38-0.16.47-1.11-.38-1.1,3.17-0.57-.2Z" transform="translate(-180.97 -182.98)"/><path class="cls-3" d="M259.79,194.47a1.15,1.15,0,0,1-.21-0.81,4.12,4.12,0,0,1,1-2.09,1.18,1.18,0,0,1,.78-0.35,2.16,2.16,0,0,1,1,.25,2.12,2.12,0,0,1,.82.63,1.21,1.21,0,0,1,.21.82,4.12,4.12,0,0,1-1,2.09,1.15,1.15,0,0,1-.76.34A2.69,2.69,0,0,1,259.79,194.47Zm1.74,0.35a0.76,0.76,0,0,0,.49-0.27,3.2,3.2,0,0,0,.47-0.76,3.4,3.4,0,0,0,.31-0.88,0.76,0.76,0,0,0-.1-0.56,1.32,1.32,0,0,0-.54-0.42,1.35,1.35,0,0,0-.67-0.17,0.77,0.77,0,0,0-.51.27,3.29,3.29,0,0,0-.49.79,3.24,3.24,0,0,0-.3.83,0.75,0.75,0,0,0,.1.56,1.38,1.38,0,0,0,.56.43A1.34,1.34,0,0,0,261.53,194.82Z" transform="translate(-180.97 -182.98)"/><path class="cls-3" d="M267.11,194.16l0.5,0.32-0.28.44a4.15,4.15,0,0,1,1.58.28l-0.32.5a5.21,5.21,0,0,0-.68-0.21,5.14,5.14,0,0,0-.62-0.12l-0.22,0-1.52,2.39-0.51-.33Z" transform="translate(-180.97 -182.98)"/><path class="cls-3" d="M269.5,200a2.58,2.58,0,0,1,.67-1.34,2.5,2.5,0,0,1,1.32-1,1.62,1.62,0,0,1,1.33.46,4.88,4.88,0,0,1,.68.69l1.08-1.32,0.46,0.38-3.5,4.3-0.46-.38,0.17-.2a2.61,2.61,0,0,1-1.19-.53A1.25,1.25,0,0,1,269.5,200Zm1.4,1a2.75,2.75,0,0,0,.46.18l0.17,0,1.65-2a5.27,5.27,0,0,0-.65-0.65,1,1,0,0,0-.92-0.29,2.07,2.07,0,0,0-.94.75,2.31,2.31,0,0,0-.54,1,0.76,0.76,0,0,0,.33.73A2.18,2.18,0,0,0,270.9,201Z" transform="translate(-180.97 -182.98)"/><path class="cls-3" d="M278.66,206l1.54,1.91-0.42.34-1.54-1.91Z" transform="translate(-180.97 -182.98)"/><path class="cls-3" d="M285.1,211.49l-1.46-.72,0.23-.48,1.81,0.88,0.3,0.5-4.34,2.67-0.33-.53Z" transform="translate(-180.97 -182.98)"/><path class="cls-3" d="M194,265.44l0.37,0.53-3.41,3.53,0.13,0.19,4.57-1.79,0.42,0.6-3.26,3.66,0.13,0.19,4.5-2,0.37,0.52-5,2.12-0.65-.94,3.14-3.48-4.35,1.73-0.65-.94Z" transform="translate(-180.97 -182.98)"/><path class="cls-3" d="M200.17,273.56l0.42,0.46-3.94,3.61-0.42-.46Z" transform="translate(-180.97 -182.98)"/><path class="cls-3" d="M200.07,280.14l4.81-1.06L205,279,202.8,277l0.35-.39,2.74,2.4-0.46.52-4.82,1-0.1.12,2.2,1.93-0.35.4-2.74-2.4Z" transform="translate(-180.97 -182.98)"/><path class="cls-3" d="M209,286.16l-2-1.33-1.1.92-0.51-.34,4.24-3.6,1.13,0.75-1.68,5.3-0.51-.34Zm-1.59-1.69,1.77,1.17,0.91-2.91-0.35-.23Z" transform="translate(-180.97 -182.98)"/><path class="cls-3" d="M215.1,285.11L217,286a2,2,0,0,1,1,.94,1.56,1.56,0,0,1-.13,1.3,1.43,1.43,0,0,1-1.6,1l0,2.42-0.62-.3,0-2.28-1.43-.68-0.88,1.85-0.56-.27Zm0.68,3.4a1.12,1.12,0,1,0,1-2l-1.31-.62-1,2Z" transform="translate(-180.97 -182.98)"/><path class="cls-3" d="M225.09,289.44a1.69,1.69,0,0,1,.32,1,4.84,4.84,0,0,1-.23,1.27,3.57,3.57,0,0,1-1.12,1.89,1.84,1.84,0,0,1-1.69.17l-1.91-.59,1.58-5.1,1.91,0.59A2.09,2.09,0,0,1,225.09,289.44Zm-0.54,2.18a2.78,2.78,0,0,0,.13-1.61,1.23,1.23,0,0,0-.89-0.79l-1.31-.41-1.27,4.1,1.31,0.41Q223.88,293.74,224.54,291.62Z" transform="translate(-180.97 -182.98)"/><path class="cls-3" d="M228.75,295.36l-0.28-.08,0.14-.48a14.74,14.74,0,0,0,1.63.41,1,1,0,0,0,1.36-.87,0.86,0.86,0,0,0,0-.48,0.76,0.76,0,0,0-.32-0.33,4,4,0,0,0-.72-0.32,4.79,4.79,0,0,1-1-.46,1.16,1.16,0,0,1-.46-0.54,1.48,1.48,0,0,1,0-.78q0.23-1.42,2-1.13a12.27,12.27,0,0,1,1.65.42l-0.14.49q-1.13-.32-1.55-0.38-1.2-.2-1.34.67a0.9,0.9,0,0,0,0,.52,0.79,0.79,0,0,0,.35.34,6.58,6.58,0,0,0,.85.38,4.22,4.22,0,0,1,.87.44,1.1,1.1,0,0,1,.41.5,1.4,1.4,0,0,1,0,.72,1.52,1.52,0,0,1-2,1.34A10.89,10.89,0,0,1,228.75,295.36Z" transform="translate(-180.97 -182.98)"/><path class="cls-3" d="M252.31,293.63l-2.35.48-0.12,1.43-0.6.12,0.44-5.54,1.33-.27,2.57,4.93-0.6.12Zm-2.32-.07,2.08-.42-1.42-2.7-0.41.08Z" transform="translate(-180.97 -182.98)"/><path class="cls-3" d="M257.58,293.37a1.53,1.53,0,0,1-.88-0.64,5.69,5.69,0,0,1-.66-1.41,5.77,5.77,0,0,1-.34-1.52,1.56,1.56,0,0,1,.3-1,2.28,2.28,0,0,1,1.12-.7,8,8,0,0,1,1.49-.33l0.14,0.48a8.53,8.53,0,0,0-1.38.32,1.74,1.74,0,0,0-.84.51,1.11,1.11,0,0,0-.19.8,6.15,6.15,0,0,0,.34,1.35,5.44,5.44,0,0,0,.5,1.13,1.08,1.08,0,0,0,.64.49,1.87,1.87,0,0,0,1-.12,7.67,7.67,0,0,0,1.22-.56l0.19,0.47a7.82,7.82,0,0,1-1.34.63A2.39,2.39,0,0,1,257.58,293.37Z" transform="translate(-180.97 -182.98)"/><path class="cls-3" d="M265.94,288.66l-2.15,1.06,0.24,1.41-0.55.27-1-5.47,1.22-.6,3.74,4.12-0.55.27Zm-2.26.52,1.9-.93L263.52,286l-0.38.19Z" transform="translate(-180.97 -182.98)"/><path class="cls-3" d="M270.68,281.55a1.7,1.7,0,0,1,1,.41,4.75,4.75,0,0,1,.84,1,3.56,3.56,0,0,1,.77,2.05,1.84,1.84,0,0,1-.93,1.43l-1.66,1.12-3-4.43L269.4,282A2.09,2.09,0,0,1,270.68,281.55Zm1.35,1.79a2.77,2.77,0,0,0-1.17-1.11,1.24,1.24,0,0,0-1.17.2l-1.14.77,2.4,3.56,1.14-.77Q273.28,285.18,272,283.33Z" transform="translate(-180.97 -182.98)"/><path class="cls-3" d="M274.56,278.72l1.22,1.38,1.72-1.52,0.34,0.39-1.72,1.52,1.28,1.45,2.08-1.85,0.35,0.39-2.55,2.26-3.54-4,2.55-2.26,0.35,0.39Z" transform="translate(-180.97 -182.98)"/><path class="cls-3" d="M282.1,270.05l4.09,3.44-0.4.48-3.6-3-0.07.09,2.41,4.15-0.45.53-4.5-1.67-0.07.09,3.6,3-0.4.48-4.08-3.44,0.72-.86,4.48,1.7-2.44-4.13Z" transform="translate(-180.97 -182.98)"/><path class="cls-3" d="M287.36,267.77l-3.57-.11,0.37-.6,2.86,0.14-1.39-2.5,0.37-.6,1.69,3.15,1.91,1.19-0.33.53Z" transform="translate(-180.97 -182.98)"/><polygon class="cls-3" points="7.02 53.01 9.9 53.91 7.44 55.65 7.48 58.66 5.06 56.86 2.21 57.83 3.18 54.97 1.38 52.56 4.39 52.59 6.13 50.13 7.02 53.01"/><polygon class="cls-3" points="113.05 53.01 115.93 53.91 113.47 55.65 113.51 58.66 111.09 56.86 108.24 57.83 109.21 54.97 107.4 52.56 110.42 52.59 112.16 50.13 113.05 53.01"/><polygon class="cls-3" points="89.61 46.11 69.34 45.48 62.19 31.32 71.78 33.15 58.67 24.35 55.15 31.32 47.99 45.48 27.73 46.11 49.94 57.24 39.62 49.71 53.28 50.11 58.67 36.75 64.06 50.11 77.72 49.71 65.62 57.24 89.61 46.11"/><polygon class="cls-4" points="65.04 59.26 72.47 71.74 79.63 75.59 65.04 59.26"/><polygon class="cls-4" points="72.47 71.74 58.67 62.89 44.97 71.74 33.89 86.34 58.72 71.3 83.56 86.34 72.47 71.74"/><polygon class="cls-4" points="37.82 75.59 44.97 71.74 52.41 59.26 37.82 75.59"/></svg>