<svg id="Layer_1" data-name="Layer 1" xmlns="http://www.w3.org/2000/svg" viewBox="0 0 116.67 116.67"><defs><style>.cls-1{fill:#ff5c9e;}.cls-2{fill:#1c112d;}.cls-3{fill:#fff;}.cls-4{fill:#1e0435;}</style></defs><title>WaterlooOxford-2</title><circle class="cls-1" cx="58.33" cy="58.33" r="53.33"/><path class="cls-2" d="M239.3,427.15a58.33,58.33,0,1,1,58.33-58.33A58.4,58.4,0,0,1,239.3,427.15Zm0-106.67a48.33,48.33,0,1,0,48.33,48.33A48.39,48.39,0,0,0,239.3,320.49Z" transform="translate(-180.97 -310.49)"/><path class="cls-3" d="M193.38,337.26l0.38-.52,4.45,2.08,0.14-.19-3.17-3.75,0.43-.59,4.52,1.91,0.14-.19L197,332.39l0.38-.51L201,336l-0.68.92L196,335l3,3.56-0.68.92Z" transform="translate(-180.97 -310.49)"/><path class="cls-3" d="M203.52,332.75a1.2,1.2,0,0,1-.82-0.41,1.07,1.07,0,0,1-.37-0.8,1.61,1.61,0,0,1,.44-0.9l0.82-1-0.23-.24a0.62,0.62,0,0,0-1-.05,15.45,15.45,0,0,0-1.06,1.19l-0.33-.3a8.25,8.25,0,0,1,1-1.23,1.42,1.42,0,0,1,.92-0.49,1.26,1.26,0,0,1,.89.45l1.39,1.4a0.43,0.43,0,0,0,.57-0.09l0.3,0.34a1.34,1.34,0,0,1-.9.46,3.66,3.66,0,0,1-.82,1.24A1.13,1.13,0,0,1,203.52,332.75Zm1.19-1.69,0.09-.17-0.9-.91-0.78.92a0.8,0.8,0,0,0-.23.51,0.69,0.69,0,0,0,.23.47,0.59,0.59,0,0,0,.94.07A3.47,3.47,0,0,0,204.71,331.06Z" transform="translate(-180.97 -310.49)"/><path class="cls-3" d="M208.8,328.22a0.73,0.73,0,0,1-.53-0.14,2.78,2.78,0,0,1-.61-0.61l-1.25-1.6-0.45.35-0.31-.39,0.45-.35-0.73-.93,0.47-.37,0.73,0.93,1-.79,0.31,0.4-1,.79L208,327a4.79,4.79,0,0,0,.42.49,0.53,0.53,0,0,0,.32.16,0.59,0.59,0,0,0,.38-0.16l0.54-.48,0.33,0.35a6.48,6.48,0,0,1-.63.6A1.35,1.35,0,0,1,208.8,328.22Z" transform="translate(-180.97 -310.49)"/><path class="cls-3" d="M212.4,325.21a2.23,2.23,0,0,1-1.08-1,2.52,2.52,0,0,1-.48-1.57,1.88,1.88,0,0,1,2.1-1.37,2,2,0,0,1,1.05,1l0.2,0.39L211.91,324a2,2,0,0,0,.48.58,0.71,0.71,0,0,0,.52.14,1.81,1.81,0,0,0,.69-0.28l0.46-.29,0.46-.32,0.19-.14L215,324a11.38,11.38,0,0,1-1.21.88A1.62,1.62,0,0,1,212.4,325.21Zm1.06-2.73a1.64,1.64,0,0,0-.72-0.73,0.92,0.92,0,0,0-.81.15,1,1,0,0,0-.54.7,1.53,1.53,0,0,0,.28,1Z" transform="translate(-180.97 -310.49)"/><path class="cls-3" d="M216.34,319l0.54-.25,0.22,0.48a4.16,4.16,0,0,1,1.09-1.17l0.25,0.53a5.1,5.1,0,0,0-.54.46,5.31,5.31,0,0,0-.43.46l-0.14.18,1.19,2.57-0.55.26Z" transform="translate(-180.97 -310.49)"/><path class="cls-3" d="M220.86,315.32l0.57-.2,1.84,5.23-0.57.2Z" transform="translate(-180.97 -310.49)"/><path class="cls-3" d="M227.06,319.06a1.16,1.16,0,0,1-.67-0.5,4.14,4.14,0,0,1-.52-2.26,1.18,1.18,0,0,1,.39-0.76,2.16,2.16,0,0,1,.94-0.43,2.11,2.11,0,0,1,1,0,1.21,1.21,0,0,1,.68.51,4.13,4.13,0,0,1,.54,2.25,1.16,1.16,0,0,1-.38.74A2.7,2.7,0,0,1,227.06,319.06Zm1.57-.82a0.76,0.76,0,0,0,.21-0.52,3.24,3.24,0,0,0-.11-0.88,3.4,3.4,0,0,0-.31-0.88,0.76,0.76,0,0,0-.43-0.38,1.33,1.33,0,0,0-.69,0,1.37,1.37,0,0,0-.63.29,0.78,0.78,0,0,0-.23.53,3.34,3.34,0,0,0,.11.92,3.27,3.27,0,0,0,.29.84,0.75,0.75,0,0,0,.43.37,1.36,1.36,0,0,0,.71,0A1.32,1.32,0,0,0,228.63,318.24Z" transform="translate(-180.97 -310.49)"/><path class="cls-3" d="M233.47,317.86a1.15,1.15,0,0,1-.6-0.58,3.32,3.32,0,0,1-.27-1.12,3.36,3.36,0,0,1,.06-1.19,1.19,1.19,0,0,1,.48-0.7,2.16,2.16,0,0,1,1-.3,2.1,2.1,0,0,1,1,.11,1.21,1.21,0,0,1,.61.59A4.14,4.14,0,0,1,236,317a1.16,1.16,0,0,1-.47.69A2.69,2.69,0,0,1,233.47,317.86Zm1.67-.6a0.77,0.77,0,0,0,.28-0.48,4.33,4.33,0,0,0-.18-1.8,0.76,0.76,0,0,0-.38-0.43,1.32,1.32,0,0,0-.68-0.07,1.36,1.36,0,0,0-.66.2,0.78,0.78,0,0,0-.29.49,3.29,3.29,0,0,0,0,.93,3.25,3.25,0,0,0,.18.87,0.76,0.76,0,0,0,.38.42,1.36,1.36,0,0,0,.7.07A1.32,1.32,0,0,0,235.14,317.25Z" transform="translate(-180.97 -310.49)"/><path class="cls-3" d="M244.33,317.69a1.58,1.58,0,0,1-.57-1,6,6,0,0,1,.41-3.11,1.65,1.65,0,0,1,.81-0.81,3,3,0,0,1,2.58.34,1.67,1.67,0,0,1,.58,1,6,6,0,0,1-.4,3.13,1.56,1.56,0,0,1-.79.77,2.66,2.66,0,0,1-1.34.11A2.6,2.6,0,0,1,244.33,317.69Zm2.31-.16a1.17,1.17,0,0,0,.56-0.62,4.75,4.75,0,0,0,.3-1.26,4.82,4.82,0,0,0,0-1.31,1.27,1.27,0,0,0-.38-0.78,1.64,1.64,0,0,0-.91-0.36,1.67,1.67,0,0,0-1,.11,1.26,1.26,0,0,0-.57.65,6.07,6.07,0,0,0-.34,2.56,1.17,1.17,0,0,0,.39.75,1.77,1.77,0,0,0,.92.34A1.75,1.75,0,0,0,246.64,317.54Z" transform="translate(-180.97 -310.49)"/><path class="cls-3" d="M252.35,317.43l-0.72-2.2,0.64,0.17,0.56,1.72,1.35-1.2,0.64,0.17-1.74,1.51,0.73,2.21-0.64-.17-0.55-1.71-1.35,1.19-0.64-.17Z" transform="translate(-180.97 -310.49)"/><path class="cls-3" d="M258.06,317.76l-0.47-.19,0.18-.47,0.47,0.19,0.13-.32a2.7,2.7,0,0,1,.41-0.75,0.73,0.73,0,0,1,.47-0.28,1.35,1.35,0,0,1,.65.12l0.74,0.35-0.18.44-0.58-.25-0.14-.06a0.41,0.41,0,0,0-.46.06,1.65,1.65,0,0,0-.35.59l-0.12.32,1.09,0.43-0.18.47-1.09-.43-1.23,3.13-0.56-.22Z" transform="translate(-180.97 -310.49)"/><path class="cls-3" d="M261.68,322.88a1.14,1.14,0,0,1-.18-0.82,4.14,4.14,0,0,1,1.1-2,1.19,1.19,0,0,1,.79-0.31,2.17,2.17,0,0,1,1,.3,2.1,2.1,0,0,1,.8.66,1.2,1.2,0,0,1,.18.83,4.12,4.12,0,0,1-1.09,2,1.16,1.16,0,0,1-.78.31A2.69,2.69,0,0,1,261.68,322.88Zm1.72,0.42a0.76,0.76,0,0,0,.5-0.25,3.29,3.29,0,0,0,.5-0.74,3.37,3.37,0,0,0,.35-0.86,0.76,0.76,0,0,0-.08-0.56,1.32,1.32,0,0,0-.53-0.44,1.36,1.36,0,0,0-.66-0.2,0.77,0.77,0,0,0-.52.25,4.27,4.27,0,0,0-.86,1.59,0.76,0.76,0,0,0,.08.56,1.36,1.36,0,0,0,.54.45A1.31,1.31,0,0,0,263.4,323.3Z" transform="translate(-180.97 -310.49)"/><path class="cls-3" d="M269,322.88l0.49,0.34-0.3.43a4.13,4.13,0,0,1,1.56.35l-0.34.48a5.11,5.11,0,0,0-.67-0.24,5.55,5.55,0,0,0-.62-0.14l-0.22,0-1.62,2.32-0.5-.35Z" transform="translate(-180.97 -310.49)"/><path class="cls-3" d="M271.13,328.81a2.57,2.57,0,0,1,.72-1.31,2.51,2.51,0,0,1,1.36-.92,1.63,1.63,0,0,1,1.31.52,5,5,0,0,1,.65.71l1.13-1.28,0.45,0.4-3.68,4.14-0.45-.4,0.17-.2a2.6,2.6,0,0,1-1.16-.58A1.25,1.25,0,0,1,271.13,328.81Zm1.36,1.06a2.76,2.76,0,0,0,.45.2l0.17,0.06,1.74-2a5.55,5.55,0,0,0-.62-0.68,1,1,0,0,0-.9-0.33,2.07,2.07,0,0,0-1,.71,2.3,2.3,0,0,0-.58,1,0.76,0.76,0,0,0,.3.74A2.18,2.18,0,0,0,272.5,329.87Z" transform="translate(-180.97 -310.49)"/><path class="cls-3" d="M277.21,331.87l1.62,1.84-0.41.36-1.62-1.84Z" transform="translate(-180.97 -310.49)"/><path class="cls-3" d="M279.52,337.64l2.17,0.42,0.82,0.15a2.46,2.46,0,0,0,.62,0,1.21,1.21,0,0,0,.56-0.2,0.81,0.81,0,0,0,.42-0.61,1.5,1.5,0,0,0-.33-0.85,6.14,6.14,0,0,0-.76-0.9l-0.15-.15,0.38-.32a5.92,5.92,0,0,1,1.06,1.2,1.94,1.94,0,0,1,.42,1.21,1.25,1.25,0,0,1-.63.92,1.76,1.76,0,0,1-.9.32,5,5,0,0,1-1.3-.18l-1.94-.41,1.5,2.22-0.43.29-1.91-2.83Z" transform="translate(-180.97 -310.49)"/><path class="cls-3" d="M194,392.94l0.37,0.53L190.94,397l0.13,0.19,4.57-1.79,0.42,0.6-3.26,3.66,0.13,0.19,4.5-2,0.37,0.52-5,2.12-0.65-.94,3.14-3.48-4.35,1.73-0.65-.94Z" transform="translate(-180.97 -310.49)"/><path class="cls-3" d="M200.17,401.07l0.42,0.46-3.94,3.61-0.42-.46Z" transform="translate(-180.97 -310.49)"/><path class="cls-3" d="M200.07,407.65l4.81-1.06,0.11-.13-2.2-1.93,0.35-.39,2.74,2.4-0.46.52-4.82,1-0.1.12,2.2,1.93-0.35.4-2.74-2.4Z" transform="translate(-180.97 -310.49)"/><path class="cls-3" d="M209,413.67l-2-1.33-1.1.92-0.51-.34,4.24-3.6,1.13,0.75-1.68,5.3-0.51-.34ZM207.42,412l1.77,1.17,0.91-2.91-0.35-.23Z" transform="translate(-180.97 -310.49)"/><path class="cls-3" d="M215.1,412.62l1.87,0.89a2,2,0,0,1,1,.94,1.56,1.56,0,0,1-.13,1.3,1.43,1.43,0,0,1-1.6,1l0,2.42-0.62-.3,0-2.28-1.43-.68-0.88,1.85-0.56-.27Zm0.68,3.4a1.12,1.12,0,1,0,1-2l-1.31-.62-1,2Z" transform="translate(-180.97 -310.49)"/><path class="cls-3" d="M225.09,416.95a1.69,1.69,0,0,1,.32,1,4.84,4.84,0,0,1-.23,1.27,3.57,3.57,0,0,1-1.12,1.89,1.84,1.84,0,0,1-1.69.17l-1.91-.59,1.58-5.1,1.91,0.59A2.09,2.09,0,0,1,225.09,416.95Zm-0.54,2.18a2.78,2.78,0,0,0,.13-1.61,1.23,1.23,0,0,0-.89-0.79l-1.31-.41-1.27,4.1,1.31,0.41Q223.88,421.25,224.54,419.12Z" transform="translate(-180.97 -310.49)"/><path class="cls-3" d="M228.75,422.86l-0.28-.08,0.14-.48a14.74,14.74,0,0,0,1.63.41,1,1,0,0,0,1.36-.87,0.86,0.86,0,0,0,0-.48,0.76,0.76,0,0,0-.32-0.33,4,4,0,0,0-.72-0.32,4.79,4.79,0,0,1-1-.46,1.16,1.16,0,0,1-.46-0.54,1.48,1.48,0,0,1,0-.78q0.23-1.42,2-1.13a12.27,12.27,0,0,1,1.65.42l-0.14.49q-1.13-.32-1.55-0.38-1.2-.2-1.34.67a0.9,0.9,0,0,0,0,.52,0.79,0.79,0,0,0,.35.34,6.58,6.58,0,0,0,.85.38,4.22,4.22,0,0,1,.87.44,1.1,1.1,0,0,1,.41.5,1.4,1.4,0,0,1,0,.72,1.52,1.52,0,0,1-2,1.34A10.89,10.89,0,0,1,228.75,422.86Z" transform="translate(-180.97 -310.49)"/><path class="cls-3" d="M252.31,421.14l-2.35.48L249.84,423l-0.6.12,0.44-5.54,1.33-.27,2.57,4.93-0.6.12Zm-2.32-.07,2.08-.42-1.42-2.7-0.41.08Z" transform="translate(-180.97 -310.49)"/><path class="cls-3" d="M257.58,420.88a1.53,1.53,0,0,1-.88-0.64,5.69,5.69,0,0,1-.66-1.41,5.77,5.77,0,0,1-.34-1.52,1.56,1.56,0,0,1,.3-1,2.28,2.28,0,0,1,1.12-.7,8,8,0,0,1,1.49-.33l0.14,0.48a8.53,8.53,0,0,0-1.38.32,1.74,1.74,0,0,0-.84.51,1.11,1.11,0,0,0-.19.8,6.15,6.15,0,0,0,.34,1.35,5.44,5.44,0,0,0,.5,1.13,1.08,1.08,0,0,0,.64.49,1.87,1.87,0,0,0,1-.12,7.67,7.67,0,0,0,1.22-.56l0.19,0.47a7.82,7.82,0,0,1-1.34.63A2.39,2.39,0,0,1,257.58,420.88Z" transform="translate(-180.97 -310.49)"/><path class="cls-3" d="M265.94,416.17l-2.15,1.06,0.24,1.41-0.55.27-1-5.47,1.22-.6,3.74,4.12-0.55.27Zm-2.26.52,1.9-.93-2.05-2.25-0.38.19Z" transform="translate(-180.97 -310.49)"/><path class="cls-3" d="M270.68,409.05a1.7,1.7,0,0,1,1,.41,4.75,4.75,0,0,1,.84,1,3.56,3.56,0,0,1,.77,2.05,1.84,1.84,0,0,1-.93,1.43L270.72,415l-3-4.43,1.66-1.12A2.09,2.09,0,0,1,270.68,409.05Zm1.35,1.79a2.77,2.77,0,0,0-1.17-1.11,1.24,1.24,0,0,0-1.17.2l-1.14.77,2.4,3.56,1.14-.77Q273.28,412.68,272,410.84Z" transform="translate(-180.97 -310.49)"/><path class="cls-3" d="M274.56,406.23l1.22,1.38,1.72-1.52,0.34,0.39L276.12,408l1.28,1.45,2.08-1.85,0.35,0.39-2.55,2.26-3.54-4,2.55-2.26,0.35,0.39Z" transform="translate(-180.97 -310.49)"/><path class="cls-3" d="M282.1,397.56l4.09,3.44-0.4.48-3.6-3-0.07.09,2.41,4.15-0.45.53-4.5-1.67-0.07.09,3.6,3-0.4.48-4.08-3.44,0.72-.86,4.48,1.7-2.44-4.13Z" transform="translate(-180.97 -310.49)"/><path class="cls-3" d="M287.36,395.27l-3.57-.11,0.37-.6L287,394.7l-1.39-2.5,0.37-.6,1.69,3.15,1.91,1.19-0.33.53Z" transform="translate(-180.97 -310.49)"/><polygon class="cls-3" points="7.02 53.01 9.9 53.91 7.44 55.65 7.48 58.66 5.06 56.86 2.21 57.83 3.18 54.97 1.38 52.56 4.39 52.59 6.13 50.13 7.02 53.01"/><polygon class="cls-3" points="113.05 53.01 115.93 53.91 113.47 55.65 113.51 58.66 111.09 56.86 108.24 57.83 109.21 54.97 107.4 52.56 110.42 52.59 112.16 50.13 113.05 53.01"/><polygon class="cls-3" points="89.61 46.11 69.34 45.48 62.19 31.32 71.78 33.15 58.67 24.35 55.15 31.32 47.99 45.48 27.73 46.11 49.94 57.24 39.62 49.71 53.28 50.11 58.67 36.75 64.06 50.11 77.72 49.71 65.62 57.24 89.61 46.11"/><polygon class="cls-4" points="65.04 59.26 72.47 71.74 79.63 75.59 65.04 59.26"/><polygon class="cls-4" points="72.47 71.74 58.67 62.89 44.97 71.74 33.89 86.34 58.72 71.3 83.56 86.34 72.47 71.74"/><polygon class="cls-4" points="37.82 75.59 44.97 71.74 52.41 59.26 37.82 75.59"/></svg>