<svg id="Layer_1" data-name="Layer 1" xmlns="http://www.w3.org/2000/svg" viewBox="0 0 289.2 192.1"><defs><style>.cls-1{fill:#5e5e5e;}.cls-2{fill:#282828;}.cls-3{fill:#fff;}.cls-4{fill:#1c112d;}</style></defs><title>wizard-big2</title><path class="cls-1" d="M218.56,692.49" transform="translate(-155.35 -545.59)"/><path class="cls-1" d="M214.7,690.47" transform="translate(-155.35 -545.59)"/><path class="cls-2" d="M214.7,690.47" transform="translate(-155.35 -545.59)"/><path class="cls-2" d="M214.7,690.47" transform="translate(-155.35 -545.59)"/><polygon class="cls-3" points="197.97 41.8 162.45 40.59 149.91 13.4 158.57 16.37 143.72 0 137.55 13.4 125 40.59 89.48 41.8 128.41 63.17 110.32 48.71 134.28 49.48 143.72 23.82 153.17 49.48 177.13 48.71 155.91 63.17 197.97 41.8"/><polygon class="cls-4" points="154.89 66.3 167.93 90.26 180.48 97.66 154.89 66.3"/><polygon class="cls-4" points="167.93 90.26 143.72 73.27 119.71 90.26 100.27 118.3 143.82 93.18 187.37 118.3 167.93 90.26"/><polygon class="cls-4" points="107.16 97.66 119.71 90.26 132.75 66.3 107.16 97.66"/><path class="cls-4" d="M210.42,692.74v0.49L205.62,736a2.75,2.75,0,0,1-.39,1.33,1.26,1.26,0,0,1-1.07.4H190.48a1.88,1.88,0,0,1-2-1.85l-5.12-31.68a0.53,0.53,0,0,0-.5-0.56h-0.41a0.57,0.57,0,0,0-.59.56l-4.48,31.68a1.88,1.88,0,0,1-2,1.85H162.07a1.22,1.22,0,0,1-1.05-.43,2.64,2.64,0,0,1-.41-1.3l-5.26-42.73v-0.49h9.42l3.93,34a0.72,0.72,0,0,0,.69.8h0.46a0.76,0.76,0,0,0,.69-0.8l4.76-32.42a2,2,0,0,1,.48-1.24,1.78,1.78,0,0,1,1.26-.37h11.53a1.66,1.66,0,0,1,1.74,1.61l5.31,32.42a0.75,0.75,0,0,0,.64.8h0.5a0.73,0.73,0,0,0,.78-0.8l3.25-34h9.65Z" transform="translate(-155.35 -545.59)"/><path class="cls-4" d="M213.26,737.69v-45h9.42v45h-9.42Z" transform="translate(-155.35 -545.59)"/><path class="cls-4" d="M266.65,737.69H228.22a1.48,1.48,0,0,1-1.1-.37,2.17,2.17,0,0,1-.37-1.48v-9.08a4.86,4.86,0,0,1,.32-1.91,4.05,4.05,0,0,1,1.1-1.42l17.89-15q1.74-1.42,3.32-2.62l3-2.25v-0.49a13.18,13.18,0,0,1-1.58.16l-1.69.09q-0.89.06-1.94,0.06H226.76V692.74h38.33a1.49,1.49,0,0,1,1.12.4,2.09,2.09,0,0,1,.39,1.45v7a3.85,3.85,0,0,1-.3,1.7,4,4,0,0,1-1,1.2l-18,15q-2.56,2.16-4.48,3.64T238.83,726v0.74q1.74-.19,3.48-0.28t3.93-.09h20.4v11.36Z" transform="translate(-155.35 -545.59)"/><path class="cls-4" d="M280,737.69H269.12V737.2l16.7-43a3.27,3.27,0,0,1,.64-1.17,1.56,1.56,0,0,1,1.1-.31H299a1.66,1.66,0,0,1,1.12.31,3.44,3.44,0,0,1,.71,1.17l16.56,43v0.49h-28.5l-2.74-9.76V726.7h11.87q1.07,0,1.9,0t1.46,0.09l1.23,0.12,0.14-.43q-0.27-.68-0.57-1.33t-0.66-1.58l-0.87-2.22q-0.5-1.3-1.24-3.27l-5.26-14.2a0.65,0.65,0,0,0-.64-0.43H293a0.62,0.62,0,0,0-.59.43Z" transform="translate(-155.35 -545.59)"/><path class="cls-4" d="M329.55,716v21.67h-9.42v-43.1q0-1.85,1.28-1.85h26a12.57,12.57,0,0,1,5.26,1,8.53,8.53,0,0,1,3.48,2.87,12.59,12.59,0,0,1,1.92,4.54,27.5,27.5,0,0,1,.6,6v3.21a26.34,26.34,0,0,1-.6,5.87,12.17,12.17,0,0,1-1.9,4.42,8.67,8.67,0,0,1-3.36,2.81,11.58,11.58,0,0,1-5,1h-2.17a8.28,8.28,0,0,1-1-.06v0.43q0.59,0.74,1.19,1.64t1.14,1.82l5.31,9v0.49H341.62L329.87,716h-0.32Zm0.64-12q-0.64,0-.64,1v9.82h16.19a3.26,3.26,0,0,0,2.68-1q0.8-1,.8-3.77v-1.54a5.89,5.89,0,0,0-.8-3.58,3.26,3.26,0,0,0-2.68-1H330.19Z" transform="translate(-155.35 -545.59)"/><path class="cls-4" d="M361.8,694.59q0-1.85,1.28-1.85h25a14.37,14.37,0,0,1,6.31,1.27,10.7,10.7,0,0,1,4.21,3.58,15.76,15.76,0,0,1,2.33,5.62,34.17,34.17,0,0,1,.73,7.38v9.26a34.17,34.17,0,0,1-.73,7.38,15.75,15.75,0,0,1-2.33,5.62,10.7,10.7,0,0,1-4.21,3.58,14.35,14.35,0,0,1-6.31,1.27H374.61l-3-10.5h-0.37v10.5H361.8v-43.1ZM371.22,726h16a4.39,4.39,0,0,0,3.84-1.61q1.14-1.6,1.14-5.68V711.2q0-4.2-1.14-5.71a4.52,4.52,0,0,0-3.84-1.51H371.91a0.57,0.57,0,0,0-.5.28,1.15,1.15,0,0,0-.18.65V726Z" transform="translate(-155.35 -545.59)"/><path class="cls-4" d="M435.31,708.3h-0.37v-4.94q0-.74-0.55-0.74H416.83a1.47,1.47,0,0,0-1.33.56,2.91,2.91,0,0,0-.37,1.61v1.11a2.83,2.83,0,0,0,.32,1.67,2.2,2.2,0,0,0,1.23.56L437.37,712a10.93,10.93,0,0,1,3.34,1.14,6.63,6.63,0,0,1,2.24,2,8.32,8.32,0,0,1,1.24,3.12,23,23,0,0,1,.37,4.38v3.58a21.51,21.51,0,0,1-.5,4.91,9.08,9.08,0,0,1-1.65,3.58,7.06,7.06,0,0,1-3,2.19,12.62,12.62,0,0,1-4.62.74H405.12V726H431.7a1.77,1.77,0,0,0,1.58-.59,4,4,0,0,0,.39-2.07v-1.23a3.23,3.23,0,0,0-.3-1.64,1.57,1.57,0,0,0-1.17-.59l-19.95-3.4a12.52,12.52,0,0,1-3.45-1.11,6.68,6.68,0,0,1-2.36-2,8,8,0,0,1-1.33-3,19.24,19.24,0,0,1-.41-4.26V703q0-4.88,1.92-7.56t6.4-2.69h29.6q1.42,0,1.42,2V704Z" transform="translate(-155.35 -545.59)"/><path class="cls-3" d="M226.72,671v0.15l-1.5,12.9a0.81,0.81,0,0,1-.12.4,0.4,0.4,0,0,1-.33.12H220.5a0.58,0.58,0,0,1-.63-0.56l-1.6-9.56a0.16,0.16,0,0,0-.16-0.17H218a0.18,0.18,0,0,0-.19.17l-1.4,9.56a0.58,0.58,0,0,1-.63.56h-4.13a0.38,0.38,0,0,1-.33-0.13,0.78,0.78,0,0,1-.13-0.39l-1.64-12.9V671h2.94l1.23,10.27a0.22,0.22,0,0,0,.21.24h0.14a0.23,0.23,0,0,0,.21-0.24l1.48-9.79a0.57,0.57,0,0,1,.15-0.37,0.56,0.56,0,0,1,.39-0.11h3.59a0.51,0.51,0,0,1,.54.48l1.65,9.79a0.23,0.23,0,0,0,.2.24h0.16a0.22,0.22,0,0,0,.24-0.24l1-10.27h3Z" transform="translate(-155.35 -545.59)"/><path class="cls-3" d="M239.51,684.62h-3.39v-0.15l5.2-13a1,1,0,0,1,.2-0.35,0.5,0.5,0,0,1,.34-0.09h3.58a0.53,0.53,0,0,1,.35.09,1,1,0,0,1,.22.35l5.16,13v0.15h-8.88l-0.86-2.95V681.3h4.29l0.46,0,0.38,0,0-.13-0.18-.4q-0.09-.2-0.21-0.48l-0.27-.67-0.39-1-1.64-4.29a0.2,0.2,0,0,0-.2-0.13h-0.17a0.19,0.19,0,0,0-.19.13Z" transform="translate(-155.35 -545.59)"/><path class="cls-3" d="M266.15,674.44v10.18h-2.94V674.44h-4.31l-1-3.24V671h13.76q0.41,0,.41.56v3.52l-2.72,1.32h-0.11v-1.81q0-.21-0.16-0.21h-3Z" transform="translate(-155.35 -545.59)"/><path class="cls-3" d="M286.08,676.77H286v4.06c0,0.17.07,0.26,0.2,0.26h8.75v3.52H283.46q-0.41,0-.41-0.56V671.61q0-.56.41-0.56h11.15q0.43,0,.43.56v3.52l-2.72,1.32H292.2v-1.81c0-.14,0-0.21-0.14-0.21h-5.89a0.15,0.15,0,0,0-.15.08,0.44,0.44,0,0,0,0,.18v1.7h4.85v2.76h-4.06Z" transform="translate(-155.35 -545.59)"/><path class="cls-3" d="M309.12,678.07v6.54h-2.94v-13q0-.56.4-0.56h8.11a4,4,0,0,1,1.64.3,2.63,2.63,0,0,1,1.08.87,3.73,3.73,0,0,1,.6,1.37,8,8,0,0,1,.19,1.81v1a7.68,7.68,0,0,1-.19,1.77,3.61,3.61,0,0,1-.59,1.33,2.68,2.68,0,0,1-1,.85,3.7,3.7,0,0,1-1.57.3h-0.68l-0.32,0v0.13c0.12,0.15.25,0.31,0.37,0.49s0.24,0.36.36,0.55l1.65,2.7v0.15h-3.31l-3.66-6.54h-0.1Zm0.2-3.63c-0.13,0-.2.11-0.2,0.32v3h5a1,1,0,0,0,.83-0.3,1.86,1.86,0,0,0,.25-1.14v-0.47a1.74,1.74,0,0,0-.25-1.08,1,1,0,0,0-.83-0.3h-4.85Z" transform="translate(-155.35 -545.59)"/><path class="cls-3" d="M332.09,671v9.58a0.63,0.63,0,0,0,.07.33,0.3,0.3,0,0,0,.27.11h8.13v3.54H329.91a0.64,0.64,0,0,1-.58-0.27,1.45,1.45,0,0,1-.17-0.77V671h2.94Z" transform="translate(-155.35 -545.59)"/><path class="cls-3" d="M364.1,679.23a10,10,0,0,1-.23,2.23,4.7,4.7,0,0,1-.73,1.7,3.32,3.32,0,0,1-1.3,1.08,4.55,4.55,0,0,1-2,.38h-4.62a4.6,4.6,0,0,1-2-.38,3.32,3.32,0,0,1-1.31-1.08,4.68,4.68,0,0,1-.73-1.7,10,10,0,0,1-.23-2.23v-2.8a10,10,0,0,1,.23-2.23,4.69,4.69,0,0,1,.73-1.7,3.32,3.32,0,0,1,1.31-1.08,4.61,4.61,0,0,1,2-.38h4.62a4.56,4.56,0,0,1,2,.38,3.32,3.32,0,0,1,1.3,1.08,4.71,4.71,0,0,1,.73,1.7,10,10,0,0,1,.23,2.23v2.8ZM354,678.89a4.87,4.87,0,0,0,.11,1.14,1.37,1.37,0,0,0,.34.66,1.21,1.21,0,0,0,.61.32,4.42,4.42,0,0,0,.93.08h3.65a2,2,0,0,0,.78-0.13,1,1,0,0,0,.48-0.44,2.3,2.3,0,0,0,.24-0.83,11,11,0,0,0,.06-1.29v-1.79a3,3,0,0,0-.36-1.71,1.41,1.41,0,0,0-1.2-.47h-4.09a2,2,0,0,0-.78.13,1,1,0,0,0-.48.44,2.28,2.28,0,0,0-.24.82,10.75,10.75,0,0,0-.06,1.28v1.79Z" transform="translate(-155.35 -545.59)"/><path class="cls-3" d="M388.24,679.23a10,10,0,0,1-.23,2.23,4.7,4.7,0,0,1-.73,1.7,3.32,3.32,0,0,1-1.3,1.08,4.55,4.55,0,0,1-2,.38H379.4a4.6,4.6,0,0,1-2-.38,3.32,3.32,0,0,1-1.31-1.08,4.68,4.68,0,0,1-.73-1.7,10,10,0,0,1-.23-2.23v-2.8a10,10,0,0,1,.23-2.23,4.69,4.69,0,0,1,.73-1.7,3.32,3.32,0,0,1,1.31-1.08,4.61,4.61,0,0,1,2-.38H384a4.56,4.56,0,0,1,2,.38,3.32,3.32,0,0,1,1.3,1.08,4.71,4.71,0,0,1,.73,1.7,10,10,0,0,1,.23,2.23v2.8Zm-10.14-.33a4.87,4.87,0,0,0,.11,1.14,1.37,1.37,0,0,0,.34.66,1.21,1.21,0,0,0,.61.32,4.42,4.42,0,0,0,.93.08h3.65a2,2,0,0,0,.78-0.13,1,1,0,0,0,.48-0.44,2.3,2.3,0,0,0,.24-0.83,11,11,0,0,0,.06-1.29v-1.79a3,3,0,0,0-.36-1.71,1.41,1.41,0,0,0-1.2-.47h-4.09a2,2,0,0,0-.78.13,1,1,0,0,0-.48.44,2.28,2.28,0,0,0-.24.82,10.75,10.75,0,0,0-.06,1.28v1.79Z" transform="translate(-155.35 -545.59)"/></svg>