<svg id="Layer_1" data-name="Layer 1" xmlns="http://www.w3.org/2000/svg" viewBox="0 0 435.85 289.51"><defs><style>.cls-1{fill:#5e5e5e;}.cls-2{fill:#282828;}.cls-3{fill:#ff5c9e;}.cls-4{fill:#1c112d;}</style></defs><title>wizard-big</title><path class="cls-1" d="M155.07,404.82" transform="translate(-59.81 -183.44)"/><path class="cls-1" d="M149.25,401.77" transform="translate(-59.81 -183.44)"/><path class="cls-2" d="M149.25,401.77" transform="translate(-59.81 -183.44)"/><path class="cls-2" d="M149.25,401.77" transform="translate(-59.81 -183.44)"/><polygon class="cls-3" points="298.36 62.99 244.81 61.17 225.91 20.19 238.97 24.67 216.6 0 207.29 20.19 188.39 61.17 134.85 62.99 193.53 95.21 166.25 73.42 202.37 74.58 216.6 35.89 230.83 74.58 266.95 73.42 234.97 95.21 298.36 62.99"/><polygon class="cls-4" points="233.43 99.91 253.08 136.03 271.99 147.17 233.43 99.91"/><polygon class="cls-4" points="253.08 136.03 216.6 110.42 180.41 136.03 151.12 178.28 216.75 140.43 282.37 178.28 253.08 136.03"/><polygon class="cls-4" points="161.5 147.17 180.41 136.03 200.06 99.91 161.5 147.17"/><path class="cls-4" d="M142.81,405.2v0.74l-7.24,64.4a4.15,4.15,0,0,1-.59,2,1.9,1.9,0,0,1-1.62.6H112.75q-2.62,0-3-2.79L102,422.42a0.8,0.8,0,0,0-.76-0.84h-0.62a0.85,0.85,0,0,0-.9.84L93,470.16q-0.41,2.79-3,2.79h-20a1.84,1.84,0,0,1-1.59-.65,4,4,0,0,1-.62-2l-7.93-64.4V405.2H74l5.93,51.28a1.09,1.09,0,0,0,1,1.21h0.69a1.14,1.14,0,0,0,1-1.21l7.17-48.86a2.93,2.93,0,0,1,.72-1.86,2.68,2.68,0,0,1,1.9-.56h17.37a2.5,2.5,0,0,1,2.62,2.42l8,48.86q0.21,1.21,1,1.21h0.76a1.09,1.09,0,0,0,1.17-1.21l4.9-51.28h14.55Z" transform="translate(-59.81 -183.44)"/><path class="cls-4" d="M147.09,473V405.2h14.2V473h-14.2Z" transform="translate(-59.81 -183.44)"/><path class="cls-4" d="M227.54,473H169.63a2.23,2.23,0,0,1-1.65-.56,3.26,3.26,0,0,1-.55-2.23V456.48a7.34,7.34,0,0,1,.48-2.88,6.12,6.12,0,0,1,1.65-2.14l27-22.61q2.62-2.14,5-4l4.45-3.4v-0.74a19.77,19.77,0,0,1-2.38.23q-1.21,0-2.55.14t-2.93.09H167.42v-16H225.2a2.25,2.25,0,0,1,1.69.6,3.15,3.15,0,0,1,.59,2.19v10.52a5.81,5.81,0,0,1-.45,2.56,6.08,6.08,0,0,1-1.55,1.81L198.31,445.5q-3.86,3.26-6.76,5.49t-5.93,4.28v1.12q2.62-.28,5.24-0.42t5.93-.14h30.75V473Z" transform="translate(-59.81 -183.44)"/><path class="cls-4" d="M247.67,473H231.26v-0.74l25.16-64.77a4.94,4.94,0,0,1,1-1.77,2.35,2.35,0,0,1,1.65-.46h17.3a2.5,2.5,0,0,1,1.69.46,5.2,5.2,0,0,1,1.07,1.77l25,64.77V473h-43L257,458.25v-1.86h17.89q1.62,0,2.86,0t2.21,0.14l1.86,0.19,0.21-.65q-0.41-1-.86-2t-1-2.37q-0.55-1.4-1.31-3.35T277,443.45L269,422a1,1,0,0,0-1-.65h-0.83a0.93,0.93,0,0,0-.9.65Z" transform="translate(-59.81 -183.44)"/><path class="cls-4" d="M322.33,440.29V473h-14.2V408q0-2.79,1.93-2.79h39.23a18.93,18.93,0,0,1,7.93,1.49,12.86,12.86,0,0,1,5.24,4.33,19,19,0,0,1,2.89,6.84,41.43,41.43,0,0,1,.9,9v4.84a39.68,39.68,0,0,1-.9,8.84,18.36,18.36,0,0,1-2.86,6.65,13.08,13.08,0,0,1-5.07,4.23,17.42,17.42,0,0,1-7.58,1.49h-3.27a12.6,12.6,0,0,1-1.55-.09v0.65q0.89,1.12,1.79,2.47t1.72,2.75l8,13.49V473h-16l-17.72-32.66h-0.48Zm1-18.15q-1,0-1,1.58v14.8h24.41a4.91,4.91,0,0,0,4-1.49q1.2-1.49,1.21-5.68V429q0-3.91-1.21-5.4a4.91,4.91,0,0,0-4-1.49H323.3Z" transform="translate(-59.81 -183.44)"/><path class="cls-4" d="M370.94,408q0-2.79,1.93-2.79h37.64a21.65,21.65,0,0,1,9.51,1.91,16.14,16.14,0,0,1,6.34,5.4,23.79,23.79,0,0,1,3.52,8.47A51.54,51.54,0,0,1,431,432.1v14a51.54,51.54,0,0,1-1.1,11.12,23.79,23.79,0,0,1-3.52,8.47A16.13,16.13,0,0,1,420,471a21.63,21.63,0,0,1-9.51,1.91H390.24l-4.55-15.82h-0.55V473h-14.2V408Zm14.2,47.37H409.2q4.07,0,5.79-2.42t1.72-8.56V433q0-6.33-1.72-8.61t-5.79-2.28h-23a0.86,0.86,0,0,0-.76.42,1.73,1.73,0,0,0-.28,1v31.83Z" transform="translate(-59.81 -183.44)"/><path class="cls-4" d="M481.73,428.65h-0.55v-7.45q0-1.12-.83-1.12H453.88a2.22,2.22,0,0,0-2,.84,4.39,4.39,0,0,0-.55,2.42V425a4.26,4.26,0,0,0,.48,2.51,3.33,3.33,0,0,0,1.86.84l31.16,5.86a16.45,16.45,0,0,1,5,1.72,10,10,0,0,1,3.38,3.07,12.52,12.52,0,0,1,1.86,4.7,34.57,34.57,0,0,1,.55,6.61v5.4a32.41,32.41,0,0,1-.76,7.4,13.69,13.69,0,0,1-2.48,5.4,10.62,10.62,0,0,1-4.55,3.3,19,19,0,0,1-7,1.12H436.23V455.36h40.06a2.67,2.67,0,0,0,2.38-.88,6,6,0,0,0,.59-3.12V449.5a4.88,4.88,0,0,0-.45-2.47,2.37,2.37,0,0,0-1.76-.88L447,441a18.8,18.8,0,0,1-5.21-1.68,10,10,0,0,1-3.55-3,12.11,12.11,0,0,1-2-4.56,29,29,0,0,1-.62-6.42v-4.75q0-7.35,2.9-11.4t9.65-4h44.61q2.14,0,2.14,3v14Z" transform="translate(-59.81 -183.44)"/><path class="cls-3" d="M167.36,372.51v0.22l-2.26,19.44a1.23,1.23,0,0,1-.18.6,0.6,0.6,0,0,1-.5.18H158a0.87,0.87,0,0,1-.95-0.84l-2.41-14.41a0.24,0.24,0,0,0-.24-0.25h-0.19a0.26,0.26,0,0,0-.28.25l-2.11,14.41a0.87,0.87,0,0,1-.95.84h-6.23a0.58,0.58,0,0,1-.49-0.2,1.17,1.17,0,0,1-.19-0.59l-2.47-19.44v-0.22h4.43L147.77,388a0.33,0.33,0,0,0,.32.36h0.21a0.35,0.35,0,0,0,.32-0.36l2.23-14.75a0.87,0.87,0,0,1,.23-0.56,0.85,0.85,0,0,1,.59-0.17h5.41a0.77,0.77,0,0,1,.82.73L160.4,388a0.34,0.34,0,0,0,.3.36h0.24a0.34,0.34,0,0,0,.37-0.36l1.53-15.48h4.53Z" transform="translate(-59.81 -183.44)"/><path class="cls-3" d="M186.64,393h-5.11v-0.22l7.84-19.55a1.48,1.48,0,0,1,.3-0.53,0.75,0.75,0,0,1,.52-0.14h5.39a0.8,0.8,0,0,1,.53.14,1.57,1.57,0,0,1,.33.53l7.78,19.55V393H190.83l-1.29-4.44V388H196l0.69,0,0.58,0.06,0.06-.2c-0.09-.21-0.18-0.41-0.27-0.6s-0.2-.44-0.31-0.72l-0.41-1q-0.24-.59-0.58-1.49l-2.47-6.46a0.3,0.3,0,0,0-.3-0.2h-0.26a0.29,0.29,0,0,0-.28.2Z" transform="translate(-59.81 -183.44)"/><path class="cls-3" d="M226.8,377.62V393h-4.43V377.62h-6.49l-1.44-4.89v-0.22h20.73q0.62,0,.62.84v5.31l-4.1,2h-0.17v-2.72q0-.31-0.24-0.31H226.8Z" transform="translate(-59.81 -183.44)"/><path class="cls-3" d="M256.83,381.13h-0.15v6.12q0,0.39.3,0.39h13.19V393h-17.3q-0.62,0-.62-0.84V373.35q0-.84.62-0.84h16.8q0.64,0,.64.84v5.31l-4.1,2h-0.17v-2.72q0-.31-0.21-0.31H257a0.22,0.22,0,0,0-.23.13,0.68,0.68,0,0,0-.05.27v2.56H264v4.16h-6.12Z" transform="translate(-59.81 -183.44)"/><path class="cls-3" d="M291.56,383.1V393h-4.43V373.35q0-.84.6-0.84H300a6.07,6.07,0,0,1,2.47.45,4,4,0,0,1,1.63,1.31,5.63,5.63,0,0,1,.9,2.06,12.15,12.15,0,0,1,.28,2.73v1.46a11.63,11.63,0,0,1-.28,2.67,5.45,5.45,0,0,1-.89,2,4,4,0,0,1-1.58,1.28,5.58,5.58,0,0,1-2.36.45h-1l-0.48,0v0.2q0.28,0.34.56,0.74t0.54,0.83l2.49,4.07V393h-5l-5.52-9.86h-0.15Zm0.3-5.48q-0.3,0-.3.48v4.47h7.61a1.56,1.56,0,0,0,1.26-.45,2.8,2.8,0,0,0,.38-1.71v-0.7a2.61,2.61,0,0,0-.38-1.63,1.56,1.56,0,0,0-1.26-.45h-7.31Z" transform="translate(-59.81 -183.44)"/><path class="cls-3" d="M326.17,372.51v14.44a1,1,0,0,0,.11.51,0.45,0.45,0,0,0,.41.17h12.25V393H322.88a1,1,0,0,1-.88-0.41,2.19,2.19,0,0,1-.26-1.17V372.51h4.43Z" transform="translate(-59.81 -183.44)"/><path class="cls-3" d="M374.41,384.84a15.12,15.12,0,0,1-.34,3.36,7.07,7.07,0,0,1-1.1,2.56,5,5,0,0,1-2,1.63,6.86,6.86,0,0,1-3,.58h-7a6.94,6.94,0,0,1-3-.58,5,5,0,0,1-2-1.63,7.07,7.07,0,0,1-1.1-2.56,15.06,15.06,0,0,1-.34-3.36v-4.21a15.07,15.07,0,0,1,.34-3.36,7.07,7.07,0,0,1,1.1-2.56,5,5,0,0,1,2-1.63,6.94,6.94,0,0,1,3-.58h7a6.86,6.86,0,0,1,3,.58,5,5,0,0,1,2,1.63,7.07,7.07,0,0,1,1.1,2.56,15.12,15.12,0,0,1,.34,3.36v4.21Zm-15.28-.51a7.33,7.33,0,0,0,.16,1.71,2.07,2.07,0,0,0,.52,1,1.84,1.84,0,0,0,.92.48,6.6,6.6,0,0,0,1.41.13h5.5a3,3,0,0,0,1.17-.2,1.47,1.47,0,0,0,.72-0.66,3.47,3.47,0,0,0,.35-1.25,16.29,16.29,0,0,0,.1-1.94v-2.7a4.48,4.48,0,0,0-.54-2.58,2.14,2.14,0,0,0-1.81-.7h-6.17a3,3,0,0,0-1.17.2,1.47,1.47,0,0,0-.72.66,3.44,3.44,0,0,0-.35,1.24,15.92,15.92,0,0,0-.1,1.92v2.7Z" transform="translate(-59.81 -183.44)"/><path class="cls-3" d="M410.78,384.84a15.12,15.12,0,0,1-.34,3.36,7.07,7.07,0,0,1-1.1,2.56,5,5,0,0,1-2,1.63,6.86,6.86,0,0,1-3,.58h-7a6.94,6.94,0,0,1-3-.58,5,5,0,0,1-2-1.63,7.07,7.07,0,0,1-1.1-2.56,15.06,15.06,0,0,1-.34-3.36v-4.21a15.07,15.07,0,0,1,.34-3.36,7.07,7.07,0,0,1,1.1-2.56,5,5,0,0,1,2-1.63,6.94,6.94,0,0,1,3-.58h7a6.86,6.86,0,0,1,3,.58,5,5,0,0,1,2,1.63,7.07,7.07,0,0,1,1.1,2.56,15.12,15.12,0,0,1,.34,3.36v4.21Zm-15.28-.51a7.33,7.33,0,0,0,.16,1.71,2.07,2.07,0,0,0,.52,1,1.84,1.84,0,0,0,.92.48,6.6,6.6,0,0,0,1.41.13H404a3,3,0,0,0,1.17-.2,1.47,1.47,0,0,0,.72-0.66,3.47,3.47,0,0,0,.35-1.25,16.29,16.29,0,0,0,.1-1.94v-2.7a4.48,4.48,0,0,0-.54-2.58,2.14,2.14,0,0,0-1.81-.7h-6.17a3,3,0,0,0-1.17.2,1.47,1.47,0,0,0-.72.66,3.44,3.44,0,0,0-.35,1.24,15.92,15.92,0,0,0-.1,1.92v2.7Z" transform="translate(-59.81 -183.44)"/></svg>