<?xml version="1.0" encoding="utf-8"?>
<!-- Svg Vector Icons : http://www.onlinewebfonts.com/icon -->
<!DOCTYPE svg PUBLIC "-//W3C//DTD SVG 1.1//EN" "http://www.w3.org/Graphics/SVG/1.1/DTD/svg11.dtd">
<svg version="1.1" xmlns="http://www.w3.org/2000/svg" xmlns:xlink="http://www.w3.org/1999/xlink" x="0px" y="0px" viewBox="0 0 1000 1000" enable-background="new 0 0 1000 1000" xml:space="preserve">
<metadata> Svg Vector Icons : http://www.onlinewebfonts.com/icon </metadata>
<g><g><path d="M581.8,491.5L467.2,438c-10-4.6-18.2,0.6-18.2,11.6v100.8c0,11.1,8.2,16.3,18.2,11.6l114.6-53.5C591.8,503.8,591.8,496.2,581.8,491.5z M500,10C229.4,10,10,229.4,10,500c0,270.6,219.4,490,490,490c270.6,0,490-219.4,490-490C990,229.4,770.6,10,500,10z M500,699.1c-250.8,0-255.2-22.6-255.2-199.1c0-176.5,4.4-199.1,255.2-199.1c250.8,0,255.2,22.6,255.2,199.1C755.2,676.5,750.8,699.1,500,699.1z"/></g></g>
</svg>